<?xml version="1.0" encoding="UTF-8" standalone="no"?>
<!-- Uploaded to: SVG Repo, www.svgrepo.com, Generator: SVG Repo Mixer Tools -->

<svg
   width="800px"
   height="800px"
   viewBox="0 0 1024 1024"
   class="icon"
   version="1.1"
   id="svg24"
   sodipodi:docname="trash-can-svgrepo-com.svg"
   inkscape:version="1.2.2 (732a01da63, 2022-12-09)"
   xmlns:inkscape="http://www.inkscape.org/namespaces/inkscape"
   xmlns:sodipodi="http://sodipodi.sourceforge.net/DTD/sodipodi-0.dtd"
   xmlns="http://www.w3.org/2000/svg"
   xmlns:svg="http://www.w3.org/2000/svg">
  <defs
     id="defs28" />
  <sodipodi:namedview
     id="namedview26"
     pagecolor="#ffffff"
     bordercolor="#000000"
     borderopacity="0.25"
     inkscape:showpageshadow="2"
     inkscape:pageopacity="0.0"
     inkscape:pagecheckerboard="0"
     inkscape:deskcolor="#d1d1d1"
     showgrid="false"
     inkscape:zoom="0.76279144"
     inkscape:cx="140.92974"
     inkscape:cy="398.5362"
     inkscape:window-width="1920"
     inkscape:window-height="1017"
     inkscape:window-x="-8"
     inkscape:window-y="-8"
     inkscape:window-maximized="1"
     inkscape:current-layer="svg24" />
  <g
     id="g322"
     transform="matrix(0.97045692,0,0,1,15.611285,20.774925)">
    <path
       d="m 773.13884,396.47855 h 57.57689 c 6.90196,0 12.62333,5.63055 12.62333,12.62333 v 26.97214 c 0,6.90196 -5.63055,12.62332 -12.62333,12.62332 h -57.57689 z"
       fill="#a4a9ad"
       id="path2"
       style="stroke-width:0.908153" />
    <path
       d="m 773.13884,396.47855 h 26.88133 v 52.21879 h -26.88133 z"
       fill=""
       id="path4"
       style="fill:#4d4d4d;stroke-width:0.908153" />
    <path
       d="m 249.86116,396.47855 h -57.57689 c -6.90196,0 -12.62333,5.63055 -12.62333,12.62333 v 26.97214 c 0,6.90196 5.63055,12.62332 12.62333,12.62332 h 57.57689 z"
       fill="#a4a9ad"
       id="path6"
       style="stroke-width:0.908153" />
    <path
       d="m 222.97983,396.47855 h 26.88133 v 52.21879 h -26.88133 z"
       fill=""
       id="path8"
       style="fill:#4d4d4d;stroke-width:0.908153" />
    <path
       d="M 686.6,214.2 H 615.9 V 158 c 0,-11.7 -9.9,-21.7 -21.7,-21.7 H 428.7 C 417,136.3 407,146.2 407,158 v 56.2 H 336.3 V 158 c 0,-50.9 41.4,-92.4 92.4,-92.4 h 165.5 c 50.9,0 92.4,41.4 92.4,92.4 z"
       fill="#a4a9ad"
       id="path10" />
    <path
       d="M 686.4,151.8 H 615 c 0.6,2 0.9,4 0.9,6.2 v 56.2 h 70.7 V 158 c 0,-2.1 -0.1,-4.1 -0.2,-6.2 z M 336.3,158 v 56.2 H 407 V 158 c 0,-2.1 0.3,-4.2 0.9,-6.2 h -71.4 c -0.1,2.1 -0.2,4.1 -0.2,6.2 z"
       fill=""
       id="path12"
       style="fill:#4d4d4d" />
    <path
       d="M 776.4,208.8 C 776.4,190 761,174.6 742.2,174.6 H 280.8 c -18.8,0 -34.2,15.4 -34.2,34.2 v 48.9 c 0,18.8 15.4,34.2 34.2,34.2 h 461.4 c 18.8,0 34.2,-15.4 34.2,-34.2 z"
       fill="#d1d3d3"
       id="path14" />
    <path
       d="M 775.7,202.1 H 247.2 c -0.4,2.2 -0.7,4.4 -0.7,6.7 v 48.9 c 0,18.8 15.4,34.2 34.2,34.2 h 461.4 c 18.8,0 34.2,-15.4 34.2,-34.2 v -48.9 c 0.1,-2.3 -0.1,-4.5 -0.6,-6.7 z"
       fill=""
       id="path16"
       style="fill:#4d4d4d" />
    <path
       d="m 239.05414,318.64985 v 550.88553 c 0,26.06399 21.34159,47.31477 47.31476,47.31477 h 450.17138 c 26.06399,0 47.31476,-21.3416 47.31476,-47.31477 V 318.64985 Z"
       fill="#d1d3d3"
       id="path18"
       style="stroke-width:0.908153" />
    <path
       d="m 239.05414,843.19895 v 26.33643 c 0,26.06399 21.34159,47.31477 47.31476,47.31477 h 450.17138 c 26.06399,0 47.31476,-21.3416 47.31476,-47.31477 v -26.33643 z m 0,-524.5491 H 783.94586 V 386.0348 H 239.05414 Z"
       fill=""
       id="path20"
       style="fill:#4d4d4d;stroke-width:0.908153" />
    <path
       d="m 852.3,263.7 c 0,-18.8 -15.4,-34.2 -34.2,-34.2 H 204.9 c -18.8,0 -34.2,15.4 -34.2,34.2 v 35.2 c 0,18.8 15.4,34.2 34.2,34.2 h 613.2 c 18.8,0 34.2,-15.4 34.2,-34.2 z M 511.5,818.1 c -19.5,0 -35.4,-15.8 -35.4,-35.4 V 451 c 0,-19.5 15.8,-35.4 35.4,-35.4 19.6,0 35.4,15.8 35.4,35.4 v 331.8 c -0.1,19.5 -15.9,35.3 -35.4,35.3 z m -163.5,0 c -19.5,0 -35.4,-15.8 -35.4,-35.4 V 451 c 0,-19.5 15.8,-35.4 35.4,-35.4 19.5,0 35.4,15.8 35.4,35.4 v 331.8 c 0,19.5 -15.9,35.3 -35.4,35.3 z m 326.9,0 c -19.5,0 -35.4,-15.8 -35.4,-35.4 V 451 c 0,-19.5 15.8,-35.4 35.4,-35.4 19.5,0 35.4,15.8 35.4,35.4 v 331.8 c 0,19.5 -15.8,35.3 -35.4,35.3 z"
       fill="#a4a9ad"
       id="path22" />
  </g>
</svg>
