<?xml version="1.0" encoding="UTF-8" standalone="no"?>
<svg
   role="img"
   focusable="false"
   aria-hidden="true"
   viewBox="0 0 14 14"
   id="svg2"
   version="1.1"
   inkscape:version="1.3.2 (091e20e, 2023-11-25, custom)"
   width="100%"
   height="100%"
   sodipodi:docname="roi.svg"
   xmlns:inkscape="http://www.inkscape.org/namespaces/inkscape"
   xmlns:sodipodi="http://sodipodi.sourceforge.net/DTD/sodipodi-0.dtd"
   xmlns="http://www.w3.org/2000/svg"
   xmlns:svg="http://www.w3.org/2000/svg"
   xmlns:rdf="http://www.w3.org/1999/02/22-rdf-syntax-ns#"
   xmlns:cc="http://creativecommons.org/ns#"
   xmlns:dc="http://purl.org/dc/elements/1.1/">
  <metadata
     id="metadata12">
    <rdf:RDF>
      <cc:Work
         rdf:about="">
        <dc:format>image/svg+xml</dc:format>
        <dc:type
           rdf:resource="http://purl.org/dc/dcmitype/StillImage" />
      </cc:Work>
    </rdf:RDF>
  </metadata>
  <defs
     id="defs10" />
  <sodipodi:namedview
     pagecolor="#000000"
     bordercolor="#666666"
     borderopacity="1"
     objecttolerance="10"
     gridtolerance="10"
     guidetolerance="10"
     inkscape:pageopacity="0"
     inkscape:pageshadow="2"
     inkscape:window-width="1920"
     inkscape:window-height="1009"
     id="namedview8"
     showgrid="false"
     inkscape:zoom="16.857143"
     inkscape:cx="7.118644"
     inkscape:cy="7.029661"
     inkscape:window-x="1912"
     inkscape:window-y="-8"
     inkscape:window-maximized="1"
     inkscape:current-layer="svg2"
     inkscape:showpageshadow="2"
     inkscape:pagecheckerboard="false"
     inkscape:deskcolor="#000000" />
  <path
     d="M 12.853106,9.585401 V 4.4145982 c 0.485809,-0.1730847 0.83616,-0.6321355 0.83616,-1.1773101 0,-0.6923388 -0.561898,-1.2542373 -1.254238,-1.2542373 -0.545174,0 -1.004226,0.3503495 -1.177311,0.8361579 H 2.742282 C 2.5691972,2.3334 2.1101465,1.9830508 1.5649712,1.9830508 c -0.69233883,0 -1.25423716,0.5618985 -1.25423716,1.2542373 0,0.5451746 0.35035027,1.0042256 0.83615816,1.1773101 V 9.585401 c -0.48580789,0.173085 -0.83615816,0.632136 -0.83615816,1.177311 0,0.69234 0.56189833,1.254238 1.25423716,1.254238 0.5451753,0 1.004226,-0.350351 1.1773108,-0.83616 h 8.515435 c 0.173085,0.48581 0.632137,0.83616 1.177311,0.83616 0.69234,0 1.254238,-0.561898 1.254238,-1.254238 0,-0.545176 -0.350351,-1.004226 -0.83616,-1.177311 z m -1.595389,0.759232 H 2.742282 C 2.6168582,9.9901021 2.3375814,9.7116612 1.9830504,9.585401 V 4.4145982 C 2.3375814,4.2883432 2.6160222,4.0098983 2.742282,3.6553661 h 8.515435 c 0.126256,0.3545322 0.404701,0.6329728 0.759232,0.7592321 V 9.585401 c -0.354531,0.1262549 -0.633808,0.4047011 -0.759232,0.759232 z"
     id="path6"
     inkscape:connector-curvature="0"
     style="fill:#4949ff;fill-opacity:1;stroke-width:1.67231" />
  <path
     style="fill:#ffffff;fill-opacity:1;stroke:none;stroke-width:0.0118644;stroke-linecap:square;stroke-dasharray:none;stroke-dashoffset:1.1932;stroke-opacity:1"
     d="M 2.676311,10.158898 C 2.579,9.9725962 2.3170567,9.7163019 2.1207627,9.6153304 L 1.9872881,9.546673 V 6.9994361 4.4521993 l 0.1631356,-0.08521 C 2.336726,4.2696779 2.5930203,4.0077346 2.6939913,3.8114406 l 0.068658,-0.1334745 h 4.237351 4.2373507 l 0.06866,0.1334745 c 0.100972,0.196294 0.357266,0.4582373 0.543568,0.5555483 l 0.163136,0.08521 v 2.5478006 2.5478007 l -0.163136,0.08521 C 11.663274,9.730322 11.40698,9.992265 11.306008,10.188559 l -0.06866,0.133475 H 6.9994361 2.7615213 Z"
     id="path1" />
  <text
     xml:space="preserve"
     style="font-size:6.1136px;line-height:0.85;font-family:'Franklin Gothic Demi Cond';-inkscape-font-specification:'Franklin Gothic Demi Cond';text-align:center;letter-spacing:0px;text-anchor:middle;opacity:1;fill:#4d4d4d;fill-opacity:1;stroke:none;stroke-width:0.224032;stroke-linecap:square;stroke-dasharray:none;stroke-opacity:1"
     x="7"
     y="9.0373688"
     id="text1"><tspan
       sodipodi:role="line"
       id="tspan1"
       x="7"
       y="9.0373688"
       style="font-style:normal;font-variant:normal;font-weight:normal;font-stretch:normal;font-size:6.1136px;font-family:'Franklin Gothic Medium';-inkscape-font-specification:'Franklin Gothic Medium, ';fill:#4d4d4d;fill-opacity:1;stroke:none;stroke-width:0.224032;stroke-dasharray:none;stroke-opacity:1">ROI</tspan></text>
</svg>
