<?xml version="1.0" encoding="UTF-8" standalone="no"?>
<svg
   role="img"
   focusable="false"
   aria-hidden="true"
   viewBox="0 0 14 14"
   id="svg2"
   version="1.1"
   inkscape:version="1.3.2 (091e20e, 2023-11-25, custom)"
   width="100%"
   height="100%"
   sodipodi:docname="roi_delete.svg"
   xmlns:inkscape="http://www.inkscape.org/namespaces/inkscape"
   xmlns:sodipodi="http://sodipodi.sourceforge.net/DTD/sodipodi-0.dtd"
   xmlns="http://www.w3.org/2000/svg"
   xmlns:svg="http://www.w3.org/2000/svg"
   xmlns:rdf="http://www.w3.org/1999/02/22-rdf-syntax-ns#"
   xmlns:cc="http://creativecommons.org/ns#"
   xmlns:dc="http://purl.org/dc/elements/1.1/">
  <metadata
     id="metadata12">
    <rdf:RDF>
      <cc:Work
         rdf:about="">
        <dc:format>image/svg+xml</dc:format>
        <dc:type
           rdf:resource="http://purl.org/dc/dcmitype/StillImage" />
      </cc:Work>
    </rdf:RDF>
  </metadata>
  <defs
     id="defs10" />
  <sodipodi:namedview
     pagecolor="#ffffff"
     bordercolor="#666666"
     borderopacity="1"
     objecttolerance="10"
     gridtolerance="10"
     guidetolerance="10"
     inkscape:pageopacity="0"
     inkscape:pageshadow="2"
     inkscape:window-width="1920"
     inkscape:window-height="1009"
     id="namedview8"
     showgrid="false"
     inkscape:zoom="16.857143"
     inkscape:cx="7.118644"
     inkscape:cy="7.088983"
     inkscape:window-x="-8"
     inkscape:window-y="-8"
     inkscape:window-maximized="1"
     inkscape:current-layer="svg2"
     inkscape:showpageshadow="2"
     inkscape:pagecheckerboard="0"
     inkscape:deskcolor="#d1d1d1" />
  <path
     d="M 12.6455,9.493698 V 4.5063016 c 0.468577,-0.1669455 0.8065,-0.609714 0.8065,-1.1355515 0,-0.6677818 -0.541968,-1.20975 -1.20975,-1.20975 -0.525838,0 -0.968606,0.3379227 -1.135552,0.8064997 H 2.8933021 C 2.7263565,2.4989226 2.283588,2.1610001 1.75775,2.1610001 c -0.667782,0 -1.20974995,0.5419682 -1.20974995,1.20975 0,0.5258375 0.3379235,0.9686062 0.80649995,1.1355515 V 9.493698 c -0.46857645,0.166945 -0.80649995,0.609714 -0.80649995,1.135552 0,0.667782 0.54196795,1.20975 1.20975005,1.20975 0.525838,0 0.9686065,-0.337924 1.135552,-0.806502 h 8.2133959 c 0.166946,0.468578 0.609714,0.806502 1.135552,0.806502 0.667782,0 1.20975,-0.541968 1.20975,-1.20975 0,-0.525838 -0.337923,-0.968607 -0.8065,-1.135552 z M 11.106698,10.226 H 2.8933021 C 2.772327,9.884044 2.5029561,9.615479 2.161,9.493698 V 4.5063016 C 2.5029561,4.384525 2.7715206,4.1159561 2.8933021,3.7739992 H 11.106698 C 11.22848,4.1159561 11.497044,4.3845206 11.839,4.5063016 V 9.493698 C 11.497044,9.615479 11.227673,9.884044 11.106698,10.226 Z"
     id="path6"
     inkscape:connector-curvature="0"
     style="fill:#808080;fill-opacity:1;stroke-width:1.613" />
  <g
     transform="translate(5.2195116,-1039.4354)"
     id="g10">
    <circle
       cx="1.7804884"
       cy="1046.4354"
       r="2.9268293"
       fill="#f44336"
       id="circle2" />
    <g
       fill="#ffffff"
       id="g8">
      <path
         d="m 3.334781,1047.3665 -0.6207805,0.6208 -2.48312193,-2.4831 0.6207805,-0.6208 z"
         id="path4" />
      <path
         d="m 0.8493176,1047.9896 -0.6207805,-0.6207 2.483122,-2.4832 0.6207805,0.6208 z"
         id="path6-2" />
    </g>
  </g>
</svg>
