<?xml version="1.0" encoding="UTF-8" standalone="no"?>
  <svg
 role="img"
 focusable="false"
 aria-hidden="true"
 viewBox="0 0 14 14"
 version="1.1"
 id="svg2"
 xmlns="http://www.w3.org/2000/svg">
  <g
 id="g1"
 transform="matrix(1.0969529,0,0,1.0969529,-0.67867037,-0.83509158)">
  <path
 fill="#ffa000"
 d="M 10.578686,5.9293656 H 6.5526642 L 5.6579926,5.034694 H 3.4213135 c -0.4920694,0 -0.8946716,0.4026022 -0.8946716,0.8946716 V 7.7187089 H 11.473358 V 6.8240373 c 0,-0.4920695 -0.402602,-0.8946717 -0.894672,-0.8946717 z"
 id="path1" stroke-width="0.74556" />
  <path
 fill="#ffca28"
 d="M 10.578686,5.9293656 H 3.4213135 c -0.4920694,0 -0.8946716,0.4026022 -0.8946716,0.8946717 v 4.4733437 c 0,0.492069 0.4026022,0.894671 0.8946716,0.894671 h 7.1573725 c 0.49207,0 0.894672,-0.402602 0.894672,-0.894671 V 6.8240373 c 0,-0.4920695 -0.402602,-0.8946717 -0.894672,-0.8946717 z"
 id="path2" stroke-width="0.74556" />
  </g>
  <g
 fill="#1565c0"
 id="g2"
 transform="matrix(-0.2722197,0,0,-0.2722197,13.533273,11.328875)">
  <path
 d="M 24,38.7 15,28 h 18 z"
 id="path1-0" />
  <path
 d="m 21,5 h 6 v 26 h -6 z"
 id="path2-9" />
  </g>
</svg>
