<?xml version="1.0" encoding="UTF-8" standalone="no"?>
  <svg
 role="img"
 focusable="false"
 aria-hidden="true"
 viewBox="0 0 14 14"
 version="1.1"
 id="svg14"
 xmlns:xlink="http://www.w3.org/1999/xlink"
 xmlns="http://www.w3.org/2000/svg">
  <defs
 id="defs18">
  <linearGradient
 id="BlueGreen"
 gradientUnits="userSpaceOnUse"
 y1="20"
 x1="0"
 y2="180"
 x2="0"
 xlink:href="#linearGradientStops"
 gradientTransform="matrix(0.01229036,0,0,0.01229036,4.0293076,3.003469)" />
  <linearGradient
 id="linearGradientStops">
  <stop
 offset="0"
 style="stop-color:#0515fe"
 id="stop2" />
  <stop
 offset="1"
 style="stop-color:#2cab28"
 id="stop4" />
  </linearGradient>
  </defs>
  <g
 id="g973"
 transform="translate(-2.307e-4,-2.307e-4)">
  <path
 fill="#4d4d4d"
 d="M 12.75,1.2692307 V 12.75 H 2.863782 L 1.2692307,11.155448 V 1.2692307 Z"
 id="path2" stroke-width="0.956731" />
  <path
 fill="#ffffff"
 d="m 2.2259614,2.2259614 c 0,-0.1763573 0.1425529,-0.3189101 0.3189103,-0.3189101 h 8.9294863 c 0.176358,0 0.318911,0.1425528 0.318911,0.3189101 v 4.4647434 c 0,0.1763574 -0.142553,0.3189103 -0.318911,0.3189103 H 2.5448717 c -0.1763574,0 -0.3189103,-0.1425529 -0.3189103,-0.3189103 z"
 id="path4" stroke-width="0.956731" />
  <path
 d="M 11.793269,12.75 V 9.560897 c 0,-0.3520769 -0.285744,-0.6378204 -0.637821,-0.6378204 H 6.3717946 c -0.3520769,0 -0.6378205,0.2857435 -0.6378205,0.6378204 V 12.75 Z"
 id="path8" fill="#333333" stroke-width="0.956731" />
  <path
 fill="#b0bec5"
 d="M 9.8798073,12.75 V 9.560897 c 0,-0.3520769 -0.2857436,-0.6378204 -0.6378206,-0.6378204 H 4.4583332 c -0.3520769,0 -0.6378205,0.2857435 -0.6378205,0.6378204 V 12.75 Z"
 id="path10" stroke-width="0.956731" />
  <path
 d="M 6.3717946,12.112179 H 5.0961536 V 9.560897 h 1.275641 z"
 id="path12" fill="#333333" stroke-width="0.956731" />
  </g>
  <g
 id="g22811"
 transform="matrix(0.62768095,0,-0.02969522,0.62768095,2.9689011,0.32575786)">
  <rect
 id="rect10749"
 width="2"
 height="2"
 x="2.5999999"
 y="2.5999999" fill="#0060ff" fill-opacity="1" stroke="none" stroke-width="0.402" stroke-opacity="1" />
  <rect
 id="rect10749-7"
 width="2"
 height="2"
 x="2.5999999"
 y="4.5999999" fill="#ff7200" fill-opacity="1" stroke="none" stroke-width="0.402" stroke-opacity="1" />
  <rect
 id="rect10749-1"
 width="2"
 height="2"
 x="4.5999999"
 y="2.5999999" fill="#ff4300" fill-opacity="1" stroke="none" stroke-width="0.402" stroke-opacity="1" />
  <rect
 id="rect10749-7-5"
 width="2"
 height="2"
 x="4.5999999"
 y="4.5999999" fill="#ffbb00" fill-opacity="1" stroke="none" stroke-width="0.402" stroke-opacity="1" />
  <rect
 id="rect10749-8"
 width="2"
 height="2"
 x="6.5999999"
 y="2.5999999" fill="#00acff" fill-opacity="1" stroke="none" stroke-width="0.402" stroke-opacity="1" />
  <rect
 id="rect10749-7-0"
 width="2"
 height="2"
 x="6.5999999"
 y="4.5999999" fill="#ff3200" fill-opacity="1" stroke="none" stroke-width="0.402" stroke-opacity="1" />
  <rect
 id="rect10749-1-4"
 width="2"
 height="2"
 x="8.6000004"
 y="2.5999999" fill="#0000fb" fill-opacity="1" stroke="none" stroke-width="0.402" stroke-opacity="1" />
  <rect
 id="rect10749-7-5-5"
 width="2"
 height="2"
 x="8.6000004"
 y="4.5999999" fill="#28ffcf" fill-opacity="1" stroke="none" stroke-width="0.402" stroke-opacity="1" />
  <rect
 id="rect10749-84"
 width="2"
 height="2"
 x="2.5999999"
 y="6.5999999" fill="#1fffd8" fill-opacity="1" stroke="none" stroke-width="0.402" stroke-opacity="1" />
  <rect
 id="rect10749-7-8"
 width="2"
 height="2"
 x="2.5999999"
 y="8.6000004" fill="#b80000" fill-opacity="1" stroke="none" stroke-width="0.402" stroke-opacity="1" />
  <rect
 id="rect10749-1-1"
 width="2"
 height="2"
 x="4.5999999"
 y="6.5999999" fill="#0000cf" fill-opacity="1" stroke="none" stroke-width="0.402" stroke-opacity="1" />
  <rect
 id="rect10749-7-5-4"
 width="2"
 height="2"
 x="4.5999999"
 y="8.6000004" fill="#40ffb7" fill-opacity="1" stroke="none" stroke-width="0.402" stroke-opacity="1" />
  <rect
 id="rect10749-8-8"
 width="2"
 height="2"
 x="6.5999999"
 y="6.5999999" fill="#c4ff33" fill-opacity="1" stroke="none" stroke-width="0.402" stroke-opacity="1" />
  <rect
 id="rect10749-7-0-4"
 width="2"
 height="2"
 x="6.5999999"
 y="8.6000004" fill="#910000" fill-opacity="1" stroke="none" stroke-width="0.402" stroke-opacity="1" />
  <rect
 id="rect10749-1-4-3"
 width="2"
 height="2"
 x="8.6000004"
 y="6.5999999" fill="#0000ff" fill-opacity="1" stroke="none" stroke-width="0.402" stroke-opacity="1" />
  <rect
 id="rect10749-7-5-5-3"
 width="2"
 height="2"
 x="8.6000004"
 y="8.6000004" fill="#44ffb3" fill-opacity="1" stroke="none" stroke-width="0.402" stroke-opacity="1" />
  </g>
</svg>
