<?xml version="1.0" encoding="UTF-8" standalone="no"?>
<svg
   role="img"
   focusable="false"
   aria-hidden="true"
   viewBox="0 0 14 14"
   version="1.1"
   id="svg14"
   sodipodi:docname="filesave_py.svg"
   inkscape:version="1.2.2 (732a01da63, 2022-12-09)"
   xmlns:inkscape="http://www.inkscape.org/namespaces/inkscape"
   xmlns:sodipodi="http://sodipodi.sourceforge.net/DTD/sodipodi-0.dtd"
   xmlns:xlink="http://www.w3.org/1999/xlink"
   xmlns="http://www.w3.org/2000/svg"
   xmlns:svg="http://www.w3.org/2000/svg">
  <defs
     id="defs18">
    <linearGradient
       id="BlueGreen"
       gradientUnits="userSpaceOnUse"
       y1="20"
       x1="0"
       y2="180"
       x2="0"
       xlink:href="#linearGradientStops"
       gradientTransform="matrix(0.01229036,0,0,0.01229036,4.0293076,3.003469)" />
    <linearGradient
       id="linearGradientStops">
      <stop
         offset="0"
         style="stop-color:#0515fe"
         id="stop2" />
      <stop
         offset="1"
         style="stop-color:#2cab28"
         id="stop4" />
    </linearGradient>
    <linearGradient
       x1="26.648937"
       y1="20.603781"
       x2="135.66525"
       y2="114.39767"
       id="linearGradient1478"
       xlink:href="#linearGradient4689"
       gradientUnits="userSpaceOnUse"
       gradientTransform="matrix(0.562541,0,0,0.567972,-9.399749,-5.305317)" />
    <linearGradient
       id="linearGradient4689">
      <stop
         style="stop-color:#5a9fd4;stop-opacity:1"
         offset="0"
         id="stop4691" />
      <stop
         style="stop-color:#306998;stop-opacity:1"
         offset="1"
         id="stop4693" />
    </linearGradient>
    <linearGradient
       x1="150.96111"
       y1="192.35176"
       x2="112.03144"
       y2="137.27299"
       id="linearGradient1475"
       xlink:href="#linearGradient4671"
       gradientUnits="userSpaceOnUse"
       gradientTransform="matrix(0.562541,0,0,0.567972,-9.399749,-5.305317)" />
    <linearGradient
       id="linearGradient4671">
      <stop
         style="stop-color:#ffd43b;stop-opacity:1"
         offset="0"
         id="stop4673" />
      <stop
         style="stop-color:#ffe873;stop-opacity:1"
         offset="1"
         id="stop4675" />
    </linearGradient>
  </defs>
  <sodipodi:namedview
     id="namedview16"
     pagecolor="#ffffff"
     bordercolor="#666666"
     borderopacity="1.0"
     inkscape:pageshadow="2"
     inkscape:pageopacity="0.0"
     inkscape:pagecheckerboard="0"
     showgrid="false"
     inkscape:zoom="59.428571"
     inkscape:cx="2.7007212"
     inkscape:cy="7.0504808"
     inkscape:window-width="1920"
     inkscape:window-height="1017"
     inkscape:window-x="-8"
     inkscape:window-y="-8"
     inkscape:window-maximized="1"
     inkscape:current-layer="svg14"
     inkscape:showpageshadow="2"
     inkscape:deskcolor="#d1d1d1" />
  <g
     id="g973"
     transform="translate(-2.307e-4,-2.307e-4)">
    <path
       d="M 12.75,1.2692307 V 12.75 H 2.863782 L 1.2692307,11.155448 V 1.2692307 Z"
       id="path2"  fill="#808080" fill-opacity="1" />
    <path
       fill="#ffffff"
       d="m 2.2259614,2.2259614 c 0,-0.1763573 0.1425529,-0.3189101 0.3189103,-0.3189101 h 8.9294863 c 0.176358,0 0.318911,0.1425528 0.318911,0.3189101 v 4.4647434 c 0,0.1763574 -0.142553,0.3189103 -0.318911,0.3189103 H 2.5448717 c -0.1763574,0 -0.3189103,-0.1425529 -0.3189103,-0.3189103 z"
       id="path4"
       style="stroke-width:0.956731" />
    <path
       d="M 11.793269,12.75 V 9.560897 c 0,-0.3520769 -0.285744,-0.6378204 -0.637821,-0.6378204 H 6.3717946 c -0.3520769,0 -0.6378205,0.2857435 -0.6378205,0.6378204 V 12.75 Z"
       id="path8"
       style="fill:#333333;stroke-width:0.956731" />
    <path
       fill="#b0bec5"
       d="M 9.8798073,12.75 V 9.560897 c 0,-0.3520769 -0.2857436,-0.6378204 -0.6378206,-0.6378204 H 4.4583332 c -0.3520769,0 -0.6378205,0.2857435 -0.6378205,0.6378204 V 12.75 Z"
       id="path10"
       style="stroke-width:0.956731" />
    <path
       d="M 6.3717946,12.112179 H 5.0961536 V 9.560897 h 1.275641 z"
       id="path12"
       style="fill:#333333;stroke-width:0.956731" />
  </g>
  <g
     id="g363"
     transform="matrix(0.04304922,0,0,0.04304922,4.2821981,1.7739347)">
    <path
       id="path1948"
       style="fill:url(#linearGradient1478);fill-opacity:1"
       d="m 60.510156,6.3979729 c -4.583653,0.021298 -8.960939,0.4122177 -12.8125,1.09375 C 36.35144,9.4962267 34.291407,13.691825 34.291406,21.429223 v 10.21875 h 26.8125 v 3.40625 h -26.8125 -10.0625 c -7.792459,0 -14.6157592,4.683717 -16.7500002,13.59375 -2.46182,10.212966 -2.5710151,16.586023 0,27.25 1.9059283,7.937852 6.4575432,13.593748 14.2500002,13.59375 h 9.21875 v -12.25 c 0,-8.849902 7.657144,-16.656248 16.75,-16.65625 h 26.78125 c 7.454951,0 13.406253,-6.138164 13.40625,-13.625 v -25.53125 c 0,-7.266339 -6.12998,-12.7247775 -13.40625,-13.9375001 -4.605987,-0.7667253 -9.385097,-1.1150483 -13.96875,-1.09375 z m -14.5,8.2187501 c 2.769547,0 5.03125,2.298646 5.03125,5.125 -2e-6,2.816336 -2.261703,5.09375 -5.03125,5.09375 -2.779476,-1e-6 -5.03125,-2.277415 -5.03125,-5.09375 -1e-6,-2.826353 2.251774,-5.125 5.03125,-5.125 z" />
    <path
       id="path1950"
       style="fill:url(#linearGradient1475);fill-opacity:1"
       d="m 91.228906,35.054223 v 11.90625 c 0,9.230755 -7.825895,16.999999 -16.75,17 h -26.78125 c -7.335833,0 -13.406249,6.278483 -13.40625,13.625 v 25.531247 c 0,7.26634 6.318588,11.54032 13.40625,13.625 8.487331,2.49561 16.626237,2.94663 26.78125,0 6.750155,-1.95439 13.406253,-5.88761 13.40625,-13.625 V 92.897973 h -26.78125 v -3.40625 h 26.78125 13.406254 c 7.79246,0 10.69625,-5.435408 13.40624,-13.59375 2.79933,-8.398886 2.68022,-16.475776 0,-27.25 -1.92578,-7.757441 -5.60387,-13.59375 -13.40624,-13.59375 z m -15.0625,64.65625 c 2.779478,3e-6 5.03125,2.277417 5.03125,5.093747 -2e-6,2.82635 -2.251775,5.125 -5.03125,5.125 -2.76955,0 -5.03125,-2.29865 -5.03125,-5.125 2e-6,-2.81633 2.261697,-5.093747 5.03125,-5.093747 z" />
  </g>
</svg>
