<?xml version="1.0" encoding="UTF-8" standalone="no"?>
<svg
   role="img"
   focusable="false"
   aria-hidden="true"
   viewBox="0 0 14 14"
   version="1.1"
   id="svg14"
   sodipodi:docname="filesave_sig.svg"
   inkscape:version="1.2.2 (732a01da63, 2022-12-09)"
   xmlns:inkscape="http://www.inkscape.org/namespaces/inkscape"
   xmlns:sodipodi="http://sodipodi.sourceforge.net/DTD/sodipodi-0.dtd"
   xmlns:xlink="http://www.w3.org/1999/xlink"
   xmlns="http://www.w3.org/2000/svg"
   xmlns:svg="http://www.w3.org/2000/svg">
  <defs
     id="defs18">
    <linearGradient
       id="BlueGreen"
       gradientUnits="userSpaceOnUse"
       y1="20"
       x1="0"
       y2="180"
       x2="0"
       xlink:href="#linearGradientStops"
       gradientTransform="matrix(0.01229036,0,0,0.01229036,4.0293076,3.003469)" />
    <linearGradient
       id="linearGradientStops">
      <stop
         offset="0"
         style="stop-color:#0515fe"
         id="stop2" />
      <stop
         offset="1"
         style="stop-color:#2cab28"
         id="stop4" />
    </linearGradient>
  </defs>
  <sodipodi:namedview
     id="namedview16"
     pagecolor="#ffffff"
     bordercolor="#666666"
     borderopacity="1.0"
     inkscape:pageshadow="2"
     inkscape:pageopacity="0.0"
     inkscape:pagecheckerboard="0"
     showgrid="false"
     inkscape:zoom="59.428571"
     inkscape:cx="2.7007212"
     inkscape:cy="7.0504808"
     inkscape:window-width="1920"
     inkscape:window-height="1017"
     inkscape:window-x="-8"
     inkscape:window-y="-8"
     inkscape:window-maximized="1"
     inkscape:current-layer="svg14"
     inkscape:showpageshadow="2"
     inkscape:deskcolor="#d1d1d1" />
  <g
     id="g973"
     transform="translate(-2.307e-4,-2.307e-4)">
    <path
       d="M 12.75,1.2692307 V 12.75 H 2.863782 L 1.2692307,11.155448 V 1.2692307 Z"
       id="path2"  fill="#808080" fill-opacity="1" />
    <path
       fill="#ffffff"
       d="m 2.2259614,2.2259614 c 0,-0.1763573 0.1425529,-0.3189101 0.3189103,-0.3189101 h 8.9294863 c 0.176358,0 0.318911,0.1425528 0.318911,0.3189101 v 4.4647434 c 0,0.1763574 -0.142553,0.3189103 -0.318911,0.3189103 H 2.5448717 c -0.1763574,0 -0.3189103,-0.1425529 -0.3189103,-0.3189103 z"
       id="path4"
       style="stroke-width:0.956731" />
    <path
       d="M 11.793269,12.75 V 9.560897 c 0,-0.3520769 -0.285744,-0.6378204 -0.637821,-0.6378204 H 6.3717946 c -0.3520769,0 -0.6378205,0.2857435 -0.6378205,0.6378204 V 12.75 Z"
       id="path8"
       style="fill:#333333;stroke-width:0.956731" />
    <path
       fill="#b0bec5"
       d="M 9.8798073,12.75 V 9.560897 c 0,-0.3520769 -0.2857436,-0.6378204 -0.6378206,-0.6378204 H 4.4583332 c -0.3520769,0 -0.6378205,0.2857435 -0.6378205,0.6378204 V 12.75 Z"
       id="path10"
       style="stroke-width:0.956731" />
    <path
       d="M 6.3717946,12.112179 H 5.0961536 V 9.560897 h 1.275641 z"
       id="path12"
       style="fill:#333333;stroke-width:0.956731" />
  </g>
  <g
     id="g1230"
     transform="matrix(0.6428317,0,0,0.6428317,2.6407995,-0.0474401)">
    <rect
       style="fill:#e6e6e6;fill-opacity:1;stroke:none;stroke-width:1.57074;stroke-opacity:1"
       id="rect10749-5"
       width="7.8104901"
       height="7.8187361"
       x="3.3771245"
       y="3.1234901"
       transform="matrix(1,0,-0.04725952,0.99888264,0,0)" />
    <rect
       style="fill:#696969;fill-opacity:0.817241;stroke-width:0.402"
       id="rect28089"
       width="0.47309414"
       height="7.6168156"
       x="6.7652464"
       y="3.1933856" />
    <rect
       style="fill:#696969;fill-opacity:0.817241;stroke-width:0.402"
       id="rect28089-7"
       width="0.47309414"
       height="7.6168156"
       x="6.6469727"
       y="-10.810202"
       transform="rotate(90)" />
    <path
       style="fill:none;fill-opacity:0.817241;stroke:#ff0000;stroke-width:0.402;stroke-opacity:1"
       d="m 3.5245514,10.005941 c 0,0.09462 1.5139012,-0.5677129 1.5139012,-0.5677129 L 5.9846409,8.2081834 7.0727574,5.653475 8.2554928,4.4234302 10.195179,3.8557173"
       id="path32265" />
    <circle
       cx="8.2457867"
       cy="4.4486394"
       r="0.58283854"
       id="circle20-2"
       style="fill:#ff5555;stroke-width:0.19428" />
    <circle
       cx="7.0560775"
       cy="5.641458"
       r="0.58283854"
       id="circle22-3"
       style="fill:#ff5555;stroke-width:0.19428" />
    <circle
       cx="6.0082951"
       cy="8.2554922"
       r="0.58283854"
       id="circle24-6"
       style="fill:#ff5555;stroke-width:0.19428" />
    <circle
       cx="5.0078225"
       cy="9.4161282"
       r="0.58283854"
       id="circle26-0"
       style="fill:#ff5555;stroke-width:0.19428" />
    <circle
       cx="3.534256"
       cy="10.017958"
       r="0.58283854"
       id="circle28-1"
       style="fill:#ff5555;stroke-width:0.19428" />
    <circle
       cx="10.147869"
       cy="3.9030263"
       r="0.58283854"
       id="circle28-1-2"
       style="fill:#ff5555;stroke-width:0.19428" />
  </g>
</svg>
