<?xml version="1.0" encoding="UTF-8" standalone="no"?>
<svg
   role="img"
   focusable="false"
   aria-hidden="true"
   viewBox="0 0 14 14"
   version="1.1"
   id="svg6"
   sodipodi:docname="fileopen_sig.svg"
   inkscape:version="1.2.2 (732a01da63, 2022-12-09)"
   xmlns:inkscape="http://www.inkscape.org/namespaces/inkscape"
   xmlns:sodipodi="http://sodipodi.sourceforge.net/DTD/sodipodi-0.dtd"
   xmlns:xlink="http://www.w3.org/1999/xlink"
   xmlns="http://www.w3.org/2000/svg"
   xmlns:svg="http://www.w3.org/2000/svg">
  <defs
     id="defs10">
    <linearGradient
       id="BlueGreen"
       gradientUnits="userSpaceOnUse"
       y1="20"
       x1="0"
       y2="180"
       x2="0"
       xlink:href="#linearGradientStops"
       gradientTransform="matrix(0.01432918,0,0,0.01432918,4.3523275,6.6499205)" />
    <linearGradient
       id="linearGradientStops">
      <stop
         offset="0"
         style="stop-color:#0515fe"
         id="stop2" />
      <stop
         offset="1"
         style="stop-color:#2cab28"
         id="stop4" />
    </linearGradient>
  </defs>
  <sodipodi:namedview
     id="namedview8"
     pagecolor="#ffffff"
     bordercolor="#666666"
     borderopacity="1.0"
     inkscape:pageshadow="2"
     inkscape:pageopacity="0.0"
     inkscape:pagecheckerboard="0"
     showgrid="false"
     inkscape:zoom="59.428571"
     inkscape:cx="2.6838943"
     inkscape:cy="7.0504808"
     inkscape:window-width="1920"
     inkscape:window-height="1017"
     inkscape:window-x="-8"
     inkscape:window-y="-8"
     inkscape:window-maximized="1"
     inkscape:current-layer="svg6"
     inkscape:showpageshadow="2"
     inkscape:deskcolor="#d1d1d1" />
  <g
     id="g447"
     transform="matrix(1.0801283,0,0,1.0678153,-0.58493595,-0.53618489)">
    <path
       fill="#ffa000"
       d="M 10.672764,3.5860832 H 6.1208753 L 4.982903,2.4481109 H 2.1379723 c -0.6258847,0 -1.1379722,0.5120875 -1.1379722,1.1379723 v 6.8278338 c 0,0.625885 0.5120875,1.137972 1.1379722,1.137972 h 8.8192857 c 0.483638,0 0.853479,-0.369841 0.853479,-0.853479 V 4.7240554 c 0,-0.6258847 -0.512088,-1.1379722 -1.137973,-1.1379722 z"
       id="path2" />
    <path
       fill="#ffca28"
       d="M 11.867635,5.2930416 H 4.2147717 c -0.5405368,0 -1.024175,0.3982903 -1.1095229,0.9388271 L 2.1379723,11.551889 h 9.0184307 c 0.540536,0 1.024175,-0.39829 1.109523,-0.938827 L 12.977158,6.630159 C 13.119405,5.9473756 12.578868,5.2930416 11.867635,5.2930416 Z"
       id="path4" />
  </g>
  <g
     id="g1230"
     transform="matrix(0.63878459,0,-0.10465997,0.63878459,3.9343181,4.0174647)">
    <rect
       style="fill:#e6e6e6;fill-opacity:1;stroke:none;stroke-width:1.57074;stroke-opacity:1"
       id="rect10749-5"
       width="7.8104901"
       height="7.8187361"
       x="3.3771245"
       y="3.1234901"
       transform="matrix(1,0,-0.04725952,0.99888264,0,0)" />
    <rect
       style="fill:#696969;fill-opacity:0.817241;stroke-width:0.402"
       id="rect28089"
       width="0.47309414"
       height="7.6168156"
       x="6.7652464"
       y="3.1933856" />
    <rect
       style="fill:#696969;fill-opacity:0.817241;stroke-width:0.402"
       id="rect28089-7"
       width="0.47309414"
       height="7.6168156"
       x="6.6469727"
       y="-10.810202"
       transform="rotate(90)" />
    <path
       style="fill:none;fill-opacity:0.817241;stroke:#ff0000;stroke-width:0.402;stroke-opacity:1"
       d="m 3.5245514,10.005941 c 0,0.09462 1.5139012,-0.5677129 1.5139012,-0.5677129 L 5.9846409,8.2081834 7.0727574,5.653475 8.2554928,4.4234302 10.195179,3.8557173"
       id="path32265" />
    <circle
       cx="8.2457867"
       cy="4.4486394"
       r="0.58283854"
       id="circle20-2"
       style="fill:#ff5555;stroke-width:0.19428" />
    <circle
       cx="7.0560775"
       cy="5.641458"
       r="0.58283854"
       id="circle22-3"
       style="fill:#ff5555;stroke-width:0.19428" />
    <circle
       cx="6.0082951"
       cy="8.2554922"
       r="0.58283854"
       id="circle24-6"
       style="fill:#ff5555;stroke-width:0.19428" />
    <circle
       cx="5.0078225"
       cy="9.4161282"
       r="0.58283854"
       id="circle26-0"
       style="fill:#ff5555;stroke-width:0.19428" />
    <circle
       cx="3.534256"
       cy="10.017958"
       r="0.58283854"
       id="circle28-1"
       style="fill:#ff5555;stroke-width:0.19428" />
    <circle
       cx="10.147869"
       cy="3.9030263"
       r="0.58283854"
       id="circle28-1-2"
       style="fill:#ff5555;stroke-width:0.19428" />
  </g>
</svg>
