<?xml version="1.0" encoding="UTF-8" standalone="no"?>
<svg
   role="img"
   focusable="false"
   aria-hidden="true"
   viewBox="0 0 14 14"
   version="1.1"
   id="svg14"
   sodipodi:docname="filesave_h5.svg"
   inkscape:version="1.2.2 (732a01da63, 2022-12-09)"
   xmlns:inkscape="http://www.inkscape.org/namespaces/inkscape"
   xmlns:sodipodi="http://sodipodi.sourceforge.net/DTD/sodipodi-0.dtd"
   xmlns:xlink="http://www.w3.org/1999/xlink"
   xmlns="http://www.w3.org/2000/svg"
   xmlns:svg="http://www.w3.org/2000/svg">
  <defs
     id="defs18">
    <linearGradient
       id="BlueGreen"
       gradientUnits="userSpaceOnUse"
       y1="20"
       x1="0"
       y2="180"
       x2="0"
       xlink:href="#linearGradientStops"
       gradientTransform="matrix(0.01229036,0,0,0.01229036,4.0293076,3.003469)" />
    <linearGradient
       id="linearGradientStops">
      <stop
         offset="0"
         style="stop-color:#0515fe"
         id="stop2" />
      <stop
         offset="1"
         style="stop-color:#2cab28"
         id="stop4" />
    </linearGradient>
    <linearGradient
       id="BlueGreen-3"
       gradientUnits="userSpaceOnUse"
       y1="20"
       x1="0"
       y2="180"
       x2="0"
       xlink:href="#linearGradientStops"
       gradientTransform="matrix(0.0153819,0,0,0.0153819,3.2765568,2.3648137)" />
  </defs>
  <sodipodi:namedview
     id="namedview16"
     pagecolor="#ffffff"
     bordercolor="#666666"
     borderopacity="1.0"
     inkscape:pageshadow="2"
     inkscape:pageopacity="0.0"
     inkscape:pagecheckerboard="0"
     showgrid="false"
     inkscape:zoom="59.428571"
     inkscape:cx="2.7007212"
     inkscape:cy="7.0504808"
     inkscape:window-width="1920"
     inkscape:window-height="1017"
     inkscape:window-x="-8"
     inkscape:window-y="-8"
     inkscape:window-maximized="1"
     inkscape:current-layer="svg14"
     inkscape:showpageshadow="2"
     inkscape:deskcolor="#d1d1d1" />
  <g
     id="g973"
     transform="translate(-2.307e-4,-2.307e-4)">
    <path
       fill="#4d4d4d"
       d="M 12.75,1.2692307 V 12.75 H 2.863782 L 1.2692307,11.155448 V 1.2692307 Z"
       id="path2"
       style="fill:#808080;stroke-width:0.956731" />
    <path
       fill="#ffffff"
       d="m 2.2259614,2.2259614 c 0,-0.1763573 0.1425529,-0.3189101 0.3189103,-0.3189101 h 8.9294863 c 0.176358,0 0.318911,0.1425528 0.318911,0.3189101 v 4.4647434 c 0,0.1763574 -0.142553,0.3189103 -0.318911,0.3189103 H 2.5448717 c -0.1763574,0 -0.3189103,-0.1425529 -0.3189103,-0.3189103 z"
       id="path4"
       style="stroke-width:0.956731" />
    <path
       d="M 11.793269,12.75 V 9.560897 c 0,-0.3520769 -0.285744,-0.6378204 -0.637821,-0.6378204 H 6.3717946 c -0.3520769,0 -0.6378205,0.2857435 -0.6378205,0.6378204 V 12.75 Z"
       id="path8"
       style="fill:#333333;stroke-width:0.956731" />
    <path
       fill="#b0bec5"
       d="M 9.8798073,12.75 V 9.560897 c 0,-0.3520769 -0.2857436,-0.6378204 -0.6378206,-0.6378204 H 4.4583332 c -0.3520769,0 -0.6378205,0.2857435 -0.6378205,0.6378204 V 12.75 Z"
       id="path10"
       style="stroke-width:0.956731" />
    <path
       d="M 6.3717946,12.112179 H 5.0961536 V 9.560897 h 1.275641 z"
       id="path12"
       style="fill:#333333;stroke-width:0.956731" />
  </g>
  <path
     style="fill:url(#BlueGreen-3);stroke-width:0.0153819"
     d="M 5.8314864,2.4304153 A 0.36920219,0.36920219 0 0 0 5.4678781,2.8048078 V 4.1166546 H 4.0909272 V 2.8099751 A 0.36920219,0.36920219 0 0 0 3.716206,2.435583 0.36920219,0.36920219 0 0 0 3.3525985,2.8099751 v 3.3739804 a 0.36920219,0.36920219 0 1 0 0.7383287,0 V 4.8549853 h 2.1152797 v -1.664188 c 1.1214386,0.1059556 1.5573469,0.749 1.5521874,1.3335974 -0.00572,0.6447505 -0.5436979,1.348515 -1.9424423,1.3035859 A 0.36920219,0.36920219 0 1 0 5.792232,6.5659208 C 6.8192654,6.598908 7.5978112,6.2355528 8.0500054,5.7006892 v 0.5136111 a 0.36920219,0.36920219 0 1 0 0.7383296,0 v -1.340809 h 1.22986 a 0.36920219,0.36920219 0 1 0 0,-0.7383303 H 8.7883529 V 3.1739731 h 1.7271561 a 0.36920219,0.36920219 0 1 0 0,-0.7383303 H 5.8973978 a 0.36920219,0.36920219 0 0 0 -0.065922,-0.00522 z"
     id="path10-2" />
</svg>
