<?xml version="1.0" encoding="UTF-8" standalone="no"?>
  <svg
 role="img"
 focusable="false"
 aria-hidden="true"
 viewBox="0 0 14 14"
 version="1.1"
 id="svg12"
 xmlns="http://www.w3.org/2000/svg">
  <defs
 id="defs16">
  <linearGradient
 id="SVGID_1"
 gradientUnits="userSpaceOnUse"
 x1="21.8064"
 y1="19.2332"
 x2="42.298401"
 y2="19.2332">
  <stop
 offset="0%"
 style="stop-color:rgb(255,255,255);stop-opacity: 1"
 id="stop3" />
  <stop
 offset="100%"
 style="stop-color:rgb(0,0,0);stop-opacity: 1"
 id="stop4" />
  </linearGradient>
  <linearGradient
 id="linearGradient2"
 gradientUnits="userSpaceOnUse"
 x1="21.8064"
 y1="19.2332"
 x2="42.298401"
 y2="19.2332">
  <stop
 offset="0%"
 style="stop-color:rgb(255,255,255);stop-opacity: 1"
 id="stop1" />
  <stop
 offset="100%"
 style="stop-color:rgb(0,0,0);stop-opacity: 1"
 id="stop2" />
  </linearGradient>
  </defs>
  <g
 id="g13"
 transform="matrix(1.0863815,0,0,1.0863815,0.57366188,-1.2632709)">
  <g
 id="g1"
 transform="matrix(1.2910689,0,0,1.2910689,-1.7838797,-2.0730441)"
 style="fill:#999999">
  <path
 d="M 9.7358712,4.5244773 8.295795,3.0844011 C 8.2183191,3.006835 8.1151082,2.9641239 8.0054862,2.9641239 H 4.1615808 c -0.2264679,0 -0.4106763,0.1842084 -0.4106763,0.4106764 v 7.3054877 c 0,0.226468 0.1842084,0.410677 0.4106763,0.410677 h 5.2838913 c 0.2264679,0 0.4107666,-0.184209 0.4107666,-0.410677 V 4.8148764 c 0,-0.1097123 -0.042801,-0.2129232 -0.1203675,-0.2903991 z M 8.2548899,3.4265411 9.3936409,4.5653824 H 8.3702007 c -0.06357,0 -0.1152205,-0.051741 -0.1152205,-0.1153108 V 3.4265411 Z M 9.4454721,10.82007 H 4.1615808 c -0.077115,0 -0.1397816,-0.06267 -0.1397816,-0.139782 V 3.3748003 c 0,-0.077115 0.062667,-0.1397817 0.1397816,-0.1397817 h 3.8225047 v 1.215053 c 0,0.2129232 0.173192,0.3862055 0.3861152,0.3862055 H 9.585344 v 5.8440109 c 0,0.07712 -0.062757,0.139782 -0.1398719,0.139782 z"
 stroke-linecap="round"
 id="path1" fill="#999999" stroke="none" stroke-width="0.0902982" stroke-dasharray="none" />
  <path
 d="M 8.8978133,5.9727706 H 6.5152945 c -0.074857,0 -0.1354473,-0.06059 -0.1354473,-0.1354473 0,-0.074857 0.06059,-0.1354474 0.1354473,-0.1354474 h 2.3825188 c 0.074767,0 0.1354473,0.06059 0.1354473,0.1354474 0,0.074857 -0.06068,0.1354473 -0.1354473,0.1354473 z"
 stroke-linecap="round"
 id="path2" fill="#999999" stroke="none" stroke-width="0.0902982" stroke-dasharray="none" />
  <path
 d="M 5.8514219,5.9727706 H 4.7092396 c -0.074857,0 -0.1354473,-0.06059 -0.1354473,-0.1354473 0,-0.074857 0.06059,-0.1354474 0.1354473,-0.1354474 h 1.1421823 c 0.074857,0 0.1354474,0.06059 0.1354474,0.1354474 0,0.074857 -0.06059,0.1354473 -0.1354474,0.1354473 z"
 stroke-linecap="round"
 id="path3" fill="#999999" stroke="none" stroke-width="0.0902982" stroke-dasharray="none" />
  <path
 d="m 6.5595406,4.8362771 h -1.850301 c -0.074857,0 -0.1354473,-0.06059 -0.1354473,-0.1354473 0,-0.074857 0.06059,-0.1354474 0.1354473,-0.1354474 h 1.8503913 c 0.074857,0 0.1354474,0.06059 0.1354474,0.1354474 0,0.074857 -0.06068,0.1354473 -0.1355377,0.1354473 z"
 stroke-linecap="round"
 id="path4" fill="#999999" stroke="none" stroke-width="0.0902982" stroke-dasharray="none" />
  <path
 d="M 8.8978133,6.9660512 H 4.7092396 c -0.074857,0 -0.1354473,-0.06059 -0.1354473,-0.1354474 0,-0.074857 0.06059,-0.1354473 0.1354473,-0.1354473 h 4.188664 c 0.074767,0 0.1354473,0.06059 0.1354473,0.1354473 0,0.074857 -0.060771,0.1354474 -0.1355376,0.1354474 z"
 stroke-linecap="round"
 id="path5" fill="#999999" stroke="none" stroke-width="0.0902982" stroke-dasharray="none" />
  <path
 d="M 7.0916681,7.9593317 H 4.7092396 c -0.074857,0 -0.1354473,-0.06068 -0.1354473,-0.1354474 0,-0.074767 0.06059,-0.1354473 0.1354473,-0.1354473 h 2.3825188 c 0.074767,0 0.1354473,0.06068 0.1354473,0.1354473 0,0.074767 -0.06068,0.1354474 -0.1355376,0.1354474 z"
 stroke-linecap="round"
 id="path6" fill="#999999" stroke="none" stroke-width="0.0902982" stroke-dasharray="none" />
  <path
 d="M 8.8978133,7.9593317 H 7.755631 c -0.074767,0 -0.1354474,-0.06068 -0.1354474,-0.1354474 0,-0.074767 0.060681,-0.1354473 0.1354474,-0.1354473 h 1.1421823 c 0.074767,0 0.1354473,0.06068 0.1354473,0.1354473 0,0.074767 -0.06068,0.1354474 -0.1354473,0.1354474 z"
 stroke-linecap="round"
 id="path7" fill="#999999" stroke="none" stroke-width="0.0902982" stroke-dasharray="none" />
  <path
 d="M 8.8978133,8.9526122 H 4.7092396 c -0.074857,0 -0.1354473,-0.06068 -0.1354473,-0.1354473 0,-0.074767 0.06059,-0.1354474 0.1354473,-0.1354474 h 4.188664 c 0.074767,0 0.1354473,0.06068 0.1354473,0.1354474 0,0.074767 -0.060771,0.1354473 -0.1355376,0.1354473 z"
 stroke-linecap="round"
 id="path8" fill="#999999" stroke="none" stroke-width="0.0902982" stroke-dasharray="none" />
  <path
 d="M 8.8978133,9.9458927 H 7.755631 c -0.074767,0 -0.1354474,-0.06068 -0.1354474,-0.1354473 0,-0.074767 0.060681,-0.1354473 0.1354474,-0.1354473 h 1.1421823 c 0.074767,0 0.1354473,0.06068 0.1354473,0.1354473 0,0.074767 -0.06068,0.1354473 -0.1354473,0.1354473 z"
 stroke-linecap="round"
 id="path9" fill="#999999" stroke="none" stroke-width="0.0902982" stroke-dasharray="none" />
  </g>
  <path
 d="m 3.4671315,11.812336 -0.049026,-0.06233 V 7.000538 c 0,-2.6122094 0.00661,-4.7667027 0.014694,-4.7877631 0.042024,-0.109512 -0.00668,-0.107506 2.609804,-0.107506 h 2.4612642 v 0.7999667 c 0,0.9316625 0.00755,0.9806196 0.1749637,1.1349385 0.057167,0.052695 0.1449714,0.1072016 0.1951213,0.1211267 0.056568,0.015707 0.3987306,0.025369 0.9013555,0.02545 l 0.8101738,1.32e-4 v 3.781563 3.7815632 l -0.04903,0.06233 -0.04903,0.06233 H 7.0017933 3.5161577 Z m 6.3339743,-1.063659 c 0.029736,-0.02083 0.063624,-0.06301 0.075305,-0.09373 0.026589,-0.06993 -0.012898,-0.191835 -0.072468,-0.223717 -0.02578,-0.0138 -0.3671407,-0.02316 -0.8446212,-0.02316 -0.7737613,0 -0.8031373,0.0017 -0.8531245,0.04823 -0.097347,0.09069 -0.059949,0.266967 0.066504,0.313463 0.019515,0.0072 0.3817248,0.01389 0.8049103,0.01491 0.6692217,0.0016 0.7764698,-0.0031 0.8234942,-0.036 z M 9.8414229,9.4370516 C 9.9049776,9.3668243 9.899375,9.2306359 9.8306413,9.1749787 9.7779284,9.1322945 9.6769775,9.130717 6.9980975,9.130717 H 4.2202148 l -0.058062,0.058062 c -0.070957,0.070957 -0.074071,0.1517528 -0.00904,0.2344321 l 0.049026,0.062327 h 2.7976997 c 2.7902878,0 2.7978161,-1.285e-4 2.841579,-0.048486 z M 7.5086527,8.1458565 c 0.062276,-0.079171 0.062591,-0.1743943 7.952e-4,-0.240724 l -0.048231,-0.05177 H 5.8316808 4.2021442 l -0.050875,0.064677 c -0.06108,0.07765 -0.04959,0.1855913 0.026478,0.2487477 0.046412,0.038534 0.1615752,0.041396 1.6658687,0.041396 H 7.459626 Z m 2.3219886,0.018065 c 0.068734,-0.055657 0.074336,-0.1918456 0.010782,-0.2620728 -0.042643,-0.04712 -0.067221,-0.048486 -0.8721789,-0.048486 -0.7375462,0 -0.8330393,0.00429 -0.8715579,0.039148 -0.060089,0.05438 -0.057793,0.2065193 0.00405,0.2683629 0.045475,0.045475 0.078849,0.047309 0.8607763,0.047309 0.7595513,0 0.8170897,-0.00293 0.8681278,-0.044262 z M 9.8039432,6.9076738 c 0.05957,-0.031881 0.099057,-0.1537823 0.072468,-0.223717 C 9.8232532,6.5441407 10.003096,6.5523539 6.9947104,6.5523539 H 4.2423807 l -0.071912,0.071912 c -0.060183,0.060183 -0.06952,0.084296 -0.057246,0.1478419 0.00807,0.041762 0.037102,0.094558 0.064525,0.117326 0.046858,0.038904 0.2163621,0.041396 2.8163941,0.041396 1.7593489,0 2.7822868,-0.00843 2.8098015,-0.023155 z M 5.886832,5.6044487 C 5.97488,5.5351897 5.97488,5.3932846 5.886832,5.324026 5.826655,5.276691 5.797744,5.275 5.0486298,5.275 c -0.4267314,0 -0.8015175,0.00975 -0.8328579,0.021665 -0.081387,0.030943 -0.1256161,0.1477856 -0.089212,0.2356738 0.015514,0.037455 0.051401,0.079313 0.079748,0.093018 0.032698,0.015808 0.3379047,0.025502 0.8348683,0.026518 0.7579143,0.00155 0.7853512,1.04e-5 0.8456558,-0.047425 z m 3.9142738,0.011157 C 9.9163915,5.5348566 9.9105074,5.3564762 9.7907583,5.301915 9.748484,5.2826534 9.2810185,5.2749997 8.1468583,5.2749997 H 6.5620308 l -0.058061,0.058062 c -0.0366,0.036599 -0.058062,0.085088 -0.058062,0.1311759 0,0.046088 0.021462,0.094577 0.058062,0.131176 l 0.058061,0.058062 h 1.5925046 c 1.4218902,0 1.598297,-0.00406 1.6465704,-0.03787 z M 6.8264843,4.1192122 c 0.062942,-0.07775 0.057627,-0.1822623 -0.012853,-0.2527428 L 6.7555693,3.8084078 H 5.4942306 c -1.3740165,0 -1.3427865,-0.00302 -1.3769721,0.1331858 -0.020224,0.08058 0.022486,0.1848955 0.089049,0.2174932 0.03493,0.017106 0.4581489,0.023746 1.3132537,0.020605 l 1.2617145,-0.00464 z"
 id="path10" fill="#ffeeaa" fill-opacity="1" stroke-width="0.141928" />
  <path
 d="M 8.9296519,3.7610984 C 8.8845759,3.7160224 8.8823425,3.6822494 8.8823425,3.0456914 V 2.3775938 l 0.7096412,0.7093455 c 0.3903027,0.39014 0.7096413,0.7120732 0.7096413,0.715407 0,0.00333 -0.298049,0.00606 -0.6623318,0.00606 -0.6307922,0 -0.6645847,-0.00225 -0.7096413,-0.047309 z"
 id="path11" fill="#f2f2f2" fill-opacity="1" stroke-width="0.141928" />
  <path
 d="m 3.4675424,11.799991 -0.057009,-0.07205 0.016754,-4.7581109 c 0.014657,-4.1625793 0.021154,-4.762552 0.051905,-4.793593 0.04344,-0.043848 1.0629482,-0.064036 3.4443732,-0.068203 l 1.5776022,-0.00276 0.00726,0.8574832 c 0.00833,0.9830346 0.0056,0.9688431 0.2162686,1.1235431 l 0.1208758,0.088761 0.8699529,0.007 0.8699519,0.007 -7.47e-4,3.7777507 -7.48e-4,3.7777509 -0.05725,0.06505 -0.05726,0.06505 -3.4724622,-0.0013 -3.472463,-0.0013 z M 9.790337,10.759823 c 0.1117734,-0.05093 0.1337657,-0.207627 0.043557,-0.310356 -0.033309,-0.03793 -0.1050929,-0.0414 -0.8579782,-0.0414 -0.7542843,0 -0.8259145,0.0035 -0.8739236,0.04235 -0.072306,0.05855 -0.071537,0.201116 0.0015,0.278864 l 0.053798,0.05726 h 0.7871963 c 0.5346763,0 0.8060107,-0.0086 0.8458474,-0.02672 z M 9.797027,9.4711349 C 9.9188833,9.4384489 9.9240986,9.2216575 9.804487,9.1611369 9.758338,9.1377869 9.152673,9.1313399 6.9796669,9.1310659 L 4.213587,9.130717 4.1588393,9.1821496 c -0.064562,0.060653 -0.071364,0.161419 -0.016545,0.2450834 l 0.038203,0.058305 2.7826212,-3.229e-4 c 1.5304416,-1.777e-4 2.8057,-0.00651 2.8339075,-0.01408 z M 7.5194763,8.1498788 c 0.048323,-0.07375 0.048902,-0.1760954 0.00138,-0.2439432 L 7.4840321,7.8533628 H 5.8322646 4.1804969 l -0.038203,0.058305 c -0.05457,0.083284 -0.047234,0.171361 0.019859,0.2384543 l 0.058062,0.058062 h 1.6305296 1.6305294 z m 2.321957,2.429e-4 c 0.031934,-0.031934 0.058062,-0.080534 0.058062,-0.1080012 0,-0.056579 -0.041516,-0.1446781 -0.080419,-0.1706545 C 9.8047613,7.861906 9.4185865,7.853924 8.9609103,7.853725 8.0212289,7.853316 8.0544281,7.846815 8.0544281,8.0311214 c 0,0.1796445 -0.013375,0.1770621 0.9170447,0.1770621 h 0.8118993 z m 6.349e-4,-1.2684912 c 0.049602,-0.05481 0.06108,-0.2168117 0.018386,-0.2595061 -0.014376,-0.014376 -0.067357,-0.035702 -0.1177361,-0.04739 -0.051248,-0.01189 -1.2841138,-0.0215 -2.7987668,-0.021816 L 4.2367817,6.552354 4.1704367,6.615916 c -0.098673,0.094535 -0.080282,0.2443491 0.035734,0.2910932 0.028663,0.011548 1.2852137,0.021489 2.821525,0.02232 l 2.7698481,0.0015 z M 5.8926454,5.5980818 c 0.088363,-0.076007 0.088363,-0.1916821 0,-0.2676889 L 5.8282471,5.2749997 H 5.024231 4.2202148 l -0.058062,0.058062 c -0.036599,0.036599 -0.058061,0.085088 -0.058061,0.1311759 0,0.046088 0.021462,0.094577 0.058061,0.131176 l 0.058062,0.058062 H 5.024231 5.8282471 Z m 3.8976916,0.02867 C 9.9189223,5.5681643 9.9277439,5.3677853 9.8044832,5.3054196 9.7590754,5.2824448 9.3836059,5.275618 8.1505712,5.2753484 L 6.555403,5.2749997 6.5006553,5.3264324 c -0.07222,0.067848 -0.073796,0.1972715 -0.00331,0.272295 l 0.051433,0.054748 h 1.5914563 c 1.1324156,0 1.6083736,-0.00771 1.6501074,-0.026723 z M 6.8334898,4.1285786 C 6.8876499,4.04592 6.8818053,3.9286679 6.8202598,3.8631555 L 6.7688269,3.8084078 H 5.5207907 c -1.2319813,0 -1.3525882,0.00676 -1.3981143,0.078358 -0.026064,0.040991 -0.022475,0.1540298 0.00662,0.2083882 0.013861,0.025899 0.048456,0.056458 0.076878,0.06791 0.028422,0.011452 0.6226008,0.021496 1.3203968,0.022321 l 1.2687199,0.0015 z"
 id="path12" fill="#f2f2f2" fill-opacity="1" stroke-width="0.141928" />
  <path
 d="M 9.0912866,3.7909859 C 9.0087799,3.7857687 8.9457282,3.7686418 8.9273048,3.7464429 8.9053073,3.7199376 8.8948021,3.5368129 8.8876774,3.0556646 l -0.00969,-0.6547118 0.6885629,0.6859865 c 0.6575547,0.6550943 0.6856157,0.6866594 0.6231167,0.7009288 -0.06826,0.015584 -0.8654467,0.017847 -1.0983755,0.00312 z"
 id="path13" fill="#cccccc" fill-opacity="1" stroke-width="0.141928" />
  </g>
  <path
 d="M 5.0072787,10.64398 H 6.2861994 L 3.6592621,13.731841 1.0324846,10.64398 h 1.1929466 c 0,-2.67549 2.4329981,-6.903198 6.365554,-6.903198 C 5.5465376,4.9567669 5.0072787,8.253673 5.0072787,10.64398 Z"
 stroke-linecap="round"
 id="path1-0" fill="#41a1d9" stroke="none" stroke-width="0.146698" stroke-dasharray="none" />
</svg>
