<?xml version="1.0" encoding="UTF-8" standalone="no"?>
<svg role="img" focusable="false" aria-hidden="true" viewBox="0 0 14 14" version="1.1"
    xmlns="http://www.w3.org/2000/svg"
    xmlns:svg="http://www.w3.org/2000/svg">
    <path d="M 2.2 3.2 L 5.1 3.2 L 6.0 4.1 L 11.1 4.1 C 11.6 4.1 12.0 4.5 12.0 5.0 L 12.0 10.7 C 12.0 11.2 11.6 11.6 11.1 11.6 L 2.9 11.6 C 2.4 11.6 2.0 11.2 2.0 10.7 L 2.0 4.1 C 2.0 3.6 2.4 3.2 2.9 3.2 Z" fill="#ffca28" />
    <path d="M 2.2 3.2 L 5.1 3.2 L 6.0 4.1 L 11.1 4.1 C 11.6 4.1 12.0 4.5 12.0 5.0 L 12.0 10.7 C 12.0 11.2 11.6 11.6 11.1 11.6 L 2.9 11.6 C 2.4 11.6 2.0 11.2 2.0 10.7 L 2.0 4.1 C 2.0 3.6 2.4 3.2 2.9 3.2 Z" fill="none" stroke="#ef6c00" stroke-width="0.8" stroke-linejoin="round" />
    <path d="M 2.0 5.2 L 12.0 5.2 L 12.0 10.7 C 12.0 11.2 11.6 11.6 11.1 11.6 L 2.9 11.6 C 2.4 11.6 2.0 11.2 2.0 10.7 Z" fill="#ffd54f" />
</svg>