<svg xmlns="http://www.w3.org/2000/svg" xmlns:xlink="http://www.w3.org/1999/xlink" version="1.1" width="256" height="256" viewBox="0 0 256 256" xml:space="preserve">
<g style="stroke: none; stroke-width: 0; stroke-dasharray: none; stroke-linecap: butt; stroke-linejoin: miter; stroke-miterlimit: 10; fill: none; fill-rule: nonzero; opacity: 1;" transform="translate(1.4065934065934016 1.4065934065934016) scale(2.81 2.81)">
	<path d="M 44.092 7.316 c 0.294 -1.329 0.228 -2.79 -0.865 -4.437 C 42.093 1.171 40.271 -0.001 38.221 0 c -3.32 0.002 -6.012 2.695 -6.012 6.016 c 0 0.448 0.057 0.881 0.15 1.3 H 26.79 c -1.013 0 -1.835 0.821 -1.835 1.835 v 4.243 c 0 1.997 1.619 3.617 3.617 3.617 h 19.306 c 1.997 0 3.617 -1.619 3.617 -3.617 V 9.151 c 0 -1.013 -0.821 -1.835 -1.835 -1.835 H 44.092 z" style="stroke: none; stroke-width: 1; stroke-dasharray: none; stroke-linecap: butt; stroke-linejoin: miter; stroke-miterlimit: 10; fill: rgb(25,118,210); fill-rule: nonzero; opacity: 1;" transform=" matrix(1 0 0 1 0 0) " stroke-linecap="round"/>
	<path d="M 76.203 90 h -34.86 c -2.298 0 -4.16 -1.863 -4.16 -4.16 V 36.921 c 0 -2.298 1.863 -4.16 4.16 -4.16 h 34.86 c 2.298 0 4.16 1.863 4.16 4.16 V 85.84 C 80.363 88.137 78.501 90 76.203 90 z" style="stroke: none; stroke-width: 1; stroke-dasharray: none; stroke-linecap: butt; stroke-linejoin: miter; stroke-miterlimit: 10; fill: rgb(216,230,239); fill-rule: nonzero; opacity: 1;" transform=" matrix(1 0 0 1 0 0) " stroke-linecap="round"/>
	<path d="M 37.183 36.921 c 0 -2.298 1.863 -4.16 4.16 -4.16 h 25.471 v -17.72 c 0 -2.233 -1.811 -4.044 -4.044 -4.044 H 51.495 v 2.397 c 0 1.997 -1.619 3.617 -3.617 3.617 H 28.572 c -1.997 0 -3.617 -1.619 -3.617 -3.617 v -2.397 H 13.681 c -2.233 0 -4.044 1.811 -4.044 4.044 v 63.662 c 0 2.233 1.811 4.044 4.044 4.044 h 23.502 V 36.921 z" style="stroke: none; stroke-width: 1; stroke-dasharray: none; stroke-linecap: butt; stroke-linejoin: miter; stroke-miterlimit: 10; fill: rgb(33,150,243); fill-rule: nonzero; opacity: 1;" transform=" matrix(1 0 0 1 0 0) " stroke-linecap="round"/>
	<path d="M 71.325 50.294 H 46.221 c -0.552 0 -1 -0.447 -1 -1 s 0.448 -1 1 -1 h 25.104 c 0.553 0 1 0.447 1 1 S 71.878 50.294 71.325 50.294 z" style="stroke: none; stroke-width: 1; stroke-dasharray: none; stroke-linecap: butt; stroke-linejoin: miter; stroke-miterlimit: 10; fill: rgb(33,150,243); fill-rule: nonzero; opacity: 1;" transform=" matrix(1 0 0 1 0 0) " stroke-linecap="round"/>
	<path d="M 71.325 62.381 H 46.221 c -0.552 0 -1 -0.447 -1 -1 s 0.448 -1 1 -1 h 25.104 c 0.553 0 1 0.447 1 1 S 71.878 62.381 71.325 62.381 z" style="stroke: none; stroke-width: 1; stroke-dasharray: none; stroke-linecap: butt; stroke-linejoin: miter; stroke-miterlimit: 10; fill: rgb(33,150,243); fill-rule: nonzero; opacity: 1;" transform=" matrix(1 0 0 1 0 0) " stroke-linecap="round"/>
	<line x1="-6.509" y1="0" x2="6.509" y2="0" style="stroke: none; stroke-width: 1; stroke-dasharray: none; stroke-linecap: butt; stroke-linejoin: miter; stroke-miterlimit: 10; fill: rgb(33,150,243); fill-rule: nonzero; opacity: 1;" transform=" matrix(1 0 0 1 0 0) "/>
	<path d="M 59.238 74.468 H 46.221 c -0.552 0 -1 -0.447 -1 -1 s 0.448 -1 1 -1 h 13.018 c 0.553 0 1 0.447 1 1 S 59.791 74.468 59.238 74.468 z" style="stroke: none; stroke-width: 1; stroke-dasharray: none; stroke-linecap: butt; stroke-linejoin: miter; stroke-miterlimit: 10; fill: rgb(33,150,243); fill-rule: nonzero; opacity: 1;" transform=" matrix(1 0 0 1 0 0) " stroke-linecap="round"/>
</g>
</svg>