<?xml version="1.0" encoding="UTF-8" standalone="no"?>
  <svg
 role="img"
 focusable="false"
 aria-hidden="true"
 viewBox="0 0 14 14"
 version="1.1"
 id="svg12"
 xmlns="http://www.w3.org/2000/svg">
  <rect
 id="rect28089"
 width="0.53186357"
 height="12.584304"
 x="2.8532717"
 y="0.6150223" fill="#696969" fill-opacity="0.817241" stroke-width="0.547874" />
  <rect
 id="rect28089-7"
 width="0.53186357"
 height="12.5176"
 x="10.103792"
 y="-13.022007"
 transform="rotate(90)" fill="#696969" fill-opacity="0.817241" stroke-width="0.54642" />
  <g
 style="fill:none;fill-rule:nonzero;stroke:none;stroke-width:0;stroke-linecap:butt;stroke-linejoin:miter;stroke-miterlimit:10;stroke-dasharray:none"
 transform="matrix(0.08886773,0,0,0.08886773,4.1460829,1.5872642)"
 id="g2">
  <path
 d="M 87.12,73.212 48.774,34.866 C 52.497,25.713 50.647,14.824 43.221,7.398 36.213,0.39 26.127,-1.627 17.321,1.294 l 11.639,11.64 c 4.387,4.387 4.833,11.594 0.579,16.112 -4.402,4.674 -11.761,4.757 -16.268,0.25 L 1.295,17.32 c -2.922,8.807 -0.904,18.892 6.104,25.9 7.426,7.426 18.315,9.276 27.468,5.553 L 73.212,87.12 c 3.84,3.84 10.067,3.84 13.908,0 v 0 c 3.84,-3.841 3.84,-10.068 0,-13.908 z"
 stroke-linecap="round"
 id="path1" opacity="1" fill="#f9b121" stroke="none" stroke-width="1" stroke-dasharray="none" />
  </g>
</svg>
