<?xml version="1.0" encoding="UTF-8" standalone="no"?>
  <svg
 version="1.1"
 width="256"
 height="256"
 viewBox="0 0 256 256"
 xml:space="preserve"
 id="svg9"
 xmlns="http://www.w3.org/2000/svg">
  <defs
 id="defs1">
  </defs>
  <g
 style="opacity:1;fill:none;fill-rule:nonzero;stroke:none;stroke-width:0;stroke-linecap:butt;stroke-linejoin:miter;stroke-miterlimit:10;stroke-dasharray:none"
 transform="matrix(2.516109,0,0,2.516109,14.631686,14.631686)"
 id="g9">
  <rect
 x="0"
 y="0"
 rx="0"
 ry="0"
 width="23.73"
 height="23.73"
 id="rect1" opacity="1" fill="#000000" stroke="none" stroke-width="1" stroke-dasharray="none" />
  <rect
 x="33.139999"
 y="0"
 rx="0"
 ry="0"
 width="23.73"
 height="23.73"
 id="rect2" opacity="1" fill="#000000" stroke="none" stroke-width="1" stroke-dasharray="none" />
  <rect
 x="66.269997"
 y="0"
 rx="0"
 ry="0"
 width="23.73"
 height="23.73"
 id="rect3" opacity="1" fill="#000000" stroke="none" stroke-width="1" stroke-dasharray="none" />
  <rect
 x="0"
 y="33.139999"
 rx="0"
 ry="0"
 width="23.73"
 height="23.73"
 id="rect4" opacity="1" fill="#000000" stroke="none" stroke-width="1" stroke-dasharray="none" />
  <rect
 x="33.139999"
 y="33.139999"
 rx="0"
 ry="0"
 width="23.73"
 height="23.73"
 id="rect5" opacity="1" fill="#000000" stroke="none" stroke-width="1" stroke-dasharray="none" />
  <rect
 x="66.269997"
 y="33.139999"
 rx="0"
 ry="0"
 width="23.73"
 height="23.73"
 id="rect6" opacity="1" fill="#000000" stroke="none" stroke-width="1" stroke-dasharray="none" />
  <rect
 x="0"
 y="66.269997"
 rx="0"
 ry="0"
 width="23.73"
 height="23.73"
 id="rect7" opacity="1" fill="#000000" stroke="none" stroke-width="1" stroke-dasharray="none" />
  <rect
 x="33.139999"
 y="66.269997"
 rx="0"
 ry="0"
 width="23.73"
 height="23.73"
 id="rect8" opacity="1" fill="#000000" stroke="none" stroke-width="1" stroke-dasharray="none" />
  <rect
 x="66.269997"
 y="66.269997"
 rx="0"
 ry="0"
 width="23.73"
 height="23.73"
 id="rect9" opacity="1" fill="#000000" stroke="none" stroke-width="1" stroke-dasharray="none" />
  </g>
  <path
 d="M 167.76789,166.19347 H 5.1488315 V 3.5744157 H 167.76789 Z M 23.959596,147.38271 H 148.95712 V 22.38518 H 23.959596 Z"
 stroke-linecap="round"
 id="path1" fill="#20b8ff" stroke="none" stroke-width="6.27026" stroke-dasharray="none" />
</svg>
