<?xml version="1.0" encoding="UTF-8" standalone="no"?>
<svg
   role="img"
   focusable="false"
   aria-hidden="true"
   viewBox="0 0 14 14"
   version="1.1"
   id="svg12"
   sodipodi:docname="morphology.svg"
   inkscape:version="1.3.2 (091e20e, 2023-11-25, custom)"
   xmlns:inkscape="http://www.inkscape.org/namespaces/inkscape"
   xmlns:sodipodi="http://sodipodi.sourceforge.net/DTD/sodipodi-0.dtd"
   xmlns="http://www.w3.org/2000/svg"
   xmlns:svg="http://www.w3.org/2000/svg">
  <defs
     id="defs16" />
  <sodipodi:namedview
     id="namedview14"
     pagecolor="#ffffff"
     bordercolor="#000000"
     borderopacity="0.25"
     inkscape:showpageshadow="2"
     inkscape:pageopacity="0.0"
     inkscape:pagecheckerboard="0"
     inkscape:deskcolor="#d1d1d1"
     showgrid="false"
     inkscape:zoom="42.274884"
     inkscape:cx="7.0845848"
     inkscape:cy="7.0136207"
     inkscape:window-width="1920"
     inkscape:window-height="1009"
     inkscape:window-x="-8"
     inkscape:window-y="-8"
     inkscape:window-maximized="1"
     inkscape:current-layer="svg12" />
  <g
     style="fill:#333333;fill-rule:nonzero;stroke:none;stroke-width:0;stroke-linecap:butt;stroke-linejoin:miter;stroke-miterlimit:10;stroke-dasharray:none"
     transform="matrix(-0.1347851,0,0,-0.1347851,13.065306,13.06544)"
     id="g3">
	
	
	<path
   d="m 86.002,22.879 c -1.748,-1.9 -4.466,-2.621 -6.928,-1.835 -1.712,0.547 -3.109,1.701 -3.935,3.25 -0.808,1.516 -1.834,2.652 -3.05,3.375 l -0.874,0.52 c -2.791,1.661 -6.563,1.509 -9.171,-0.365 l -0.005,0.007 c -1.668,-1.185 -3.475,-2.153 -5.388,-2.866 -1.389,-0.888 -2.216,-2.351 -2.216,-3.931 v -0.333 c 0,-1.205 0.51,-2.411 1.437,-3.396 2.072,-2.204 3.062,-5.203 2.717,-8.228 -0.534,-4.701 -4.336,-8.491 -9.038,-9.013 -2.926,-0.321 -5.848,0.607 -8.023,2.554 -2.176,1.948 -3.424,4.739 -3.424,7.658 0,2.621 0.99,5.117 2.787,7.029 0.926,0.985 1.437,2.191 1.437,3.395 v 0.284 c 0,1.591 -0.809,3.093 -2.117,3.944 -0.964,0.355 -1.9,0.776 -2.806,1.252 l -0.003,-0.005 c -2.899,1.567 -6.666,1.293 -9.163,-0.665 l -0.8,-0.626 c -1.112,-0.871 -1.985,-2.129 -2.594,-3.738 -0.621,-1.642 -1.86,-2.964 -3.488,-3.725 -2.339,-1.095 -5.128,-0.726 -7.104,0.936 -1.594,1.34 -2.487,3.282 -2.452,5.327 0.035,2.046 0.978,3.942 2.587,5.202 0.958,0.75 2.101,1.225 3.307,1.372 1.717,0.21 3.181,0.781 4.35,1.697 l 0.632,0.495 c 2.494,1.954 3.687,5.627 2.837,8.734 l 0.009,0.002 c -0.225,0.88 -0.41,1.774 -0.534,2.682 l -0.022,0.175 c -0.592,1.48 -1.82,2.552 -3.306,2.879 l -0.325,0.072 c -1.174,0.259 -2.462,0.02 -3.626,-0.673 -2.597,-1.55 -5.738,-1.871 -8.62,-0.884 -4.476,1.533 -7.36,6.06 -6.857,10.766 0.312,2.925 1.85,5.581 4.219,7.286 2.37,1.705 5.364,2.324 8.216,1.696 2.56,-0.563 4.785,-2.067 6.265,-4.233 0.763,-1.117 1.83,-1.874 3.006,-2.133 l 0.278,-0.061 c 1.538,-0.341 3.171,0.119 4.284,1.199 1.126,1.748 2.455,3.311 3.939,4.678 2.297,2.126 3.171,5.745 2.121,8.829 l -0.328,0.962 c -0.456,1.338 -1.354,2.577 -2.671,3.683 -1.345,1.128 -2.185,2.734 -2.366,4.523 -0.26,2.569 1.007,5.08 3.228,6.397 1.086,0.643 2.298,0.971 3.511,0.971 0.786,0 1.573,-0.137 2.328,-0.416 1.919,-0.709 3.397,-2.225 4.057,-4.16 0.392,-1.151 0.462,-2.386 0.204,-3.574 -0.369,-1.69 -0.313,-3.26 0.166,-4.666 l 0.26,-0.76 c 1.076,-3.159 3.853,-5.425 6.909,-5.637 v -0.001 c 2.22,-0.127 4.396,-0.554 6.47,-1.269 0.69,-0.238 1.397,-0.528 2.213,-0.911 1.495,-0.252 3.016,0.237 4.1,1.318 l 0.201,0.201 c 0.851,0.851 1.342,2.065 1.384,3.417 0.081,2.623 1.147,5.088 3,6.941 1.93,1.931 4.553,3.01 7.27,3.01 0.188,0 0.377,-0.005 0.565,-0.016 2.914,-0.161 5.64,-1.57 7.479,-3.867 2.957,-3.694 2.965,-9.062 0.019,-12.765 -1.896,-2.383 -4.717,-3.803 -7.74,-3.896 -1.353,-0.042 -2.567,-0.533 -3.418,-1.384 l -0.236,-0.236 c -1.057,-1.058 -1.518,-2.597 -1.245,-4.14 1.832,-3.914 2.563,-8.2 2.112,-12.404 -0.021,-0.197 -0.053,-0.391 -0.078,-0.586 l 0.009,-10e-4 c -0.449,-3.214 1.219,-6.831 3.881,-8.415 l 0.69,-0.411 c 1.259,-0.749 2.76,-1.128 4.46,-1.128 0.024,0 0.048,0 0.071,0 1.226,-0.005 2.41,-0.317 3.456,-0.938 1.756,-1.045 2.933,-2.805 3.23,-4.829 0.297,-2.024 -0.341,-4.065 -1.75,-5.598 z m -43,28.479 c -4.809,0 -8.721,-3.912 -8.721,-8.721 0,-4.809 3.912,-8.721 8.721,-8.721 4.808,0 8.721,3.912 8.721,8.721 0,4.809 -3.913,8.721 -8.721,8.721 z"
   style="opacity:1;fill:#333333;fill-rule:nonzero;stroke:none;stroke-width:1;stroke-linecap:butt;stroke-linejoin:miter;stroke-miterlimit:10;stroke-dasharray:none"
   stroke-linecap="round"
   id="path3" />

</g>
</svg>
