<?xml version="1.0" encoding="UTF-8" standalone="no"?>
<svg
   role="img"
   focusable="false"
   aria-hidden="true"
   viewBox="0 0 14 14"
   version="1.1"
   id="svg8"
   sodipodi:docname="noise_reduction.svg"
   inkscape:version="1.3.2 (091e20e, 2023-11-25, custom)"
   xml:space="preserve"
   xmlns:inkscape="http://www.inkscape.org/namespaces/inkscape"
   xmlns:sodipodi="http://sodipodi.sourceforge.net/DTD/sodipodi-0.dtd"
   xmlns="http://www.w3.org/2000/svg"
   xmlns:svg="http://www.w3.org/2000/svg"><defs
     id="defs12" /><sodipodi:namedview
     id="namedview10"
     pagecolor="#ffffff"
     bordercolor="#666666"
     borderopacity="1.0"
     inkscape:pageshadow="2"
     inkscape:pageopacity="0.0"
     inkscape:pagecheckerboard="0"
     showgrid="false"
     inkscape:zoom="42.022346"
     inkscape:cx="5.46138"
     inkscape:cy="8.8167376"
     inkscape:window-width="1920"
     inkscape:window-height="1009"
     inkscape:window-x="-8"
     inkscape:window-y="-8"
     inkscape:window-maximized="1"
     inkscape:current-layer="svg8"
     inkscape:showpageshadow="2"
     inkscape:deskcolor="#d1d1d1" /><path
     style="fill:#333333;stroke-width:0.874049"
     d="M 2.2116603,12.673973 C 2.0006389,12.636123 1.8035113,12.536427 1.6503575,12.390104 1.493478,12.240223 1.3907936,12.059669 1.3342149,11.834217 l -0.018207,-0.07256 -0.00255,-2.2469338 -0.00255,-2.246936 H 0.7690404 0.2271851 v -0.268864 -0.268863 h 6.7728145 6.7728154 v 0.2688 0.268801 l -0.539861,0.0022 -0.539864,0.0022 -0.0044,2.249069 c -0.005,2.4798848 -7.5e-5,2.2668868 -0.05573,2.4340018 -0.122913,0.369081 -0.463402,0.656895 -0.851598,0.719856 -0.116187,0.01884 -9.4644301,0.01786 -9.5696127,-0.0011 z M 2.932899,11.60803 V 11.066034 H 3.2060308 3.4791627 V 10.792902 10.51977 h 0.2688641 0.268864 v 0.541997 0.541996 H 3.7480268 3.4791627 v 0.273131 0.273133 h 0.5419958 0.5419959 v -0.273133 -0.273131 h 0.2687442 0.2687441 l 0.00225,0.270998 0.00225,0.270996 0.5398621,0.0022 0.5398621,0.0022 V 11.876994 11.603798 H 6.4579997 6.7311314 V 11.06182 10.519824 h 0.2688642 0.2688641 v 0.273132 0.273132 h 0.2731346 0.2731319 v -0.273132 -0.273132 h 0.2688641 0.2688641 v 0.541932 0.541932 l -0.5398621,0.0022 -0.539862,0.0022 v 0.268864 0.268864 l 0.539862,0.0022 0.5398621,0.0022 v -0.273068 -0.273179 h 0.2731379 0.2731318 v 0.273131 0.273132 h 0.2688611 0.2688649 v -0.541961 -0.541996 h 0.5419953 0.5419956 v 0.268864 0.268863 H 10.251977 9.9831124 v 0.273132 0.273132 h 0.2688646 0.268864 v -0.273132 -0.273132 h 0.273131 0.273132 v 0.273132 0.273132 h 0.289453 c 0.336959,0 0.383562,-0.0058 0.495513,-0.06092 0.100519,-0.04955 0.188553,-0.137592 0.238107,-0.238107 0.06023,-0.122176 0.06092,-0.130858 0.06092,-0.768645 V 10.520063 H 11.877962 11.60483 V 10.250907 9.9820432 h 0.273132 0.273131 V 9.4400472 8.8980522 H 11.877842 11.60459 l 0.0022,-0.270998 0.0022,-0.270998 0.271061,-0.0023 0.271062,-0.0023 -0.0022,-0.539743 -0.0022,-0.539741 h -0.268926 -0.268864 l -0.0022,0.270997 -0.0022,0.270998 H 11.33587 11.067245 l -0.0022,-0.270998 -0.0022,-0.270997 -0.539861,-0.0022 -0.5398636,-0.0022 v 0.273184 0.273196 H 9.7099603 9.4368288 v -0.273188 -0.273195 l -0.5398625,0.0022 -0.5398621,0.0022 -0.00225,0.270998 -0.00225,0.270997 H 8.0838713 7.8151297 v -0.273233 -0.273252 l -0.2709979,0.0023 -0.2709979,0.0023 -0.00225,0.270998 -0.00225,0.270998 H 6.9998796 6.7311379 v -0.273249 -0.273252 l -0.270998,0.0023 -0.2709979,0.0023 -0.00219,0.539862 -0.00219,0.539862 H 5.9159466 5.6471461 V 7.8098442 7.2678492 H 5.1051503 4.5631544 v 0.273251 0.273252 l -0.270998,-0.0023 -0.2709979,-0.0023 -0.00225,-0.271061 -0.00225,-0.271062 -0.5397421,0.0022 -0.539742,0.0022 -0.00225,0.270998 -0.00225,0.270998 H 2.6639151 2.3951708 v -0.273236 -0.273253 l -0.2709979,0.0023 -0.270998,0.0023 v 0.268862 0.268864 l 0.270998,0.0023 0.2709979,0.0023 v 0.268618 0.268624 l -0.2709979,0.0023 -0.270998,0.0023 -0.00219,0.539862 -0.00219,0.539863 h 0.2731895 0.2731955 v 0.273131 0.273131 H 2.1219824 1.848787 l 0.00219,0.5398608 0.00219,0.539863 0.2709981,0.0022 0.2709979,0.0022 v 0.268736 0.268744 H 2.1250872 1.8550034 l 0.00455,0.06615 c 0.013272,0.19314 0.1595773,0.379024 0.3513856,0.446438 0.079955,0.0281 0.1265154,0.03164 0.4296284,0.03268 l 0.2923364,9.62e-4 z M 5.1008827,11.334899 V 11.066034 H 4.8320185 4.5631544 V 10.792902 10.51977 H 4.2900227 4.0168908 V 10.250907 9.9820432 H 4.2900227 4.5631544 V 9.7089112 9.4357792 H 4.2900227 4.0168908 V 9.1669152 8.8980522 H 3.4748949 2.932899 v 0.268863 0.268864 h 0.2731318 0.2731319 v 0.541877 0.5418748 l -0.2709981,0.0022 -0.2709979,0.0022 -0.00225,0.270997 -0.00225,0.270999 H 2.6639151 2.3951708 V 10.523952 9.9819562 H 2.664035 2.932899 V 9.7088672 9.4357352 H 2.664035 2.3951708 V 8.8937842 8.3517882 H 2.664035 2.932899 v -0.268864 -0.268864 h 0.2731318 0.2731319 v 0.268864 0.268864 h 0.2688641 0.268864 v 0.273132 0.273132 h 0.541996 0.5419959 v 0.541995 0.541996 h 0.2731317 0.2731317 v 0.2688638 0.268863 h 0.2688642 0.2688641 v 0.541997 0.541996 H 5.6428786 5.1008827 Z M 5.6471461,10.792902 V 10.51977 H 5.3740144 5.1008827 V 10.250907 9.9820432 H 4.8320185 4.5631544 v 0.2688638 0.268863 h 0.2688641 0.2688642 v 0.273132 0.273132 h 0.2731317 0.2731317 z m 5.4199579,0.541997 V 11.066034 H 10.793972 10.520841 V 10.792902 10.51977 H 9.9788454 9.4368501 v 0.273132 0.273132 H 9.1679852 8.8991215 V 10.792902 10.51977 H 8.6259261 8.3527307 l 0.00219,-0.5398598 0.00219,-0.539863 0.5398621,-0.0022 0.5398618,-0.0022 V 8.8937202 8.3517882 H 8.8948537 8.3528578 v 0.273132 0.273132 H 8.0839937 7.8151297 v 0.268863 0.268864 H 7.5419979 7.2688661 v 0.273132 0.273132 H 7.5419979 7.8151297 V 10.250907 10.51977 H 7.5419979 7.2688661 V 10.250907 9.9820432 H 6.7268703 6.1848744 V 9.7089112 9.4357792 H 5.9160103 5.6471461 v -0.268864 -0.268863 h 0.2688642 0.2688641 v -0.273132 -0.273132 h 1.0839917 1.0839917 v -0.268864 -0.268864 h 0.5419959 0.5419964 v 0.268864 0.268864 h 0.5419953 0.5419956 v -0.268864 -0.268864 h 0.273131 0.273132 v 0.268864 0.268864 h -0.273132 -0.273131 v 0.273132 0.273132 h 0.273131 0.273132 v 0.268863 0.268864 h 0.268865 0.268864 v 0.273132 0.273132 h -0.268864 -0.268865 v -0.273132 -0.273132 h -0.273132 -0.273131 v 0.541996 0.5419948 h 0.541996 0.541996 v 0.541997 0.541996 H 11.335969 11.067104 Z M 9.4368501,10.250907 V 9.9820432 h 0.2731316 0.2731307 v -0.273132 -0.273132 h 0.2688646 0.268864 V 9.1669152 8.8980522 H 10.251977 9.9831124 v 0.268863 0.268864 H 9.7099817 9.4368501 v 0.273132 0.273132 H 9.1679852 8.8991215 V 10.250907 10.51977 H 9.1679852 9.4368501 Z M 7.2688661,9.1669152 V 8.8980522 H 6.7268703 6.1848744 v 0.268863 0.268864 H 6.7268703 7.2688661 Z M 4.5631544,8.0829242 v -0.268864 h 0.2688641 0.2688642 v 0.268864 0.268864 H 4.8320185 4.5631544 Z M 1.313564,4.2100012 c 0.00296,-2.16594 -0.00147,-1.983478 0.052287,-2.153047 0.1243557,-0.392296 0.491242,-0.691697 0.9053754,-0.73884 0.052054,-0.0059 1.6020109,-0.0079 4.7842551,-0.0061 l 4.7072555,0.0027 0.07256,0.01828 c 0.449501,0.113271 0.76451,0.444992 0.840455,0.885041 0.01149,0.06659 0.01309,0.312118 0.01309,2.020748 v 1.944946 h -0.268737 -0.268738 l -0.0024,-1.94393 c -0.0022,-1.798988 -0.0036,-1.947402 -0.01689,-1.990488 -0.06015,-0.193611 -0.198825,-0.328966 -0.391603,-0.382221 -0.05178,-0.01431 -0.28925,-0.01506 -4.7404371,-0.01506 -4.5070457,0 -4.6880088,5.93e-4 -4.7407146,0.01555 -0.1914111,0.0543 -0.3317295,0.193156 -0.390234,0.386153 -0.014564,0.04805 -0.015496,0.151325 -0.01795,1.990337 l -0.00263,1.93966 H 1.579688 1.3108612 Z m 7.5855575,1.162944 v -0.273132 h 0.2688637 0.2688649 v 0.273132 0.273131 H 9.1679852 8.8991215 Z M 4.0168908,4.8309492 v -0.268864 h 0.2731319 0.2731317 v 0.268864 0.268864 H 4.2900227 4.0168908 Z m 3.2519753,0 v -0.268864 h 0.2731318 0.2731318 v 0.268864 0.268864 H 7.5419979 7.2688661 Z M 2.3951708,3.7469572 V 3.4780932 H 2.664035 2.932899 v 0.268864 0.268864 H 2.664035 2.3951708 Z m 3.2519753,0 v -0.268864 h 0.2688642 0.2688641 v 0.268864 0.268864 H 5.9160103 5.6471461 Z m 4.8736949,0 v -0.268864 h 0.273131 0.273132 v 0.268864 0.268864 h -0.273132 -0.273131 z m -2.1659691,-0.539862 0.00225,-0.270998 H 8.6259859 8.89485 l 0.00225,0.270998 0.00225,0.270998 H 8.6259897 8.3526182 Z m -3.7917175,-0.54413 v -0.268864 h 0.2688641 0.2688642 v 0.268864 0.268864 H 4.8320185 4.5631544 Z"
     id="path1" /></svg>
