<?xml version="1.0" encoding="UTF-8" standalone="no"?>
  <svg
 role="img"
 focusable="false"
 aria-hidden="true"
 viewBox="0 0 14 14"
 version="1.1"
 id="svg8"
 xmlns="http://www.w3.org/2000/svg">
  <defs
 id="defs12">
  <clipPath
 clipPathUnits="userSpaceOnUse"
 id="clipPath26">
  <g
 id="g27">
  <rect
 x="21.696568"
 y="20.771685"
 width="310.60657"
 height="141.1848"
 id="rect26" stroke-width="1.76481" />
  </g>
  </clipPath>
  <clipPath
 clipPathUnits="userSpaceOnUse"
 id="clipPath24">
  <g
 id="g25">
  <rect
 x="21.696568"
 y="20.771685"
 width="310.60657"
 height="141.1848"
 id="rect24" stroke-width="1.76481" />
  </g>
  </clipPath>
  <clipPath
 clipPathUnits="userSpaceOnUse"
 id="clipPath23">
  <g
 id="g24">
  <rect
 x="21.696568"
 y="20.771685"
 width="310.60657"
 height="141.1848"
 id="rect23" stroke-width="1.76481" />
  </g>
  </clipPath>
  <clipPath
 clipPathUnits="userSpaceOnUse"
 id="clipPath22">
  <g
 id="g23">
  <rect
 x="21.696568"
 y="20.771685"
 width="310.60657"
 height="141.1848"
 id="rect22" stroke-width="1.76481" />
  </g>
  </clipPath>
  </defs>
  <path
 d="m 13.767717,3.2098823 v 7.5802357 c 0,0.52114 -0.716585,0.947529 -1.592407,0.947529 H 1.8246868 c -0.8758222,0 -1.5924038,-0.426389 -1.5924038,-0.947529 V 3.2098823 c 0,-0.5211415 0.7165816,-0.9475292 1.5924038,-0.9475292 H 12.17531 c 0.875822,0 1.592407,0.4263877 1.592407,0.9475292 z"
 id="path2-7" fill="#f99090" fill-opacity="1" stroke-width="1.06389" />
  <text
 xml:space="preserve"
 style="font-size:7.29516px;line-height:1.05;font-family:Calibri;-inkscape-font-specification:Calibri;letter-spacing:0px;fill:none;stroke:#da251d;stroke-width:0.319163"
 x="-0.194748"
 y="9.5032225"
 id="text1">
  <tspan
 id="tspan1"
 x="-0.194748"
 y="9.5032225"
 style="font-style:normal;font-variant:normal;font-weight:normal;font-stretch:normal;font-size:7.29516px;font-family:Verdana;-inkscape-font-specification:Verdana;fill:#000000;fill-opacity:1;stroke:none;stroke-width:0.319163">+</tspan>
  </text>
  <polyline
 points="12.00,10.44 12.27,13.21 12.55,9.41 12.82,11.87 13.09,10.64 13.36,8.76 13.64,11.61 13.91,9.08 14.18,11.79 14.45,9.89 14.73,10.14 15.00,12.08 15.27,14.27 15.55,9.72 15.82,10.00 16.09,12.21 16.36,14.10 16.64,12.02 16.91,11.23 17.18,15.05 17.45,9.75 17.73,14.75 18.00,11.27 18.27,10.17 18.55,9.69 18.82,10.51 19.09,13.34 19.36,9.49 19.64,12.05 19.91,12.68 20.18,11.42 20.45,12.75 20.73,9.97 21.00,9.89"
 id="polyline2"
 transform="matrix(0.89438529,0,0,1.0820077,-5.2711173,-5.4894961)" fill="none" stroke="#000000" stroke-width="0.225218" stroke-dasharray="none" />
</svg>
