<?xml version="1.0" encoding="UTF-8" standalone="no"?>
  <svg
 role="img"
 focusable="false"
 aria-hidden="true"
 viewBox="0 0 14 14"
 version="1.1"
 id="svg12"
 xmlns="http://www.w3.org/2000/svg">
  <g
 id="g7"
 transform="matrix(0.0493164,0,0,0.05618714,0.69457319,-2.0927243)">
  <path
 d="M 114.18594,254.30659 H 89.508523 c -4.26839,0 -7.7275,-3.45911 -7.7275,-7.7275 V 141.49633 c 0,-4.26839 3.45911,-7.7275 7.7275,-7.7275 h 24.677417 c 4.26839,0 7.7275,3.45911 7.7275,7.7275 v 105.08276 c 0,4.26839 -3.45911,7.7275 -7.7275,7.7275 z"
 stroke-linecap="round"
 id="path1-8" fill="#ffc36e" stroke="none" stroke-width="2.81" stroke-dasharray="none" />
  <path
 d="m 166.20466,254.30659 h -24.67742 c -4.26839,0 -7.7275,-4.56509 -7.7275,-10.1982 V 79.55017 c 0,-5.633117 3.45911,-10.198204 7.7275,-10.198204 h 24.67742 c 4.26839,0 7.7275,4.565087 7.7275,10.198204 v 164.55822 c 0,5.63311 -3.46192,10.1982 -7.7275,10.1982 z"
 stroke-linecap="round"
 id="path2" fill="#a5d76e" stroke="none" stroke-width="3.22811" stroke-dasharray="none" />
  <path
 d="m 62.170033,254.30659 h -24.67742 c -4.26839,0 -7.7275,-3.45911 -7.7275,-7.7275 v -54.61797 c 0,-4.26839 3.45911,-7.7275 7.7275,-7.7275 h 24.67742 c 4.26839,0 7.7275,3.45911 7.7275,7.7275 v 54.61797 c 0,4.26839 -3.46192,7.7275 -7.7275,7.7275 z"
 stroke-linecap="round"
 id="path3" fill="#d2555a" stroke="none" stroke-width="2.81" stroke-dasharray="none" />
  <path
 d="m 218.22057,254.30659 h -24.67742 c -4.26839,0 -7.7275,-2.74667 -7.7275,-6.13595 V 121.16998 c 0,-3.38928 3.45911,-6.13595 7.7275,-6.13595 h 24.67742 c 4.26839,0 7.7275,2.74667 7.7275,6.13595 v 127.00066 c 0,3.38928 -3.45911,6.13595 -7.7275,6.13595 z"
 stroke-linecap="round"
 id="path4" fill="#78d2be" stroke="none" stroke-width="2.50396" stroke-dasharray="none" />
  </g>
  <rect
 id="rect28089-7"
 width="0.56253999"
 height="11.990077"
 x="2.5139291"
 y="-12.995039"
 transform="rotate(90)" fill="#696969" fill-opacity="0.817241" stroke-width="0.549989" />
  <rect
 id="rect28089-7-6"
 width="0.56253999"
 height="11.990077"
 x="10.932852"
 y="-12.995039"
 transform="rotate(90)" fill="#696969" fill-opacity="0.817241" stroke-width="0.549989" />
  <path
 d="M 3.4500959,9.1288487 H 2.9066629 V 4.7819556 h 0.543433 c 0.07356,0 0.137288,-0.026885 0.191006,-0.080655 0.05369,-0.053769 0.0806,-0.1174398 0.0806,-0.1910092 0,-0.073569 -0.02675,-0.137239 -0.0807,-0.1910612 L 2.5543439,3.2325197 c -0.05372,-0.05377 -0.11744,-0.080655 -0.191013,-0.080655 -0.07356,0 -0.137237,0.026885 -0.191006,0.080655 L 1.085612,4.3192298 c -0.05376,0.05382 -0.08065,0.1174918 -0.08065,0.1910612 0,0.073569 0.02688,0.137239 0.08065,0.1910092 0.05382,0.053769 0.117496,0.080655 0.191062,0.080655 H 1.820057 V 9.1288483 H 1.276725 c -0.07362,0 -0.137288,0.026882 -0.191057,0.080603 -0.05376,0.053816 -0.08066,0.1175444 -0.08066,0.191061 0,0.073571 0.02688,0.1372393 0.08066,0.1910611 l 1.0867079,1.0866586 c 0.05375,0.05377 0.11744,0.08066 0.191006,0.08066 0.07357,0 0.137294,-0.02688 0.191013,-0.08066 l 1.086707,-1.0866586 c 0.05369,-0.053816 0.0806,-0.1174918 0.0806,-0.1910611 0,-0.073517 -0.02688,-0.1372385 -0.0806,-0.191061 -0.05369,-0.053771 -0.117389,-0.080603 -0.191006,-0.080603 z"
 id="path1" fill="#0abc2e" fill-opacity="1" stroke-width="0.633918" />
  <path
 d="M 12.723433,9.1288489 H 12.18 V 4.7819556 h 0.543433 c 0.07356,0 0.137288,-0.026885 0.191006,-0.080655 0.05369,-0.053769 0.0806,-0.1174398 0.0806,-0.1910092 0,-0.073569 -0.02675,-0.137239 -0.0807,-0.1910612 L 11.827681,3.2325197 c -0.05372,-0.05377 -0.11744,-0.080655 -0.191013,-0.080655 -0.07356,0 -0.137237,0.026885 -0.191006,0.080655 l -1.086713,1.0867101 c -0.05376,0.05382 -0.08065,0.1174918 -0.08065,0.1910612 0,0.073569 0.02688,0.137239 0.08065,0.1910092 0.05382,0.053769 0.117496,0.080655 0.191062,0.080655 h 0.543383 v 4.3468927 h -0.543332 c -0.07362,0 -0.137288,0.02688 -0.191057,0.0806 -0.05376,0.05382 -0.08066,0.117545 -0.08066,0.191061 0,0.07357 0.02688,0.13724 0.08066,0.191061 l 1.086708,1.0866591 c 0.05375,0.05377 0.11744,0.08066 0.191006,0.08066 0.07357,0 0.137294,-0.02688 0.191013,-0.08066 l 1.086707,-1.0866591 c 0.05369,-0.05382 0.0806,-0.117491 0.0806,-0.191061 0,-0.07352 -0.02688,-0.137238 -0.0806,-0.191061 -0.05369,-0.05377 -0.117389,-0.0806 -0.191006,-0.080599 z"
 id="path1-6" fill="#0abc2e" fill-opacity="1" stroke-width="0.633918" />
</svg>
