<?xml version="1.0" encoding="UTF-8" standalone="no"?>
  <svg
 role="img"
 focusable="false"
 aria-hidden="true"
 viewBox="0 0 14 14"
 version="1.1"
 id="svg12"
 xml:space="preserve"
 xmlns="http://www.w3.org/2000/svg">
  <g
 id="g198"
 transform="matrix(1.0675544,0,0,1.0675544,-0.47288119,-11.002131)">
  <path
 d="m 1.4158248,16.490928 -0.3374775,0.0306 -0.039332,-0.209667 -0.039332,-0.209669 0.03868,-0.06257 0.03868,-0.06258 H 1.3264995 1.575955 l 0.3021977,-0.150601 0.3021975,-0.150591 0.4880374,-0.514634 0.4880373,-0.514636 0.7272136,-1.014667 0.727213,-1.01467 0.4031777,-0.489205 0.4031765,-0.489205 0.3976153,-0.298709 0.3976175,-0.29871 0.2872121,-0.09606 0.287214,-0.09606 0.3603951,0.02893 0.3603989,0.02893 0.307281,0.155712 0.3072821,0.155711 0.419577,0.395761 0.419579,0.395761 0.568649,0.764005 0.5686493,0.764003 0.46477,0.646464 0.464772,0.646464 0.442431,0.443576 0.442431,0.443577 0.268326,0.129426 0.268325,0.129426 h 0.275293 0.275293 v 0.272626 0.272625 l -0.34459,-0.03125 -0.344589,-0.03125 -0.257797,-0.115037 -0.257798,-0.115037 -0.306785,-0.243861 -0.306786,-0.243863 -0.369063,-0.432852 -0.369064,-0.432852 -0.7933893,-1.105086 -0.793389,-1.105087 -0.450423,-0.477544 -0.450421,-0.477546 -0.307308,-0.167256 -0.307305,-0.167258 -0.301997,-0.0043 -0.301995,-0.0043 -0.254364,0.132581 -0.2543622,0.132581 -0.2258666,0.181512 -0.2258667,0.181511 -0.3764487,0.447834 -0.3764467,0.447834 -0.7359749,1.028467 -0.7359747,1.028464 -0.333592,0.373297 L 2.88513,15.695352 2.6182201,15.926361 2.3513112,16.15737 2.0523123,16.308885 1.7533133,16.4604 Z"
 id="path198" fill="#ff2a2a" stroke-width="0.792323" />
  <path
 d="m 1.4158236,17.234997 -0.3374776,-0.0306 -0.039331,0.209668 -0.039331,0.209669 0.038681,0.06258 0.038681,0.06258 h 0.2494541 0.2494556 l 0.3021976,0.150592 0.3021976,0.150591 0.4880374,0.514634 0.4880373,0.514635 0.7272136,1.014668 0.7272129,1.014669 0.4031776,0.489206 0.403176,0.489204 0.3976161,0.298709 0.3976167,0.29871 0.2872125,0.09606 0.287213,0.09606 0.360397,-0.02893 0.360398,-0.02893 0.307281,-0.155712 0.307282,-0.155712 0.419577,-0.39576 0.419578,-0.395761 0.56865,-0.764004 0.568649,-0.764004 0.46477,-0.646465 0.464771,-0.646463 0.442431,-0.443576 0.442432,-0.443577 0.268325,-0.129426 0.268326,-0.129426 h 0.275292 0.275293 V 17.47626 17.203635 l -0.34459,0.03125 -0.344588,0.03125 -0.257798,0.115037 -0.257797,0.115037 -0.306786,0.243862 -0.306785,0.243861 -0.369064,0.432853 -0.369063,0.432852 -0.793389,1.105087 -0.793388,1.105085 -0.450424,0.477545 -0.450422,0.477546 -0.307307,0.167256 -0.307306,0.167258 -0.301996,0.0043 -0.301995,0.0043 L 6.483254,22.225463 6.2288921,22.092882 6.003025,21.911369 5.7771585,21.729859 5.4007098,21.282025 5.0242631,20.834192 4.2882881,19.805725 3.5523136,18.77726 3.2187216,18.403963 2.8851306,18.030604 2.6182204,17.799595 2.3513114,17.568586 2.0523126,17.417072 1.7533136,17.265557 Z"
 id="path198-9" fill="#008000" stroke-width="0.792327" />
  <path
 d="M 6.4166767,22.412814 6.3130247,22.437644 6.210906,22.415774 6.108787,22.393904 6.024288,22.230504 5.939789,22.0671 5.883717,21.815095 5.827645,21.563092 5.737548,20.868243 5.647452,20.173394 5.4156731,17.741423 5.1838942,15.309452 l -0.08742,-0.694848 -0.087421,-0.694849 -0.03823,-0.173712 -0.03823,-0.173713 -0.04672,0.215011 -0.04672,0.215011 -0.2648118,1.811632 -0.2648257,1.811631 -0.108372,0.497688 -0.108372,0.497688 -0.086546,0.207133 -0.086546,0.207133 -0.1519686,0.09957 -0.1519685,0.09957 L 3.4732213,19.169466 3.3307,19.104528 3.2140809,18.915159 3.0974618,18.72579 2.8022078,17.799325 2.5069539,16.87286 2.3966466,16.65572 2.2863394,16.43858 h -0.062357 -0.062357 l -0.4016636,0.387773 -0.4016636,0.387774 -0.1791498,-0.17915 -0.1791498,-0.17915 0.4178529,-0.396812 0.4178528,-0.396812 0.1756559,-0.07543 0.1756559,-0.07543 0.1593752,0.035 0.1593752,0.035 0.1165453,0.127281 0.1165453,0.12728 0.116094,0.231616 0.1160941,0.231617 0.2737904,0.868561 0.2737905,0.86856 0.04268,0.04676 0.04268,0.04676 0.1245306,-0.596847 0.1245307,-0.596848 0.2311345,-1.621313 0.2311345,-1.621314 0.092201,-0.463232 0.092201,-0.463233 0.1062613,-0.243932 0.1062613,-0.243932 0.1588948,-0.03988 0.1588957,-0.03988 0.132141,0.153623 0.132141,0.153623 0.060682,0.217045 0.060682,0.217045 0.1133334,0.781705 0.1133326,0.781704 0.1185136,1.215986 0.1185135,1.215985 0.1757419,1.787484 0.1757419,1.787483 0.049739,0.210207 0.049746,0.210207 0.0058,-0.104102 0.0058,-0.1041 0.08744,-0.76446 0.08744,-0.764461 0.231497,-2.779394 0.231497,-2.779395 0.08785,-0.781705 0.08784,-0.781705 0.0866,-0.431799 0.0866,-0.431799 0.08903,-0.135878 0.08903,-0.135877 0.08717,-0.03345 0.08718,-0.03345 0.138047,0.0629 0.138047,0.0629 0.09091,0.306145 0.09092,0.306145 0.113443,0.86903 0.113444,0.86903 0.205966,2.200355 0.205965,2.200354 0.113832,0.913019 0.113833,0.913019 v 0.06029 0.06029 l 0.05009,-0.03096 0.05009,-0.03096 0.03149,-0.218551 0.03149,-0.218553 0.238847,-1.650265 0.238847,-1.650266 0.11773,-0.579041 0.11773,-0.57904 0.10648,-0.241141 0.1064786,-0.24114 0.117448,-0.06285 0.117448,-0.06285 h 0.114467 0.114468 l 0.146349,0.173927 0.146349,0.173925 0.35261,1.085488 0.352609,1.085486 0.10437,0.136139 0.10437,0.136138 0.446386,-0.390865 0.446386,-0.390866 0.170974,0.163803 0.170974,0.163803 -0.100888,0.113537 -0.100888,0.113536 -0.39234,0.339289 -0.392339,0.339288 h -0.217247 -0.217251 l -0.127816,-0.08952 -0.127816,-0.08952 -0.140749,-0.243423 -0.140749,-0.243422 -0.301127,-0.950688 -0.301127,-0.950688 -0.04445,0.08213 -0.04445,0.08213 -0.09022,0.405328 -0.09022,0.405329 -0.2655793,1.852929 -0.265579,1.85293 -0.113812,0.45838 -0.113811,0.458379 -0.08854,0.135138 -0.08854,0.135137 h -0.163405 -0.163403 l -0.09953,-0.109986 -0.09954,-0.109986 -0.08302,-0.309818 -0.08302,-0.309819 -0.115774,-0.868561 -0.115774,-0.868561 -0.229863,-2.403018 -0.229863,-2.40302 -0.06867,-0.599454 -0.06867,-0.599455 -0.04294,0.07832 -0.04294,0.07832 -0.121993,1.27389 -0.121993,1.273889 -0.145316,1.766074 -0.145316,1.766074 -0.119204,1.187034 -0.119202,1.187033 -0.08404,0.482912 -0.08404,0.482911 -0.08333,0.161149 -0.08333,0.161149 z"
 id="path197" fill="#0000ff" stroke-width="0.723787" />
  </g>
</svg>
