<?xml version="1.0" encoding="UTF-8" standalone="no"?>
  <svg
 role="img"
 focusable="false"
 aria-hidden="true"
 viewBox="0 0 14 14"
 version="1.1"
 id="svg3"
 xmlns="http://www.w3.org/2000/svg">
  <rect
 id="rect1"
 width="11.063063"
 height="10.900901"
 x="1.5855856"
 y="1.5855856"
 ry="0" fill="#ffffff" stroke-width="0.6" />
  <g
 id="g2"
 transform="matrix(0.85018746,0,0,0.85018746,1.018018,1.0720721)">
  <path
 d="M 0.45591186,0 C 0.20418398,0 0,0.1689063 0,0.3789063 V 13.621094 C 0,13.831194 0.20418398,14 0.45591186,14 H 4.6167432 c 0.2518147,0 0.4542171,-0.168806 0.4542171,-0.378906 V 0.3789063 C 5.0709603,0.1689063 4.8685579,0 4.6167432,0 Z M 1.0508006,1.0585938 H 4.0201597 V 4.2734376 H 1.0508006 Z m 0,4.2832032 H 4.0201597 V 8.5566407 H 1.0508006 Z m 0,4.2832026 H 4.0201597 V 12.841797 H 1.0508006 Z"
 id="path2-79" fill="#999999" stroke-width="0.931535" />
  <path
 d="M 4.9876524,0 C 4.7359245,0 4.5317405,0.1689063 4.5317405,0.3789063 V 13.621094 C 4.5317405,13.831194 4.7359245,14 4.9876524,14 H 9.1484835 C 9.4002982,14 9.602701,13.831194 9.602701,13.621094 V 0.3789063 C 9.602701,0.1689063 9.4002982,0 9.1484835,0 Z M 5.5825411,1.0585938 H 8.5519002 V 4.2734376 H 5.5825411 Z m 0,4.2832032 H 8.5519002 V 8.5566407 H 5.5825411 Z m 0,4.2832026 H 8.5519002 V 12.841797 H 5.5825411 Z"
 id="path2-7" fill="#999999" stroke-width="0.931535" />
  <path
 d="M 9.4849749,0 C 9.233247,0 9.0290627,0.1689063 9.0290627,0.3789063 V 13.621094 C 9.0290627,13.831194 9.233247,14 9.4849749,14 h 4.1608311 c 0.251815,0 0.454217,-0.168806 0.454217,-0.378906 V 0.3789063 C 14.100023,0.1689063 13.897621,0 13.645806,0 Z m 0.5948891,1.0585938 h 2.969359 v 3.2148438 h -2.969359 z m 0,4.2832032 h 2.969359 v 3.2148438 h -2.969359 z m 0,4.2832027 h 2.969359 v 3.2167973 h -2.969359 z"
 id="path2-3" fill="#999999" stroke-width="0.931535" />
  </g>
</svg>
