<?xml version="1.0" encoding="UTF-8" standalone="no"?>
  <svg
 role="img"
 focusable="false"
 aria-hidden="true"
 viewBox="0 0 14 14"
 version="1.1"
 id="svg3"
 xmlns="http://www.w3.org/2000/svg">
  <path
 d="M 1.265625,9.6347656 V 12.408203 H 12.761719 V 9.6347656 Z"
 id="path8" fill="#999999" stroke-width="1.305" />
  <path
 d="M 1.2382812,3.3945313 V 6.1679687 H 12.734375 V 3.3945313 Z"
 id="path10" fill="#999999" stroke-width="1.305" />
  <path
 d="M 1.2382812,6.4804687 V 9.2539063 H 12.734375 V 6.4804687 Z"
 id="path7" fill="#cccccc" stroke-width="1.305" />
  <path
 d="M5.0086942 12.037428V9.93933025c0-.08850747-.021633-.16121228-.0649-.21811601-.043267-.05689532-.098553-.08534232-.16586-.08534232H1.7320144c-.067313 0-.122603.028447-.165869.08534232-.043267.05689531-.0649.12960065-.0649.21811601V12.037428c0 .08851142.021633.1612207.0649.21811601.043267.05689926.098556.08534232.165869.08534232h3.0459198c.067307 0 .1225933-.02844306.16586-.08534232.043267-.05689925.0649-.1296046.0649-.21811601zm0-3.08676884V6.8178927c0-.08850747-.021633-.16121228-.0649-.21811601-.043267-.05689531-.098553-.08534231-.16586-.08534231H1.7320144c-.067313 0-.122603.028447-.165869.0853423-.043267.05689532-.0649.12960066-.0649.21811602v2.13276646c0 .08850747.021633.16121241.0649.21811601.043267.05689531.098556.08534231.165869.08534231h3.0459198c.067307 0 .1225933-.028447.16586-.0853423.043267-.05689532.0649-.12960066.0649-.21811602zm3.69231 3.08676884V9.93933025c0-.08850747-.021633-.16121228-.0649-.21811601-.043267-.05689532-.098553-.08534232-.16586-.08534232H5.5297758c-.067307 0-.1225933.028447-.16586.08534232-.043267.05689531-.0649.12960065-.0649.21811601V12.037428c0 .08851142.021633.1612207.0649.21811601.043267.05689926.098553.08534232.16586.08534232h2.9404684c.067307 0 .1225933-.02844306.16586-.08534232.043267-.05689925.0649-.1296046.0649-.21811601zm-3.69231-6.2082064V3.73112518c0-.08850747-.021633-.16121241-.0649-.21811601-.043267-.05689531-.098553-.08534231-.16586-.08534231H1.7320144c-.067313 0-.122603.028447-.165869.08534231-.043267.05689531-.0649.12960065-.0649.21811601v2.09809644c0 .08850747.021633.16121242.0649.21811601.043267.05689532.098556.08534232.165869.08534232h3.0459198c.067307 0 .1225933-.028447.16586-.08534232.043267-.05689531.0649-.12960065.0649-.21811601zm3.69231 3.12143756V6.8178927c0-.08850747-.021633-.16121228-.0649-.21811601-.043267-.05689531-.098553-.08534231-.16586-.08534231H5.5297758c-.067307 0-.1225933.028447-.16586.0853423-.043267.05689532-.0649.12960066-.0649.21811602v2.13276646c0 .08850747.021633.16121241.0649.21811601.043267.05689531.098553.08534231.16586.08534231h2.9404684c.067307 0 .1225933-.028447.16586-.0853423.043267-.05689532.0649-.12960066.0649-.21811602zM12.498766 12.037428V9.93933025c0-.08850747-.02163-.16121228-.0649-.21811601-.04327-.05689532-.09856-.08534232-.16587-.08534232H9.2220758c-.067307 0-.1225933.028447-.16586.08534232-.043267.05689531-.0649.12960065-.0649.21811601V12.037428c0 .08851142.021633.1612207.0649.21811601.043267.05689926.098553.08534232.16586.08534232h3.0459202c.06731 0 .122603-.02844306.16587-.08534232.04327-.05689925.0649-.1296046.0649-.21811601zM8.7010042 5.8292216V3.73112518c0-.08850747-.021633-.16121241-.0649-.21811601-.043267-.05689531-.098553-.08534231-.16586-.08534231H5.5297758c-.067307 0-.1225933.028447-.16586.08534231-.043267.05689531-.0649.12960065-.0649.21811601v2.09809644c0 .08850747.021633.16121242.0649.21811601.043267.05689532.098553.08534232.16586.08534232h2.9404684c.067307 0 .1225933-.028447.16586-.08534232.043267-.05689531.0649-.12960065.0649-.21811601zm3.7977618 3.12143756V6.8178927c0-.08850747-.02163-.16121228-.0649-.21811601-.04327-.05689531-.09856-.08534231-.16587-.08534231H9.2220758c-.067307 0-.1225933.028447-.16586.0853423-.043267.05689532-.0649.12960066-.0649.21811602v2.13276646c0 .08850747.021633.16121241.0649.21811601.043267.05689531.098553.08534231.16586.08534231h3.0459202c.06731 0 .122603-.028447.16587-.0853423.04327-.05689532.0649-.12960066.0649-.21811602zm0-3.12143755V3.73112517c0-.08850747-.02163-.16121241-.0649-.21811601-.04327-.05689531-.09856-.08534231-.16587-.08534231H9.2220758c-.067307 0-.1225933.028447-.16586.08534231-.043267.05689531-.0649.12960065-.0649.21811601v2.09809644c0 .08850747.021633.16121242.0649.21811601.043267.05689532.098553.08534232.16586.08534232h3.0459202c.06731 0 .122603-.028447.16587-.08534232.04327-.05689531.0649-.12960065.0649-.21811601zM13 2.51729187v8.96541583c0 .41726132-.11298.774459-.33894 1.07159227-.22596.29713326-.497597.4456999-.81491.4456999h-9.6923c-.31731 0-.588946-.14856664-.814908-.4456999C1.1129807 12.2571667 1 11.89996902 1 11.4827077V2.51729187c0-.4172525.1129807-.77444533.338942-1.07157859.225962-.29714208.497598-.44571305.814908-.44571305h9.6923c.317313 0 .58895.14857097.81491.44571305.22596.29713326.33894.65432608.33894 1.07157859z"
 id="path3" fill="#1a1a1a" />
  <rect
 id="rect19"
 width="11.002709"
 height="2.8110001"
 x="1.5082331"
 y="3.3595252"
 ry="0.25537145" fill="#008080" stroke-width="2.02729" />
  <rect
 id="rect19-3"
 width="11.002709"
 height="2.8110001"
 x="1.5082331"
 y="6.4613943"
 ry="0.25537145" fill="#b3b3b3" stroke-width="2.02729" />
  <rect
 id="rect19-6"
 width="11.002709"
 height="2.8110001"
 x="1.5082331"
 y="9.5632639"
 ry="0.25537145" fill="#00ffff" stroke-width="2.02729" />
</svg>
