<?xml version="1.0" encoding="UTF-8" standalone="no"?>
<svg
   role="img"
   focusable="false"
   aria-hidden="true"
   viewBox="0 0 14 14"
   version="1.1"
   id="svg3"
   sodipodi:docname="h5group.svg"
   inkscape:version="1.3.2 (091e20e, 2023-11-25, custom)"
   xmlns:inkscape="http://www.inkscape.org/namespaces/inkscape"
   xmlns:sodipodi="http://sodipodi.sourceforge.net/DTD/sodipodi-0.dtd"
   xmlns="http://www.w3.org/2000/svg"
   xmlns:svg="http://www.w3.org/2000/svg">
  <defs
     id="defs3" />
  <sodipodi:namedview
     id="namedview3"
     pagecolor="#505050"
     bordercolor="#ffffff"
     borderopacity="1"
     inkscape:showpageshadow="0"
     inkscape:pageopacity="0"
     inkscape:pagecheckerboard="1"
     inkscape:deskcolor="#505050"
     inkscape:zoom="55.5"
     inkscape:cx="6.990991"
     inkscape:cy="7"
     inkscape:window-width="1920"
     inkscape:window-height="991"
     inkscape:window-x="-9"
     inkscape:window-y="-9"
     inkscape:window-maximized="1"
     inkscape:current-layer="svg3" />
  <path
     fill="#999"
     stroke-width="1.30499995"
     d="M1.2391714 3.39432457h11.495292v2.77359609H1.2391714zm.0263654 6.24058005h11.495292v2.7735961H1.2655368z"
     id="path1" />
  <path
     fill="#ccc"
     stroke-width="1.30499995"
     d="M1.2391715 6.47995595h11.495292v2.7735961H1.2391715z"
     id="path2" />
  <path
     d="M5.0086942 12.037428V9.93933025c0-.08850747-.021633-.16121228-.0649-.21811601-.043267-.05689532-.098553-.08534232-.16586-.08534232H1.7320144c-.067313 0-.122603.028447-.165869.08534232-.043267.05689531-.0649.12960065-.0649.21811601V12.037428c0 .08851142.021633.1612207.0649.21811601.043267.05689926.098556.08534232.165869.08534232h3.0459198c.067307 0 .1225933-.02844306.16586-.08534232.043267-.05689925.0649-.1296046.0649-.21811601zm0-3.08676884V6.8178927c0-.08850747-.021633-.16121228-.0649-.21811601-.043267-.05689531-.098553-.08534231-.16586-.08534231H1.7320144c-.067313 0-.122603.028447-.165869.0853423-.043267.05689532-.0649.12960066-.0649.21811602v2.13276646c0 .08850747.021633.16121241.0649.21811601.043267.05689531.098556.08534231.165869.08534231h3.0459198c.067307 0 .1225933-.028447.16586-.0853423.043267-.05689532.0649-.12960066.0649-.21811602zm3.69231 3.08676884V9.93933025c0-.08850747-.021633-.16121228-.0649-.21811601-.043267-.05689532-.098553-.08534232-.16586-.08534232H5.5297758c-.067307 0-.1225933.028447-.16586.08534232-.043267.05689531-.0649.12960065-.0649.21811601V12.037428c0 .08851142.021633.1612207.0649.21811601.043267.05689926.098553.08534232.16586.08534232h2.9404684c.067307 0 .1225933-.02844306.16586-.08534232.043267-.05689925.0649-.1296046.0649-.21811601zm-3.69231-6.2082064V3.73112518c0-.08850747-.021633-.16121241-.0649-.21811601-.043267-.05689531-.098553-.08534231-.16586-.08534231H1.7320144c-.067313 0-.122603.028447-.165869.08534231-.043267.05689531-.0649.12960065-.0649.21811601v2.09809644c0 .08850747.021633.16121242.0649.21811601.043267.05689532.098556.08534232.165869.08534232h3.0459198c.067307 0 .1225933-.028447.16586-.08534232.043267-.05689531.0649-.12960065.0649-.21811601zm3.69231 3.12143756V6.8178927c0-.08850747-.021633-.16121228-.0649-.21811601-.043267-.05689531-.098553-.08534231-.16586-.08534231H5.5297758c-.067307 0-.1225933.028447-.16586.0853423-.043267.05689532-.0649.12960066-.0649.21811602v2.13276646c0 .08850747.021633.16121241.0649.21811601.043267.05689531.098553.08534231.16586.08534231h2.9404684c.067307 0 .1225933-.028447.16586-.0853423.043267-.05689532.0649-.12960066.0649-.21811602zM12.498766 12.037428V9.93933025c0-.08850747-.02163-.16121228-.0649-.21811601-.04327-.05689532-.09856-.08534232-.16587-.08534232H9.2220758c-.067307 0-.1225933.028447-.16586.08534232-.043267.05689531-.0649.12960065-.0649.21811601V12.037428c0 .08851142.021633.1612207.0649.21811601.043267.05689926.098553.08534232.16586.08534232h3.0459202c.06731 0 .122603-.02844306.16587-.08534232.04327-.05689925.0649-.1296046.0649-.21811601zM8.7010042 5.8292216V3.73112518c0-.08850747-.021633-.16121241-.0649-.21811601-.043267-.05689531-.098553-.08534231-.16586-.08534231H5.5297758c-.067307 0-.1225933.028447-.16586.08534231-.043267.05689531-.0649.12960065-.0649.21811601v2.09809644c0 .08850747.021633.16121242.0649.21811601.043267.05689532.098553.08534232.16586.08534232h2.9404684c.067307 0 .1225933-.028447.16586-.08534232.043267-.05689531.0649-.12960065.0649-.21811601zm3.7977618 3.12143756V6.8178927c0-.08850747-.02163-.16121228-.0649-.21811601-.04327-.05689531-.09856-.08534231-.16587-.08534231H9.2220758c-.067307 0-.1225933.028447-.16586.0853423-.043267.05689532-.0649.12960066-.0649.21811602v2.13276646c0 .08850747.021633.16121241.0649.21811601.043267.05689531.098553.08534231.16586.08534231h3.0459202c.06731 0 .122603-.028447.16587-.0853423.04327-.05689532.0649-.12960066.0649-.21811602zm0-3.12143755V3.73112517c0-.08850747-.02163-.16121241-.0649-.21811601-.04327-.05689531-.09856-.08534231-.16587-.08534231H9.2220758c-.067307 0-.1225933.028447-.16586.08534231-.043267.05689531-.0649.12960065-.0649.21811601v2.09809644c0 .08850747.021633.16121242.0649.21811601.043267.05689532.098553.08534232.16586.08534232h3.0459202c.06731 0 .122603-.028447.16587-.08534232.04327-.05689531.0649-.12960065.0649-.21811601zM13 2.51729187v8.96541583c0 .41726132-.11298.774459-.33894 1.07159227-.22596.29713326-.497597.4456999-.81491.4456999h-9.6923c-.31731 0-.588946-.14856664-.814908-.4456999C1.1129807 12.2571667 1 11.89996902 1 11.4827077V2.51729187c0-.4172525.1129807-.77444533.338942-1.07157859.225962-.29714208.497598-.44571305.814908-.44571305h9.6923c.317313 0 .58895.14857097.81491.44571305.22596.29713326.33894.65432608.33894 1.07157859z"
     id="path3"
     style="fill:#1a1a1a" />
</svg>
