<?xml version="1.0" encoding="UTF-8" standalone="no"?>
<svg
   role="img"
   focusable="false"
   aria-hidden="true"
   viewBox="0 0 14 14"
   version="1.1"
   id="svg12"
   sodipodi:docname="edges.svg"
   inkscape:version="1.3.2 (091e20e, 2023-11-25, custom)"
   xmlns:inkscape="http://www.inkscape.org/namespaces/inkscape"
   xmlns:sodipodi="http://sodipodi.sourceforge.net/DTD/sodipodi-0.dtd"
   xmlns="http://www.w3.org/2000/svg"
   xmlns:svg="http://www.w3.org/2000/svg">
  <defs
     id="defs16" />
  <sodipodi:namedview
     id="namedview14"
     pagecolor="#ffffff"
     bordercolor="#000000"
     borderopacity="0.25"
     inkscape:showpageshadow="2"
     inkscape:pageopacity="0.0"
     inkscape:pagecheckerboard="0"
     inkscape:deskcolor="#d1d1d1"
     showgrid="false"
     inkscape:zoom="21.137442"
     inkscape:cx="11.780044"
     inkscape:cy="10.668273"
     inkscape:window-width="1920"
     inkscape:window-height="1009"
     inkscape:window-x="-8"
     inkscape:window-y="-8"
     inkscape:window-maximized="1"
     inkscape:current-layer="svg12" />
  <path
     id="path1"
     style="opacity:1;fill:#008000;stroke-width:0.835741;stroke-miterlimit:10"
     d="M 7.7374572,2.4634343 C 7.3644895,2.4712299 7.0129844,2.7309089 6.8938703,3.0841605 6.3632477,3.8416265 5.4839317,3.6989949 4.6141333,3.1989024 4.2402236,3.0265198 3.7820372,3.0518568 3.4312376,3.2684403 3.1059149,3.4637423 2.8758554,3.8113634 2.8305164,4.1889264 2.7750036,4.6078102 2.9419428,5.0517582 3.269605,5.3210613 3.9536806,7.0656654 2.9972855,7.3950847 2.5702001,8.4407161 c -0.089506,0.2849776 -0.032181,0.6112552 0.1521293,0.8468357 0.2003349,0.2638328 0.9107352,0.080957 1.7842183,0.5331139 0.873483,0.4521543 0.9480814,1.1229083 0.9480814,1.1229083 0.1936075,0.375825 0.5832588,0.646154 1.0061741,0.682078 0.4214107,0.04187 0.8595757,-0.141769 1.1186276,-0.478205 C 7.9645744,10.197177 8.178309,9.9382597 9.1043795,9.9672807 9.3765063,10.0732 9.6984943,10.039191 9.9403992,9.8748407 10.193176,9.7090994 10.360258,9.4170004 10.363654,9.1134677 10.371054,8.795196 10.204277,8.4778349 9.9329252,8.3095053 9.6928523,7.9617139 10.175869,7.4392863 10.855642,7.025654 11.164579,6.7517085 11.329531,6.3210955 11.270044,5.9110181 11.215424,5.4927268 10.940458,5.1078445 10.555892,4.9309485 c 0,0 -1.2361266,-0.3174174 -1.6198476,-0.7669209 C 8.5523242,3.7145292 8.5487649,2.4385768 7.737457,2.4634343 Z"
     sodipodi:nodetypes="sccccccczcccccccccczss" />
  <path
     id="path1-6"
     style="fill:none;stroke:#362fff;stroke-width:0.744;stroke-miterlimit:10;stroke-dasharray:none;stroke-opacity:1"
     d="M 8.0393895,1.276323 C 7.5736958,1.286053 7.1348006,1.610296 6.9860728,2.051372 6.3235285,2.9971566 5.2255998,2.8190644 4.1395549,2.1946406 3.6726852,1.9794008 3.1005858,2.011037 2.6625716,2.2814666 2.2563681,2.5253239 1.969112,2.9593694 1.912501,3.4308009 1.8431868,3.9538265 2.0516298,4.5081473 2.4607544,4.8444037 3.3149027,7.0227456 2.1207318,7.434064 1.5874657,8.739657 1.4757063,9.0954847 1.5472839,9.5028804 1.7774169,9.7970302 c 0.2501415,0.3294258 1.1371592,0.1010843 2.2278048,0.6656538 1.0906456,0.564569 1.1837904,1.402083 1.1837904,1.402083 0.2417415,0.469263 0.7282667,0.806799 1.2563258,0.851655 0.5261805,0.05227 1.0732806,-0.177017 1.3967371,-0.597095 0.4808968,-1.186523 0.7477693,-1.509813 1.9040764,-1.473576 0.3397816,0.132253 0.7418216,0.08979 1.0438676,-0.115417 0.315621,-0.206946 0.524243,-0.5716657 0.528483,-0.9506619 0.0093,-0.3973994 -0.199001,-0.7936617 -0.537815,-1.003841 -0.299759,-0.4342581 0.303344,-1.08657 1.15212,-1.6030382 0.385744,-0.342053 0.591706,-0.8797235 0.51743,-1.3917531 -0.0682,-0.5222854 -0.411527,-1.002856 -0.891703,-1.2237312 0,0 -1.543449,-0.3963327 -2.0225685,-0.9575903 C 9.0568461,2.8384608 9.0524018,1.2452854 8.0393895,1.276323 Z"
     sodipodi:nodetypes="sccccccczcccccccccczss" />
</svg>
