<?xml version="1.0" encoding="UTF-8" standalone="no"?>
<svg
   role="img"
   focusable="false"
   aria-hidden="true"
   viewBox="0 0 14 14"
   version="1.1"
   id="svg12"
   sodipodi:docname="exposure.svg"
   inkscape:version="1.3.2 (091e20e, 2023-11-25, custom)"
   xmlns:inkscape="http://www.inkscape.org/namespaces/inkscape"
   xmlns:sodipodi="http://sodipodi.sourceforge.net/DTD/sodipodi-0.dtd"
   xmlns="http://www.w3.org/2000/svg"
   xmlns:svg="http://www.w3.org/2000/svg">
  <defs
     id="defs16" />
  <sodipodi:namedview
     id="namedview14"
     pagecolor="#ffffff"
     bordercolor="#000000"
     borderopacity="0.25"
     inkscape:showpageshadow="2"
     inkscape:pageopacity="0.0"
     inkscape:pagecheckerboard="0"
     inkscape:deskcolor="#d1d1d1"
     showgrid="false"
     inkscape:zoom="42.274884"
     inkscape:cx="6.8480377"
     inkscape:cy="7.2738224"
     inkscape:window-width="1920"
     inkscape:window-height="1009"
     inkscape:window-x="-8"
     inkscape:window-y="-8"
     inkscape:window-maximized="1"
     inkscape:current-layer="svg12" />
  <g
     style="fill:none;fill-rule:nonzero;stroke:none;stroke-width:0;stroke-linecap:butt;stroke-linejoin:miter;stroke-miterlimit:10;stroke-dasharray:none"
     transform="matrix(0.13707419,0,0,0.13707419,0.8316613,0.8316613)"
     id="g17">
	<path
   d="M 45,70.75 C 30.801,70.75 19.25,59.198 19.25,45 19.25,30.801 30.801,19.25 45,19.25 c 14.198,0 25.75,11.551 25.75,25.75 0,4.645 -1.251,9.197 -3.616,13.167 C 62.506,65.929 54.025,70.75 45,70.75 Z"
   style="opacity:1;fill:#ffbc00;fill-rule:nonzero;stroke:none;stroke-width:1;stroke-linecap:butt;stroke-linejoin:miter;stroke-miterlimit:10;stroke-dasharray:none"
   stroke-linecap="round"
   id="path1" />

	<path
   d="m 45,13.116 c -0.552,0 -1,-0.448 -1,-1 V 1 c 0,-0.552 0.448,-1 1,-1 0.552,0 1,0.448 1,1 v 11.116 c 0,0.552 -0.448,1 -1,1 z"
   style="opacity:1;fill:#ffbc00;fill-rule:nonzero;stroke:none;stroke-width:1;stroke-linecap:butt;stroke-linejoin:miter;stroke-miterlimit:10;stroke-dasharray:none"
   stroke-linecap="round"
   id="path2" />

	<path
   d="m 45,90 c -0.552,0 -1,-0.447 -1,-1 V 77.884 c 0,-0.553 0.448,-1 1,-1 0.552,0 1,0.447 1,1 V 89 c 0,0.553 -0.448,1 -1,1 z"
   style="opacity:1;fill:#ffbc00;fill-rule:nonzero;stroke:none;stroke-width:1;stroke-linecap:butt;stroke-linejoin:miter;stroke-miterlimit:10;stroke-dasharray:none"
   stroke-linecap="round"
   id="path3" />

	<path
   d="M 12.116,46 H 1 C 0.448,46 0,45.552 0,45 0,44.448 0.448,44 1,44 h 11.116 c 0.552,0 1,0.448 1,1 0,0.552 -0.448,1 -1,1 z"
   style="opacity:1;fill:#ffbc00;fill-rule:nonzero;stroke:none;stroke-width:1;stroke-linecap:butt;stroke-linejoin:miter;stroke-miterlimit:10;stroke-dasharray:none"
   stroke-linecap="round"
   id="path4" />

	<path
   d="M 89,46 H 77.884 c -0.553,0 -1,-0.448 -1,-1 0,-0.552 0.447,-1 1,-1 H 89 c 0.553,0 1,0.448 1,1 0,0.552 -0.447,1 -1,1 z"
   style="opacity:1;fill:#ffbc00;fill-rule:nonzero;stroke:none;stroke-width:1;stroke-linecap:butt;stroke-linejoin:miter;stroke-miterlimit:10;stroke-dasharray:none"
   stroke-linecap="round"
   id="path5" />

	<path
   d="m 68.252,22.748 c -0.256,0 -0.512,-0.098 -0.707,-0.293 -0.391,-0.391 -0.391,-1.023 0,-1.414 l 7.86,-7.86 c 0.391,-0.391 1.023,-0.391 1.414,0 0.391,0.391 0.391,1.023 0,1.414 l -7.86,7.86 c -0.195,0.195 -0.451,0.293 -0.707,0.293 z"
   style="opacity:1;fill:#ffbc00;fill-rule:nonzero;stroke:none;stroke-width:1;stroke-linecap:butt;stroke-linejoin:miter;stroke-miterlimit:10;stroke-dasharray:none"
   stroke-linecap="round"
   id="path6" />

	<path
   d="m 13.887,77.112 c -0.256,0 -0.512,-0.098 -0.707,-0.293 -0.391,-0.391 -0.391,-1.023 0,-1.414 l 7.86,-7.86 c 0.391,-0.391 1.023,-0.391 1.414,0 0.391,0.391 0.391,1.023 0,1.414 l -7.86,7.86 c -0.195,0.196 -0.451,0.293 -0.707,0.293 z"
   style="opacity:1;fill:#ffbc00;fill-rule:nonzero;stroke:none;stroke-width:1;stroke-linecap:butt;stroke-linejoin:miter;stroke-miterlimit:10;stroke-dasharray:none"
   stroke-linecap="round"
   id="path7" />

	<path
   d="m 21.748,22.748 c -0.256,0 -0.512,-0.098 -0.707,-0.293 l -7.86,-7.86 c -0.391,-0.391 -0.391,-1.023 0,-1.414 0.391,-0.391 1.023,-0.391 1.414,0 l 7.86,7.86 c 0.391,0.391 0.391,1.023 0,1.414 -0.196,0.195 -0.452,0.293 -0.707,0.293 z"
   style="opacity:1;fill:#ffbc00;fill-rule:nonzero;stroke:none;stroke-width:1;stroke-linecap:butt;stroke-linejoin:miter;stroke-miterlimit:10;stroke-dasharray:none"
   stroke-linecap="round"
   id="path8" />

	<path
   d="m 76.112,77.112 c -0.256,0 -0.512,-0.098 -0.707,-0.293 l -7.86,-7.86 c -0.391,-0.391 -0.391,-1.023 0,-1.414 0.391,-0.391 1.023,-0.391 1.414,0 l 7.86,7.86 c 0.391,0.391 0.391,1.023 0,1.414 -0.195,0.196 -0.451,0.293 -0.707,0.293 z"
   style="opacity:1;fill:#ffbc00;fill-rule:nonzero;stroke:none;stroke-width:1;stroke-linecap:butt;stroke-linejoin:miter;stroke-miterlimit:10;stroke-dasharray:none"
   stroke-linecap="round"
   id="path9" />

	<path
   d="m 32.417,15.62 c -0.393,0 -0.765,-0.233 -0.924,-0.618 L 27.239,4.732 c -0.211,-0.51 0.031,-1.095 0.541,-1.307 0.512,-0.211 1.095,0.031 1.307,0.541 l 4.254,10.27 c 0.211,0.51 -0.031,1.095 -0.541,1.307 -0.127,0.052 -0.256,0.077 -0.383,0.077 z"
   style="opacity:1;fill:#ffbc00;fill-rule:nonzero;stroke:none;stroke-width:1;stroke-linecap:butt;stroke-linejoin:miter;stroke-miterlimit:10;stroke-dasharray:none"
   stroke-linecap="round"
   id="path10" />

	<path
   d="m 61.838,86.65 c -0.392,0 -0.765,-0.232 -0.924,-0.617 L 56.66,75.763 c -0.211,-0.511 0.031,-1.096 0.541,-1.307 0.509,-0.21 1.096,0.03 1.307,0.541 l 4.254,10.27 c 0.211,0.511 -0.031,1.096 -0.541,1.307 -0.125,0.052 -0.255,0.076 -0.383,0.076 z"
   style="opacity:1;fill:#ffbc00;fill-rule:nonzero;stroke:none;stroke-width:1;stroke-linecap:butt;stroke-linejoin:miter;stroke-miterlimit:10;stroke-dasharray:none"
   stroke-linecap="round"
   id="path11" />

	<path
   d="m 4.35,62.838 c -0.393,0 -0.765,-0.232 -0.924,-0.617 -0.211,-0.511 0.031,-1.096 0.541,-1.307 l 10.27,-4.254 c 0.512,-0.213 1.095,0.031 1.307,0.541 0.211,0.511 -0.031,1.096 -0.541,1.307 L 4.733,62.762 C 4.606,62.813 4.477,62.838 4.35,62.838 Z"
   style="opacity:1;fill:#ffbc00;fill-rule:nonzero;stroke:none;stroke-width:1;stroke-linecap:butt;stroke-linejoin:miter;stroke-miterlimit:10;stroke-dasharray:none"
   stroke-linecap="round"
   id="path12" />

	<path
   d="m 75.381,33.417 c -0.392,0 -0.765,-0.233 -0.924,-0.618 -0.211,-0.51 0.031,-1.095 0.541,-1.307 l 10.27,-4.254 c 0.509,-0.21 1.096,0.031 1.307,0.541 0.211,0.51 -0.031,1.095 -0.541,1.307 l -10.27,4.254 c -0.125,0.052 -0.255,0.077 -0.383,0.077 z"
   style="opacity:1;fill:#ffbc00;fill-rule:nonzero;stroke:none;stroke-width:1;stroke-linecap:butt;stroke-linejoin:miter;stroke-miterlimit:10;stroke-dasharray:none"
   stroke-linecap="round"
   id="path13" />

	<path
   d="m 57.584,15.62 c -0.128,0 -0.258,-0.025 -0.383,-0.077 -0.51,-0.211 -0.752,-0.796 -0.541,-1.307 l 4.254,-10.27 c 0.211,-0.511 0.799,-0.75 1.307,-0.541 0.51,0.211 0.752,0.796 0.541,1.307 l -4.254,10.27 c -0.159,0.385 -0.532,0.618 -0.924,0.618 z"
   style="opacity:1;fill:#ffbc00;fill-rule:nonzero;stroke:none;stroke-width:1;stroke-linecap:butt;stroke-linejoin:miter;stroke-miterlimit:10;stroke-dasharray:none"
   stroke-linecap="round"
   id="path14" />

	<path
   d="m 28.162,86.65 c -0.127,0 -0.257,-0.024 -0.382,-0.076 -0.51,-0.211 -0.752,-0.796 -0.541,-1.307 l 4.254,-10.27 c 0.211,-0.51 0.793,-0.752 1.307,-0.541 0.51,0.211 0.752,0.796 0.541,1.307 l -4.254,10.27 c -0.161,0.385 -0.533,0.617 -0.925,0.617 z"
   style="opacity:1;fill:#ffbc00;fill-rule:nonzero;stroke:none;stroke-width:1;stroke-linecap:butt;stroke-linejoin:miter;stroke-miterlimit:10;stroke-dasharray:none"
   stroke-linecap="round"
   id="path15" />

	<path
   d="m 14.619,33.417 c -0.127,0 -0.257,-0.025 -0.382,-0.077 L 3.967,29.086 C 3.457,28.875 3.215,28.29 3.426,27.779 3.637,27.269 4.219,27.026 4.733,27.238 l 10.27,4.254 c 0.51,0.211 0.752,0.796 0.541,1.307 -0.161,0.385 -0.533,0.618 -0.925,0.618 z"
   style="opacity:1;fill:#ffbc00;fill-rule:nonzero;stroke:none;stroke-width:1;stroke-linecap:butt;stroke-linejoin:miter;stroke-miterlimit:10;stroke-dasharray:none"
   stroke-linecap="round"
   id="path16" />

	<path
   d="m 85.65,62.838 c -0.128,0 -0.258,-0.024 -0.383,-0.076 l -10.27,-4.254 c -0.51,-0.211 -0.752,-0.796 -0.541,-1.307 0.211,-0.511 0.8,-0.751 1.307,-0.541 l 10.27,4.254 c 0.51,0.211 0.752,0.796 0.541,1.307 -0.159,0.384 -0.532,0.617 -0.924,0.617 z"
   style="opacity:1;fill:#ffbc00;fill-rule:nonzero;stroke:none;stroke-width:1;stroke-linecap:butt;stroke-linejoin:miter;stroke-miterlimit:10;stroke-dasharray:none"
   stroke-linecap="round"
   id="path17" />

</g>
</svg>
