<?xml version="1.0" encoding="UTF-8" standalone="no"?>
<svg
   role="img"
   focusable="false"
   aria-hidden="true"
   viewBox="0 0 14 14"
   version="1.1"
   id="svg12"
   sodipodi:docname="offset_correction.svg"
   inkscape:version="1.3.2 (091e20e, 2023-11-25, custom)"
   xmlns:inkscape="http://www.inkscape.org/namespaces/inkscape"
   xmlns:sodipodi="http://sodipodi.sourceforge.net/DTD/sodipodi-0.dtd"
   xmlns="http://www.w3.org/2000/svg"
   xmlns:svg="http://www.w3.org/2000/svg">
  <defs
     id="defs16" />
  <sodipodi:namedview
     id="namedview14"
     pagecolor="#ffffff"
     bordercolor="#000000"
     borderopacity="0.25"
     inkscape:showpageshadow="2"
     inkscape:pageopacity="0.0"
     inkscape:pagecheckerboard="0"
     inkscape:deskcolor="#d1d1d1"
     showgrid="false"
     inkscape:zoom="45.254834"
     inkscape:cx="6.7506601"
     inkscape:cy="7.7008348"
     inkscape:window-width="1920"
     inkscape:window-height="1009"
     inkscape:window-x="-8"
     inkscape:window-y="-8"
     inkscape:window-maximized="1"
     inkscape:current-layer="svg12" />
  <g
     id="g7"
     transform="matrix(0.0493164,0,0,0.05618714,0.69457319,-2.0927243)">
    <path
       d="M 114.18594,254.30659 H 89.508523 c -4.26839,0 -7.7275,-3.45911 -7.7275,-7.7275 V 141.49633 c 0,-4.26839 3.45911,-7.7275 7.7275,-7.7275 h 24.677417 c 4.26839,0 7.7275,3.45911 7.7275,7.7275 v 105.08276 c 0,4.26839 -3.45911,7.7275 -7.7275,7.7275 z"
       style="fill:#ffc36e;fill-rule:nonzero;stroke:none;stroke-width:2.81;stroke-linecap:butt;stroke-linejoin:miter;stroke-miterlimit:10;stroke-dasharray:none"
       stroke-linecap="round"
       id="path1-8" />
    <path
       d="m 166.20466,254.30659 h -24.67742 c -4.26839,0 -7.7275,-4.56509 -7.7275,-10.1982 V 79.55017 c 0,-5.633117 3.45911,-10.198204 7.7275,-10.198204 h 24.67742 c 4.26839,0 7.7275,4.565087 7.7275,10.198204 v 164.55822 c 0,5.63311 -3.46192,10.1982 -7.7275,10.1982 z"
       style="fill:#a5d76e;fill-rule:nonzero;stroke:none;stroke-width:3.22811;stroke-linecap:butt;stroke-linejoin:miter;stroke-miterlimit:10;stroke-dasharray:none"
       stroke-linecap="round"
       id="path2" />
    <path
       d="m 62.170033,254.30659 h -24.67742 c -4.26839,0 -7.7275,-3.45911 -7.7275,-7.7275 v -54.61797 c 0,-4.26839 3.45911,-7.7275 7.7275,-7.7275 h 24.67742 c 4.26839,0 7.7275,3.45911 7.7275,7.7275 v 54.61797 c 0,4.26839 -3.46192,7.7275 -7.7275,7.7275 z"
       style="fill:#d2555a;fill-rule:nonzero;stroke:none;stroke-width:2.81;stroke-linecap:butt;stroke-linejoin:miter;stroke-miterlimit:10;stroke-dasharray:none"
       stroke-linecap="round"
       id="path3" />
    <path
       d="m 218.22057,254.30659 h -24.67742 c -4.26839,0 -7.7275,-2.74667 -7.7275,-6.13595 V 121.16998 c 0,-3.38928 3.45911,-6.13595 7.7275,-6.13595 h 24.67742 c 4.26839,0 7.7275,2.74667 7.7275,6.13595 v 127.00066 c 0,3.38928 -3.45911,6.13595 -7.7275,6.13595 z"
       style="fill:#78d2be;fill-rule:nonzero;stroke:none;stroke-width:2.50396;stroke-linecap:butt;stroke-linejoin:miter;stroke-miterlimit:10;stroke-dasharray:none"
       stroke-linecap="round"
       id="path4" />
  </g>
  <rect
     style="fill:#b3b3b3;fill-opacity:0.81724101;stroke-width:1.33261"
     id="rect28089-7-6-8"
     width="3.3025787"
     height="11.990077"
     x="8.821207"
     y="-12.995039"
     transform="rotate(90)" />
  <rect
     style="fill:#696969;fill-opacity:0.817241;stroke-width:0.547874"
     id="rect28089"
     width="0.53186357"
     height="12.584304"
     x="6.7340684"
     y="0.70784807" />
  <rect
     style="fill:#696969;fill-opacity:0.817241;stroke-width:0.54642"
     id="rect28089-7"
     width="0.53186357"
     height="12.5176"
     x="12.107919"
     y="-13.258801"
     transform="rotate(90)" />
  <rect
     style="fill:#ff0000;fill-opacity:0.817241;stroke-width:0.273432"
     id="rect28089-7-9"
     width="0.45316043"
     height="3.6788645"
     x="5.9177461"
     y="6.8980737"
     transform="matrix(0.91109188,0.41220332,-0.41815071,0.90837767,0,0)" />
  <rect
     style="fill:#ff0000;fill-opacity:0.817241;stroke-width:0.273432"
     id="rect28089-7-9-1"
     width="0.45316043"
     height="3.6788645"
     x="7.7381525"
     y="6.0720105"
     transform="matrix(0.91109188,0.41220332,-0.41815071,0.90837767,0,0)" />
  <rect
     style="fill:#ff0000;fill-opacity:0.817241;stroke-width:0.273432"
     id="rect28089-7-9-0"
     width="0.45316043"
     height="3.6788645"
     x="9.5585575"
     y="5.2459469"
     transform="matrix(0.91109188,0.41220332,-0.41815071,0.90837767,0,0)" />
  <rect
     style="fill:#ff0000;fill-opacity:0.817241;stroke-width:0.273432"
     id="rect28089-7-9-6"
     width="0.45316043"
     height="3.6788645"
     x="11.378963"
     y="4.4198837"
     transform="matrix(0.91109188,0.41220332,-0.41815071,0.90837767,0,0)" />
  <rect
     style="fill:#ff0000;fill-opacity:0.817241;stroke-width:0.273432"
     id="rect28089-7-9-8"
     width="0.45316043"
     height="3.6788645"
     x="13.199368"
     y="3.5938206"
     transform="matrix(0.91109188,0.41220332,-0.41815071,0.90837767,0,0)" />
  <rect
     style="fill:#ff0000;fill-opacity:0.817241;stroke-width:0.273432"
     id="rect28089-7-9-7"
     width="0.45316043"
     height="3.6788645"
     x="15.019778"
     y="2.7677574"
     transform="matrix(0.91109188,0.41220332,-0.41815071,0.90837767,0,0)" />
</svg>
