<?xml version="1.0" encoding="UTF-8" standalone="no"?>
<svg
   role="img"
   focusable="false"
   aria-hidden="true"
   viewBox="0 0 14 14"
   version="1.1"
   id="svg12"
   sodipodi:docname="offset_correction.svg"
   inkscape:version="1.3.2 (091e20e, 2023-11-25, custom)"
   xmlns:inkscape="http://www.inkscape.org/namespaces/inkscape"
   xmlns:sodipodi="http://sodipodi.sourceforge.net/DTD/sodipodi-0.dtd"
   xmlns="http://www.w3.org/2000/svg"
   xmlns:svg="http://www.w3.org/2000/svg">
  <defs
     id="defs16" />
  <sodipodi:namedview
     id="namedview14"
     pagecolor="#ffffff"
     bordercolor="#000000"
     borderopacity="0.25"
     inkscape:showpageshadow="2"
     inkscape:pageopacity="0.0"
     inkscape:pagecheckerboard="0"
     inkscape:deskcolor="#d1d1d1"
     showgrid="false"
     inkscape:zoom="45.254834"
     inkscape:cx="6.7506601"
     inkscape:cy="7.7008348"
     inkscape:window-width="1920"
     inkscape:window-height="1009"
     inkscape:window-x="-8"
     inkscape:window-y="-8"
     inkscape:window-maximized="1"
     inkscape:current-layer="svg12" />
  <rect
     style="fill:#b3b3b3;fill-opacity:0.81724101;stroke-width:1.33261"
     id="rect28089-7-6-8"
     width="3.3025787"
     height="11.990077"
     x="8.821207"
     y="-12.995039"
     transform="rotate(90)" />
  <rect
     style="fill:#696969;fill-opacity:0.817241;stroke-width:0.547874"
     id="rect28089"
     width="0.53186357"
     height="12.584304"
     x="6.7340684"
     y="0.70784807" />
  <rect
     style="fill:#696969;fill-opacity:0.817241;stroke-width:0.54642"
     id="rect28089-7"
     width="0.53186357"
     height="12.5176"
     x="12.107919"
     y="-13.258801"
     transform="rotate(90)" />
  <rect
     style="fill:#ff0000;fill-opacity:0.817241;stroke-width:0.273432"
     id="rect28089-7-9"
     width="0.45316043"
     height="3.6788645"
     x="5.9177461"
     y="6.8980737"
     transform="matrix(0.91109188,0.41220332,-0.41815071,0.90837767,0,0)" />
  <rect
     style="fill:#ff0000;fill-opacity:0.817241;stroke-width:0.273432"
     id="rect28089-7-9-1"
     width="0.45316043"
     height="3.6788645"
     x="7.7381525"
     y="6.0720105"
     transform="matrix(0.91109188,0.41220332,-0.41815071,0.90837767,0,0)" />
  <rect
     style="fill:#ff0000;fill-opacity:0.817241;stroke-width:0.273432"
     id="rect28089-7-9-0"
     width="0.45316043"
     height="3.6788645"
     x="9.5585575"
     y="5.2459469"
     transform="matrix(0.91109188,0.41220332,-0.41815071,0.90837767,0,0)" />
  <rect
     style="fill:#ff0000;fill-opacity:0.817241;stroke-width:0.273432"
     id="rect28089-7-9-6"
     width="0.45316043"
     height="3.6788645"
     x="11.378963"
     y="4.4198837"
     transform="matrix(0.91109188,0.41220332,-0.41815071,0.90837767,0,0)" />
  <rect
     style="fill:#ff0000;fill-opacity:0.817241;stroke-width:0.273432"
     id="rect28089-7-9-8"
     width="0.45316043"
     height="3.6788645"
     x="13.199368"
     y="3.5938206"
     transform="matrix(0.91109188,0.41220332,-0.41815071,0.90837767,0,0)" />
  <rect
     style="fill:#ff0000;fill-opacity:0.817241;stroke-width:0.273432"
     id="rect28089-7-9-7"
     width="0.45316043"
     height="3.6788645"
     x="15.019778"
     y="2.7677574"
     transform="matrix(0.91109188,0.41220332,-0.41815071,0.90837767,0,0)" />
  <g
     id="g1">
    <g
       id="g3"
       transform="matrix(1.1543813,0,0,2.3267748,-1.4939666,-10.848016)"
       style="stroke:#0000ff">
      <path
         style="fill:none;fill-opacity:0.817241;stroke:#0000ff;stroke-width:0.184658;stroke-opacity:1"
         d="M 1.7590282,8.3181038 C 3.5157466,8.3066902 4.3365731,8.1572145 4.7032298,7.9275705 5.194894,7.6196319 5.0924775,7.5686178 5.3419317,7.1937674 5.6210089,6.6893723 5.8086099,6.3627729 5.8086099,6.3627729 L 6.4789548,5.5325897 7.3699451,5.2718121"
         id="path32265"
         sodipodi:nodetypes="cszccc" />
      <path
         style="fill:none;fill-opacity:0.817241;stroke:#0000ff;stroke-width:0.184658;stroke-opacity:1"
         d="M 12.951628,8.3181038 C 11.194909,8.3066902 10.374083,8.1572145 10.007426,7.9275705 9.515762,7.6196319 9.6181785,7.5686178 9.3687243,7.1937674 9.0896471,6.6893723 8.9020461,6.3627729 8.9020461,6.3627729 L 8.2317012,5.5325897 7.3407109,5.2718121"
         id="path32265-7"
         sodipodi:nodetypes="cszccc" />
    </g>
    <circle
       cx="6.0936546"
       cy="2.0128746"
       r="0.30922806"
       id="circle20-2"
       style="fill:#acacff;stroke:#0000ff;stroke-width:0.103076;fill-opacity:1" />
    <circle
       cx="5.1986403"
       cy="3.9998255"
       r="0.30922806"
       id="circle22-3"
       style="fill:#acacff;stroke:#0000ff;stroke-width:0.103076;fill-opacity:1" />
    <circle
       cx="4.3036265"
       cy="7.0663824"
       r="0.30922806"
       id="circle24-6"
       style="fill:#acacff;stroke:#0000ff;stroke-width:0.103076;fill-opacity:1" />
    <circle
       cx="3.4086125"
       cy="8.0471239"
       r="0.30922806"
       id="circle26-0"
       style="fill:#acacff;stroke:#0000ff;stroke-width:0.103076;fill-opacity:1" />
    <circle
       cx="2.5135987"
       cy="8.3438177"
       r="0.30922806"
       id="circle28-1"
       style="fill:#acacff;stroke:#0000ff;stroke-width:0.103076;fill-opacity:1" />
    <circle
       cx="0.7235707"
       cy="8.4973612"
       r="0.30922806"
       id="circle28-1-1"
       style="fill:#acacff;stroke:#0000ff;stroke-width:0.103076;fill-opacity:1" />
    <circle
       cx="1.6185848"
       cy="8.4735785"
       r="0.30922806"
       id="circle28-1-31"
       style="fill:#acacff;stroke:#0000ff;stroke-width:0.103076;fill-opacity:1" />
    <circle
       cx="-7.9063458"
       cy="2.0128746"
       r="0.30922806"
       id="circle20-2-0"
       style="fill:#acacff;stroke:#0000ff;stroke-width:0.103076;fill-opacity:1"
       transform="scale(-1,1)" />
    <circle
       cx="-8.8013601"
       cy="3.9998255"
       r="0.30922806"
       id="circle22-3-2"
       style="fill:#acacff;stroke:#0000ff;stroke-width:0.103076;fill-opacity:1"
       transform="scale(-1,1)" />
    <circle
       cx="-9.6963739"
       cy="7.0663824"
       r="0.30922806"
       id="circle24-6-9"
       style="fill:#acacff;stroke:#0000ff;stroke-width:0.103076;fill-opacity:1"
       transform="scale(-1,1)" />
    <circle
       cx="-10.591388"
       cy="8.0471239"
       r="0.30922806"
       id="circle26-0-2"
       style="fill:#acacff;stroke:#0000ff;stroke-width:0.103076;fill-opacity:1"
       transform="scale(-1,1)" />
    <circle
       cx="-11.486402"
       cy="8.3438177"
       r="0.30922806"
       id="circle28-1-5"
       style="fill:#acacff;stroke:#0000ff;stroke-width:0.103076;fill-opacity:1"
       transform="scale(-1,1)" />
    <circle
       cx="-13.27643"
       cy="8.4973612"
       r="0.30922806"
       id="circle28-1-1-8"
       style="fill:#acacff;stroke:#0000ff;stroke-width:0.103076;fill-opacity:1"
       transform="scale(-1,1)" />
    <circle
       cx="-12.381415"
       cy="8.4735785"
       r="0.30922806"
       id="circle28-1-31-2"
       style="fill:#acacff;stroke:#0000ff;stroke-width:0.103076;fill-opacity:1"
       transform="scale(-1,1)" />
    <circle
       cx="6.9886684"
       cy="1.5026389"
       r="0.30922806"
       id="circle28-1-2"
       style="fill:#acacff;stroke:#0000ff;stroke-width:0.103076;fill-opacity:1" />
  </g>
</svg>
