<?xml version="1.0" encoding="UTF-8" standalone="no"?>
<svg
   role="img"
   focusable="false"
   aria-hidden="true"
   viewBox="0 0 14 14"
   version="1.1"
   id="svg8"
   sodipodi:docname="derivative.svg"
   inkscape:version="1.3.2 (091e20e, 2023-11-25, custom)"
   xmlns:inkscape="http://www.inkscape.org/namespaces/inkscape"
   xmlns:sodipodi="http://sodipodi.sourceforge.net/DTD/sodipodi-0.dtd"
   xmlns="http://www.w3.org/2000/svg"
   xmlns:svg="http://www.w3.org/2000/svg">
  <defs
     id="defs12">
    <clipPath
       clipPathUnits="userSpaceOnUse"
       id="clipPath26">
      <g
         id="g27">
        <rect
           x="21.696568"
           y="20.771685"
           width="310.60657"
           height="141.1848"
           id="rect26"
           style="stroke-width:1.76481" />
      </g>
    </clipPath>
    <clipPath
       clipPathUnits="userSpaceOnUse"
       id="clipPath24">
      <g
         id="g25">
        <rect
           x="21.696568"
           y="20.771685"
           width="310.60657"
           height="141.1848"
           id="rect24"
           style="stroke-width:1.76481" />
      </g>
    </clipPath>
    <clipPath
       clipPathUnits="userSpaceOnUse"
       id="clipPath23">
      <g
         id="g24">
        <rect
           x="21.696568"
           y="20.771685"
           width="310.60657"
           height="141.1848"
           id="rect23"
           style="stroke-width:1.76481" />
      </g>
    </clipPath>
    <clipPath
       clipPathUnits="userSpaceOnUse"
       id="clipPath22">
      <g
         id="g23">
        <rect
           x="21.696568"
           y="20.771685"
           width="310.60657"
           height="141.1848"
           id="rect22"
           style="stroke-width:1.76481" />
      </g>
    </clipPath>
  </defs>
  <sodipodi:namedview
     id="namedview10"
     pagecolor="#ffffff"
     bordercolor="#666666"
     borderopacity="1.0"
     inkscape:pageshadow="2"
     inkscape:pageopacity="0.0"
     inkscape:pagecheckerboard="0"
     showgrid="false"
     inkscape:zoom="29.714286"
     inkscape:cx="4.3245192"
     inkscape:cy="3.6514423"
     inkscape:window-width="1920"
     inkscape:window-height="1009"
     inkscape:window-x="-8"
     inkscape:window-y="-8"
     inkscape:window-maximized="1"
     inkscape:current-layer="svg8"
     inkscape:showpageshadow="2"
     inkscape:deskcolor="#d1d1d1" />
  <path
     d="M 11.015682,1.4879184 V 12.568154 c 0,0.761766 -0.433117,1.385029 -0.96248,1.385029 H 3.7970898 c -0.5293633,0 -0.9624788,-0.623263 -0.9624788,-1.385029 V 1.4879184 c 0,-0.76176703 0.4331155,-1.38502903 0.9624788,-1.38502903 h 6.2561122 c 0.529363,0 0.96248,0.623262 0.96248,1.38502903 z"
     id="path2-7"
     style="fill:#f99090;fill-opacity:1" />
  <g
     id="g29"
     transform="matrix(0.09746973,0,0,0.09746973,1.3470866,-2.8067731)"
     style="clip-rule:evenodd;fill-rule:evenodd;stroke-miterlimit:2">
    <path
       d="m 57.225723,31.484081 c 0,-0.06353 0,-0.6971 -0.822402,-0.6971 -0.949467,0 -6.962175,0.570034 -8.038709,0.6971 -0.506501,0.06177 -0.885935,0.379434 -0.885935,1.201836 0,0.758868 0.570034,0.758868 1.519502,0.758868 3.037238,0 3.164304,0.444732 3.164304,1.076534 l -0.188835,1.265369 -3.797871,15.002649 c -1.140067,-2.341902 -2.97547,-4.052003 -5.823873,-4.052003 -7.405143,0 -15.255018,9.304078 -15.255018,18.546388 0,5.949175 3.481971,10.12648 8.419909,10.12648 1.265369,0 4.429673,-0.252368 8.227544,-4.747339 0.506501,2.659569 2.721337,4.747339 5.76034,4.747339 2.214837,0 3.670805,-1.455968 4.683806,-3.480206 1.076534,-2.280134 1.898935,-6.139774 1.898935,-6.26684 0,-0.633567 -0.570033,-0.633567 -0.760633,-0.633567 -0.631802,0 -0.695335,0.254133 -0.885934,1.140068 -1.07477,4.113772 -2.214837,7.84811 -4.809108,7.84811 -1.710101,0 -1.898935,-1.644803 -1.898935,-2.911937 0,-1.517736 0.125301,-1.960704 0.379434,-3.037238 z M 44.06024,67.182658 c -0.315901,1.138302 -0.315901,1.265368 -1.265369,2.341902 -2.78487,3.480206 -5.37914,4.493207 -7.152775,4.493207 -3.164304,0 -4.050238,-3.480206 -4.050238,-5.949175 0,-3.164304 2.026001,-10.950646 3.480205,-13.862582 1.962469,-3.734338 4.810872,-6.076241 7.343374,-6.076241 4.113772,0 4.999707,5.190306 4.999707,5.56974 0,0.381199 -0.125302,0.760633 -0.188835,1.076534 z"
       style="fill-rule:nonzero;stroke-width:1.76481"
       id="path2"
       clip-path="url(#clipPath26)"
       transform="translate(15.527681,6)" />
    <g
       id="g28">
      <path
         d="M 23.129594,101.7094 H 92.248377"
         style="fill:none;stroke:#000000;stroke-width:1.4295px"
         id="path4"
         clip-path="url(#clipPath24)" />
      <path
         d="m 55.790932,117.71623 c 0,-0.0618 0,-0.69534 -0.824166,-0.69534 -0.949468,0 -6.962175,0.57004 -8.036945,0.69534 -0.5065,0.0635 -0.887699,0.3812 -0.887699,1.2036 0,0.75887 0.570033,0.75887 1.519501,0.75887 3.039003,0 3.164305,0.44296 3.164305,1.07653 l -0.188835,1.26537 -3.797871,15.00088 c -1.140068,-2.3419 -2.97547,-4.05024 -5.823873,-4.05024 -7.405143,0 -15.253253,9.30408 -15.253253,18.54639 0,5.94918 3.480205,10.12648 8.418144,10.12648 1.265368,0 4.429673,-0.25237 8.227544,-4.74734 0.5065,2.65957 2.723102,4.74734 5.76034,4.74734 2.214836,0 3.670804,-1.45597 4.683805,-3.48197 1.076535,-2.27837 1.898936,-6.13801 1.898936,-6.26507 0,-0.63357 -0.570034,-0.63357 -0.758868,-0.63357 -0.633567,0 -0.6971,0.25413 -0.885935,1.14007 -1.076534,4.11377 -2.216601,7.84811 -4.810872,7.84811 -1.710101,0 -1.898936,-1.64481 -1.898936,-2.91194 0,-1.5195 0.127067,-1.96247 0.379435,-3.03724 z M 42.62545,153.41657 c -0.317666,1.1383 -0.317666,1.26537 -1.267134,2.3419 -2.78487,3.48021 -5.379141,4.49321 -7.15101,4.49321 -3.166069,0 -4.052004,-3.48197 -4.052004,-5.94918 0,-3.16607 2.026002,-10.95064 3.48197,-13.86258 1.962469,-3.73434 4.810872,-6.07624 7.34161,-6.07624 4.113772,0 5.001471,5.19031 5.001471,5.56974 0,0.37943 -0.127066,0.76063 -0.190599,1.07653 z"
         style="fill-rule:nonzero;stroke-width:1.76481"
         id="path5"
         clip-path="url(#clipPath23)" />
      <path
         d="m 77.215726,141.83236 c 0.379434,-1.64481 1.835402,-7.46868 6.26684,-7.46868 0.315901,0 1.835402,0 3.164304,0.8224 -1.771869,0.31767 -3.037238,1.89894 -3.037238,3.41844 0,1.013 0.695335,2.21483 2.403671,2.21483 1.392436,0 3.418437,-1.1383 3.418437,-3.6708 0,-3.29137 -3.734337,-4.17731 -5.885641,-4.17731 -3.672569,0 -5.887406,3.35491 -6.646274,4.81088 -1.583035,-4.17731 -5.001472,-4.81088 -6.836874,-4.81088 -6.582742,0 -10.190013,8.16578 -10.190013,9.74705 0,0.63357 0.633567,0.63357 0.758868,0.63357 0.506501,0 0.6971,-0.12707 0.824166,-0.6971 2.151304,-6.70805 6.328609,-8.29108 8.481677,-8.29108 1.201836,0 3.416672,0.57003 3.416672,4.24084 0,1.96247 -1.074769,6.20331 -3.416672,15.06442 -1.013001,3.92493 -3.229602,6.58274 -6.014472,6.58274 -0.379434,0 -1.835403,0 -3.164305,-0.8224 1.583035,-0.31767 2.97547,-1.64657 2.97547,-3.41844 0,-1.70834 -1.392435,-2.21484 -2.341903,-2.21484 -1.898935,0 -3.48197,1.64481 -3.48197,3.67081 0,2.91193 3.164304,4.1773 5.950939,4.1773 4.177306,0 6.455675,-4.43144 6.64451,-4.81087 0.760633,2.3419 3.039003,4.81087 6.836874,4.81087 6.519208,0 10.12648,-8.16577 10.12648,-9.74704 0,-0.63357 -0.568269,-0.63357 -0.758869,-0.63357 -0.570033,0 -0.6971,0.25413 -0.822401,0.6971 -2.089535,6.77158 -6.393907,8.29108 -8.418144,8.29108 -2.468969,0 -3.48197,-2.026 -3.48197,-4.17731 0,-1.39243 0.379434,-2.78487 1.076534,-5.56974 z"
         style="fill-rule:nonzero;stroke-width:1.76481"
         id="path6"
         clip-path="url(#clipPath22)" />
    </g>
  </g>
</svg>
