<?xml version="1.0" encoding="UTF-8" standalone="no"?>
<svg
   role="img"
   focusable="false"
   aria-hidden="true"
   viewBox="0 0 14 14"
   version="1.1"
   id="svg8"
   sodipodi:docname="power.svg"
   inkscape:version="1.3.2 (091e20e, 2023-11-25, custom)"
   xmlns:inkscape="http://www.inkscape.org/namespaces/inkscape"
   xmlns:sodipodi="http://sodipodi.sourceforge.net/DTD/sodipodi-0.dtd"
   xmlns="http://www.w3.org/2000/svg"
   xmlns:svg="http://www.w3.org/2000/svg">
  <defs
     id="defs12">
    <clipPath
       clipPathUnits="userSpaceOnUse"
       id="clipPath26">
      <g
         id="g27">
        <rect
           x="21.696568"
           y="20.771685"
           width="310.60657"
           height="141.1848"
           id="rect26"
           style="stroke-width:1.76481" />
      </g>
    </clipPath>
    <clipPath
       clipPathUnits="userSpaceOnUse"
       id="clipPath24">
      <g
         id="g25">
        <rect
           x="21.696568"
           y="20.771685"
           width="310.60657"
           height="141.1848"
           id="rect24"
           style="stroke-width:1.76481" />
      </g>
    </clipPath>
    <clipPath
       clipPathUnits="userSpaceOnUse"
       id="clipPath23">
      <g
         id="g24">
        <rect
           x="21.696568"
           y="20.771685"
           width="310.60657"
           height="141.1848"
           id="rect23"
           style="stroke-width:1.76481" />
      </g>
    </clipPath>
    <clipPath
       clipPathUnits="userSpaceOnUse"
       id="clipPath22">
      <g
         id="g23">
        <rect
           x="21.696568"
           y="20.771685"
           width="310.60657"
           height="141.1848"
           id="rect22"
           style="stroke-width:1.76481" />
      </g>
    </clipPath>
  </defs>
  <sodipodi:namedview
     id="namedview10"
     pagecolor="#ffffff"
     bordercolor="#666666"
     borderopacity="1.0"
     inkscape:pageshadow="2"
     inkscape:pageopacity="0.0"
     inkscape:pagecheckerboard="0"
     showgrid="false"
     inkscape:zoom="29.714286"
     inkscape:cx="4.3245192"
     inkscape:cy="3.6514423"
     inkscape:window-width="1920"
     inkscape:window-height="1009"
     inkscape:window-x="-8"
     inkscape:window-y="-8"
     inkscape:window-maximized="1"
     inkscape:current-layer="svg8"
     inkscape:showpageshadow="2"
     inkscape:deskcolor="#d1d1d1" />
  <path
     d="m 12.554478,2.0387287 v 9.9225423 c 0,0.682175 -0.588123,1.240318 -1.306937,1.240318 H 2.752458 c -0.7188147,0 -1.3069358,-0.558143 -1.3069358,-1.240318 V 2.0387287 c 0,-0.6821756 0.5881211,-1.24031765 1.3069358,-1.24031765 h 8.495083 c 0.718814,0 1.306937,0.55814205 1.306937,1.24031765 z"
     id="path2-7"
     style="fill:#f99090;fill-opacity:1;stroke-width:1.10273" />
  <g
     style="fill:#000000;fill-opacity:1"
     id="g29"
     transform="matrix(0.57059908,0,0,0.57059908,-44.407411,0.86812158)">
    <g
       id="use28"
       transform="translate(92,8.1568356)">
      <path
         style="stroke:none"
         d="M 2.664062,-5.332031 1.878906,-2.652344 C 2.613281,-3.75 3.175781,-4.46875 3.570312,-4.816406 c 0.390626,-0.34375 0.765626,-0.515625 1.125,-0.515625 0.199219,0 0.359376,0.0625 0.488282,0.191406 C 5.3125,-5.011719 5.375,-4.839844 5.375,-4.632812 c 0,0.234374 -0.058594,0.550781 -0.171875,0.945312 l -0.71875,2.480469 c -0.082031,0.285156 -0.125,0.460937 -0.125,0.523437 0,0.054688 0.015625,0.101563 0.050781,0.136719 0.03125,0.039063 0.0625,0.058594 0.097656,0.058594 0.046876,0 0.105469,-0.027344 0.171876,-0.078125 0.207031,-0.164063 0.4375,-0.414063 0.683593,-0.753906 l 0.183594,0.113281 C 5.179688,-0.683594 4.835938,-0.3125 4.507812,-0.0898438 4.28125,0.0625 4.078125,0.140625 3.894531,0.140625 3.75,0.140625 3.632812,0.0976562 3.546875,0.0078125 3.460938,-0.078125 3.417969,-0.199219 3.417969,-0.347656 c 0,-0.1875 0.066406,-0.511719 0.199219,-0.972656 L 4.300781,-3.6875 c 0.085938,-0.296875 0.132813,-0.527344 0.132813,-0.691406 0,-0.078125 -0.027344,-0.140625 -0.078125,-0.191406 -0.050781,-0.050782 -0.113281,-0.074219 -0.1875,-0.074219 -0.109375,0 -0.242188,0.046875 -0.394531,0.140625 -0.292969,0.175781 -0.59375,0.46875 -0.910157,0.875 -0.3125,0.40625 -0.644531,0.925781 -0.996093,1.558594 -0.183594,0.335937 -0.335938,0.699218 -0.457032,1.097656 L 1.113281,0 H 0.230469 l 1.070312,-3.6875 c 0.125,-0.445312 0.191407,-0.714844 0.191407,-0.804688 0,-0.085937 -0.035157,-0.160156 -0.105469,-0.226562 -0.066407,-0.0625 -0.152344,-0.097656 -0.253907,-0.097656 -0.046874,0 -0.132812,0.00781 -0.25,0.023437 L 0.660156,-4.757812 0.625,-4.96875 Z m 0,0"
         id="path1" />
    </g>
  </g>
  <rect
     style="fill:#f2f2f2;stroke-width:0.488555"
     id="rect1"
     width="5.6538463"
     height="4.2403846"
     x="3.033654"
     y="6.2548075" />
</svg>
