<?xml version="1.0" encoding="UTF-8" standalone="no"?>
<svg
   role="img"
   focusable="false"
   aria-hidden="true"
   viewBox="0 0 14 14"
   version="1.1"
   id="svg8"
   sodipodi:docname="square_root.svg"
   inkscape:version="1.3.2 (091e20e, 2023-11-25, custom)"
   xmlns:inkscape="http://www.inkscape.org/namespaces/inkscape"
   xmlns:sodipodi="http://sodipodi.sourceforge.net/DTD/sodipodi-0.dtd"
   xmlns="http://www.w3.org/2000/svg"
   xmlns:svg="http://www.w3.org/2000/svg">
  <defs
     id="defs12">
    <clipPath
       clipPathUnits="userSpaceOnUse"
       id="clipPath26">
      <g
         id="g27">
        <rect
           x="21.696568"
           y="20.771685"
           width="310.60657"
           height="141.1848"
           id="rect26"
           style="stroke-width:1.76481" />
      </g>
    </clipPath>
    <clipPath
       clipPathUnits="userSpaceOnUse"
       id="clipPath24">
      <g
         id="g25">
        <rect
           x="21.696568"
           y="20.771685"
           width="310.60657"
           height="141.1848"
           id="rect24"
           style="stroke-width:1.76481" />
      </g>
    </clipPath>
    <clipPath
       clipPathUnits="userSpaceOnUse"
       id="clipPath23">
      <g
         id="g24">
        <rect
           x="21.696568"
           y="20.771685"
           width="310.60657"
           height="141.1848"
           id="rect23"
           style="stroke-width:1.76481" />
      </g>
    </clipPath>
    <clipPath
       clipPathUnits="userSpaceOnUse"
       id="clipPath22">
      <g
         id="g23">
        <rect
           x="21.696568"
           y="20.771685"
           width="310.60657"
           height="141.1848"
           id="rect22"
           style="stroke-width:1.76481" />
      </g>
    </clipPath>
  </defs>
  <sodipodi:namedview
     id="namedview10"
     pagecolor="#ffffff"
     bordercolor="#666666"
     borderopacity="1.0"
     inkscape:pageshadow="2"
     inkscape:pageopacity="0.0"
     inkscape:pagecheckerboard="0"
     showgrid="false"
     inkscape:zoom="42.022346"
     inkscape:cx="6.0087078"
     inkscape:cy="7.2461447"
     inkscape:window-width="1920"
     inkscape:window-height="1009"
     inkscape:window-x="-8"
     inkscape:window-y="-8"
     inkscape:window-maximized="1"
     inkscape:current-layer="svg8"
     inkscape:showpageshadow="2"
     inkscape:deskcolor="#d1d1d1" />
  <path
     d="m 13.268384,2.0387287 v 9.9225423 c 0,0.682175 -0.663714,1.240318 -1.474915,1.240318 H 2.2065299 c -0.8112025,0 -1.4749136,-0.558143 -1.4749136,-1.240318 V 2.0387287 c 0,-0.6821756 0.6637111,-1.24031765 1.4749136,-1.24031765 h 9.5869391 c 0.811201,0 1.474915,0.55814205 1.474915,1.24031765 z"
     id="path2-7"
     style="fill:#90f9a5;fill-opacity:1;stroke-width:1.17145" />
  <g
     id="g3"
     transform="translate(3.6202352,-0.9598044)">
    <g
       style="fill:#000000;fill-opacity:1"
       id="g28"
       transform="matrix(0.57059908,0,0,0.57059908,-44.407411,0.86812158)">
      <g
         id="use27"
         transform="translate(84,15)">
        <path
           style="stroke:none"
           d="m 2.714844,-7.511719 c 0.1875,0.320313 0.316406,0.621094 0.390625,0.898438 0.070312,0.28125 0.144531,0.832031 0.214843,1.648437 L 3.6875,-0.878906 C 4.019531,-1.277344 4.5,-1.910156 5.128906,-2.773438 5.433594,-3.195312 5.8125,-3.765625 6.257812,-4.492188 c 0.273438,-0.441406 0.4375,-0.75 0.5,-0.929687 0.03125,-0.085937 0.046876,-0.179687 0.046876,-0.273437 C 6.804688,-5.753906 6.789062,-5.804688 6.75,-5.84375 6.710938,-5.882812 6.609375,-5.929688 6.445312,-5.980469 6.28125,-6.03125 6.148438,-6.128906 6.039062,-6.269531 5.929688,-6.410156 5.875,-6.574219 5.875,-6.757812 c 0,-0.226563 0.070312,-0.410157 0.203125,-0.546876 0.132813,-0.136718 0.296875,-0.207031 0.496094,-0.207031 0.242187,0 0.449219,0.101563 0.621093,0.300781 0.171876,0.203126 0.257813,0.480469 0.257813,0.835938 0,0.4375 -0.148437,0.9375 -0.445313,1.5 -0.300781,0.5625 -0.875,1.421875 -1.726562,2.585938 C 4.429688,-1.128906 3.394531,0.136719 2.183594,1.511719 1.347656,2.457031 0.726562,3.054688 0.324219,3.300781 c -0.402344,0.246094 -0.75,0.367188 -1.039063,0.367188 -0.171875,0 -0.320312,-0.0625 -0.453125,-0.195313 -0.128906,-0.128906 -0.191406,-0.28125 -0.191406,-0.449218 0,-0.21875 0.089844,-0.414063 0.269531,-0.589844 0.179688,-0.179688 0.375,-0.265625 0.582032,-0.265625 0.113281,0 0.203124,0.023437 0.273437,0.074219 0.046875,0.027343 0.09375,0.105468 0.1484375,0.234374 0.0507813,0.132813 0.1015625,0.21875 0.1445313,0.261719 C 0.0859375,2.765625 0.117188,2.78125 0.15625,2.78125 0.191406,2.78125 0.25,2.753906 0.332031,2.699219 0.636719,2.511719 0.992188,2.210938 1.394531,1.800781 1.925781,1.257812 2.320312,0.816406 2.574219,0.472656 L 2.109375,-4.789062 C 2.03125,-5.65625 1.914062,-6.1875 1.757812,-6.375 1.605469,-6.5625 1.34375,-6.65625 0.980469,-6.65625 c -0.117188,0 -0.324219,0.015625 -0.625,0.046875 L 0.28125,-6.914062 Z m 0,0"
           id="path3" />
      </g>
    </g>
    <path
       style="fill:#000000;fill-opacity:1;fill-rule:evenodd;stroke:none;stroke-width:0.412767"
       d="M -2.2775601,8.6813394 -0.96348024,7.8767677 0.77948929,11.054744 2.3241379,3.5040258 H 9.0370897 V 3.8281117 H 2.5885659 L 0.83108506,12.415583 -1.3359373,8.4620574 -2.1646942,8.8796609 -2.2775601,8.6813394"
       id="path3-0"
       sodipodi:nodetypes="ccccccccccc" />
  </g>
</svg>
