<?xml version="1.0" encoding="UTF-8" standalone="no"?>
<svg
   role="img"
   focusable="false"
   aria-hidden="true"
   viewBox="0 0 14 14"
   version="1.1"
   id="svg12"
   sodipodi:docname="swap_x_y.svg"
   inkscape:version="1.3.2 (091e20e, 2023-11-25, custom)"
   xmlns:inkscape="http://www.inkscape.org/namespaces/inkscape"
   xmlns:sodipodi="http://sodipodi.sourceforge.net/DTD/sodipodi-0.dtd"
   xmlns="http://www.w3.org/2000/svg"
   xmlns:svg="http://www.w3.org/2000/svg">
  <defs
     id="defs16" />
  <sodipodi:namedview
     id="namedview14"
     pagecolor="#ffffff"
     bordercolor="#000000"
     borderopacity="0.25"
     inkscape:showpageshadow="2"
     inkscape:pageopacity="0.0"
     inkscape:pagecheckerboard="0"
     inkscape:deskcolor="#d1d1d1"
     showgrid="false"
     inkscape:zoom="42.274884"
     inkscape:cx="3.8911993"
     inkscape:cy="7.2501677"
     inkscape:window-width="1920"
     inkscape:window-height="1009"
     inkscape:window-x="-8"
     inkscape:window-y="-8"
     inkscape:window-maximized="1"
     inkscape:current-layer="svg12" />
  <rect
     style="fill:#696969;fill-opacity:0.817241;stroke-width:0.547874"
     id="rect28089"
     width="0.53186357"
     height="12.584304"
     x="2.8532717"
     y="0.6150223" />
  <rect
     style="fill:#696969;fill-opacity:0.817241;stroke-width:0.54642"
     id="rect28089-7"
     width="0.53186357"
     height="12.5176"
     x="10.103792"
     y="-13.022007"
     transform="rotate(90)" />
  <g
     fill="#008000"
     id="g3"
     transform="matrix(-0.13200698,0.54633234,-0.54633234,-0.13200698,11.967788,3.1247236)">
    <path
       d="M 11.642105,3.2105264 10.663158,4 c 0.694737,0.8526316 1.073684,1.9263158 1.073684,3 0,2.6210526 -2.1157894,4.736842 -4.736842,4.736842 -0.2842105,0 -0.6,-0.03158 -0.8842105,-0.09474 l -0.2210526,1.231579 c 0.3789473,0.06316 0.7578947,0.09474 1.1052631,0.09474 3.315789,0 6,-2.684211 6,-5.9999999 0,-1.3263158 -0.473684,-2.6842105 -1.357895,-3.7578947 z"
       id="path1" />
    <path
       d="M 9.2105263,1.9789474 12.968421,2.4842106 9.8736842,5.5789474 Z M 7,1.031579 c -3.3157894,0 -5.9999999,2.6842105 -5.9999999,5.9999999 0,1.4526316 0.5052631,2.8421053 1.4526315,3.9157891 L 3.4,10.126316 C 2.6736843,9.2736842 2.2631579,8.168421 2.2631579,7.0315789 2.263158,4.4105263 4.3789474,2.2947369 7,2.2947369 c 0.2842105,0 0.6,0.031579 0.8842105,0.094737 L 8.1052631,1.1578948 C 7.7578947,1.063158 7.3789474,1.031579 7,1.031579 Z"
       id="path2" />
    <path
       d="M 4.7894737,12.08421 1.031579,11.578947 4.1263158,8.4842105 Z"
       id="path3" />
  </g>
</svg>
