<?xml version="1.0" encoding="UTF-8" standalone="no"?>
<svg
   role="img"
   focusable="false"
   aria-hidden="true"
   viewBox="0 0 14 14"
   version="1.1"
   id="svg6"
   sodipodi:docname="libre-gui-table-col-remove.svg"
   inkscape:version="1.1 (c68e22c387, 2021-05-23)"
   xmlns:inkscape="http://www.inkscape.org/namespaces/inkscape"
   xmlns:sodipodi="http://sodipodi.sourceforge.net/DTD/sodipodi-0.dtd"
   xmlns="http://www.w3.org/2000/svg"
   xmlns:svg="http://www.w3.org/2000/svg">
  <defs
     id="defs10" />
  <sodipodi:namedview
     id="namedview8"
     pagecolor="#ffffff"
     bordercolor="#666666"
     borderopacity="1.0"
     inkscape:pageshadow="2"
     inkscape:pageopacity="0.0"
     inkscape:pagecheckerboard="0"
     showgrid="false"
     inkscape:zoom="59.428571"
     inkscape:cx="6.9915865"
     inkscape:cy="6.9747596"
     inkscape:window-width="1920"
     inkscape:window-height="1017"
     inkscape:window-x="-8"
     inkscape:window-y="-8"
     inkscape:window-maximized="1"
     inkscape:current-layer="svg6" />
  <path
     d="M.52539062 0C.23530063 0 0 .16890625 0 .37890625V13.621094C0 13.831194.23530063 14 .52539062 14H5.3203125c.29019 0 .5234375-.168806.5234375-.378906V.37890625C5.84375.16890625 5.6105025 0 5.3203125 0H.52539062zm.68554688 1.0585938h3.421875v3.2148437h-3.421875V1.0585938zm0 4.2832031h3.421875v3.2148437h-3.421875V5.3417969zm0 4.2832031h3.421875v3.216797h-3.421875V9.625z"
     id="path2"
     style="fill:#999999" />
  <path
     fill="red"
     d="M6.40006 4.6999q0-.2558.17911-.4348l.87003-.8698q.17912-.1791.43501-.1791.2559 0 .43501.1791l1.88081 1.8802 1.8808-1.8802q.17912-.1791.43501-.1791.2559 0 .43501.1791l.87003.8698Q14 4.4441 14 4.6999t-.17912.4349l-1.8808 1.8802 1.8808 1.8802Q14 9.0742 14 9.33t-.17912.4349l-.87003.8698q-.17911.179-.43501.179-.25589 0-.43501-.179l-1.8808-1.8802-1.88081 1.8802q-.17911.179-.43501.179-.25589 0-.43501-.179l-.87003-.8698q-.17911-.1791-.17911-.4349t.17911-.4348L8.45998 7.015 6.57917 5.1348q-.17911-.1791-.17911-.4349z"
     id="path4" />
  <path
     style="fill:#ccffcc;fill-opacity:1;stroke:#d45500;stroke-width:0.0129196"
     d="M 0.67854611,2.5672786 V 0.57373842 H 2.9218751 5.1652039 V 2.5672786 4.5608188 H 2.9218751 0.67854611 Z"
     id="path1898" />
  <path
     style="fill:#e6cccc;fill-opacity:1;stroke:#d45500;stroke-width:0.0129539"
     d="M 0.67841523,6.9646773 V 4.9711543 H 2.9218751 5.1653348 v 1.993523 1.9935231 H 2.9218751 0.67841523 Z"
     id="path1974" />
  <path
     style="fill:#f0f0f0;fill-opacity:1;stroke:#d45500;stroke-width:0.0129192"
     d="M 0.67870076,11.362075 V 9.3685357 H 2.921875 5.1650492 v 1.9935393 1.99354 H 2.921875 0.67870076 Z"
     id="path2050" />
</svg>
