<?xml version="1.0" encoding="UTF-8" standalone="no"?>
<svg
   xmlns:dc="http://purl.org/dc/elements/1.1/"
   xmlns:cc="http://creativecommons.org/ns#"
   xmlns:rdf="http://www.w3.org/1999/02/22-rdf-syntax-ns#"
   xmlns:svg="http://www.w3.org/2000/svg"
   xmlns="http://www.w3.org/2000/svg"
   xmlns:sodipodi="http://sodipodi.sourceforge.net/DTD/sodipodi-0.dtd"
   xmlns:inkscape="http://www.inkscape.org/namespaces/inkscape"
   role="img"
   focusable="false"
   aria-hidden="true"
   viewBox="0 0 14 14"
   id="svg2"
   version="1.1"
   inkscape:version="0.48.4 r9939"
   width="100%"
   height="100%"
   sodipodi:docname="roi.svg">
  <metadata
     id="metadata12">
    <rdf:RDF>
      <cc:Work
         rdf:about="">
        <dc:format>image/svg+xml</dc:format>
        <dc:type
           rdf:resource="http://purl.org/dc/dcmitype/StillImage" />
      </cc:Work>
    </rdf:RDF>
  </metadata>
  <defs
     id="defs10" />
  <sodipodi:namedview
     pagecolor="#ffffff"
     bordercolor="#666666"
     borderopacity="1"
     objecttolerance="10"
     gridtolerance="10"
     guidetolerance="10"
     inkscape:pageopacity="0"
     inkscape:pageshadow="2"
     inkscape:window-width="640"
     inkscape:window-height="480"
     id="namedview8"
     showgrid="false"
     inkscape:zoom="16.857143"
     inkscape:cx="7.0000001"
     inkscape:cy="7.0000001"
     inkscape:window-x="0"
     inkscape:window-y="0"
     inkscape:window-maximized="0"
     inkscape:current-layer="svg2" />
  <path
     d="M 10.618644,8.5459999 V 5.4539998 c 0.2905,-0.1035 0.5,-0.378 0.5,-0.7039997 0,-0.4139999 -0.336,-0.75 -0.75,-0.75 -0.326,0 -0.6004999,0.2094995 -0.7039999,0.4999998 h -5.092 c -0.1035,-0.2905004 -0.378,-0.4999998 -0.704,-0.4999998 -0.414,0 -0.75,0.3360001 -0.75,0.75 0,0.3259997 0.2095,0.6004998 0.5,0.7039997 v 3.0920001 c -0.2905,0.1035 -0.5,0.378 -0.5,0.704 0,0.414 0.336,0.75 0.75,0.75 0.326,0 0.6005,-0.2095 0.704,-0.500001 h 5.092 c 0.1035,0.290501 0.3779999,0.500001 0.7039999,0.500001 0.414,0 0.75,-0.336 0.75,-0.75 0,-0.326 -0.2095,-0.6005 -0.5,-0.704 z m -0.9539999,0.454 h -5.092 c -0.075,-0.212 -0.242,-0.3785 -0.454,-0.454 V 5.4539998 c 0.212,-0.075497 0.3785,-0.2419997 0.454,-0.4540003 h 5.092 c 0.0755,0.2120006 0.242,0.3785006 0.4539999,0.4540003 v 3.0920001 c -0.2119999,0.0755 -0.3789999,0.242 -0.4539999,0.454 z"
     id="path6"
     inkscape:connector-curvature="0"
     style="fill:#ff0000" />
</svg>
