<?xml version="1.0" encoding="UTF-8" standalone="no"?>
<!-- Uploaded to: SVG Repo, www.svgrepo.com, Generator: SVG Repo Mixer Tools -->

<svg
   fill="#000000"
   width="800px"
   height="800px"
   viewBox="0 0 32 32"
   version="1.1"
   id="svg6"
   sodipodi:docname="collapse_selection.svg"
   inkscape:version="1.2.2 (732a01da63, 2022-12-09)"
   xmlns:inkscape="http://www.inkscape.org/namespaces/inkscape"
   xmlns:sodipodi="http://sodipodi.sourceforge.net/DTD/sodipodi-0.dtd"
   xmlns="http://www.w3.org/2000/svg"
   xmlns:svg="http://www.w3.org/2000/svg"
   xmlns:rdf="http://www.w3.org/1999/02/22-rdf-syntax-ns#"
   xmlns:cc="http://creativecommons.org/ns#"
   xmlns:dc="http://purl.org/dc/elements/1.1/">
  <defs
     id="defs10" />
  <sodipodi:namedview
     id="namedview8"
     pagecolor="#ffffff"
     bordercolor="#000000"
     borderopacity="0.25"
     inkscape:showpageshadow="2"
     inkscape:pageopacity="0.0"
     inkscape:pagecheckerboard="0"
     inkscape:deskcolor="#d1d1d1"
     showgrid="false"
     inkscape:zoom="1.07875"
     inkscape:cx="340.67207"
     inkscape:cy="400.4635"
     inkscape:window-width="1920"
     inkscape:window-height="1017"
     inkscape:window-x="-8"
     inkscape:window-y="-8"
     inkscape:window-maximized="1"
     inkscape:current-layer="svg6" />
  <title
     id="title2">collapse</title>
  <path
     d="M11.493 8.757l-3.454-3.453-2.665 2.665 3.454 3.453-2.59 2.59 7.797 0.004-0.017-7.784-2.525 2.525zM23.172 11.422l3.454-3.453-2.665-2.665-3.454 3.453-2.525-2.525-0.017 7.784 7.797-0.004-2.59-2.59zM8.828 20.578l-3.454 3.453 2.665 2.665 3.454-3.453 2.526 2.525 0.017-7.784-7.797 0.004 2.589 2.59zM25.762 17.988l-7.797-0.004 0.017 7.784 2.525-2.525 3.454 3.453 2.665-2.665-3.454-3.453 2.59-2.59z"
     id="path4"
     style="fill:#2b7c2b;fill-opacity:1" />
  <rect
     style="fill:#ffd42a;fill-opacity:1;stroke:#da6500;stroke-width:0.65271;stroke-dasharray:none;stroke-opacity:1"
     id="rect3271"
     width="6.7517533"
     height="6.3881974"
     x="12.642663"
     y="12.824441" />
  <metadata
     id="metadata8243">
    <rdf:RDF>
      <cc:Work
         rdf:about="">
        <dc:title>collapse</dc:title>
      </cc:Work>
    </rdf:RDF>
  </metadata>
</svg>
