<?xml version="1.0" encoding="UTF-8" standalone="no"?>
<!-- Uploaded to: SVG Repo, www.svgrepo.com, Generator: SVG Repo Mixer Tools -->

<svg
   width="800px"
   height="800px"
   viewBox="0 0 14 14"
   role="img"
   focusable="false"
   aria-hidden="true"
   version="1.1"
   id="svg1"
   sodipodi:docname="edit_mode.svg"
   inkscape:version="1.4 (86a8ad7, 2024-10-11)"
   xmlns:inkscape="http://www.inkscape.org/namespaces/inkscape"
   xmlns:sodipodi="http://sodipodi.sourceforge.net/DTD/sodipodi-0.dtd"
   xmlns="http://www.w3.org/2000/svg"
   xmlns:svg="http://www.w3.org/2000/svg">
  <defs
     id="defs1" />
  <sodipodi:namedview
     id="namedview1"
     pagecolor="#505050"
     bordercolor="#ffffff"
     borderopacity="1"
     inkscape:showpageshadow="0"
     inkscape:pageopacity="0"
     inkscape:pagecheckerboard="1"
     inkscape:deskcolor="#505050"
     inkscape:zoom="0.96625"
     inkscape:cx="399.48254"
     inkscape:cy="400"
     inkscape:window-width="1920"
     inkscape:window-height="991"
     inkscape:window-x="-9"
     inkscape:window-y="-9"
     inkscape:window-maximized="1"
     inkscape:current-layer="svg1" />
  <path
     fill="#2980b9"
     d="M 11.618161,1.7852464 H 2.3813666 c -0.5829045,0 -1.055364,0.4729315 -1.055364,1.055364 V 8.73479 c 0,0.5824325 0.4724595,1.055364 1.055364,1.055364 h 1.7600413 l 4.719e-4,2.4246 2.6922166,-2.4246 h 4.7845376 c 0.583376,0 1.055363,-0.4729315 1.055363,-1.055364 V 2.8406104 c -4.71e-4,-0.5824325 -0.472459,-1.055364 -1.055836,-1.055364 z m -7.4503219,4.255911 c -0.261009,0 -0.4719874,-0.2114503 -0.4719874,-0.4719874 0,-0.2610091 0.2109784,-0.4719875 0.4719874,-0.4719875 0.2605371,0 0.4719875,0.2109784 0.4719875,0.4719875 0,0.2605371 -0.2114504,0.4719874 -0.4719875,0.4719874 z m 1.88795,-0.019823 c -0.2610091,0 -0.4719876,-0.2114504 -0.4719876,-0.4719875 0,-0.2610091 0.2109785,-0.4719875 0.4719876,-0.4719875 0.2605371,0 0.4719875,0.2109784 0.4719875,0.4719875 0,0.2605371 -0.2114504,0.4719875 -0.4719875,0.4719875 z m 1.8973895,0.00991 c -0.2605367,0 -0.4719877,-0.2109784 -0.4719877,-0.4719874 0,-0.2605371 0.211451,-0.4719875 0.4719877,-0.4719875 0.2610096,0 0.4719877,0.2114504 0.4719877,0.4719875 0,0.260537 -0.211451,0.4719874 -0.4719877,0.4719874 z m 1.8785102,0.00991 c -0.2610086,0 -0.4719877,-0.2114503 -0.4719877,-0.4719874 0,-0.2610091 0.2109791,-0.4719875 0.4719877,-0.4719875 0.2605372,0 0.4719872,0.2109784 0.4719872,0.4719875 0,0.2605371 -0.21145,0.4719874 -0.4719872,0.4719874 z"
     id="path1"
     style="stroke-width:0.945666" />
</svg>
