<?xml version="1.0" encoding="UTF-8" standalone="no"?>
<!-- Uploaded to: SVG Repo, www.svgrepo.com, Generator: SVG Repo Mixer Tools -->

<svg
   version="1.1"
   id="Layer_1"
   viewBox="0 0 501.551 501.551"
   xml:space="preserve"
   sodipodi:docname="edit.svg"
   inkscape:version="1.4 (86a8ad7, 2024-10-11)"
   xmlns:inkscape="http://www.inkscape.org/namespaces/inkscape"
   xmlns:sodipodi="http://sodipodi.sourceforge.net/DTD/sodipodi-0.dtd"
   xmlns="http://www.w3.org/2000/svg"
   xmlns:svg="http://www.w3.org/2000/svg"><defs
   id="defs9">
	
	
	
	
	
</defs><sodipodi:namedview
   id="namedview9"
   pagecolor="#505050"
   bordercolor="#ffffff"
   borderopacity="1"
   inkscape:showpageshadow="0"
   inkscape:pageopacity="0"
   inkscape:pagecheckerboard="1"
   inkscape:deskcolor="#505050"
   inkscape:zoom="1.5412192"
   inkscape:cx="250.45108"
   inkscape:cy="244.93596"
   inkscape:window-width="1920"
   inkscape:window-height="991"
   inkscape:window-x="-9"
   inkscape:window-y="-9"
   inkscape:window-maximized="1"
   inkscape:current-layer="Layer_1" />
<path
   style="fill:#f2f2f2;stroke-width:0.909913"
   d="M 368.1692,22.591607 H 39.203798 c -10.45854,0 -19.015362,8.556822 -19.015362,19.015363 v 418.33706 c 0,10.45854 8.556822,19.01536 19.015362,19.01536 H 368.1692 c 10.45854,0 19.01536,-8.55682 19.01536,-19.01536 V 41.60697 c 0,-10.458541 -8.55682,-19.015363 -19.01536,-19.015363 z"
   id="path1" />
<rect
   x="55.366581"
   y="89.14537"
   style="fill:#4cdbc4;stroke-width:0.909913"
   width="288.08209"
   height="23.768747"
   id="rect1" /><rect
   x="55.366581"
   y="162.35425"
   style="fill:#4cdbc4;stroke-width:0.909913"
   width="259.55905"
   height="23.768747"
   id="rect2" /><rect
   x="55.366581"
   y="239.36656"
   style="fill:#4cdbc4;stroke-width:0.909913"
   width="193.00529"
   height="23.768747"
   id="rect3" /><rect
   x="55.366581"
   y="312.57544"
   style="fill:#4cdbc4;stroke-width:0.909913"
   width="139.76265"
   height="23.768747"
   id="rect4" /><rect
   x="55.366581"
   y="388.63687"
   style="fill:#4cdbc4;stroke-width:0.852271"
   width="74.236877"
   height="23.768747"
   id="rect5" />



<g
   id="g10"
   transform="translate(-12.053489,-19.46511)"><polygon
     style="fill:#ffd15c"
     points="153.531,431.543 163.98,377.208 180.699,293.616 243.393,231.967 354.152,341.682 291.458,404.376 207.866,421.094 "
     id="polygon5" /><polygon
     style="fill:#ff7058"
     points="301.907,338.547 236.078,348.996 246.527,283.167 384.454,145.241 439.833,200.62 "
     id="polygon6" /><g
     id="g8">
	<polygon
   style="fill:#f1543f"
   points="301.907,338.547 439.833,200.62 468.046,227.788 291.458,404.376 "
   id="polygon7" />
	<polygon
   style="fill:#f1543f"
   points="180.699,293.616 357.287,117.029 384.454,145.241 246.527,283.167 "
   id="polygon8" />
</g><g
     id="g9">
	<polygon
   style="fill:#40596b"
   points="153.531,431.543 163.98,377.208 207.866,421.094 "
   id="polygon9" />
	<path
   style="fill:#40596b"
   d="M 493.123,172.408 412.666,91.951 c -8.359,-8.359 -20.898,-8.359 -29.257,0 l -25.078,25.078 110.759,110.759 25.078,-25.078 c 7.314,-8.359 7.314,-21.943 -1.045,-30.302 z"
   id="path9" />
</g></g>
</svg>
