<?xml version="1.0" encoding="UTF-8" standalone="no"?>
<svg
   role="img"
   focusable="false"
   aria-hidden="true"
   viewBox="0 0 14 14"
   version="1.1"
   id="svg14"
   sodipodi:docname="h5save.svg"
   inkscape:version="1.2.2 (732a01da63, 2022-12-09)"
   xmlns:inkscape="http://www.inkscape.org/namespaces/inkscape"
   xmlns:sodipodi="http://sodipodi.sourceforge.net/DTD/sodipodi-0.dtd"
   xmlns:xlink="http://www.w3.org/1999/xlink"
   xmlns="http://www.w3.org/2000/svg"
   xmlns:svg="http://www.w3.org/2000/svg">
  <defs
     id="defs18">
    <linearGradient
       id="BlueGreen"
       gradientUnits="userSpaceOnUse"
       y1="20"
       x1="0"
       y2="180"
       x2="0"
       xlink:href="#linearGradientStops"
       gradientTransform="matrix(0.01229036,0,0,0.01229036,4.0293076,3.003469)" />
    <linearGradient
       id="linearGradientStops">
      <stop
         offset="0"
         style="stop-color:#0515fe"
         id="stop2" />
      <stop
         offset="1"
         style="stop-color:#2cab28"
         id="stop4" />
    </linearGradient>
  </defs>
  <sodipodi:namedview
     id="namedview16"
     pagecolor="#ffffff"
     bordercolor="#666666"
     borderopacity="1.0"
     inkscape:pageshadow="2"
     inkscape:pageopacity="0.0"
     inkscape:pagecheckerboard="0"
     showgrid="false"
     inkscape:zoom="59.428571"
     inkscape:cx="5.9146635"
     inkscape:cy="7.016827"
     inkscape:window-width="1920"
     inkscape:window-height="1017"
     inkscape:window-x="-8"
     inkscape:window-y="-8"
     inkscape:window-maximized="1"
     inkscape:current-layer="svg14"
     inkscape:showpageshadow="2"
     inkscape:deskcolor="#d1d1d1" />
  <path
     fill="#4d4d4d"
     d="M 12.158654,1.8413462 V 12.158654 H 3.2743056 L 1.8413462,10.725694 V 1.8413462 Z"
     id="path2"
     style="stroke-width:0.859776" />
  <path
     fill="#ffffff"
     d="m 2.7011218,2.7011218 c 0,-0.1584853 0.1281066,-0.2865918 0.2865919,-0.2865918 h 8.0245723 c 0.158486,0 0.286592,0.1281065 0.286592,0.2865918 V 6.7134081 C 11.298878,6.8718934 11.170772,7 11.012286,7 H 2.9877137 C 2.8292284,7 2.7011218,6.8718934 2.7011218,6.7134081 Z"
     id="path4"
     style="stroke-width:0.859776" />
  <path
     d="M 11.298878,12.158654 V 9.292735 c 0,-0.3163974 -0.256786,-0.5731837 -0.573184,-0.5731837 H 6.4268162 c -0.3163974,0 -0.5731837,0.2567863 -0.5731837,0.5731837 v 2.865919 z"
     id="path8"
     style="stroke-width:0.859776" />
  <path
     fill="#b0bec5"
     d="M 9.5793269,12.158654 V 9.292735 c 0,-0.3163974 -0.2567863,-0.5731837 -0.5731838,-0.5731837 H 4.707265 c -0.3163974,0 -0.5731838,0.2567863 -0.5731838,0.5731837 v 2.865919 z"
     id="path10"
     style="stroke-width:0.859776" />
  <path
     d="M 6.4268162,11.58547 H 5.2804487 V 9.292735 h 1.1463675 z"
     id="path12"
     style="stroke-width:0.859776" />
  <path
     style="fill:url(#BlueGreen);stroke-width:0.0122904"
     d="M 6.0707321,3.0558856 A 0.29499771,0.29499771 0 0 0 5.7802036,3.3550304 V 4.4032145 H 4.6800008 V 3.3591593 A 0.29499771,0.29499771 0 0 0 4.3805934,3.0600147 0.29499771,0.29499771 0 0 0 4.0900659,3.3591593 v 2.6958582 a 0.29499771,0.29499771 0 1 0 0.5899349,0 V 4.993151 H 6.3701387 V 3.6634415 C 7.266184,3.7481028 7.6144808,4.261903 7.6103582,4.7290044 7.6058014,5.2441692 7.1759359,5.8064868 6.0583196,5.7705878 a 0.29499771,0.29499771 0 1 0 -0.018958,0.5896245 c 0.8206129,0.02635 1.442682,-0.2639691 1.8039916,-0.6913321 v 0.4103825 a 0.29499771,0.29499771 0 1 0 0.5899359,0 V 5.0079375 h 0.9826762 a 0.29499771,0.29499771 0 1 0 0,-0.5899362 H 8.4333096 V 3.6499987 h 1.3800225 a 0.29499771,0.29499771 0 1 0 0,-0.5899362 H 6.1233968 a 0.29499771,0.29499771 0 0 0 -0.052678,-0.00417 z"
     id="path10-8" />
</svg>
