<?xml version="1.0" encoding="UTF-8" standalone="no"?>
<svg
   role="img"
   focusable="false"
   aria-hidden="true"
   viewBox="0 0 14 14"
   version="1.1"
   id="svg6"
   sodipodi:docname="metadata_delete.svg"
   inkscape:version="1.2.2 (732a01da63, 2022-12-09)"
   xmlns:inkscape="http://www.inkscape.org/namespaces/inkscape"
   xmlns:sodipodi="http://sodipodi.sourceforge.net/DTD/sodipodi-0.dtd"
   xmlns="http://www.w3.org/2000/svg"
   xmlns:svg="http://www.w3.org/2000/svg">
  <defs
     id="defs10" />
  <sodipodi:namedview
     id="namedview8"
     pagecolor="#ffffff"
     bordercolor="#666666"
     borderopacity="1.0"
     inkscape:pageshadow="2"
     inkscape:pageopacity="0.0"
     inkscape:pagecheckerboard="0"
     showgrid="false"
     inkscape:zoom="59.428571"
     inkscape:cx="5.9146635"
     inkscape:cy="6.2596154"
     inkscape:window-width="1920"
     inkscape:window-height="1017"
     inkscape:window-x="-8"
     inkscape:window-y="-8"
     inkscape:window-maximized="1"
     inkscape:current-layer="svg6"
     inkscape:showpageshadow="2"
     inkscape:deskcolor="#d1d1d1" />
  <g
     id="g882"
     transform="matrix(0.80453486,0,0,0.80453486,1.0946557,1.368256)">
    <path
       d="m 0.40773791,0.03945634 c -0.29008998,0 -0.52539061,0.1689063 -0.52539061,0.3789063 V 13.66055 c 0,0.2101 0.23530063,0.378906 0.52539061,0.378906 H 5.2026598 c 0.29019,0 0.5234375,-0.168806 0.5234375,-0.378906 V 0.41836264 c 0,-0.21 -0.2332475,-0.3789063 -0.5234375,-0.3789063 z M 1.0932848,1.0980501 h 3.421875 v 3.2148438 h -3.421875 z m 0,4.2832032 h 3.421875 V 8.596097 h -3.421875 z m 0,4.2832026 h 3.421875 v 3.2167971 h -3.421875 z"
       id="path2"
       style="fill:#999999" />
    <path
       style="fill:#ccffcc;fill-opacity:1;stroke:#d45500;stroke-width:0.0129196"
       d="M 0.56089341,2.5672787 V 0.5737384 H 2.8042224 5.0475512 V 2.5672787 4.5608189 H 2.8042224 0.56089341 Z"
       id="path1898" />
    <path
       style="fill:#e6cccc;fill-opacity:1;stroke:#d45500;stroke-width:0.0129539"
       d="M 0.56076251,6.9646774 V 4.9711544 H 2.8042224 5.0476821 v 1.993523 1.9935231 H 2.8042224 0.56076251 Z"
       id="path1974" />
    <path
       style="fill:#f0f0f0;fill-opacity:1;stroke:#d45500;stroke-width:0.0129192"
       d="M 0.56104805,11.362075 V 9.3685358 H 2.8042223 5.0473965 v 1.9935392 1.99354 H 2.8042223 0.56104805 Z"
       id="path2050" />
  </g>
  <path
     fill="#ff0000"
     d="m 4.5155634,5.4191261 q 0,-0.1651739 0.115654,-0.2807568 L 5.1930087,4.5767264 q 0.1156605,-0.1156475 0.2808925,-0.1156475 0.1652384,0 0.2808924,0.1156475 L 6.9692607,5.7907996 8.1837216,4.5767264 q 0.1156597,-0.1156475 0.2808919,-0.1156475 0.1652383,0 0.2808928,0.1156475 l 0.5617916,0.5616429 q 0.1156597,0.1155829 0.1156597,0.2807568 0,0.1651739 -0.1156597,0.2808215 l -1.214461,1.2140731 1.214461,1.2140731 q 0.1156597,0.115583 0.1156597,0.2807569 0,0.1651739 -0.1156597,0.2808214 L 8.7455063,9.2513149 q -0.1156545,0.115583 -0.2808928,0.115583 -0.1652322,0 -0.2808919,-0.115583 L 6.9692607,8.0372418 5.7547936,9.2513149 q -0.115654,0.115583 -0.2808924,0.115583 -0.165232,0 -0.2808925,-0.115583 L 4.6312174,8.6896721 q -0.115654,-0.1156475 -0.115654,-0.2808214 0,-0.1651739 0.115654,-0.2807569 L 5.8456844,6.9140207 4.6312174,5.6999476 Q 4.5155634,5.5843 4.5155634,5.4191261 Z"
     id="path4"
     style="stroke-width:0.645715" />
</svg>
