<?xml version="1.0" encoding="UTF-8" standalone="no"?>
<svg
   role="img"
   focusable="false"
   aria-hidden="true"
   viewBox="0 0 14 14"
   version="1.1"
   id="svg12"
   sodipodi:docname="new_image.svg"
   inkscape:version="1.2.2 (732a01da63, 2022-12-09)"
   xml:space="preserve"
   xmlns:inkscape="http://www.inkscape.org/namespaces/inkscape"
   xmlns:sodipodi="http://sodipodi.sourceforge.net/DTD/sodipodi-0.dtd"
   xmlns="http://www.w3.org/2000/svg"
   xmlns:svg="http://www.w3.org/2000/svg"><defs
     id="defs16" /><sodipodi:namedview
     id="namedview14"
     pagecolor="#ffffff"
     bordercolor="#000000"
     borderopacity="0.25"
     inkscape:showpageshadow="2"
     inkscape:pageopacity="0.0"
     inkscape:pagecheckerboard="0"
     inkscape:deskcolor="#d1d1d1"
     showgrid="false"
     inkscape:zoom="42.274884"
     inkscape:cx="1.5966927"
     inkscape:cy="6.0082956"
     inkscape:window-width="1920"
     inkscape:window-height="1017"
     inkscape:window-x="-8"
     inkscape:window-y="-8"
     inkscape:window-maximized="1"
     inkscape:current-layer="svg12" /><path
     style="fill:#37474f;fill-opacity:1;stroke-width:0.0499186"
     d="M 11.603869,12.127256 C 8.9548968,12.1668 3.594453,12.146305 3.4323153,12.096014 2.8000908,11.899906 2.0577058,11.158183 1.8007394,10.465894 1.6862792,10.157531 1.6918551,9.8866897 1.8899974,6.1288758 2.0801388,2.5227926 2.1144896,2.1080562 2.2324527,1.9941102 2.3514585,1.8794971 2.7393353,1.8661327 6.3767717,1.8532242 c 3.7790143,-0.01341 4.0320983,-0.0061 4.3370693,0.1253306 0.681468,0.2936835 1.382427,1.0679658 1.550284,1.7124248 0.0337,0.129404 -0.03084,1.9300465 -0.150169,4.1891652 -0.175211,3.3172892 -0.22825,3.9853222 -0.325838,4.1041532 -0.06411,0.07807 -0.14691,0.142503 -0.184203,0.142984 z"
     id="path468" /><g
     id="g22811"
     transform="matrix(0.97634529,0,-0.04619032,0.97634529,0.79214309,0.58190579)"><rect
       style="fill:#0060ff;fill-opacity:1;stroke:none;stroke-width:0.402;stroke-opacity:1"
       id="rect10749"
       width="2"
       height="2"
       x="2.5999999"
       y="2.5999999" /><rect
       style="fill:#ff7200;fill-opacity:1;stroke:none;stroke-width:0.402;stroke-opacity:1"
       id="rect10749-7"
       width="2"
       height="2"
       x="2.5999999"
       y="4.5999999" /><rect
       style="fill:#ff4300;fill-opacity:1;stroke:none;stroke-width:0.402;stroke-opacity:1"
       id="rect10749-1"
       width="2"
       height="2"
       x="4.5999999"
       y="2.5999999" /><rect
       style="fill:#ffbb00;fill-opacity:1;stroke:none;stroke-width:0.402;stroke-opacity:1"
       id="rect10749-7-5"
       width="2"
       height="2"
       x="4.5999999"
       y="4.5999999" /><rect
       style="fill:#00acff;fill-opacity:1;stroke:none;stroke-width:0.402;stroke-opacity:1"
       id="rect10749-8"
       width="2"
       height="2"
       x="6.5999999"
       y="2.5999999" /><rect
       style="fill:#ff3200;fill-opacity:1;stroke:none;stroke-width:0.402;stroke-opacity:1"
       id="rect10749-7-0"
       width="2"
       height="2"
       x="6.5999999"
       y="4.5999999" /><rect
       style="fill:#0000fb;fill-opacity:1;stroke:none;stroke-width:0.402;stroke-opacity:1"
       id="rect10749-1-4"
       width="2"
       height="2"
       x="8.6000004"
       y="2.5999999" /><rect
       style="fill:#28ffcf;fill-opacity:1;stroke:none;stroke-width:0.402;stroke-opacity:1"
       id="rect10749-7-5-5"
       width="2"
       height="2"
       x="8.6000004"
       y="4.5999999" /><rect
       style="fill:#1fffd8;fill-opacity:1;stroke:none;stroke-width:0.402;stroke-opacity:1"
       id="rect10749-84"
       width="2"
       height="2"
       x="2.5999999"
       y="6.5999999" /><rect
       style="fill:#b80000;fill-opacity:1;stroke:none;stroke-width:0.402;stroke-opacity:1"
       id="rect10749-7-8"
       width="2"
       height="2"
       x="2.5999999"
       y="8.6000004" /><rect
       style="fill:#0000cf;fill-opacity:1;stroke:none;stroke-width:0.402;stroke-opacity:1"
       id="rect10749-1-1"
       width="2"
       height="2"
       x="4.5999999"
       y="6.5999999" /><rect
       style="fill:#40ffb7;fill-opacity:1;stroke:none;stroke-width:0.402;stroke-opacity:1"
       id="rect10749-7-5-4"
       width="2"
       height="2"
       x="4.5999999"
       y="8.6000004" /><rect
       style="fill:#c4ff33;fill-opacity:1;stroke:none;stroke-width:0.402;stroke-opacity:1"
       id="rect10749-8-8"
       width="2"
       height="2"
       x="6.5999999"
       y="6.5999999" /><rect
       style="fill:#910000;fill-opacity:1;stroke:none;stroke-width:0.402;stroke-opacity:1"
       id="rect10749-7-0-4"
       width="2"
       height="2"
       x="6.5999999"
       y="8.6000004" /><rect
       style="fill:#0000ff;fill-opacity:1;stroke:none;stroke-width:0.402;stroke-opacity:1"
       id="rect10749-1-4-3"
       width="2"
       height="2"
       x="8.6000004"
       y="6.5999999" /><rect
       style="fill:#44ffb3;fill-opacity:1;stroke:none;stroke-width:0.402;stroke-opacity:1"
       id="rect10749-7-5-5-3"
       width="2"
       height="2"
       x="8.6000004"
       y="8.6000004" /></g><g
     id="g3798"
     transform="matrix(0.54267566,0,0,0.54267566,6.7985787,6.8695433)"><circle
       cx="7"
       cy="7"
       r="6"
       fill="#4caf50"
       id="circle2915" /><g
       fill="#ffffff"
       id="g2921"><path
         d="M 6.1428571,4.1428571 H 7.8571429 V 9.8571429 H 6.1428571 Z"
         id="path2917" /><path
         d="M 4.1428571,6.1428571 H 9.8571429 V 7.8571429 H 4.1428571 Z"
         id="path2919" /></g></g></svg>
