<?xml version="1.0" encoding="UTF-8" standalone="no"?>
<svg
   role="img"
   focusable="false"
   aria-hidden="true"
   viewBox="0 0 14 14"
   version="1.1"
   id="svg12"
   sodipodi:docname="rename_group.svg"
   inkscape:version="1.2.2 (732a01da63, 2022-12-09)"
   xmlns:inkscape="http://www.inkscape.org/namespaces/inkscape"
   xmlns:sodipodi="http://sodipodi.sourceforge.net/DTD/sodipodi-0.dtd"
   xmlns="http://www.w3.org/2000/svg"
   xmlns:svg="http://www.w3.org/2000/svg">
  <defs
     id="defs16" />
  <sodipodi:namedview
     id="namedview14"
     pagecolor="#ffffff"
     bordercolor="#000000"
     borderopacity="0.25"
     inkscape:showpageshadow="2"
     inkscape:pageopacity="0.0"
     inkscape:pagecheckerboard="0"
     inkscape:deskcolor="#d1d1d1"
     showgrid="false"
     inkscape:zoom="42.274884"
     inkscape:cx="6.2330153"
     inkscape:cy="7.2619951"
     inkscape:window-width="1920"
     inkscape:window-height="1017"
     inkscape:window-x="-8"
     inkscape:window-y="-8"
     inkscape:window-maximized="1"
     inkscape:current-layer="svg12" />
  <path
     style="fill:#37474f;fill-opacity:1;stroke-width:0.0283859"
     d="M 6.8296648,6.2443952 C 5.1630385,5.5656538 1.8498204,4.1646697 1.7789376,4.1087109 1.5025462,3.8905091 1.4800142,3.4944286 1.7294168,3.2382259 1.8405063,3.1241066 2.0039025,3.0514944 4.345882,2.0754702 6.5932984,1.1388551 6.8595177,1.0343842 6.9999828,1.0339318 c 0.1415059,-3.633e-4 0.390015,0.09695 2.6541007,1.0402832 2.3522085,0.9800497 2.5048905,1.0479296 2.6164655,1.1632569 0.249319,0.2577033 0.226926,0.6519036 -0.04951,0.871831 -0.05551,0.044159 -1.158863,0.5197575 -2.5669417,1.1064682 C 7.5864819,6.0772998 7.159093,6.2461719 7.0283823,6.253264 6.9425113,6.257924 6.8530974,6.2539906 6.8296786,6.244414 Z"
     id="path468" />
  <path
     style="fill:#e6e6e6;fill-opacity:1;stroke-width:0.0283859"
     d="M 8.6321836,4.3315814 C 9.5064757,3.9681026 10.230488,3.6632333 10.241101,3.6540937 10.251674,3.6449595 9.5273918,3.332242 8.6315001,2.959184 L 7.0026097,2.2808951 5.3619985,2.965448 C 4.4596615,3.3419539 3.7277741,3.6507492 3.73558,3.6516593 c 0.00783,9.084e-4 0.7422977,0.3067549 1.6322008,0.6796531 0.8899054,0.3728999 1.6307817,0.6742049 1.6463938,0.6695669 0.015607,-0.00461 0.7437167,-0.3058214 1.618009,-0.6692979 z"
     id="path470" />
  <path
     style="fill:#37474f;fill-opacity:1;stroke-width:0.0283859"
     d="M 6.8296648,8.555918 C 6.7047945,8.5138635 1.9668561,6.5342623 1.8572542,6.4783472 1.7992771,6.4487701 1.72075,6.3829396 1.682745,6.3320546 1.3828407,5.9304968 1.650263,5.366658 2.1420241,5.3636968 2.2889687,5.3627885 2.4934964,5.4425038 4.6384238,6.3363819 6.122015,6.9546554 6.9974976,7.3052811 7.0370482,7.2970226 7.0713075,7.2898568 8.1340078,6.8517267 9.3986083,6.3233765 11.510477,5.4410359 11.710928,5.3628176 11.85794,5.3637005 c 0.420368,0.0025 0.706337,0.4392481 0.53752,0.8208844 C 12.31933,6.3566469 12.267463,6.4146095 12.123673,6.488199 12.061243,6.520158 10.92436,6.998606 9.5973109,7.5514122 7.1367723,8.5763955 7.0182294,8.6194195 6.8296648,8.555918 Z"
     id="path466" />
  <path
     style="fill:#475b63;fill-opacity:1;stroke-width:0.0283859"
     d="M 6.8012757,10.738642 C 6.2414245,10.520938 1.8794269,8.6854904 1.8017182,8.6349215 1.6736432,8.551578 1.5497412,8.3147523 1.5501286,8.1540355 1.5504917,8.0267197 1.653419,7.7820185 1.7384714,7.7065142 1.8523252,7.6054423 2.0631461,7.5345575 2.200317,7.551231 2.278995,7.560811 3.2500251,7.9502309 4.6555214,8.5359024 6.171646,9.1676718 7.001233,9.4994853 7.0399531,9.4896143 7.0726131,9.4812143 8.1276204,9.0454211 9.3844144,8.521022 10.755609,7.9488883 11.721549,7.5611371 11.799648,7.5514906 c 0.137204,-0.01695 0.347723,0.053715 0.461846,0.1550236 0.08505,0.075507 0.188036,0.3202055 0.188343,0.4475213 3.64e-4,0.1605988 -0.123509,0.3974956 -0.251591,0.4810624 -0.05663,0.036946 -1.213433,0.5299779 -2.5706822,1.0956284 -1.7603477,0.7336367 -2.5048743,1.0310367 -2.5973281,1.0374947 -0.071286,0.0046 -0.1743128,-0.0085 -0.2289567,-0.02957 z"
     id="path464" />
  <path
     style="fill:#576e79;fill-opacity:1;stroke-width:0.0283859"
     d="M 6.8722457,12.954603 C 6.6969628,12.909251 1.8442374,10.871475 1.7585568,10.807248 1.5332822,10.638388 1.4799938,10.238454 1.6505101,9.996368 1.6966271,9.930898 1.7918411,9.846607 1.8620975,9.809066 2.1201858,9.6711498 2.0703906,9.6546621 4.6666067,10.737631 l 2.336137,0.974492 2.3333759,-0.974308 C 11.929153,9.6551011 11.880146,9.6713468 12.137865,9.809066 c 0.07022,0.0375 0.165472,0.121825 0.211588,0.187302 0.170493,0.242052 0.11739,0.64091 -0.108041,0.81153 -0.11818,0.08944 -5.0284225,2.133784 -5.1723701,2.153474 -0.061397,0.0086 -0.1499568,0.0049 -0.196792,-0.0071 z"
     id="path438" />
  <g
     id="g4720"
     transform="matrix(0.61363867,0,0,0.61363867,5.7104635,5.7577821)">
    <path
       fill="#e57373"
       d="m 12.836364,2.6909374 -1.527273,-1.52725 c -0.218182,-0.21823182 -0.6,-0.21823182 -0.872727,0 L 9.7272727,1.8728011 12.127273,4.272792 12.836364,3.5636784 c 0.218182,-0.2182319 0.218182,-0.5999046 0,-0.872741 z"
       id="path4582" />
    <path
       fill="#ff9800"
       d="M 1.8003648,9.8184006 8.5104374,3.108328 10.901383,5.4992733 4.1913101,12.209346 Z"
       id="path4584" />
    <path
       fill="#b0bec5"
       d="M 12.127212,4.2934741 10.93174,5.4889468 8.5407944,3.0980014 9.7362671,1.9025287 Z"
       id="path4586" />
    <path
       fill="#ffc107"
       d="M 1.8181818,9.8363424 0.99999994,12.999979 4.1636364,12.181797 Z"
       id="path4588" />
    <path
       fill="#37474f"
       d="M 1.3818181,11.363615 0.99999994,12.999979 2.6363636,12.618161 Z"
       id="path4590" />
  </g>
</svg>
