<?xml version="1.0" encoding="UTF-8" standalone="no"?>
<svg
   xmlns:dc="http://purl.org/dc/elements/1.1/"
   xmlns:cc="http://creativecommons.org/ns#"
   xmlns:rdf="http://www.w3.org/1999/02/22-rdf-syntax-ns#"
   xmlns:svg="http://www.w3.org/2000/svg"
   xmlns="http://www.w3.org/2000/svg"
   xmlns:sodipodi="http://sodipodi.sourceforge.net/DTD/sodipodi-0.dtd"
   xmlns:inkscape="http://www.inkscape.org/namespaces/inkscape"
   role="img"
   focusable="false"
   aria-hidden="true"
   viewBox="0 0 14 14"
   id="svg2"
   version="1.1"
   inkscape:version="0.48.4 r9939"
   width="100%"
   height="100%"
   sodipodi:docname="signal.svg">
  <metadata
     id="metadata36">
    <rdf:RDF>
      <cc:Work
         rdf:about="">
        <dc:format>image/svg+xml</dc:format>
        <dc:type
           rdf:resource="http://purl.org/dc/dcmitype/StillImage" />
      </cc:Work>
    </rdf:RDF>
  </metadata>
  <defs
     id="defs34" />
  <sodipodi:namedview
     pagecolor="#ffffff"
     bordercolor="#666666"
     borderopacity="1"
     objecttolerance="10"
     gridtolerance="10"
     guidetolerance="10"
     inkscape:pageopacity="0"
     inkscape:pageshadow="2"
     inkscape:window-width="640"
     inkscape:window-height="480"
     id="namedview32"
     showgrid="false"
     inkscape:zoom="16.857143"
     inkscape:cx="7"
     inkscape:cy="7"
     inkscape:window-x="0"
     inkscape:window-y="0"
     inkscape:window-maximized="0"
     inkscape:current-layer="svg2" />
  <g
     fill="#3f51b5"
     transform="translate(-.57894728 -.57894728) scale(.31579)"
     id="g4"
     style="fill:#ff0000">
    <circle
       cx="8"
       cy="38"
       r="3"
       id="circle6"
       d="m 11,38 c 0,1.656854 -1.3431458,3 -3,3 -1.6568542,0 -3,-1.343146 -3,-3 0,-1.656854 1.3431458,-3 3,-3 1.6568542,0 3,1.343146 3,3 z"
       style="fill:#ff0000" />
    <circle
       cx="16"
       cy="40"
       r="3"
       id="circle8"
       d="m 19,40 c 0,1.656854 -1.343146,3 -3,3 -1.656854,0 -3,-1.343146 -3,-3 0,-1.656854 1.343146,-3 3,-3 1.656854,0 3,1.343146 3,3 z"
       style="fill:#ff0000" />
    <circle
       cx="24"
       cy="33"
       r="3"
       id="circle10"
       d="m 27,33 c 0,1.656854 -1.343146,3 -3,3 -1.656854,0 -3,-1.343146 -3,-3 0,-1.656854 1.343146,-3 3,-3 1.656854,0 3,1.343146 3,3 z"
       style="fill:#ff0000" />
    <circle
       cx="32"
       cy="35"
       r="3"
       id="circle12"
       d="m 35,35 c 0,1.656854 -1.343146,3 -3,3 -1.656854,0 -3,-1.343146 -3,-3 0,-1.656854 1.343146,-3 3,-3 1.656854,0 3,1.343146 3,3 z"
       style="fill:#ff0000" />
    <circle
       cx="40"
       cy="31"
       r="3"
       id="circle14"
       d="m 43,31 c 0,1.656854 -1.343146,3 -3,3 -1.656854,0 -3,-1.343146 -3,-3 0,-1.656854 1.343146,-3 3,-3 1.656854,0 3,1.343146 3,3 z"
       style="fill:#ff0000" />
    <path
       d="M40.9 32.8l-1.8-3.6-7.3 3.7-8.3-2.1-8 7-7-1.7-1 3.8 9 2.3 8-7 7.7 1.9z"
       id="path16"
       style="fill:#ff0000" />
  </g>
  <g
     fill="#00bcd4"
     transform="translate(-.57894728 -.57894728) scale(.31579)"
     id="g18"
     style="fill:#0000ff">
    <circle
       cx="8"
       cy="20"
       r="3"
       id="circle20"
       d="m 11,20 c 0,1.656854 -1.3431458,3 -3,3 -1.6568542,0 -3,-1.343146 -3,-3 0,-1.656854 1.3431458,-3 3,-3 1.6568542,0 3,1.343146 3,3 z"
       style="fill:#0000ff" />
    <circle
       cx="16"
       cy="22"
       r="3"
       id="circle22"
       d="m 19,22 c 0,1.656854 -1.343146,3 -3,3 -1.656854,0 -3,-1.343146 -3,-3 0,-1.656854 1.343146,-3 3,-3 1.656854,0 3,1.343146 3,3 z"
       style="fill:#0000ff" />
    <circle
       cx="24"
       cy="15"
       r="3"
       id="circle24"
       d="m 27,15 c 0,1.656854 -1.343146,3 -3,3 -1.656854,0 -3,-1.343146 -3,-3 0,-1.656854 1.343146,-3 3,-3 1.656854,0 3,1.343146 3,3 z"
       style="fill:#0000ff" />
    <circle
       cx="32"
       cy="20"
       r="3"
       id="circle26"
       d="m 35,20 c 0,1.656854 -1.343146,3 -3,3 -1.656854,0 -3,-1.343146 -3,-3 0,-1.656854 1.343146,-3 3,-3 1.656854,0 3,1.343146 3,3 z"
       style="fill:#0000ff" />
    <circle
       cx="40"
       cy="8"
       r="3"
       id="circle28"
       d="m 43,8 c 0,1.6568542 -1.343146,3 -3,3 -1.656854,0 -3,-1.3431458 -3,-3 0,-1.6568542 1.343146,-3 3,-3 1.656854,0 3,1.3431458 3,3 z"
       style="fill:#0000ff" />
    <path
       d="M38.3 6.9c-2.1 3.2-5.3 8-6.9 10.4-1.2-.7-3.1-2-6.4-4l-1.3-.8-8.3 7.3-7-1.7-1 3.9 9 2.3 7.7-6.7c2.6 1.6 5.8 3.6 6.5 4.1l.5.5.9-.1c1.1-.1 1.1-.1 9.5-12.9l-3.2-2.3z"
       id="path30"
       style="fill:#0000ff" />
  </g>
</svg>
