<?xml version="1.0" encoding="UTF-8" standalone="no"?>
<svg
   role="img"
   focusable="false"
   aria-hidden="true"
   viewBox="0 0 14 14"
   id="svg2"
   version="1.1"
   inkscape:version="1.2.2 (732a01da63, 2022-12-09)"
   width="100%"
   height="100%"
   sodipodi:docname="signal_roi_new.svg"
   xmlns:inkscape="http://www.inkscape.org/namespaces/inkscape"
   xmlns:sodipodi="http://sodipodi.sourceforge.net/DTD/sodipodi-0.dtd"
   xmlns="http://www.w3.org/2000/svg"
   xmlns:svg="http://www.w3.org/2000/svg"
   xmlns:rdf="http://www.w3.org/1999/02/22-rdf-syntax-ns#"
   xmlns:cc="http://creativecommons.org/ns#"
   xmlns:dc="http://purl.org/dc/elements/1.1/">
  <metadata
     id="metadata12">
    <rdf:RDF>
      <cc:Work
         rdf:about="">
        <dc:format>image/svg+xml</dc:format>
        <dc:type
           rdf:resource="http://purl.org/dc/dcmitype/StillImage" />
      </cc:Work>
    </rdf:RDF>
  </metadata>
  <defs
     id="defs10" />
  <sodipodi:namedview
     pagecolor="#ffffff"
     bordercolor="#666666"
     borderopacity="1"
     objecttolerance="10"
     gridtolerance="10"
     guidetolerance="10"
     inkscape:pageopacity="0"
     inkscape:pageshadow="2"
     inkscape:window-width="1129"
     inkscape:window-height="480"
     id="namedview8"
     showgrid="false"
     inkscape:zoom="16.857143"
     inkscape:cx="3.2033898"
     inkscape:cy="6.9703389"
     inkscape:window-x="698"
     inkscape:window-y="220"
     inkscape:window-maximized="0"
     inkscape:current-layer="svg2"
     inkscape:pagecheckerboard="0"
     inkscape:showpageshadow="2"
     inkscape:deskcolor="#d1d1d1" />
  <rect
     style="fill:#e6e6e6;fill-opacity:1;stroke:none;stroke-width:2.16728;stroke-opacity:1"
     id="rect10749-5"
     width="10.776778"
     height="10.788156"
     x="2.0157936"
     y="1.9031013"
     transform="matrix(1,0,-0.04725952,0.99888264,0,0)" />
  <rect
     style="fill:#696969;fill-opacity:0.817241;stroke-width:0.554673"
     id="rect28089"
     width="0.65276706"
     height="10.509549"
     x="6.8044"
     y="2.0022309" />
  <rect
     style="fill:#696969;fill-opacity:0.817241;stroke-width:0.554673"
     id="rect28089-7"
     width="0.65276706"
     height="10.509549"
     x="6.7674294"
     y="-12.385562"
     transform="rotate(90)" />
  <path
     style="fill:none;fill-opacity:0.817241;stroke:#ff5dcd;stroke-width:0.554673;stroke-opacity:1"
     d="m 2.3329477,11.402075 c 0,0.130555 2.088854,-0.78332 2.088854,-0.78332 L 5.7273357,8.9215613 7.2286997,5.396619 8.8606167,3.6994247 11.536962,2.9161043"
     id="path32265" />
  <circle
     cx="8.8472261"
     cy="3.7342076"
     r="0.80419046"
     id="circle20-2"
     style="fill:#0073a7;fill-opacity:1;stroke-width:0.268064" />
  <circle
     cx="7.2056851"
     cy="5.3800387"
     r="0.80419046"
     id="circle22-3"
     style="fill:#0073a7;fill-opacity:1;stroke-width:0.268064" />
  <circle
     cx="5.7599721"
     cy="8.9868374"
     r="0.80419046"
     id="circle24-6"
     style="fill:#0073a7;fill-opacity:1;stroke-width:0.268064" />
  <circle
     cx="4.3795381"
     cy="10.588264"
     r="0.80419046"
     id="circle26-0"
     style="fill:#0073a7;fill-opacity:1;stroke-width:0.268064" />
  <circle
     cx="2.3463378"
     cy="11.418657"
     r="0.80419046"
     id="circle28-1"
     style="fill:#0073a7;fill-opacity:1;stroke-width:0.268064" />
  <circle
     cx="11.471686"
     cy="2.9813807"
     r="0.80419046"
     id="circle28-1-2"
     style="fill:#0073a7;fill-opacity:1;stroke-width:0.268064" />
  <path
     d="M 11.853468,6.3434998 V 3.2514997 c 0.2905,-0.1035 0.5,-0.378 0.5,-0.7039997 0,-0.4139999 -0.336,-0.75 -0.75,-0.75 -0.326,0 -0.6005,0.2094995 -0.704,0.4999998 H 5.8074677 c -0.1035,-0.2905004 -0.378,-0.4999998 -0.704,-0.4999998 -0.414,0 -0.75,0.3360001 -0.75,0.75 0,0.3259997 0.2095,0.6004998 0.5,0.7039997 v 3.0920001 c -0.2905,0.1035 -0.5,0.378 -0.5,0.704 0,0.414 0.336,0.75 0.75,0.75 0.326,0 0.6005,-0.2095 0.704,-0.500001 h 5.0920003 c 0.1035,0.290501 0.378,0.500001 0.704,0.500001 0.414,0 0.75,-0.336 0.75,-0.75 0,-0.326 -0.2095,-0.6005 -0.5,-0.704 z m -0.954,0.454 H 5.8074677 c -0.075,-0.212 -0.242,-0.3785 -0.454,-0.454 V 3.2514997 c 0.212,-0.075497 0.3785,-0.2419997 0.454,-0.4540003 h 5.0920003 c 0.0755,0.2120006 0.242,0.3785006 0.454,0.4540003 v 3.0920001 c -0.212,0.0755 -0.379,0.242 -0.454,0.454 z"
     id="path6"
     inkscape:connector-curvature="0"
     style="fill:#ff0000" />
  <path
     style="fill:#ffff00;fill-opacity:1;stroke:#ff6600;stroke-width:0.367221;stroke-linecap:butt;stroke-linejoin:miter;stroke-miterlimit:4;stroke-dasharray:none;stroke-opacity:1"
     d="M 9.67808,7.8870008 V 9.7358231 H 7.827679 V 11.620108 H 9.67808 v 1.848823 h 1.881126 v -1.848823 h 1.850403 V 9.7358231 H 11.559206 V 7.8870008 Z"
     id="rect3031"
     inkscape:connector-curvature="0" />
</svg>
