<?xml version="1.0" encoding="UTF-8" standalone="no"?>
<svg
   version="1.1"
   width="256"
   height="256"
   viewBox="0 0 256 256"
   xml:space="preserve"
   id="svg2"
   sodipodi:docname="convert-3213.svg"
   inkscape:version="1.3.2 (091e20e, 2023-11-25, custom)"
   xmlns:inkscape="http://www.inkscape.org/namespaces/inkscape"
   xmlns:sodipodi="http://sodipodi.sourceforge.net/DTD/sodipodi-0.dtd"
   xmlns="http://www.w3.org/2000/svg"
   xmlns:svg="http://www.w3.org/2000/svg"><sodipodi:namedview
   id="namedview2"
   pagecolor="#ffffff"
   bordercolor="#000000"
   borderopacity="0.25"
   inkscape:showpageshadow="2"
   inkscape:pageopacity="0.0"
   inkscape:pagecheckerboard="0"
   inkscape:deskcolor="#d1d1d1"
   inkscape:zoom="3.1523438"
   inkscape:cx="128"
   inkscape:cy="128"
   inkscape:window-width="1920"
   inkscape:window-height="1009"
   inkscape:window-x="-8"
   inkscape:window-y="-8"
   inkscape:window-maximized="1"
   inkscape:current-layer="svg2" />

<defs
   id="defs1">
</defs>
<g
   style="stroke: none; stroke-width: 0; stroke-dasharray: none; stroke-linecap: butt; stroke-linejoin: miter; stroke-miterlimit: 10; fill: none; fill-rule: nonzero; opacity: 1;"
   transform="translate(1.4065934065934016 1.4065934065934016) scale(2.81 2.81)"
   id="g2">
	<path
   d="M 80.829 28.5 C 74.406 14.581 60.353 5.587 45.028 5.587 c -18.641 0 -34.29 13.013 -38.367 30.428 l -1.097 -1.803 c -0.862 -1.416 -2.707 -1.866 -4.123 -1.003 c -1.415 0.861 -1.865 2.707 -1.003 4.123 l 5.614 9.227 c 0.011 0.018 0.027 0.031 0.038 0.049 c 0.093 0.145 0.2 0.279 0.316 0.406 c 0.027 0.03 0.049 0.064 0.077 0.093 c 0.148 0.149 0.311 0.282 0.488 0.398 c 0.046 0.03 0.097 0.051 0.145 0.079 c 0.135 0.078 0.272 0.15 0.419 0.207 c 0.07 0.027 0.142 0.045 0.214 0.067 c 0.132 0.04 0.264 0.074 0.403 0.096 c 0.036 0.006 0.07 0.021 0.106 0.025 C 8.377 47.993 8.496 48 8.615 48 c 0.2 0 0.398 -0.021 0.592 -0.06 c 0.118 -0.024 0.228 -0.066 0.341 -0.103 c 0.073 -0.024 0.148 -0.039 0.219 -0.068 c 0.128 -0.053 0.246 -0.124 0.364 -0.194 c 0.049 -0.029 0.103 -0.05 0.151 -0.082 c 0.164 -0.11 0.317 -0.235 0.457 -0.375 l 7.672 -7.672 c 1.172 -1.171 1.172 -3.071 0 -4.242 c -1.171 -1.172 -3.071 -1.172 -4.242 0 l -1.513 1.513 c 3.694 -14.43 16.807 -25.13 32.372 -25.13 c 12.993 0 24.908 7.625 30.354 19.427 c 0.693 1.504 2.477 2.16 3.98 1.467 C 80.867 31.787 81.523 30.004 80.829 28.5 z"
   style="stroke: none; stroke-width: 1; stroke-dasharray: none; stroke-linecap: butt; stroke-linejoin: miter; stroke-miterlimit: 10; fill: rgb(97,170,67); fill-rule: nonzero; opacity: 1;"
   transform=" matrix(1 0 0 1 0 0) "
   stroke-linecap="round"
   id="path1" />
	<path
   d="M 89.562 52.668 l -5.614 -9.227 c -0.01 -0.017 -0.025 -0.03 -0.036 -0.047 c -0.095 -0.149 -0.205 -0.287 -0.324 -0.417 c -0.024 -0.027 -0.044 -0.058 -0.069 -0.084 c -0.148 -0.15 -0.312 -0.283 -0.489 -0.399 c -0.045 -0.03 -0.095 -0.05 -0.142 -0.077 c -0.135 -0.079 -0.274 -0.151 -0.421 -0.208 c -0.07 -0.027 -0.142 -0.044 -0.214 -0.066 c -0.132 -0.04 -0.264 -0.074 -0.403 -0.096 c -0.036 -0.006 -0.07 -0.021 -0.107 -0.025 c -0.052 -0.006 -0.103 0.003 -0.155 -0.001 C 81.52 42.016 81.455 42 81.386 42 c -0.061 0 -0.117 0.014 -0.177 0.018 c -0.093 0.005 -0.184 0.014 -0.276 0.028 c -0.128 0.019 -0.25 0.049 -0.372 0.084 c -0.08 0.023 -0.159 0.044 -0.236 0.073 c -0.135 0.051 -0.262 0.116 -0.387 0.185 c -0.059 0.033 -0.12 0.059 -0.177 0.096 c -0.18 0.116 -0.349 0.247 -0.5 0.398 l -7.672 7.672 c -1.172 1.171 -1.172 3.071 0 4.242 c 1.172 1.172 3.07 1.172 4.242 0 l 1.513 -1.513 c -3.694 14.43 -16.807 25.13 -32.372 25.13 c -13.459 0 -25.544 -8.011 -30.788 -20.408 c -0.646 -1.526 -2.405 -2.243 -3.932 -1.594 c -1.526 0.646 -2.24 2.405 -1.594 3.932 c 6.185 14.622 20.439 24.07 36.314 24.07 c 18.641 0 34.29 -13.013 38.367 -30.429 l 1.097 1.803 c 0.564 0.928 1.553 1.44 2.565 1.44 c 0.531 0 1.069 -0.141 1.557 -0.437 C 89.974 55.929 90.424 54.084 89.562 52.668 z"
   style="stroke: none; stroke-width: 1; stroke-dasharray: none; stroke-linecap: butt; stroke-linejoin: miter; stroke-miterlimit: 10; fill: rgb(23,137,194); fill-rule: nonzero; opacity: 1;"
   transform=" matrix(1 0 0 1 0 0) "
   stroke-linecap="round"
   id="path2" />
</g>
<g
   id="g6"
   transform="matrix(1.3689569,0,0,1.3689569,-47.22648,-8.0550482)"
   style="fill:#999999"><g
     id="g4"
     transform="translate(-11.737403)"
     style="fill:#999999"><path
       d="m 88.998635,86.039717 c -1.55112,0 -2.81,1.25888 -2.81,2.81 v 20.195473 c 0,1.55112 1.25888,2.81 2.81,2.81 1.55112,0 2.81,-1.25888 2.81,-2.81 V 88.849717 c 0,-1.55112 -1.25607,-2.81 -2.81,-2.81 z"
       style="fill:#999999;fill-rule:nonzero;stroke:none;stroke-width:2.81;stroke-linecap:butt;stroke-linejoin:miter;stroke-miterlimit:10;stroke-dasharray:none"
       stroke-linecap="round"
       id="path7" /><path
       d="m 113.16464,111.85519 h 0.26133 c 5.71273,0 10.36328,-4.64774 10.36328,-10.36047 v -5.094533 c 0,-5.71273 -4.64774,-10.36328 -10.6218,-10.36328 -5.71273,0 -10.36328,4.64774 -10.36328,10.36328 v 5.094533 c -0.003,5.71273 4.64774,10.36047 10.36047,10.36047 z m -4.74328,-15.452193 c 0,-2.61611 2.12717,-4.74328 5.0018,-4.74328 2.61611,0 4.74328,2.12717 4.74328,4.74328 v 5.094533 c 0,2.6133 -2.12717,4.74047 -4.74328,4.74047 h -0.26133 c -2.61611,0 -4.74328,-2.12717 -4.74328,-4.74047 v -5.094533 z"
       style="fill:#999999;fill-rule:nonzero;stroke:none;stroke-width:2.81;stroke-linecap:butt;stroke-linejoin:miter;stroke-miterlimit:10;stroke-dasharray:none"
       stroke-linecap="round"
       id="path8" /><path
       d="m 137.26039,111.85519 c 1.55393,0 2.81,-1.25888 2.81,-2.81 V 88.849717 c 0,-1.55112 -1.25607,-2.81 -2.81,-2.81 -1.55393,0 -2.81,1.25888 -2.81,2.81 v 20.195473 c 0,1.55112 1.25607,2.81 2.81,2.81 z"
       style="fill:#999999;fill-rule:nonzero;stroke:none;stroke-width:2.81;stroke-linecap:butt;stroke-linejoin:miter;stroke-miterlimit:10;stroke-dasharray:none"
       stroke-linecap="round"
       id="path9" /><path
       d="m 156.56509,111.85519 c 1.55393,0 2.81,-1.25888 2.81,-2.81 V 88.849717 c 0,-1.55112 -1.25607,-2.81 -2.81,-2.81 -1.55393,0 -2.81,1.25888 -2.81,2.81 v 20.195473 c 0,1.55112 1.25888,2.81 2.81,2.81 z"
       style="fill:#999999;fill-rule:nonzero;stroke:none;stroke-width:2.81;stroke-linecap:butt;stroke-linejoin:miter;stroke-miterlimit:10;stroke-dasharray:none"
       stroke-linecap="round"
       id="path10" /><path
       d="m 182.66156,111.85519 h 0.26133 c 5.71273,0 10.36328,-4.64774 10.36328,-10.36047 v -5.094533 c 0,-5.71273 -4.64774,-10.36328 -10.6218,-10.36328 -5.71273,0 -10.36328,4.64774 -10.36328,10.36328 v 5.094533 c 0,5.71273 4.64774,10.36047 10.36047,10.36047 z m -4.74047,-15.452193 c 0,-2.61611 2.12717,-4.74328 5.0018,-4.74328 2.61611,0 4.74328,2.12717 4.74328,4.74328 v 5.094533 c 0,2.6133 -2.12717,4.74047 -4.74328,4.74047 h -0.26133 c -2.61611,0 -4.74328,-2.12717 -4.74328,-4.74047 v -5.094533 z"
       style="fill:#999999;fill-rule:nonzero;stroke:none;stroke-width:2.81;stroke-linecap:butt;stroke-linejoin:miter;stroke-miterlimit:10;stroke-dasharray:none"
       stroke-linecap="round"
       id="path11" /></g><g
     id="g3"
     transform="translate(-6.6760015)"
     style="fill:#999999"><path
       d="m 171.27063,73.383544 v -20.19547 c 0,-1.55112 -1.25607,-2.81 -2.81,-2.81 -1.55393,0 -2.81,1.25888 -2.81,2.81 v 20.19547 c 0,1.55112 1.25607,2.81 2.81,2.81 1.55393,0 2.81,-1.25888 2.81,-2.81 z"
       style="fill:#999999;fill-rule:nonzero;stroke:none;stroke-width:2.81;stroke-linecap:butt;stroke-linejoin:miter;stroke-miterlimit:10;stroke-dasharray:none"
       stroke-linecap="round"
       id="path12" /><path
       d="m 133.67002,60.741354 v 5.09453 c 0,5.71273 4.64774,10.36047 10.36328,10.36047 h 0.26414 c 5.71273,0 10.36328,-4.64774 10.36328,-10.36047 v -5.09453 c 0,-5.71273 -4.64774,-10.36328 -10.62461,-10.36328 -5.71554,0 -10.36609,4.64774 -10.36609,10.36328 z m 5.62,0 c 0,-2.61611 2.12717,-4.74328 5.00461,-4.74328 2.61611,0 4.74328,2.12717 4.74328,4.74328 v 5.09453 c 0,2.6133 -2.12717,4.74047 -4.74328,4.74047 h -0.26414 c -2.61611,0 -4.74328,-2.12717 -4.74328,-4.74047 v -5.09453 z"
       style="fill:#999999;fill-rule:nonzero;stroke:none;stroke-width:2.81;stroke-linecap:butt;stroke-linejoin:miter;stroke-miterlimit:10;stroke-dasharray:none"
       stroke-linecap="round"
       id="path13" /><path
       d="m 117.38607,53.188074 v 20.19547 c 0,1.55112 1.25607,2.81 2.81,2.81 1.55393,0 2.81,-1.25888 2.81,-2.81 v -20.19547 c 0,-1.55112 -1.25607,-2.81 -2.81,-2.81 -1.55393,0 -2.81,1.25888 -2.81,2.81 z"
       style="fill:#999999;fill-rule:nonzero;stroke:none;stroke-width:2.81;stroke-linecap:butt;stroke-linejoin:miter;stroke-miterlimit:10;stroke-dasharray:none"
       stroke-linecap="round"
       id="path14" /><path
       d="m 98.081373,53.188074 v 20.19547 c 0,1.55112 1.25607,2.81 2.809997,2.81 1.55393,0 2.81,-1.25888 2.81,-2.81 v -20.19547 c 0,-1.55112 -1.25607,-2.81 -2.81,-2.81 -1.553927,0 -2.809997,1.25888 -2.809997,2.81 z"
       style="fill:#999999;fill-rule:nonzero;stroke:none;stroke-width:2.81;stroke-linecap:butt;stroke-linejoin:miter;stroke-miterlimit:10;stroke-dasharray:none"
       stroke-linecap="round"
       id="path15" /></g><g
     id="g5"
     transform="translate(-9.513177)"
     style="fill:#999999"><path
       d="m 148.63094,145.57816 v -20.19547 c 0,-1.55393 -1.25607,-2.81 -2.81,-2.81 -1.55393,0 -2.81,1.25607 -2.81,2.81 v 20.19547 c 0,1.55393 1.25607,2.81 2.81,2.81 1.55393,0 2.81,-1.25607 2.81,-2.81 z"
       style="fill:#999999;fill-rule:nonzero;stroke:none;stroke-width:2.81;stroke-linecap:butt;stroke-linejoin:miter;stroke-miterlimit:10;stroke-dasharray:none"
       stroke-linecap="round"
       id="path16" /><path
       d="m 132.01822,138.02769 v -5.09453 c 0,-5.71273 -4.64774,-10.36047 -10.62461,-10.36047 -5.71273,0 -10.36328,4.64493 -10.36328,10.36047 v 5.09453 c 0,5.71273 4.64774,10.36328 10.36328,10.36328 h 0.26414 c 5.71273,-0.003 10.36047,-4.65055 10.36047,-10.36328 z m -15.36789,0 v -5.09453 c 0,-2.6133 2.12717,-4.74047 5.00461,-4.74047 2.61611,0 4.74328,2.12717 4.74328,4.74047 v 5.09453 c 0,2.61611 -2.12717,4.74328 -4.74328,4.74328 h -0.26414 c -2.6133,-0.003 -4.74047,-2.12998 -4.74047,-4.74328 z"
       style="fill:#999999;fill-rule:nonzero;stroke:none;stroke-width:2.81;stroke-linecap:butt;stroke-linejoin:miter;stroke-miterlimit:10;stroke-dasharray:none"
       stroke-linecap="round"
       id="path17" /><path
       d="m 100.36638,145.57816 v -20.19547 c 0,-1.55393 -1.256066,-2.81 -2.809996,-2.81 -1.55393,0 -2.81,1.25607 -2.81,2.81 v 20.19547 c 0,1.55393 1.25607,2.81 2.81,2.81 1.55393,0 2.809996,-1.25607 2.809996,-2.81 z"
       style="fill:#999999;fill-rule:nonzero;stroke:none;stroke-width:2.81;stroke-linecap:butt;stroke-linejoin:miter;stroke-miterlimit:10;stroke-dasharray:none"
       stroke-linecap="round"
       id="path18" /><path
       d="m 169.65536,122.5755 c -5.71273,0 -10.36328,4.64493 -10.36328,10.36047 v 5.09453 c 0,5.71273 4.64774,10.36328 10.36328,10.36328 h 0.26133 c 5.71273,0 10.36328,-4.64774 10.36328,-10.36328 v -5.09734 c 0,-5.71273 -4.65055,-10.35766 -10.62461,-10.35766 z m 5.00461,15.45219 c 0,2.61611 -2.12717,4.74328 -4.74328,4.74328 h -0.26133 c -2.61611,0 -4.74328,-2.12717 -4.74328,-4.74328 v -5.09453 c 0,-2.6133 2.12717,-4.74047 5.0018,-4.74047 2.61611,0 4.74328,2.12717 4.74328,4.74047 v 5.09453 z"
       style="fill:#999999;fill-rule:nonzero;stroke:none;stroke-width:2.81;stroke-linecap:butt;stroke-linejoin:miter;stroke-miterlimit:10;stroke-dasharray:none"
       stroke-linecap="round"
       id="path19" /></g></g></svg>
