<?xml version="1.0" encoding="UTF-8" standalone="no"?>
  <svg
 role="img"
 focusable="false"
 aria-hidden="true"
 viewBox="0 0 14 14"
 version="1.1"
 id="svg8"
 xmlns="http://www.w3.org/2000/svg">
  <path
 d="m 12.264847,2.7791132 v 8.4417748 c 0,0.58037 -0.557456,1.05522 -1.238789,1.05522 H 2.9739403 c -0.6813332,0 -1.2387875,-0.47485 -1.2387875,-1.05522 V 2.7791132 c 0,-0.5803721 0.5574543,-1.0552214 1.2387875,-1.0552214 h 8.0521177 c 0.681333,0 1.238789,0.4748493 1.238789,1.0552214 z"
 id="path2-7" fill="#f99090" fill-opacity="1" stroke-width="0.990238" />
  <path
 d="m 7.0000068,10.993624 q -1.6569999,0 -2.8285506,-1.1650776 -1.1650781,-1.1715507 -1.1650781,-2.8285507 0,-1.6569999 1.1650781,-2.822078 1.1715507,-1.1715508 2.8285506,-1.1715508 1.657,0 2.8220781,1.1715508 1.1715511,1.1650781 1.1715511,2.822078 0,1.657 -1.1715511,2.8285507 -1.1650781,1.1650776 -2.8220781,1.1650776 z m 0,-0.640792 q 1.3916211,0 2.3689922,-0.9838442 0.983844,-0.9838437 0.983844,-2.3689921 0,-1.391621 -0.983844,-2.3689921 -0.9773711,-0.9838437 -2.3689922,-0.9838437 -1.391621,0 -2.3754647,0.9838437 -0.9773711,0.9773711 -0.9773711,2.3689921 0,1.3851484 0.9838437,2.3689921 0.9838438,0.9838442 2.3689921,0.9838442 z M 6.6828467,8.9159019 6.8381904,7.2718473 5.4983506,8.2298004 5.1811905,7.6796246 6.6828467,6.9999957 5.1811905,6.3138942 5.4983506,5.7637184 6.8381904,6.7216715 6.6828467,5.0840895 H 7.3236396 L 7.1618232,6.7216715 8.501663,5.7637184 8.8188232,6.3138942 7.3236396,6.9999957 8.8188232,7.6796246 8.501663,8.2298004 7.1618232,7.2718473 7.3236396,8.9159019 Z"
 id="text1"
 aria-label="⊛" stroke-width="0.869922" />
</svg>
