<?xml version="1.0" encoding="UTF-8" standalone="no"?>
  <svg
 role="img"
 focusable="false"
 aria-hidden="true"
 viewBox="0 0 14 14"
 version="1.1"
 id="svg8"
 xmlns="http://www.w3.org/2000/svg">
  <path
 d="m 12.701413,2.4291132 v 9.1417748 c 0,0.628495 -0.603681,1.14272 -1.34151,1.14272 H 2.6400955 c -0.73783,0 -1.3415089,-0.514225 -1.3415089,-1.14272 V 2.4291132 c 0,-0.6284971 0.6036789,-1.1427214 1.3415089,-1.1427214 h 8.7198075 c 0.737829,0 1.34151,0.5142243 1.34151,1.1427214 z"
 id="path2-7" fill="#f99090" fill-opacity="1" stroke-width="1.07235" />
  <path
 d="m 5.9230837,11.902277 q -1.6569999,0 -2.8285506,-1.165077 Q 1.929455,9.5656495 1.929455,7.9086495 q 0,-1.6569999 1.1650781,-2.822078 1.1715507,-1.1715508 2.8285506,-1.1715508 1.657,0 2.8220781,1.1715508 1.1715507,1.1650781 1.1715507,2.822078 0,1.657 -1.1715507,2.8285505 -1.1650781,1.165077 -2.8220781,1.165077 z m 0,-0.640792 q 1.3916211,0 2.3689922,-0.983844 0.983844,-0.9838431 0.983844,-2.3689915 0,-1.391621 -0.983844,-2.3689921 -0.9773711,-0.9838437 -2.3689922,-0.9838437 -1.391621,0 -2.3754647,0.9838437 -0.9773711,0.9773711 -0.9773711,2.3689921 0,1.3851484 0.9838437,2.3689915 0.9838438,0.983844 2.3689921,0.983844 z M 5.6059236,9.8245554 5.7612673,8.1805011 4.4214275,9.1384542 4.1042674,8.5882784 5.6059236,7.9086495 4.1042674,7.222548 4.4214275,6.6723722 5.7612673,7.6303253 5.6059236,5.9927433 H 6.2467165 L 6.0849001,7.6303253 7.4247399,6.6723722 7.7419001,7.222548 6.2467165,7.9086495 7.7419001,8.5882784 7.4247399,9.1384542 6.0849001,8.1805011 6.2467165,9.8245554 Z"
 id="text1"
 aria-label="⊛" stroke-width="0.869922" />
  <text
 xml:space="preserve"
 x="7.7064052"
 y="5.366591"
 id="text1-9-1"
 style="font-size:10.3391px;stroke-width:0.861601">
  <tspan
 id="tspan1-7-8"
 x="7.7064052"
 y="5.366591"
 style="font-style:normal;font-variant:normal;font-weight:normal;font-stretch:normal;font-size:4.59521px;font-family:Verdana;-inkscape-font-specification:Verdana;fill:#000000;fill-opacity:1;stroke:none;stroke-width:0.353595">-1</tspan>
  </text>
</svg>
