<?xml version="1.0" encoding="UTF-8" standalone="no"?>
  <svg
 role="img"
 focusable="false"
 aria-hidden="true"
 viewBox="0 0 14 14"
 version="1.1"
 id="svg12"
 xmlns="http://www.w3.org/2000/svg">
  <g
 id="g22811"
 transform="matrix(1.1308202,0,0.00129615,1.1321163,-0.57975693,1.3649386)">
  <rect
 id="rect10749"
 width="2"
 height="2"
 x="2.5999999"
 y="2.5999999" fill="#0060ff" fill-opacity="1" stroke="none" stroke-width="0.402" stroke-opacity="1" />
  <rect
 id="rect10749-7"
 width="2"
 height="2"
 x="2.5999999"
 y="4.5999999" fill="#ff7200" fill-opacity="1" stroke="none" stroke-width="0.402" stroke-opacity="1" />
  <rect
 id="rect10749-1"
 width="2"
 height="2"
 x="4.5999999"
 y="2.5999999" fill="#ff4300" fill-opacity="1" stroke="none" stroke-width="0.402" stroke-opacity="1" />
  <rect
 id="rect10749-7-5"
 width="2"
 height="2"
 x="4.5999999"
 y="4.5999999" fill="#ffbb00" fill-opacity="1" stroke="none" stroke-width="0.402" stroke-opacity="1" />
  <rect
 id="rect10749-8"
 width="2"
 height="2"
 x="6.5999999"
 y="2.5999999" fill="#00acff" fill-opacity="1" stroke="none" stroke-width="0.402" stroke-opacity="1" />
  <rect
 id="rect10749-7-0"
 width="2"
 height="2"
 x="6.5999999"
 y="4.5999999" fill="#ff3200" fill-opacity="1" stroke="none" stroke-width="0.402" stroke-opacity="1" />
  <rect
 id="rect10749-1-4"
 width="2"
 height="2"
 x="8.6000004"
 y="2.5999999" fill="#0000fb" fill-opacity="1" stroke="none" stroke-width="0.402" stroke-opacity="1" />
  <rect
 id="rect10749-7-5-5"
 width="2"
 height="2"
 x="8.6000004"
 y="4.5999999" fill="#28ffcf" fill-opacity="1" stroke="none" stroke-width="0.402" stroke-opacity="1" />
  <rect
 id="rect10749-84"
 width="2"
 height="2"
 x="2.5999999"
 y="6.5999999" fill="#1fffd8" fill-opacity="1" stroke="none" stroke-width="0.402" stroke-opacity="1" />
  <rect
 id="rect10749-7-8"
 width="2"
 height="2"
 x="2.5999999"
 y="8.6000004" fill="#b80000" fill-opacity="1" stroke="none" stroke-width="0.402" stroke-opacity="1" />
  <rect
 id="rect10749-1-1"
 width="2"
 height="2"
 x="4.5999999"
 y="6.5999999" fill="#0000cf" fill-opacity="1" stroke="none" stroke-width="0.402" stroke-opacity="1" />
  <rect
 id="rect10749-7-5-4"
 width="2"
 height="2"
 x="4.5999999"
 y="8.6000004" fill="#40ffb7" fill-opacity="1" stroke="none" stroke-width="0.402" stroke-opacity="1" />
  <rect
 id="rect10749-8-8"
 width="2"
 height="2"
 x="6.5999999"
 y="6.5999999" fill="#c4ff33" fill-opacity="1" stroke="none" stroke-width="0.402" stroke-opacity="1" />
  <rect
 id="rect10749-7-0-4"
 width="2"
 height="2"
 x="6.5999999"
 y="8.6000004" fill="#910000" fill-opacity="1" stroke="none" stroke-width="0.402" stroke-opacity="1" />
  <rect
 id="rect10749-1-4-3"
 width="2"
 height="2"
 x="8.6000004"
 y="6.5999999" fill="#0000ff" fill-opacity="1" stroke="none" stroke-width="0.402" stroke-opacity="1" />
  <rect
 id="rect10749-7-5-5-3"
 width="2"
 height="2"
 x="8.6000004"
 y="8.6000004" fill="#44ffb3" fill-opacity="1" stroke="none" stroke-width="0.402" stroke-opacity="1" />
  </g>
  <rect
 id="rect28089"
 width="0.56253999"
 height="3.7387886"
 x="6.6109233"
 y="0.56400001" fill="#696969" fill-opacity="0.817241" stroke-width="0.307119" />
  <rect
 id="rect28089-7"
 width="0.56253999"
 height="9.0568933"
 x="2.1521246"
 y="-11.42064"
 transform="rotate(90)" fill="#696969" fill-opacity="0.817241" stroke-width="0.478005" />
  <g
 id="g3"
 transform="matrix(1.3236133,0,0,1.3625592,11.310895,0.81571472)">
  <path
 d="m -1.1113898,2.2539094 c 0,0.031899 -0.510368,-0.191388 -0.510368,-0.191388 l -0.31898,-0.4146743 -0.366828,-0.86124644 -0.398725,-0.41467424 -0.653909,-0.19138808"
 id="path32265-0" fill="none" fill-opacity="0.817241" stroke="#ff0000" stroke-width="0.135523" stroke-opacity="1" />
  <circle
 cx="2.7030225"
 cy="0.38042498"
 r="0.19648726"
 id="circle20-2-3"
 transform="scale(-1,1)" fill="#ff5555" stroke-width="0.0654959" />
  <circle
 cx="2.3019452"
 cy="0.7825495"
 r="0.19648726"
 id="circle22-3-1"
 transform="scale(-1,1)" fill="#ff5555" stroke-width="0.0654959" />
  <circle
 cx="1.9487157"
 cy="1.6637959"
 r="0.19648726"
 id="circle24-6-6"
 transform="scale(-1,1)" fill="#ff5555" stroke-width="0.0654959" />
  <circle
 cx="1.6114354"
 cy="2.0550709"
 r="0.19648726"
 id="circle26-0-6"
 transform="scale(-1,1)" fill="#ff5555" stroke-width="0.0654959" />
  <circle
 cx="1.1146618"
 cy="2.2579606"
 r="0.19648726"
 id="circle28-1-3"
 transform="scale(-1,1)" fill="#ff5555" stroke-width="0.0654959" />
  <g
 id="g2"
 transform="matrix(0.33712125,0,0,0.33712125,-6.7721553,-1.1193059)">
  <path
 d="m 3.5245514,10.005941 c 0,0.09462 1.5139012,-0.5677129 1.5139012,-0.5677129 L 5.9846409,8.2081834 7.0727574,5.653475 8.2554928,4.4234302 10.195179,3.8557173"
 id="path32265" fill="none" fill-opacity="0.817241" stroke="#ff0000" stroke-width="0.402" stroke-opacity="1" />
  <circle
 cx="8.2457867"
 cy="4.4486394"
 r="0.58283854"
 id="circle20-2" fill="#ff5555" stroke-width="0.19428" />
  <circle
 cx="7.0560775"
 cy="5.641458"
 r="0.58283854"
 id="circle22-3" fill="#ff5555" stroke-width="0.19428" />
  <circle
 cx="6.0082951"
 cy="8.2554922"
 r="0.58283854"
 id="circle24-6" fill="#ff5555" stroke-width="0.19428" />
  <circle
 cx="5.0078225"
 cy="9.4161282"
 r="0.58283854"
 id="circle26-0" fill="#ff5555" stroke-width="0.19428" />
  <circle
 cx="3.534256"
 cy="10.017958"
 r="0.58283854"
 id="circle28-1" fill="#ff5555" stroke-width="0.19428" />
  <circle
 cx="10.147869"
 cy="3.9030263"
 r="0.58283854"
 id="circle28-1-2" fill="#ff5555" stroke-width="0.19428" />
  </g>
  </g>
  <ellipse
 id="path1"
 cx="6.8362103"
 cy="9.0124435"
 rx="3.6901343"
 ry="3.5718608" fill="none" stroke="#ffff00" stroke-width="0.6" stroke-dasharray="none" stroke-opacity="1" />
</svg>
