<?xml version="1.0" encoding="UTF-8" standalone="no"?>
  <svg
 role="img"
 focusable="false"
 aria-hidden="true"
 viewBox="0 0 14 14"
 version="1.1"
 id="svg8"
 xmlns="http://www.w3.org/2000/svg">
  <defs
 id="defs12">
  <clipPath
 clipPathUnits="userSpaceOnUse"
 id="clipPath26">
  <g
 id="g27">
  <rect
 x="21.696568"
 y="20.771685"
 width="310.60657"
 height="141.1848"
 id="rect26" stroke-width="1.76481" />
  </g>
  </clipPath>
  <clipPath
 clipPathUnits="userSpaceOnUse"
 id="clipPath24">
  <g
 id="g25">
  <rect
 x="21.696568"
 y="20.771685"
 width="310.60657"
 height="141.1848"
 id="rect24" stroke-width="1.76481" />
  </g>
  </clipPath>
  <clipPath
 clipPathUnits="userSpaceOnUse"
 id="clipPath23">
  <g
 id="g24">
  <rect
 x="21.696568"
 y="20.771685"
 width="310.60657"
 height="141.1848"
 id="rect23" stroke-width="1.76481" />
  </g>
  </clipPath>
  <clipPath
 clipPathUnits="userSpaceOnUse"
 id="clipPath22">
  <g
 id="g23">
  <rect
 x="21.696568"
 y="20.771685"
 width="310.60657"
 height="141.1848"
 id="rect22" stroke-width="1.76481" />
  </g>
  </clipPath>
  </defs>
  <path
 d="m 13.268384,2.0387287 v 9.9225423 c 0,0.682175 -0.663714,1.240318 -1.474915,1.240318 H 2.2065299 c -0.8112025,0 -1.4749136,-0.558143 -1.4749136,-1.240318 V 2.0387287 c 0,-0.6821756 0.6637111,-1.24031765 1.4749136,-1.24031765 h 9.5869391 c 0.811201,0 1.474915,0.55814205 1.474915,1.24031765 z"
 id="path2-7" fill="#f99090" fill-opacity="1" stroke-width="1.17145" />
  <path
 d="M 1.3426751,7.721535 2.656755,6.9169633 4.3997245,10.09494 5.9443731,2.5442214 H 12.657325 V 2.8683073 H 6.2088011 L 4.4513203,11.455779 2.2842979,7.502253 1.455541,7.9198565 1.3426751,7.721535"
 id="path3-0" fill="#000000" fill-opacity="1" stroke="none" stroke-width="0.412767" />
  <rect
 id="rect1"
 width="4.7845635"
 height="3.5884228"
 x="6.6837721"
 y="5.5229993" fill="#f2f2f2" stroke-width="0.413439" />
</svg>
