<?xml version="1.0" encoding="UTF-8" standalone="no"?>
<svg
   role="img"
   focusable="false"
   aria-hidden="true"
   viewBox="0 0 14 14"
   version="1.1"
   id="svg8"
   sodipodi:docname="sum.svg"
   inkscape:version="1.3.2 (091e20e, 2023-11-25, custom)"
   xmlns:inkscape="http://www.inkscape.org/namespaces/inkscape"
   xmlns:sodipodi="http://sodipodi.sourceforge.net/DTD/sodipodi-0.dtd"
   xmlns="http://www.w3.org/2000/svg"
   xmlns:svg="http://www.w3.org/2000/svg">
  <defs
     id="defs12">
    <clipPath
       clipPathUnits="userSpaceOnUse"
       id="clipPath26">
      <g
         id="g27">
        <rect
           x="21.696568"
           y="20.771685"
           width="310.60657"
           height="141.1848"
           id="rect26"
           style="stroke-width:1.76481" />
      </g>
    </clipPath>
    <clipPath
       clipPathUnits="userSpaceOnUse"
       id="clipPath24">
      <g
         id="g25">
        <rect
           x="21.696568"
           y="20.771685"
           width="310.60657"
           height="141.1848"
           id="rect24"
           style="stroke-width:1.76481" />
      </g>
    </clipPath>
    <clipPath
       clipPathUnits="userSpaceOnUse"
       id="clipPath23">
      <g
         id="g24">
        <rect
           x="21.696568"
           y="20.771685"
           width="310.60657"
           height="141.1848"
           id="rect23"
           style="stroke-width:1.76481" />
      </g>
    </clipPath>
    <clipPath
       clipPathUnits="userSpaceOnUse"
       id="clipPath22">
      <g
         id="g23">
        <rect
           x="21.696568"
           y="20.771685"
           width="310.60657"
           height="141.1848"
           id="rect22"
           style="stroke-width:1.76481" />
      </g>
    </clipPath>
  </defs>
  <sodipodi:namedview
     id="namedview10"
     pagecolor="#ffffff"
     bordercolor="#666666"
     borderopacity="1.0"
     inkscape:pageshadow="2"
     inkscape:pageopacity="0.0"
     inkscape:pagecheckerboard="0"
     showgrid="false"
     inkscape:zoom="29.714286"
     inkscape:cx="4.3245192"
     inkscape:cy="3.6514423"
     inkscape:window-width="1920"
     inkscape:window-height="1009"
     inkscape:window-x="-8"
     inkscape:window-y="-8"
     inkscape:window-maximized="1"
     inkscape:current-layer="svg8"
     inkscape:showpageshadow="2"
     inkscape:deskcolor="#d1d1d1" />
  <path
     d="m 12.554478,2.0387287 v 9.9225423 c 0,0.682175 -0.588123,1.240318 -1.306937,1.240318 H 2.752458 c -0.7188147,0 -1.3069358,-0.558143 -1.3069358,-1.240318 V 2.0387287 c 0,-0.6821756 0.5881211,-1.24031765 1.3069358,-1.24031765 h 8.495083 c 0.718814,0 1.306937,0.55814205 1.306937,1.24031765 z"
     id="path2-7"
     style="fill:#f99090;fill-opacity:1;stroke-width:1.10273" />
  <path
     id="path603"
     d="m 3.7729635,2.904017 0.00679,0.2561997 3.1426291,3.9173618 -3.1774872,3.7803395 -0.00918,0.238069 6.1614521,-0.03193 c 0.06017,-0.762504 0.2254775,-1.5510074 0.3671175,-2.3028334 l -0.20024,-0.050062 C 9.8774309,9.1321456 9.7447677,9.5823506 9.3464947,9.8618766 8.9098572,10.168322 8.3336475,10.129574 7.8279601,10.129574 H 4.9911325 L 7.8828321,6.6366281 5.2755373,3.3773027 6.7933508,3.3712549 c 0.9730134,0 2.357183,-0.2350003 2.7421894,0.9344843 0.065816,0.1999112 0.1114362,0.4075164 0.1280074,0.6174247 h 0.216933 L 9.7136086,2.9040131 H 3.7729673 v 0 0 0 0 z"
     style="stroke-width:0.136533" />
</svg>
