<?xml version="1.0" encoding="UTF-8" standalone="no"?>
<!-- Created with Inkscape (http://www.inkscape.org/) -->

<svg
   version="1.1"
   id="svg3157"
   xml:space="preserve"
   width="1200"
   height="456"
   viewBox="0 0 1199.9999 455.99998"
   sodipodi:docname="banner.svg"
   inkscape:version="1.2.2 (732a01da63, 2022-12-09)"
   inkscape:export-filename="banner.png"
   inkscape:export-xdpi="34.909092"
   inkscape:export-ydpi="34.909092"
   xmlns:inkscape="http://www.inkscape.org/namespaces/inkscape"
   xmlns:sodipodi="http://sodipodi.sourceforge.net/DTD/sodipodi-0.dtd"
   xmlns:xlink="http://www.w3.org/1999/xlink"
   xmlns="http://www.w3.org/2000/svg"
   xmlns:svg="http://www.w3.org/2000/svg"
   xmlns:rdf="http://www.w3.org/1999/02/22-rdf-syntax-ns#"
   xmlns:cc="http://creativecommons.org/ns#"
   xmlns:dc="http://purl.org/dc/elements/1.1/"><metadata
     id="metadata3163"><rdf:RDF><cc:Work
         rdf:about=""><dc:format>image/svg+xml</dc:format><dc:type
           rdf:resource="http://purl.org/dc/dcmitype/StillImage" /></cc:Work></rdf:RDF></metadata><defs
     id="defs3161"><linearGradient
       inkscape:collect="always"
       id="linearGradient7176"><stop
         style="stop-color:#cccccc;stop-opacity:1;"
         offset="0"
         id="stop7172" /><stop
         style="stop-color:#ffffff;stop-opacity:1;"
         offset="1"
         id="stop7174" /></linearGradient><marker
       markerWidth="700"
       markerHeight="700"
       refX="350"
       refY="350"
       orient="auto"
       id="marker1068"><g
         inkscape:label="Clip"
         id="use859"
         transform="matrix(1.3061145,0,0,-1.0907137,-173.85658,852.94723)"><path
           d="m 375.35627,684.77075 c 2.504,1.333 5.022,2.631 7.587,3.8 2.533,1.248 5.143,2.288 7.725,3.409 2.596,1.086 5.238,2.036 7.852,3.061 l 1.278,0.501 1.321,-0.562 c 2.774,-1.168 5.523,-2.384 8.276,-3.596 2.695,-1.349 5.471,-2.501 8.099,-4.009 l 7.965,-4.338 c 2.557,-1.683 5.206,-3.14 7.684,-5.013 l -0.075,-0.185 h -0.004 l -0.076,-0.186 -0.506,0.206 -32.744,13.383 -31.136,-11.089 -0.472,-0.169 -0.137,0.375 c 2.384,1.669 4.91,2.936 7.363,4.412 m 86.771,47.215 v -0.666 c 0,0 -1.409,-17.827 -1.743,-16.911 -0.331,0.915 -6.65,11.412 -6.65,11.412 z m -5.992,-32.821 c 12.277,2.727 18.745,21.492 34.738,15.494 0,0 -18.493,28.49 -27.991,23.492 -6.091,-3.207 -19.579,-12.783 -28.473,-19.243 l -21.835,-12.496 15.235,4.231 c 4.437,-4.393 15.996,-14.219 28.326,-11.478 m -119.158,28.821 8.583,-6.164 c 0,0 -6.411,-10.496 -6.74,-11.412 -0.333,-0.916 -1.843,16.91 -1.843,16.91 z m 2.871,-28.821 c 11.618,-2.583 22.546,5.988 27.482,10.662 l 14.863,-5.198 -12.68,8.459 c -3.951,2.931 -27.716,20.486 -36.413,25.063 -9.495,4.998 -27.988,-23.492 -27.988,-23.492 15.994,5.998 22.462,-12.767 34.736,-15.494 m 286.235,12.994 c -42.654,38.986 -105.963,-7.995 -105.963,-7.995 0,0 -17.743,20.826 -15.079,41.484 2.662,20.658 103.961,31.489 137.723,-26.378 53.335,-91.414 -85.548,-257.019 -85.548,-257.019 93.965,140.949 90.877,229.79 68.867,249.908 m -103.954,-262.832 c -4.262,-8.849 -8.031,-17.324 -11.354,-25.216 -1.553,-3.989 -3.045,-7.811 -4.458,-11.446 -1.29,-3.684 -2.507,-7.179 -3.656,-10.463 -2.018,-6.651 -3.743,-12.491 -4.705,-17.399 -1.182,-4.876 -1.745,-8.775 -2.167,-11.434 -0.43,-2.663 -0.659,-4.086 -0.659,-4.086 0,0 0.078,1.436 0.226,4.129 0.175,2.688 0.211,6.68 1.069,11.663 0.583,5.033 1.852,11.037 3.37,17.932 0.899,3.409 1.856,7.042 2.864,10.868 1.214,3.766 2.49,7.726 3.823,11.857 2.885,8.183 6.219,16.981 10.213,26.071 3.93,9.122 8.302,18.632 13.128,28.302 4.8,9.687 9.806,19.653 15.116,29.65 5.256,10.001 10.595,20.168 15.936,30.329 10.688,20.27 20.919,40.732 28.881,60.495 3.943,9.897 7.171,19.637 9.687,29.018 0.956,4.729 2.232,9.313 2.722,13.823 0.292,2.247 0.721,4.46 0.894,6.637 0.12,2.186 0.238,4.328 0.355,6.427 0.215,2.111 -0.015,4.153 -0.086,6.163 -0.149,1.998 -0.077,3.993 -0.375,5.878 -0.684,3.748 -0.89,7.45 -2.067,10.677 -0.478,1.647 -0.943,3.245 -1.392,4.784 -0.477,1.533 -1.238,2.89 -1.808,4.265 -0.609,1.364 -1.195,2.672 -1.757,3.923 -0.567,1.246 -1.371,2.273 -1.996,3.342 -1.355,2.065 -2.413,4.032 -3.581,5.598 -1.237,1.512 -2.288,2.801 -3.139,3.846 -1.707,2.087 -2.616,3.202 -2.616,3.202 0,0 1.02,-1.013 2.935,-2.914 0.958,-0.949 2.138,-2.123 3.523,-3.498 1.34,-1.42 2.605,-3.326 4.157,-5.356 0.724,-1.044 1.646,-2.067 2.33,-3.297 0.674,-1.237 1.382,-2.533 2.12,-3.882 0.695,-1.373 1.593,-2.732 2.214,-4.277 0.589,-1.56 1.202,-3.178 1.835,-4.848 1.484,-3.299 2.01,-7.092 3.03,-11.002 0.479,-1.964 0.519,-4.034 0.792,-6.131 0.191,-2.102 0.548,-4.262 0.449,-6.464 0.378,-8.851 -0.854,-18.356 -2.744,-28.232 -2.211,-9.794 -5.073,-20.001 -8.927,-30.193 -3.845,-10.183 -8.091,-20.601 -13.022,-30.854 -4.822,-10.314 -10.052,-20.598 -15.334,-30.834 -10.844,-20.243 -21.688,-40.486 -31.856,-59.466 -4.967,-9.52 -9.723,-18.73 -13.97,-27.587 m -213.677,-75.958 c -0.424,2.659 -0.986,6.558 -2.171,11.434 -0.96,4.908 -2.685,10.748 -4.706,17.399 -1.146,3.284 -2.364,6.779 -3.651,10.463 -1.417,3.635 -2.907,7.457 -4.461,11.446 -3.323,7.892 -7.09,16.367 -11.351,25.216 -4.248,8.857 -9.007,18.067 -13.972,27.587 -10.168,18.98 -21.012,39.223 -31.857,59.466 -5.283,10.236 -10.509,20.52 -15.332,30.834 -4.934,10.253 -9.174,20.671 -13.025,30.854 -3.852,10.192 -6.717,20.399 -8.923,30.193 -1.893,9.876 -3.125,19.381 -2.749,28.232 -0.094,2.202 0.26,4.362 0.451,6.464 0.275,2.097 0.31,4.167 0.792,6.131 1.019,3.91 1.548,7.703 3.03,11.002 0.633,1.67 1.246,3.288 1.836,4.848 0.62,1.545 1.517,2.904 2.216,4.277 0.736,1.349 1.444,2.645 2.118,3.882 0.684,1.23 1.606,2.253 2.332,3.297 1.553,2.03 2.813,3.936 4.155,5.356 1.386,1.375 2.567,2.549 3.524,3.498 1.914,1.901 2.935,2.914 2.935,2.914 0,0 -0.911,-1.115 -2.614,-3.202 -0.854,-1.045 -1.907,-2.334 -3.141,-3.846 -1.17,-1.566 -2.224,-3.533 -3.582,-5.598 -0.625,-1.069 -1.427,-2.096 -1.996,-3.342 -0.559,-1.251 -1.146,-2.559 -1.758,-3.923 -0.567,-1.375 -1.331,-2.732 -1.807,-4.265 -0.448,-1.539 -0.913,-3.137 -1.393,-4.784 -1.173,-3.227 -1.383,-6.929 -2.067,-10.677 -0.296,-1.885 -0.226,-3.88 -0.373,-5.878 -0.071,-2.01 -0.303,-4.052 -0.086,-6.163 0.117,-2.099 0.233,-4.241 0.354,-6.427 0.175,-2.177 0.602,-4.39 0.896,-6.637 0.489,-4.51 1.762,-9.094 2.72,-13.823 2.515,-9.381 5.747,-19.121 9.69,-29.018 7.959,-19.763 18.189,-40.225 28.881,-60.495 5.337,-10.161 10.677,-20.328 15.933,-30.329 5.31,-9.997 10.319,-19.963 15.117,-29.65 4.825,-9.67 9.199,-19.18 13.126,-28.302 3.994,-9.09 7.329,-17.888 10.215,-26.071 1.332,-4.131 2.61,-8.091 3.824,-11.857 1.006,-3.826 1.964,-7.459 2.862,-10.868 1.52,-6.895 2.791,-12.899 3.37,-17.932 0.86,-4.983 0.895,-8.975 1.07,-11.663 0.148,-2.693 0.226,-4.129 0.226,-4.129 0,0 -0.229,1.423 -0.658,4.086 m -146.979,345.901 c 35.178,59.866 135.319,48.581 137.985,27.923 0.564,-4.372 0.195,-8.816 -0.725,-13.112 l -23.018,-24.449 c -18.623,11.124 -64.349,32.881 -97.558,2.527 -22.011,-20.118 -25.1,-108.959 68.866,-249.908 0,0 -139.166,165.771 -85.55,257.019 m 174.896,43.117 c 9.691,-3.951 43.915,-17.165 67.946,-17.165 3.06,0 5.897,0.218 8.426,0.648 24.641,4.184 41.703,9.813 48.067,12.105 l 75.275,-89.802 -59.955,-23.984 c -9.324,4.09 -56.156,24.247 -73.688,24.247 -0.383,0 -0.749,-0.007 -1.104,-0.026 -9.846,-0.487 -29.382,-6.704 -48.275,-12.72 -14.726,-4.686 -29.952,-9.535 -34.621,-9.535 -5.981,0 -33.774,17.333 -58.606,34.944 z m 101.687,-186.177 1.046,62.321 11.917,-1.357 z m -82.896,60.759 11.863,1.768 3.566,-64.526 z m 123.945,3.406 c -16.789,-83.6 -38.53,-175.696 -45.731,-182.29 -18.115,-10.617 -61.007,-5.057 -66.095,1.58 -4.89,6.968 -34.029,109.48 -52.505,176.937 l 5.175,-1.306 c 5.968,-20.091 36.892,-123.598 43.354,-132.924 0.744,-1.074 1.84,-2.051 3.213,-2.936 1.158,1.624 2.366,3.19 3.538,4.794 0.408,0.523 0.842,1.018 1.256,1.534 2.559,3.199 5.215,6.286 7.955,9.273 4.557,4.913 11.54,9.527 17.211,13.96 l 0.008,-1.427 c -5.99,-5.213 -11.778,-10.664 -17.219,-16.533 -3.182,-3.469 -6.282,-7.036 -9.211,-10.806 -1.416,-1.939 -2.905,-3.795 -4.267,-5.802 -0.178,-0.259 -0.38,-0.561 -0.596,-0.892 -1.461,-2.231 -3.665,-5.9 -4.725,-7.795 2.358,0.822 5.955,4.302 8.153,5.308 2.215,0.994 4.302,2.135 6.457,3.196 0.668,0.352 1.309,0.74 1.971,1.103 10.898,-2.675 25.62,-3.294 36.484,-2.368 3.424,0.292 6.519,0.726 9.31,1.286 1.105,-0.926 2.201,-1.86 3.345,-2.75 1.808,-1.316 3.537,-2.7 5.412,-3.963 1.861,-1.273 3.747,-2.527 5.802,-3.646 -0.524,1.761 -1.161,3.43 -1.821,5.08 -0.18,0.452 -0.352,0.908 -0.537,1.356 -0.848,2.094 -1.843,4.073 -2.757,6.114 -1.938,3.996 -4.081,7.822 -6.325,11.568 -2.246,3.745 -4.667,7.35 -7.159,10.895 -2.015,2.846 -5.073,3.82 -7.229,6.557 l 0.341,55.113 1.785,-51.364 c -0.336,-0.707 3.088,-3.461 5.103,-6.307 2.492,-3.546 4.913,-7.148 7.159,-10.897 1.381,-2.303 2.7,-4.657 3.981,-7.044 0.8,-1.491 1.601,-2.984 2.344,-4.522 0.396,-0.887 0.809,-1.76 1.218,-2.637 3.152,1.697 5.334,3.788 6.494,6.282 17.369,37.301 35.987,131.312 36.772,135.294 l -1.768,0.846 4.104,0.138 c 0.063,0.308 0.063,0.303 0,-0.005 m -22.984,-145.65 c 3.271,13.038 6.629,27.324 9.88,41.695 8.838,1.971 17.526,4.382 26.039,7.24 -0.216,-12.503 -1.038,-26.53 -2.499,-39.558 -10.851,-3.925 -22.01,-7.047 -33.42,-9.377 m -16.451,-52.772 c 3.753,6.569 8.852,23.316 14.333,44.459 11.434,2.203 22.637,5.158 33.551,8.853 -0.283,-13.209 -1.306,-28.133 -3.107,-41.39 -14.432,-5.264 -29.402,-9.377 -44.777,-11.922 m 56.857,150.738 c -0.177,-12.514 -0.909,-26.463 -2.231,-39.647 -8.592,-3.079 -17.373,-5.695 -26.324,-7.841 3.237,14.516 6.319,28.856 9.045,41.807 6.595,1.664 13.104,3.549 19.51,5.681 m 2.465,8.93 c -6.582,-2.303 -13.325,-4.352 -20.2,-6.141 4.322,20.732 7.496,36.685 8.543,41.976 4.603,1.269 9.168,2.635 13.679,4.127 -0.143,-12.595 -0.805,-26.575 -2.022,-39.962 m -212.968,45.347 c 4.301,-1.586 10.633,-3.762 18.658,-6.103 0.581,-2.172 5.095,-19.088 11.389,-42.243 -10.661,2.999 -18.414,5.783 -22.521,7.358 -3.097,13.923 -5.667,28.295 -7.526,40.988 m 7.481,-49.545 c 5.385,-1.995 13.935,-4.903 25.031,-7.855 3.561,-13.055 7.545,-27.553 11.63,-42.228 -13.985,3.538 -24.142,7.158 -29.074,9.058 -3.16,13.823 -5.755,28.311 -7.587,41.025 m 7.481,-49.551 c 6.42,-2.387 17.337,-6.07 31.678,-9.489 4.064,-14.521 8.161,-28.958 11.979,-42.082 -17.501,3.863 -30.189,8.385 -35.948,10.628 -3.28,13.82 -5.931,28.488 -7.709,40.943 m 7.474,-49.551 c 7.442,-2.778 20.925,-7.208 38.754,-10.788 6.607,-22.401 12.079,-39.614 14.607,-44.525 -21.835,3.98 -37.963,9.923 -45.057,12.835 -3.603,13.924 -6.472,29.401 -8.304,42.478 m 96.697,-105.422 c -40.206,0 -71.265,10.776 -81.366,14.754 -3.452,13.062 -6.166,27.771 -7.862,40.177 13.424,-5.041 46.486,-16.475 89.113,-16.475 h 0.011 c 27.044,0 53.258,5.176 78.01,13.641 -0.326,-12.561 -1.393,-26.645 -3.228,-38.968 -23.684,-8.71 -48.795,-13.128 -74.678,-13.129 m 0.13,-50.065 h -0.008 c -35.537,0 -63.022,9.75 -73.193,13.926 -3.93,13.151 -6.943,29.263 -8.693,42.447 12.655,-4.778 42.784,-14.305 81.764,-14.305 25.364,0.002 50.03,4.099 73.413,12.184 -0.426,-13.306 -1.77,-28.649 -4.07,-41.117 -22.069,-8.187 -45.339,-13.135 -69.213,-13.135 m 0.156,-46.601 c -32.171,0 -56.831,8.4 -66.104,12.085 -3.929,12.24 -6.861,27.963 -8.491,40.665 11.859,-4.509 39.077,-13.781 74.431,-13.781 h 0.012 c 23.671,0 46.775,4.188 68.775,11.888 -0.525,-13.996 -2.137,-28.355 -4.563,-39.346 -20.546,-7.639 -42.078,-11.507 -64.06,-11.511 m 58.137,-37.922 c -18.725,-6.912 -38.195,-10.415 -57.942,-10.415 -27.285,-0.005 -48.326,6.769 -57.589,10.37 -4.72,10.946 -8.082,28.059 -9.754,41.673 11.029,-4.227 35.386,-12.047 67.14,-12.047 h 0.008 c 21.964,0 43.499,3.87 64.109,11.184 -0.697,-15.121 -2.842,-30.678 -5.972,-40.765 m -6.898,-49.796 c -16.574,-5.945 -33.633,-8.958 -50.81,-8.958 -21.279,0 -38.092,4.686 -47.403,8.038 -6.59,6.932 -10.938,27.433 -12.743,42.962 10.17,-3.927 31.715,-10.663 59.912,-10.659 20.235,0 40.18,3.503 59.389,10.425 -0.97,-16.947 -4.058,-34.517 -8.345,-41.808 m -219.021,454.561 c 0.043,-2.635 0.28,-5.357 0.552,-8.149 0.598,-5.582 1.625,-11.428 2.988,-17.426 1.276,-6.018 3.183,-12.115 5.053,-18.327 1.932,-6.199 4.176,-12.431 6.532,-18.629 2.332,-6.213 4.733,-12.413 7.256,-18.475 2.491,-6.084 4.945,-12.077 7.32,-17.873 4.77,-11.616 9.123,-22.561 12.341,-32.166 1.645,-4.784 3.009,-9.228 4.062,-13.214 1.124,-3.963 1.859,-7.494 2.413,-10.393 0.577,-2.901 0.849,-5.209 1.005,-6.786 0.175,-1.566 0.268,-2.4 0.268,-2.4 0,0 -0.24,0.806 -0.693,2.315 -0.408,1.518 -1.161,3.699 -2.118,6.459 -0.964,2.756 -2.23,6.065 -3.774,9.823 -1.521,3.76 -3.402,7.944 -5.435,12.51 -4.251,9.083 -9.209,19.678 -14.522,31.031 -2.61,5.719 -5.426,11.592 -7.989,17.708 -2.625,6.083 -5.165,12.34 -7.612,18.647 -4.658,12.698 -8.805,25.708 -10.989,38.372 -1.23,6.293 -1.811,12.513 -2.042,18.412 -0.241,5.904 0.085,11.518 0.832,16.627 0.254,2.561 0.911,4.977 1.352,7.273 0.542,2.284 1.288,4.398 1.863,6.396 1.415,3.93 2.86,7.258 4.353,9.865 1.294,2.698 2.752,4.491 3.604,5.823 0.889,1.304 1.359,1.997 1.359,1.997 0,0 -0.341,-0.766 -0.985,-2.208 -0.617,-1.439 -1.673,-3.536 -2.551,-6.297 -1.056,-2.681 -1.918,-6.102 -2.843,-9.988 -0.759,-3.939 -1.392,-8.395 -1.601,-13.292 -0.078,-2.45 -0.18,-4.991 0.001,-7.635 m 212.255,-500.057 c -11.181,-4.928 -26.873,-7.75 -43.055,-7.75 -17.431,0 -33.302,3.3 -41.417,8.605 -6.728,4.401 -10.78,22.988 -12.307,37.133 9.272,-3.621 28.051,-9.455 52.735,-9.455 18.487,0 36.827,3.302 54.614,9.824 -1.277,-17.727 -5.327,-36.049 -10.57,-38.357 m 116.665,507.692 c -0.211,4.897 -0.845,9.353 -1.603,13.292 -0.926,3.886 -1.789,7.307 -2.842,9.988 -0.878,2.761 -1.936,4.858 -2.552,6.297 -0.642,1.442 -0.985,2.208 -0.985,2.208 0,0 0.471,-0.693 1.358,-1.997 0.85,-1.332 2.308,-3.125 3.604,-5.823 1.496,-2.607 2.938,-5.935 4.355,-9.865 0.574,-1.998 1.32,-4.112 1.862,-6.396 0.44,-2.296 1.097,-4.712 1.352,-7.273 0.75,-5.109 1.072,-10.723 0.831,-16.627 -0.232,-5.899 -0.813,-12.119 -2.039,-18.412 -2.187,-12.664 -6.332,-25.674 -10.987,-38.372 -2.449,-6.307 -4.99,-12.564 -7.62,-18.647 -2.557,-6.116 -5.376,-11.989 -7.984,-17.708 -5.315,-11.353 -10.274,-21.948 -14.523,-31.031 -2.035,-4.566 -3.917,-8.75 -5.435,-12.51 -1.546,-3.758 -2.812,-7.067 -3.777,-9.823 -0.957,-2.76 -1.711,-4.941 -2.116,-6.459 -0.453,-1.509 -0.694,-2.315 -0.694,-2.315 0,0 0.093,0.834 0.268,2.4 0.154,1.577 0.426,3.885 1.004,6.786 0.556,2.899 1.293,6.43 2.414,10.393 1.049,3.986 2.416,8.43 4.064,13.214 3.219,9.605 7.572,20.55 12.34,32.166 2.375,5.796 4.831,11.789 7.321,17.873 2.523,6.062 4.924,12.262 7.255,18.475 2.355,6.198 4.6,12.43 6.533,18.629 1.87,6.21 3.779,12.309 5.053,18.326 1.363,5.999 2.39,11.845 2.991,17.427 0.27,2.792 0.508,5.514 0.552,8.149 0.178,2.644 0.077,5.185 0,7.635 m 49.419,96.429 c -53.092,26.886 -108.748,8.091 -131.987,-2.235 l -16.702,-2.235 -4.053,4.833 c 0,0 -13.387,-5.314 -31.227,-9.558 l -33.413,-4.471 c -25.878,2.118 -61.311,17.178 -61.693,17.34 l -2.57,1.102 -7.905,-8.398 -8.044,1.197 c -19.125,9.438 -76.247,32.334 -132.251,2.425 -81.209,-43.371 -51.872,-158.942 -24.991,-207.925 46.73,-85.153 181.933,-239.912 157.943,-382.86 0,0 5.859,-5.377 13.605,-11.017 l 0.051,-0.511 0.695,-0.028 c 1.113,-0.802 2.262,-1.604 3.436,-2.394 l -0.022,-0.035 c 0.06,-0.039 0.573,-0.375 1.459,-0.919 4.377,-2.857 9.013,-5.468 13.358,-7.11 13.491,-6.337 34.874,-14.114 58.569,-14.114 16.248,0 33.575,3.665 50.188,13.946 14.102,2.709 31.047,20.667 31.047,20.667 -27.091,142.394 104.717,300.05 149.588,386.201 25.809,49.554 57.049,164.503 -25.081,206.099"
           style="fill:#000000;fill-opacity:1;fill-rule:nonzero;stroke:none"
           id="path871"
           inkscape:connector-curvature="0" /></g></marker><linearGradient
       inkscape:collect="always"
       xlink:href="#linearGradient7176"
       id="linearGradient7178"
       x1="0"
       y1="-631.25006"
       x2="825"
       y2="-631.25006"
       gradientUnits="userSpaceOnUse"
       gradientTransform="matrix(1.0909091,0,0,1.0133334,0,10.666688)" /></defs><sodipodi:namedview
     pagecolor="#ffffff"
     bordercolor="#666666"
     borderopacity="1"
     objecttolerance="10"
     gridtolerance="10"
     guidetolerance="10"
     inkscape:pageopacity="0"
     inkscape:pageshadow="2"
     inkscape:window-width="1920"
     inkscape:window-height="1017"
     id="namedview3159"
     showgrid="false"
     inkscape:zoom="0.74049389"
     inkscape:cx="312.62918"
     inkscape:cy="185.01165"
     inkscape:window-x="1912"
     inkscape:window-y="-8"
     inkscape:window-maximized="1"
     inkscape:current-layer="g3165"
     inkscape:showpageshadow="2"
     inkscape:pagecheckerboard="0"
     inkscape:deskcolor="#d1d1d1"
     showguides="false" /><g
     id="g3165"
     inkscape:groupmode="layer"
     inkscape:label="cobra-snake--publicdomainvectors.org"
     transform="matrix(1.3333333,0,0,-1.3333333,0,1066.6667)"><rect
       style="fill:url(#linearGradient7178);fill-opacity:1;stroke:none;stroke-width:2.41516"
       id="rect1906"
       width="900"
       height="342"
       x="0"
       y="-800.00006"
       transform="scale(1,-1)"
       ry="0" /><g
       id="g2669"
       transform="matrix(0.66996256,0,0,0.66996256,38.293259,307.91114)"><path
         id="path8722-6-0"
         style="fill:#ffffff;fill-opacity:1;stroke-width:0.739861"
         d="m 253.76758,256.01758 c -4.71289,0.24362 -8.84875,2.90289 -12.39563,5.81198 -3.11036,2.52972 -6.17811,4.98205 -9.6897,6.98953 -3.01743,2.06931 -5.02005,5.33058 -8.20259,7.19201 -4.31678,3.06505 -8.76019,6.01746 -12.54162,9.75063 -3.68444,2.92124 -7.74964,5.40468 -10.97845,8.86414 -1.86297,1.85038 -4.13943,3.17793 -6.27209,4.67686 -5.25461,3.88686 -9.94803,8.46374 -15.11198,12.46512 -2.8488,2.34154 -5.91151,4.41093 -8.77222,6.73389 -3.14514,2.76339 -6.42141,5.3719 -9.79353,7.85178 -2.54991,1.97662 -4.90646,4.18608 -7.32411,6.31458 -3.33112,2.53592 -6.85035,4.8612 -9.80712,7.85038 -3.14955,2.94385 -6.57658,5.56534 -10.04172,8.12113 -2.47065,1.92943 -4.64913,4.19842 -6.79493,6.46825 -5.35892,4.17787 -10.46852,8.67612 -15.34316,13.40727 -0.99538,1.11529 -2.10547,2.116 -3.3593,2.93154 -1.30525,0.95652 -2.35031,2.20744 -3.38045,3.43419 -1.57268,1.15514 -3.00066,2.4813 -4.347632,3.89114 -5.486878,5.61827 -10.713016,11.48526 -16.267811,17.03927 -3.789542,3.59786 -6.434872,8.15439 -9.679551,12.2057 -3.460616,4.59271 -7.093006,9.08025 -10.770344,13.44835 -2.037864,2.63787 -3.068042,5.87122 -4.92866,8.62316 -2.835288,4.39125 -5.639876,8.8062 -8.143949,13.39749 -3.302302,5.97902 -6.406101,12.07749 -8.97417,18.41202 -2.034842,5.0489 -4.482047,9.94958 -5.959703,15.20716 -2.5399,8.38042 -4.41981,16.947 -6.057901,25.54389 -1.951784,10.85299 -2.848441,21.92107 -2.232858,32.94259 0.321716,7.13153 0.443331,14.31909 1.870981,21.33926 0.883081,4.68932 2.028757,9.43955 2.815821,14.07497 0.43307,2.98439 0.722504,6.02657 1.802892,8.86874 0.719027,1.924 1.72273,3.7238 2.478374,5.63472 3.48211,8.10284 6.836171,16.41251 12.273299,23.44827 3.731673,4.92173 8.374564,9.04551 13.119263,12.96038 2.439087,2.15933 4.948269,4.32999 7.969455,5.63696 10.115295,4.77926 20.564215,8.83958 31.214104,12.26216 2.85048,0.89378 5.21319,2.77257 7.50494,4.61657 4.47811,3.4958 9.19246,6.67256 13.75272,10.05763 5.95718,4.36077 12.00803,8.62717 18.48891,12.18353 4.09345,2.22638 7.65818,5.28864 11.74284,7.53294 11.98181,6.65858 25.39502,10.37841 38.92132,12.2271 11.71195,1.55443 23.75264,1.59871 35.30817,-1.07428 5.92457,-1.49346 11.64675,-3.68994 17.28067,-6.03031 4.09695,-1.90442 7.89226,-4.44352 12.1691,-5.95992 4.59525,-1.82617 8.40076,-5.08041 12.76342,-7.33919 1.69683,-0.72703 3.44426,-1.36418 5.00278,-2.3776 2.66632,-1.68271 5.19075,-3.58276 7.89586,-5.20811 2.77116,-1.72938 5.53107,-3.47919 8.15466,-5.42836 1.55967,-1.08574 3.2537,-2.14756 4.90076,-2.86929 7.48658,-3.51463 15.62823,-5.31605 22.95769,-9.21493 4.69598,-2.56011 9.54101,-5.42693 12.50388,-10.03156 2.97453,-4.53333 3.61517,-10.04698 4.34314,-15.29164 1.01104,-6.25912 0.8019,-12.97137 -2.08005,-18.73486 -2.05989,-4.30553 -4.72639,-8.31543 -7.75811,-11.99336 -3.62784,-3.95475 -9.17569,-6.0101 -14.50616,-5.40198 -3.62642,0.19726 -7.28731,0.95973 -10.88791,0.67343 -3.84779,-0.0277 -7.53805,1.25751 -11.34413,1.63525 -7.53466,1.08416 -15.07242,2.16595 -22.57966,3.41592 -3.33124,0.0236 -6.59399,0.76029 -9.8003,1.59799 -3.4683,0.82304 -7.0983,1.85773 -10.6681,1.0456 -0.66934,-0.38008 -0.54322,-1.31364 -0.73085,-1.9637 -0.3447,-2.70505 -0.0588,-5.43994 -0.21573,-8.15656 0.0586,-0.57686 -0.14547,-1.35291 0.0764,-1.80604 3.5493,-0.96821 6.95026,-2.40111 10.45986,-3.499 4.30881,-1.45269 8.78932,-2.27988 13.20937,-3.31084 2.45748,-0.53192 4.90724,-1.13139 7.41484,-1.36123 2.28299,-0.31102 4.49795,-1.00529 6.74784,-1.44465 1.90379,0.0579 3.81943,0.30235 5.71149,-0.0594 5.2843,-0.71182 10.4272,-3.91126 12.62763,-8.88962 2.54389,-5.48178 1.45752,-12.30316 -2.13871,-17.009 -2.74778,-4.00349 -6.9481,-6.64361 -11.08629,-9.00924 -1.19818,-0.92497 -2.30385,-1.96134 -3.44887,-2.94975 -6.48707,-0.47469 -12.88034,1.37976 -18.78125,3.92188 -6.38348,2.51584 -12.70666,5.28861 -19.09281,7.67985 -4.4908,1.42363 -9.1175,2.37181 -13.74184,3.23912 -2.57219,0.36399 -5.26505,0.80287 -7.84707,1.40944 -2.10895,0.42777 -4.21418,0.78127 -6.42448,1.1043 -1.12861,0.16907 -2.26084,0.31182 -3.39184,0.46377 -2.09512,-3.33743 -4.46593,-6.63524 -5.49968,-10.51224 -0.63273,-2.05545 -1.51219,-4.02466 -2.30853,-6.01472 -0.6777,-2.75442 -0.74858,-5.62835 -1.58726,-8.34954 -0.91812,-3.69031 -1.73381,-7.42583 -1.92516,-11.23456 -0.39056,-4.02825 -0.72764,-7.97742 -0.59964,-12.05472 0.16505,-4.39817 0.61204,-8.73693 1.1273,-13.08617 0.21412,-1.60318 0.49267,-3.41933 0.83008,-5.08789 1.1941,-5.14229 2.47245,-10.26347 3.69531,-15.39844 -0.0758,-0.42421 0.23353,-0.95104 0.30391,-1.41559 1.2099,-4.21572 2.51509,-8.2972 4.16875,-12.36566 0.86261,-2.12162 1.88137,-4.38154 2.98126,-6.47308 2.22589,-4.39215 4.87289,-8.55827 7.22577,-12.87458 0.44808,-1.22117 1.17516,-2.32004 1.7002,-3.51057 2.35371,-4.58539 4.55212,-9.27983 7.38794,-13.59154 1.7225,-1.63792 2.86363,-3.74987 3.95975,-5.82518 2.75299,-4.26757 6.02488,-8.22863 8.82748,-12.41985 2.45666,-3.57266 5.15737,-7.06875 7.89505,-10.47929 7.65719,-9.7015 15.54605,-19.21794 23.57044,-28.61718 1.1608,-1.37007 2.21216,-2.84596 3.40372,-4.1803 2.37068,-1.38878 4.53043,-3.19096 6.05265,-5.49942 1.0648,-1.56608 1.85142,-3.32734 2.26331,-5.17745 3.31652,-1.4409 5.78972,-4.28289 7.53458,-7.37823 1.33848,-2.15686 2.84446,-4.22623 4.75253,-5.91864 5.16159,-4.97391 9.5951,-10.63005 14.05831,-16.21983 2.98996,-2.97406 5.87688,-6.309 7.06327,-10.44627 1.38832,-4.45086 0.69197,-9.57477 -2.15245,-13.31887 -2.86256,-4.09148 -7.30349,-6.59478 -11.32101,-9.38488 -10.8168,-7.14274 -22.10456,-13.65062 -34.04899,-18.72376 -5.66792,-2.32413 -11.60413,-4.30193 -17.76551,-4.62341 -0.46012,-0.016 -0.92022,-0.0142 -1.38049,-0.008 z" /><path
         id="path2334"
         style="fill:#9c9ea0;fill-opacity:1;stroke:none;stroke-width:0.343622"
         d="m 286.78516,114.08789 c -0.0927,-0.003 -0.16842,0.0227 -0.25391,0.0547 -3.32385,1.24383 -15.03563,8.9541 -24.71484,16.27148 -4.33387,3.27636 -9.19436,6.80146 -10.80079,7.83203 -2.20725,1.41602 -4.68751,3.64612 -10.15039,9.12891 -8.9987,9.0315 -13.1421,14.09253 -20.85546,25.4668 -6.81017,10.0424 -9.41847,14.67306 -11.06055,19.64843 -0.51041,1.5465 -1.74829,4.42899 -2.75195,6.4043 -1.97402,3.88506 -5.36498,13.71616 -7.01368,20.33594 -1.28444,5.1572 -3.65089,17.61879 -4.33984,22.85156 -0.28615,2.17341 -0.70506,7.10742 -0.93164,10.96484 -1.44507,24.60188 4.26943,53.41655 16.07031,81.0254 8.24878,19.29854 18.28933,36.47248 32.58985,55.74609 2.88314,3.88578 6.54151,8.98025 8.13085,11.32226 1.58934,2.34202 3.03684,4.4593 3.2168,4.70313 0.2407,0.32614 0.44331,0.10858 0.76758,-0.82227 0.24243,-0.69593 0.44427,-1.31083 0.44727,-1.36523 0.0148,-0.28292 15.58029,-10.31532 19.46093,-12.54297 9.85594,-5.6577 46.6474,-24.64807 54.26758,-28.01172 1.69201,-0.74688 4.76788,-2.30251 6.83594,-3.45508 2.06806,-1.15256 3.90704,-2.14477 4.08789,-2.20507 0.18085,-0.0603 -0.64942,-1.87899 -1.8457,-4.04297 -6.25339,-11.31183 -9.72736,-20.44994 -14.95508,-39.32813 -1.25605,-4.5358 -2.33699,-8.30234 -2.40039,-8.36914 -0.32312,-0.34002 -14.16373,4.73866 -20.77539,7.62305 -2.3624,1.03061 -8.85638,3.44758 -14.43164,5.36914 -12.86262,4.43321 -14.76909,5.1133 -27.49024,9.81055 -12.76527,4.71353 -18.60864,6.67402 -24.52148,8.22851 -11.49444,3.02191 -15.6836,2.92036 -15.6836,-0.3789 0,-2.49023 3.78596,-5.25066 15.29297,-11.15625 3.59085,-1.84289 8.01441,-3.88731 9.83008,-4.54297 1.81566,-0.65566 5.68072,-2.15149 8.58984,-3.32422 13.25701,-5.34419 46.99296,-15.46915 61.29883,-18.39649 3.21287,-0.65744 6.01121,-1.25723 6.21875,-1.33203 0.2699,-0.0973 0.25239,-0.75608 -0.0645,-2.31445 -0.61238,-3.01186 -1.74475,-13.07029 -2.23633,-19.875 -0.46339,-6.41454 -0.2636,-14.97737 0.53516,-23.02149 0.70411,-7.09083 1.03757,-9.09997 2.64258,-15.91992 0.7485,-3.18057 1.5067,-7.07066 1.68554,-8.64453 0.18913,-1.66446 0.8151,-4.20487 1.4961,-6.07226 0.64394,-1.76577 2.011,-5.5465 3.03711,-8.40235 1.0261,-2.85586 2.25404,-5.88741 2.72851,-6.73633 l 0.86133,-1.54296 -4.32813,-0.22071 c -2.38079,-0.12146 -5.8757,-0.46027 -7.76562,-0.75195 -7.9591,-1.22834 -30.107,-2.46609 -37.2832,-2.08399 -2.17341,0.11573 -6.03846,0.0622 -8.58985,-0.11914 -8.39025,-0.59647 -24.58643,0.68037 -45.80859,3.61329 -10.18817,1.40801 -13.97813,1.52381 -15.04102,0.46093 -0.90217,-0.90218 -0.65634,-2.23899 0.60352,-3.28125 0.85022,-0.70337 8.86255,-3.97301 14.23437,-5.80859 14.27271,-4.87705 46.26872,-9.16908 71.95508,-9.65039 12.715,-0.23825 36.82082,0.35564 43.29688,1.0664 8.2524,0.90574 19.3331,2.55669 25.5039,3.79883 3.25743,0.6557 6.36419,1.19141 6.9043,1.19141 1.21066,0 15.25213,3.11838 19.47852,4.32617 1.70091,0.48608 5.95286,2.05151 9.44921,3.47852 24.78616,10.11627 29.26449,11.78125 31.68946,11.78125 0.53081,0 1.77438,-0.5181 2.76367,-1.15235 0.9893,-0.63425 2.95951,-1.85952 4.37695,-2.72265 4.76683,-2.90272 7.5586,-6.49418 7.5586,-9.72071 0,-1.34399 -0.17645,-1.76824 -1.13672,-2.72851 -1.55149,-1.5515 -3.35533,-1.97646 -7.2168,-1.69727 -2.882,0.20837 -3.60786,0.12036 -8.3418,-1.01172 -2.85179,-0.68198 -5.78624,-1.24023 -6.51953,-1.24023 -1.31111,0 -8.21813,-1.48189 -19.39453,-4.16211 -3.11837,-0.74782 -8.37428,-2.29582 -11.68164,-3.43945 -6.37794,-2.2054 -10.01336,-3.32784 -13.90039,-4.29102 -1.51848,-0.37627 -5.77748,-2.2778 -11.68359,-5.2168 -5.11154,-2.54359 -11.21009,-5.45518 -13.55274,-6.4707 -5.64856,-2.44863 -9.22074,-4.4238 -14.8125,-8.18945 -13.47653,-9.07549 -28.43226,-21.60247 -40.20312,-33.67578 -11.25296,-11.54212 -12.72004,-13.04309 -13.36914,-13.06641 z m 58.19531,251.76172 -1.53711,1.13086 c -3.23506,2.37558 -37.17617,22.05613 -51.53711,29.88476 -4.44131,2.42111 -9.77461,5.33479 -11.85352,6.47266 -2.07891,1.13787 -6.96823,3.97672 -10.86523,6.31055 -3.89699,2.33382 -7.27321,4.24414 -7.50195,4.24414 -0.22873,0 0.3489,0.81248 1.28515,1.80468 2.54165,2.69357 7.04972,8.08645 11.2168,13.42188 2.03856,2.61013 5.86841,7.0071 8.51172,9.77148 2.64332,2.7644 6.41194,7.14118 8.375,9.72657 1.96306,2.58538 4.07382,5.08637 4.6914,5.55859 0.61759,0.47223 2.28374,2.19917 3.70118,3.83594 1.41744,1.63677 2.91187,3.06228 3.32031,3.16797 0.40844,0.10568 1.41241,-0.10618 2.23242,-0.47071 2.17131,-0.96523 46.68006,-27.46762 52.34766,-31.16992 2.64588,-1.72839 6.04665,-4.26316 7.55859,-5.63476 1.51193,-1.3716 3.21427,-2.74264 3.78125,-3.04493 1.47069,-0.78412 3.6415,-0.70476 4.88086,0.17774 2.3337,1.66174 5.94336,7.49714 5.94336,9.60937 0,0.92808 -0.27119,1.44245 -1.2168,2.3086 -1.57425,1.44195 -8.37336,5.46865 -15.96484,9.45703 -3.30736,1.73759 -7.48192,4.21024 -9.27734,5.49414 -1.79542,1.28391 -5.27553,3.48345 -7.73243,4.88867 -2.45689,1.40522 -7.68271,4.44874 -11.61328,6.76172 -7.2608,4.27269 -14.6165,8.08943 -18.96875,9.84375 -1.32294,0.53326 -2.5278,1.07186 -2.67773,1.19727 -0.63675,0.53264 3.77741,5.61784 9.6875,11.16015 1.20919,1.13395 5.24865,5.38589 8.97656,9.44922 3.7279,4.06333 8.8417,9.39858 11.36523,11.85547 7.75073,7.54604 8.36222,8.18147 9.92383,10.30859 1.89887,2.58654 8.68044,9.58438 11.86328,12.24219 1.32294,1.10471 2.45227,2.01067 2.50977,2.01367 0.0575,0.003 1.13889,-0.88746 2.4043,-1.97656 3.29781,-2.83833 10.60593,-8.24514 17.76367,-13.14453 3.40185,-2.32852 9.10405,-6.31175 12.67187,-8.84961 11.55643,-8.22031 18.16864,-12.37751 21.16211,-13.30859 0.46518,-0.1447 1.29252,-0.7105 1.83985,-1.25782 0.54733,-0.54733 2.45023,-1.85106 4.22656,-2.89648 3.51785,-2.07036 4.46355,-3.22 4.08203,-4.95703 -0.24611,-1.12055 -2.25639,-3.07558 -4.19141,-4.07422 -1.56115,-0.80569 -2.96977,-2.27371 -6.13867,-6.40039 -1.30615,-1.70093 -4.70653,-5.79811 -7.55469,-9.10547 -6.59435,-7.65756 -12.81902,-15.21995 -22.48828,-27.31836 -7.91318,-9.90115 -10.71112,-13.59808 -17.52539,-23.15234 -2.17341,-3.04733 -5.30473,-7.43495 -6.95703,-9.75 -1.6523,-2.31505 -3.34195,-4.90539 -3.75586,-5.75586 -0.4139,-0.85046 -1.47454,-2.36229 -2.35742,-3.36133 -1.96821,-2.22716 -4.59737,-6.82433 -10.26172,-17.94141 z"
         transform="matrix(0.75000002,0,0,-0.75000002,-47.737406,700.35469)" /><path
         style="fill:#264e97;fill-opacity:1;stroke:none;stroke-width:0.971909"
         d="m 392.16544,569.02727 c -5.07823,-3.7386 -11.41994,-8.74287 -14.09269,-11.1206 -2.67275,-2.37774 -7.4837,-6.13631 -10.691,-8.35239 -3.2073,-2.21608 -7.03656,-5.16126 -8.50945,-6.54483 -1.4729,-1.38357 -5.5031,-4.72764 -8.95602,-7.43126 -13.46228,-10.5409 -16.46224,-12.93717 -25.10445,-20.05265 -4.9177,-4.04893 -12.01139,-9.7346 -15.76375,-12.63482 -3.75236,-2.90021 -8.78199,-6.87962 -11.17696,-8.84314 -2.39497,-1.96351 -8.55437,-6.99314 -13.68757,-11.17696 -5.13318,-4.18381 -14.9655,-12.1992 -21.8496,-17.81198 -6.88409,-5.61277 -14.30861,-11.95448 -16.49895,-14.09268 -2.19033,-2.1382 -7.43136,-6.73048 -11.64674,-10.20505 -14.94854,-12.32154 -48.00763,-46.3609 -59.75839,-61.53035 -12.85257,-16.59183 -12.57999,-16.2029 -21.24595,-30.31509 -13.63646,-22.20647 -23.76365,-43.8708 -28.66952,-61.33053 -11.4506,-40.75211 -11.91779,-74.79026 -1.62703,-118.54196 1.54347,-6.56218 11.41642,-27.67073 16.264,-34.77276 2.6646,-3.90382 8.19144,-9.81675 13.36458,-14.29818 7.8348,-6.78721 10.24232,-8.2364 21.53375,-12.96212 6.99201,-2.92631 17.44175,-6.95414 23.22164,-8.950726 5.77989,-1.996586 12.42711,-4.976846 14.77159,-6.622798 2.34449,-1.645953 12.52704,-8.896991 22.6279,-16.113418 37.07386,-26.486935 54.03347,-35.003105 78.28399,-39.309852 20.56047,-3.651418 38.21092,-2.982647 54.40393,2.061351 8.4677,2.637619 32.75981,14.13924 41.01141,19.417725 2.82288,1.805771 6.24258,3.705268 7.59932,4.221104 1.35676,0.515836 8.03656,4.602594 14.84401,9.081685 15.16742,9.979685 19.05256,11.969822 34.40436,17.623423 13.34878,4.915942 20.56596,9.115451 23.71369,13.798416 1.35911,2.02201 2.48323,6.09387 3.26829,11.83863 l 1.19665,8.75656 -7.49272,10.83663 -7.49273,10.83662 -9.34895,-0.52934 c -9.11383,-0.51602 -56.99037,-7.43221 -64.74777,-9.35337 -2.1382,-0.52955 -7.28789,-0.99016 -11.44374,-1.02361 -6.1486,-0.0495 -8.31407,0.35767 -11.62529,2.18569 -5.14987,2.84309 -8.31131,7.51031 -9.09646,13.42901 l -0.61431,4.63089 -7.87212,-4.83141 c -24.91042,-15.28846 -45.40619,-35.22734 -57.43031,-55.869876 -3.86305,-6.631923 -7.49049,-10.025001 -10.71743,-10.025001 -3.33782,0 -25.40473,8.260246 -35.24619,13.193608 -48.65403,24.389469 -82.73782,78.687189 -88.72202,141.339989 -1.98438,20.77587 -1.07665,31.48034 5.41858,63.89934 4.06429,20.28568 7.01798,28.6956 17.4596,49.71196 13.98814,28.15465 32.59991,53.16615 61.59245,82.77125 9.13044,9.32336 16.60141,17.21121 16.60215,17.52857 9.7e-4,0.60846 12.03409,11.87835 47.01116,44.03106 11.68982,10.74587 27.04796,25.11428 34.12921,31.92979 7.08126,6.81552 13.60435,12.39185 14.49578,12.39185 2.95545,0 11.63028,-4.98833 21.96625,-12.63137 5.61278,-4.15041 13.48102,-9.63116 17.485,-12.17943 4.00397,-2.54827 12.33187,-8.50494 18.50643,-13.23704 6.17457,-4.7321 11.86445,-8.58799 12.64419,-8.56865 0.77974,0.0193 2.94847,2.19258 4.8194,4.82941 1.87092,2.63683 6.90055,8.65787 11.17695,13.38009 11.8281,13.06119 19.19123,22.02391 20.09062,24.45518 1.10051,2.97497 -2.07405,5.82917 -17.01985,15.30231 -21.52667,13.6443 -45.63494,24.64416 -53.9032,24.59434 -1.70254,-0.0102 -5.86169,-2.40043 -11.85572,-6.81324 z m 60.98731,-462.22224 c 1.20274,-0.33422 2.1868,-0.94026 2.1868,-1.34677 0,-0.40651 -6.40339,-3.49733 -14.22974,-6.868491 -14.46524,-6.230824 -32.86175,-16.207143 -42.02292,-22.788785 -2.78302,-1.999408 -5.30947,-3.385868 -5.61431,-3.081023 -1.1766,1.1766 8.71373,14.296333 16.0896,21.343201 12.08193,11.543008 19.22374,14.567518 32.65659,13.829868 4.81095,-0.26419 9.73124,-0.75379 10.93398,-1.088 z"
         id="path2658"
         transform="matrix(0.75000002,0,0,-0.75000002,-47.737406,700.35469)" /></g><path
       style="fill:#ffd43b;fill-opacity:1;stroke-width:0.756174;stroke-dasharray:none"
       d="m 632.91806,470.24413 c -2.67482,0.0181 -5.34322,0.34383 -7.98946,0.90118 -1.3462,0.28135 -2.82927,0.62227 -4.21942,1.00492 -1.87367,0.51143 -3.87583,1.15307 -5.77819,1.85421 -4.05954,1.4916 -8.17699,3.40024 -12.17522,5.43364 -6.60048,3.36165 -13.25921,6.72485 -19.74513,10.39991 -5.85187,3.31416 -11.52221,7.25912 -17.3651,10.60589 -2.05594,1.19375 -4.18712,2.26433 -6.03222,4.07312 -1.69601,1.87934 -3.80901,2.63775 -5.78662,3.65812 -1.03397,0.53524 -2.03253,1.22119 -2.88895,2.2274 -2.76489,2.51864 -5.64928,4.77668 -8.62905,6.71477 -4.66919,3.10309 -9.14372,6.77247 -13.74366,10.0796 -2.94993,2.18704 -5.9741,4.15159 -8.95631,6.24287 -4.82879,3.42295 -9.17876,8.06972 -13.95208,11.64138 -2.01042,1.59162 -4.18698,2.66908 -6.21514,4.21096 -4.67423,3.56137 -9.35395,7.1046 -14.05458,10.59232 -3.44031,2.6038 -6.91871,5.11353 -10.29427,7.89034 -2.15808,1.73739 -4.51372,2.88002 -6.77424,4.29967 -5.11829,3.08569 -10.07844,6.69873 -15.24185,9.62959 -3.69601,2.10834 -7.47761,3.88321 -11.21254,5.83984 -6.17627,3.11808 -12.63864,4.87087 -19.10882,6.11104 -6.36173,1.13926 -12.79999,1.7961 -19.20492,1.11083 -4.55513,-0.62 -9.06799,-1.79535 -13.53971,-3.17976 -2.06899,-0.70465 -4.18131,-1.30755 -6.13664,-2.54599 -1.89166,-1.84925 -4.17911,-2.50786 -6.19301,-4.01094 -4.85401,-3.37224 -9.46479,-7.4464 -13.91485,-11.82532 -2.28475,-2.19096 -4.33422,-4.84947 -6.62586,-7.02322 -0.62587,-0.50461 -1.27563,-1.26632 -2.01547,-1.23634 -0.47512,0.65705 0.0432,1.56405 0.21001,2.2645 1.43811,4.14175 3.54345,7.67977 5.6191,11.16717 1.19814,2.12458 2.25145,4.41283 3.19183,6.79034 1.9422,3.77882 4.19887,7.19056 6.39758,10.65328 7.80385,11.99996 16.26452,23.215 25.73397,32.40975 4.48856,4.42209 9.37973,7.8646 14.0849,11.75562 3.76881,2.99798 7.84227,5.44602 11.86819,7.76803 4.22146,2.38301 8.49151,4.65106 12.91224,6.1318 3.75753,1.41235 7.4561,3.17626 11.28486,4.16535 6.05331,1.66395 12.21285,2.35347 18.36411,2.64822 4.24093,0.18362 8.6033,0.15109 12.89069,0.0502 3.36346,-0.089 6.74417,-0.31168 10.10114,-1.05881 2.67412,-0.58725 5.45368,-1.40302 8.14707,-2.23683 12.63246,-3.98575 25.01342,-10.2209 36.19126,-19.73423 4.01509,-3.40653 7.88371,-7.19441 11.43902,-11.55256 6.60807,-7.98784 12.81634,-16.71445 18.8777,-25.61138 5.83691,-8.57579 11.45959,-17.45264 16.95131,-26.49275 4.89524,-7.78733 9.99953,-15.31234 15.41846,-22.33675 1.51207,-1.98293 3.12599,-3.78956 4.786,-5.50137 1.62228,-1.76509 3.11219,-3.76464 4.54265,-5.84323 1.73318,-2.32698 3.69893,-4.24608 5.73157,-5.97513 2.02479,-1.81736 3.89805,-3.94696 5.79805,-6.01757 6.26062,-6.56243 13.57885,-10.67113 21.02225,-13.42728 4.69139,-1.70368 9.66937,-2.42859 14.41763,-0.75657 4.05168,1.38694 7.79681,4.18489 11.32516,7.32062 1.18143,1.1651 2.54073,2.36504 3.06529,4.39493 0.17201,1.45325 0.86212,2.62331 1.40728,3.83075 1.57006,2.98657 2.57744,6.49431 3.53615,9.95563 1.15561,4.43281 2.08607,9.05498 2.19493,13.8214 0.1308,4.59105 0.13831,9.19584 -0.0286,13.78499 -0.26778,6.27957 -1.52012,12.34517 -2.7031,18.36209 -0.98079,4.71082 -1.99544,9.43051 -3.44872,13.88777 -2.45859,8.314 -4.53286,16.85031 -6.81975,25.26332 -0.20749,1.00505 -0.45771,2.51511 0.29032,3.17599 0.61074,0.48144 1.35213,0.25017 1.84604,-0.4248 1.81538,-2.2007 3.17067,-5.05941 4.63838,-7.72161 1.86569,-3.55478 3.59039,-7.06335 5.30777,-10.79418 2.06225,-4.55812 4.13814,-9.16475 5.51694,-14.26221 0.77938,-2.68696 1.70265,-5.2779 2.5387,-7.92595 1.27299,-4.5389 2.21346,-9.26482 3.09355,-13.9432 1.10786,-6.13446 2.17256,-12.32695 2.50486,-18.6693 0.47866,-8.34828 0.50854,-16.77261 -0.10788,-25.10745 -0.51042,-6.43752 -1.69997,-12.73555 -3.23856,-18.80785 -0.71873,-2.68686 -1.46722,-5.43242 -2.77046,-7.65177 -1.14172,-2.2385 -2.00451,-4.73169 -2.90481,-7.17653 -1.20614,-2.83815 -3.00974,-5.03146 -4.64712,-7.24078 -1.8102,-2.27731 -3.5607,-4.665 -5.46006,-6.78669 -3.4556,-3.49338 -7.35436,-5.98315 -11.3429,-7.89324 -2.18275,-1.04349 -4.44018,-1.71996 -6.72035,-2.12106 -0.81648,-0.1525 -1.81169,-0.31501 -2.6987,-0.44123 -4.17406,-0.57217 -8.36993,-0.84207 -12.56263,-0.78945 z"
       id="path592" /><text
       xml:space="preserve"
       style="font-style:normal;font-weight:normal;font-size:180px;line-height:0.85;font-family:sans-serif;text-align:start;letter-spacing:0px;word-spacing:0px;text-anchor:start;fill:#9c9ea0;fill-opacity:1;stroke:none;stroke-width:0.99975;stroke-dasharray:none"
       x="540.69824"
       y="-674.64484"
       id="text5581-3"
       transform="scale(1,-1)"><tspan
         sodipodi:role="line"
         style="font-style:normal;font-variant:normal;font-weight:bold;font-stretch:normal;font-size:120px;font-family:'Century Gothic';-inkscape-font-specification:'Century Gothic Bold';text-align:center;text-anchor:middle;fill:#254d96;fill-opacity:1;stroke:none;stroke-width:0.99975;stroke-dasharray:none;stroke-opacity:1"
         x="540.69824"
         y="-674.64484"
         id="tspan409-7"
         dx="0">COBRA</tspan><tspan
         sodipodi:role="line"
         style="font-style:normal;font-variant:normal;font-weight:normal;font-stretch:normal;font-size:140px;font-family:'Century Gothic';-inkscape-font-specification:'Century Gothic';text-align:center;text-anchor:middle;fill:#ffffff;fill-opacity:1;stroke:#b1b1b1;stroke-width:0.99975;stroke-dasharray:none;stroke-opacity:1"
         x="540.69824"
         y="-521.64484"
         id="tspan1527">DataLab</tspan></text></g></svg>
