<?xml version="1.0" encoding="UTF-8" standalone="no"?>
  <svg
 role="img"
 focusable="false"
 aria-hidden="true"
 viewBox="0 0 14 14"
 version="1.1"
 id="svg41981"
 xmlns="http://www.w3.org/2000/svg">
  <g
 id="g42718"
 transform="matrix(0.78633287,0,0,0.78633287,2.7448009,0.41089832)">
  <g
 id="g42708">
  <path
 fill="#ffcdd2"
 d="M 1.1538461,11.769231 V 4.3846154 H 12.846154 V 11.769231 C 12.846154,12.446154 12.292308,13 11.615385,13 H 2.3846153 C 1.7076923,13 1.1538461,12.446154 1.1538461,11.769231 Z"
 id="path41967"
 style="fill:#f2f2f2" />
  <path
 fill="#f44336"
 d="M 12.846154,3.1538461 V 5 H 1.1538461 V 3.1538461 c 0,-0.6769231 0.5538462,-1.2307692 1.2307692,-1.2307692 h 9.2307697 c 0.676923,0 1.230769,0.5538461 1.230769,1.2307692 z"
 id="path41969"
 style="fill:#cccccc" />
  </g>
  <rect
 id="rect42156"
 width="1.5517155"
 height="1.6081415"
 x="10.501587"
 y="2.674593" fill="#d40000" stroke="none" stroke-width="0.349565" />
  <rect
 id="rect42156-5"
 width="1.5517155"
 height="1.6081415"
 x="8.8088064"
 y="2.674593" fill="#808080" stroke="none" stroke-width="0.349565" />
  <rect
 id="rect10749-5"
 width="9.9170856"
 height="7.0469565"
 x="2.5508342"
 y="5.4675021"
 transform="matrix(1,0,-0.0665779,0.99778123,0,0)" fill="#e6e6e6" fill-opacity="1" stroke="none" stroke-width="1.68031" stroke-opacity="1" />
  <rect
 id="rect28089"
 width="0.47309414"
 height="6.8056917"
 x="6.6611328"
 y="5.5612016" fill="#696969" fill-opacity="0.817241" stroke-width="0.379993" />
  <rect
 id="rect28089-7"
 width="0.47309414"
 height="9.5310678"
 x="8.6254492"
 y="-11.679437"
 transform="rotate(90)" fill="#696969" fill-opacity="0.817241" stroke-width="0.449687" />
  </g>
  <g
 id="g43227"
 transform="translate(-5.7291885,-0.15508909)">
  <path
 d="M 10.442105,10.268421 C 9.5578947,11.18421 8.3578947,11.752632 7,11.752632 c -0.2842105,0 -0.6,-0.03158 -0.8842105,-0.09474 L 5.8947369,12.889474 C 6.2736842,12.952632 6.6526316,12.98421 7,12.98421 c 1.7052631,0 3.221053,-0.726315 4.326316,-1.863157 z"
 id="path43223" fill="#008000" />
  <path
 d="M 12.052632,9.2263158 11.547368,12.98421 8.4526316,9.8894736 Z"
 id="path43087" fill="#008000" />
  </g>
</svg>
