<?xml version="1.0" encoding="UTF-8" standalone="no"?>
  <svg
 version="1.1"
 width="256"
 height="256"
 viewBox="0 0 256 256"
 xml:space="preserve"
 id="svg2"
 xmlns="http://www.w3.org/2000/svg">
  <defs
 id="defs1">
  </defs>
  <g
 style="opacity:1;fill:none;fill-rule:nonzero;stroke:none;stroke-width:0;stroke-linecap:butt;stroke-linejoin:miter;stroke-miterlimit:10;stroke-dasharray:none"
 transform="matrix(0,2.5021142,-2.5021142,0,240.45173,15.261452)"
 id="g2">
  <circle
 cx="45"
 cy="45"
 r="45"
 id="circle1" opacity="1" fill="#ffcc66" stroke="none" stroke-width="1" stroke-dasharray="none" />
  <path
 d="m 55.111,58.881 c -0.666,-0.913 -1.912,-1.233 -2.903,-0.69 -2.197,1.206 -4.655,1.835 -7.208,1.835 -6.4,0 -11.863,-4.029 -14.025,-9.677 h 5.305 c 0.653,0 1.253,-0.358 1.564,-0.932 0.31,-0.574 0.281,-1.273 -0.076,-1.819 L 23.016,25.046 c -0.329,-0.502 -0.888,-0.805 -1.488,-0.805 -0.6,0 -1.159,0.303 -1.488,0.805 L 5.29,47.599 c -0.357,0.546 -0.386,1.245 -0.076,1.819 0.311,0.575 0.911,0.932 1.564,0.932 h 6.764 C 16.095,65.409 29.225,76.916 45,76.916 c 5.988,0 11.736,-1.636 16.768,-4.754 1.131,-0.701 1.41,-2.23 0.626,-3.305 z"
 stroke-linecap="round"
 id="path1" opacity="1" fill="#ed7161" stroke="none" stroke-width="1" stroke-dasharray="none" />
  <path
 d="m 84.786,39.868 c -0.31,-0.574 -0.911,-0.932 -1.563,-0.932 H 76.331 C 73.489,24.229 60.525,13.084 45,13.084 c -5.41,0 -10.676,1.356 -15.37,3.94 -1.161,0.639 -1.511,2.151 -0.785,3.26 l 6.767,10.336 c 0.617,0.943 1.842,1.332 2.856,0.842 2.024,-0.978 4.249,-1.489 6.532,-1.489 6.127,0 11.402,3.691 13.738,8.963 h -5.017 c -0.653,0 -1.253,0.358 -1.563,0.932 -0.311,0.574 -0.282,1.273 0.076,1.819 l 14.75,22.553 c 0.328,0.502 0.888,0.805 1.488,0.805 0.6,0 1.16,-0.303 1.488,-0.805 L 84.71,41.687 c 0.358,-0.546 0.386,-1.245 0.076,-1.819 z"
 stroke-linecap="round"
 id="path2" opacity="1" fill="#88c057" stroke="none" stroke-width="1" stroke-dasharray="none" />
  </g>
</svg>
