<?xml version="1.0" encoding="UTF-8" standalone="no"?>
  <svg
 role="img"
 focusable="false"
 aria-hidden="true"
 viewBox="0 0 14 14"
 version="1.1"
 id="svg12"
 xmlns="http://www.w3.org/2000/svg">
  <g
 style="fill:none;fill-rule:nonzero;stroke:none;stroke-width:0;stroke-linecap:butt;stroke-linejoin:miter;stroke-miterlimit:10;stroke-dasharray:none"
 transform="matrix(0,-0.12479558,0.12479558,0,1.6404707,12.629023)"
 id="g2">
  <circle
 cx="45"
 cy="45"
 r="45"
 id="circle1" opacity="1" fill="#417ce5" stroke="none" stroke-width="1" stroke-dasharray="none" />
  <path
 d="M 71.5,34.314 V 20.388 l -4.597,4.597 C 63.202,21.077 58.517,18.284 53.277,16.88 45.741,14.861 37.87,15.897 31.115,19.798 24.359,23.699 19.527,29.997 17.507,37.532 c -2.019,7.536 -0.983,15.406 2.918,22.162 3.9,6.756 10.199,11.588 17.734,13.607 2.486,0.666 5.005,0.987 7.5,0.987 10.099,0 19.786,-5.264 25.127,-14.199 L 65.201,56.751 C 60.025,65.408 49.598,69.629 39.843,67.016 33.986,65.447 29.091,61.691 26.06,56.44 23.029,51.189 22.223,45.072 23.793,39.216 c 1.569,-5.857 5.325,-10.752 10.576,-13.783 5.25,-3.032 11.367,-3.837 17.224,-2.268 4.13,1.107 7.806,3.331 10.698,6.432 l -4.717,4.717 z"
 stroke-linecap="round"
 id="path1" opacity="1" fill="#ffffff" stroke="none" stroke-width="1" stroke-dasharray="none" />
  </g>
  <g
 id="g1"
 transform="matrix(1.0032099,0,0,1,0.06880257,-0.14192834)">
  <path
 d="m 1.5979176,11.991302 c 0,0.152631 2.4420512,-0.915769 2.4420512,-0.915769 L 5.5662508,9.0913664 7.3214751,4.970405 9.2293278,2.9862382 12.358206,2.0704691"
 id="path32265" fill="none" fill-opacity="0.817241" stroke="#ff0000" stroke-width="0.64846" stroke-opacity="1" />
  <circle
 cx="9.2136707"
 cy="3.0269027"
 r="0.94016802"
 id="circle20-2" fill="#ff5555" stroke-width="0.31339" />
  <circle
 cx="7.2945685"
 cy="4.9510207"
 r="0.94016802"
 id="circle22-3" fill="#ff5555" stroke-width="0.31339" />
  <circle
 cx="5.6044068"
 cy="9.1676798"
 r="0.94016802"
 id="circle24-6" fill="#ff5555" stroke-width="0.31339" />
  <circle
 cx="3.9905601"
 cy="11.039884"
 r="0.94016802"
 id="circle26-0" fill="#ff5555" stroke-width="0.31339" />
  <circle
 cx="1.613572"
 cy="12.010686"
 r="0.94016802"
 id="circle28-1" fill="#ff5555" stroke-width="0.31339" />
  <circle
 cx="12.281892"
 cy="2.1467826"
 r="0.94016802"
 id="circle28-1-2" fill="#ff5555" stroke-width="0.31339" />
  </g>
</svg>
