<?xml version="1.0" encoding="UTF-8" standalone="no"?>
<!-- Created with Inkscape (http://www.inkscape.org/) -->

<svg
   version="1.1"
   id="svg3157"
   xml:space="preserve"
   width="1100"
   height="450"
   viewBox="0 0 1099.9999 449.99998"
   sodipodi:docname="CobraDataLab-Watermark.svg"
   inkscape:version="1.2.2 (732a01da63, 2022-12-09)"
   inkscape:export-filename="CobraDataLab-watermark.png"
   inkscape:export-xdpi="26.181818"
   inkscape:export-ydpi="26.181818"
   xmlns:inkscape="http://www.inkscape.org/namespaces/inkscape"
   xmlns:sodipodi="http://sodipodi.sourceforge.net/DTD/sodipodi-0.dtd"
   xmlns="http://www.w3.org/2000/svg"
   xmlns:svg="http://www.w3.org/2000/svg"
   xmlns:rdf="http://www.w3.org/1999/02/22-rdf-syntax-ns#"
   xmlns:cc="http://creativecommons.org/ns#"
   xmlns:dc="http://purl.org/dc/elements/1.1/"><metadata
     id="metadata3163"><rdf:RDF><cc:Work
         rdf:about=""><dc:format>image/svg+xml</dc:format><dc:type
           rdf:resource="http://purl.org/dc/dcmitype/StillImage" /></cc:Work></rdf:RDF></metadata><defs
     id="defs3161"><marker
       markerWidth="700"
       markerHeight="700"
       refX="350"
       refY="350"
       orient="auto"
       id="marker1068"><g
         inkscape:label="Clip"
         id="use859"
         transform="matrix(1.3061145,0,0,-1.0907137,-173.85658,852.94723)"><path
           d="m 375.35627,684.77075 c 2.504,1.333 5.022,2.631 7.587,3.8 2.533,1.248 5.143,2.288 7.725,3.409 2.596,1.086 5.238,2.036 7.852,3.061 l 1.278,0.501 1.321,-0.562 c 2.774,-1.168 5.523,-2.384 8.276,-3.596 2.695,-1.349 5.471,-2.501 8.099,-4.009 l 7.965,-4.338 c 2.557,-1.683 5.206,-3.14 7.684,-5.013 l -0.075,-0.185 h -0.004 l -0.076,-0.186 -0.506,0.206 -32.744,13.383 -31.136,-11.089 -0.472,-0.169 -0.137,0.375 c 2.384,1.669 4.91,2.936 7.363,4.412 m 86.771,47.215 v -0.666 c 0,0 -1.409,-17.827 -1.743,-16.911 -0.331,0.915 -6.65,11.412 -6.65,11.412 z m -5.992,-32.821 c 12.277,2.727 18.745,21.492 34.738,15.494 0,0 -18.493,28.49 -27.991,23.492 -6.091,-3.207 -19.579,-12.783 -28.473,-19.243 l -21.835,-12.496 15.235,4.231 c 4.437,-4.393 15.996,-14.219 28.326,-11.478 m -119.158,28.821 8.583,-6.164 c 0,0 -6.411,-10.496 -6.74,-11.412 -0.333,-0.916 -1.843,16.91 -1.843,16.91 z m 2.871,-28.821 c 11.618,-2.583 22.546,5.988 27.482,10.662 l 14.863,-5.198 -12.68,8.459 c -3.951,2.931 -27.716,20.486 -36.413,25.063 -9.495,4.998 -27.988,-23.492 -27.988,-23.492 15.994,5.998 22.462,-12.767 34.736,-15.494 m 286.235,12.994 c -42.654,38.986 -105.963,-7.995 -105.963,-7.995 0,0 -17.743,20.826 -15.079,41.484 2.662,20.658 103.961,31.489 137.723,-26.378 53.335,-91.414 -85.548,-257.019 -85.548,-257.019 93.965,140.949 90.877,229.79 68.867,249.908 m -103.954,-262.832 c -4.262,-8.849 -8.031,-17.324 -11.354,-25.216 -1.553,-3.989 -3.045,-7.811 -4.458,-11.446 -1.29,-3.684 -2.507,-7.179 -3.656,-10.463 -2.018,-6.651 -3.743,-12.491 -4.705,-17.399 -1.182,-4.876 -1.745,-8.775 -2.167,-11.434 -0.43,-2.663 -0.659,-4.086 -0.659,-4.086 0,0 0.078,1.436 0.226,4.129 0.175,2.688 0.211,6.68 1.069,11.663 0.583,5.033 1.852,11.037 3.37,17.932 0.899,3.409 1.856,7.042 2.864,10.868 1.214,3.766 2.49,7.726 3.823,11.857 2.885,8.183 6.219,16.981 10.213,26.071 3.93,9.122 8.302,18.632 13.128,28.302 4.8,9.687 9.806,19.653 15.116,29.65 5.256,10.001 10.595,20.168 15.936,30.329 10.688,20.27 20.919,40.732 28.881,60.495 3.943,9.897 7.171,19.637 9.687,29.018 0.956,4.729 2.232,9.313 2.722,13.823 0.292,2.247 0.721,4.46 0.894,6.637 0.12,2.186 0.238,4.328 0.355,6.427 0.215,2.111 -0.015,4.153 -0.086,6.163 -0.149,1.998 -0.077,3.993 -0.375,5.878 -0.684,3.748 -0.89,7.45 -2.067,10.677 -0.478,1.647 -0.943,3.245 -1.392,4.784 -0.477,1.533 -1.238,2.89 -1.808,4.265 -0.609,1.364 -1.195,2.672 -1.757,3.923 -0.567,1.246 -1.371,2.273 -1.996,3.342 -1.355,2.065 -2.413,4.032 -3.581,5.598 -1.237,1.512 -2.288,2.801 -3.139,3.846 -1.707,2.087 -2.616,3.202 -2.616,3.202 0,0 1.02,-1.013 2.935,-2.914 0.958,-0.949 2.138,-2.123 3.523,-3.498 1.34,-1.42 2.605,-3.326 4.157,-5.356 0.724,-1.044 1.646,-2.067 2.33,-3.297 0.674,-1.237 1.382,-2.533 2.12,-3.882 0.695,-1.373 1.593,-2.732 2.214,-4.277 0.589,-1.56 1.202,-3.178 1.835,-4.848 1.484,-3.299 2.01,-7.092 3.03,-11.002 0.479,-1.964 0.519,-4.034 0.792,-6.131 0.191,-2.102 0.548,-4.262 0.449,-6.464 0.378,-8.851 -0.854,-18.356 -2.744,-28.232 -2.211,-9.794 -5.073,-20.001 -8.927,-30.193 -3.845,-10.183 -8.091,-20.601 -13.022,-30.854 -4.822,-10.314 -10.052,-20.598 -15.334,-30.834 -10.844,-20.243 -21.688,-40.486 -31.856,-59.466 -4.967,-9.52 -9.723,-18.73 -13.97,-27.587 m -213.677,-75.958 c -0.424,2.659 -0.986,6.558 -2.171,11.434 -0.96,4.908 -2.685,10.748 -4.706,17.399 -1.146,3.284 -2.364,6.779 -3.651,10.463 -1.417,3.635 -2.907,7.457 -4.461,11.446 -3.323,7.892 -7.09,16.367 -11.351,25.216 -4.248,8.857 -9.007,18.067 -13.972,27.587 -10.168,18.98 -21.012,39.223 -31.857,59.466 -5.283,10.236 -10.509,20.52 -15.332,30.834 -4.934,10.253 -9.174,20.671 -13.025,30.854 -3.852,10.192 -6.717,20.399 -8.923,30.193 -1.893,9.876 -3.125,19.381 -2.749,28.232 -0.094,2.202 0.26,4.362 0.451,6.464 0.275,2.097 0.31,4.167 0.792,6.131 1.019,3.91 1.548,7.703 3.03,11.002 0.633,1.67 1.246,3.288 1.836,4.848 0.62,1.545 1.517,2.904 2.216,4.277 0.736,1.349 1.444,2.645 2.118,3.882 0.684,1.23 1.606,2.253 2.332,3.297 1.553,2.03 2.813,3.936 4.155,5.356 1.386,1.375 2.567,2.549 3.524,3.498 1.914,1.901 2.935,2.914 2.935,2.914 0,0 -0.911,-1.115 -2.614,-3.202 -0.854,-1.045 -1.907,-2.334 -3.141,-3.846 -1.17,-1.566 -2.224,-3.533 -3.582,-5.598 -0.625,-1.069 -1.427,-2.096 -1.996,-3.342 -0.559,-1.251 -1.146,-2.559 -1.758,-3.923 -0.567,-1.375 -1.331,-2.732 -1.807,-4.265 -0.448,-1.539 -0.913,-3.137 -1.393,-4.784 -1.173,-3.227 -1.383,-6.929 -2.067,-10.677 -0.296,-1.885 -0.226,-3.88 -0.373,-5.878 -0.071,-2.01 -0.303,-4.052 -0.086,-6.163 0.117,-2.099 0.233,-4.241 0.354,-6.427 0.175,-2.177 0.602,-4.39 0.896,-6.637 0.489,-4.51 1.762,-9.094 2.72,-13.823 2.515,-9.381 5.747,-19.121 9.69,-29.018 7.959,-19.763 18.189,-40.225 28.881,-60.495 5.337,-10.161 10.677,-20.328 15.933,-30.329 5.31,-9.997 10.319,-19.963 15.117,-29.65 4.825,-9.67 9.199,-19.18 13.126,-28.302 3.994,-9.09 7.329,-17.888 10.215,-26.071 1.332,-4.131 2.61,-8.091 3.824,-11.857 1.006,-3.826 1.964,-7.459 2.862,-10.868 1.52,-6.895 2.791,-12.899 3.37,-17.932 0.86,-4.983 0.895,-8.975 1.07,-11.663 0.148,-2.693 0.226,-4.129 0.226,-4.129 0,0 -0.229,1.423 -0.658,4.086 m -146.979,345.901 c 35.178,59.866 135.319,48.581 137.985,27.923 0.564,-4.372 0.195,-8.816 -0.725,-13.112 l -23.018,-24.449 c -18.623,11.124 -64.349,32.881 -97.558,2.527 -22.011,-20.118 -25.1,-108.959 68.866,-249.908 0,0 -139.166,165.771 -85.55,257.019 m 174.896,43.117 c 9.691,-3.951 43.915,-17.165 67.946,-17.165 3.06,0 5.897,0.218 8.426,0.648 24.641,4.184 41.703,9.813 48.067,12.105 l 75.275,-89.802 -59.955,-23.984 c -9.324,4.09 -56.156,24.247 -73.688,24.247 -0.383,0 -0.749,-0.007 -1.104,-0.026 -9.846,-0.487 -29.382,-6.704 -48.275,-12.72 -14.726,-4.686 -29.952,-9.535 -34.621,-9.535 -5.981,0 -33.774,17.333 -58.606,34.944 z m 101.687,-186.177 1.046,62.321 11.917,-1.357 z m -82.896,60.759 11.863,1.768 3.566,-64.526 z m 123.945,3.406 c -16.789,-83.6 -38.53,-175.696 -45.731,-182.29 -18.115,-10.617 -61.007,-5.057 -66.095,1.58 -4.89,6.968 -34.029,109.48 -52.505,176.937 l 5.175,-1.306 c 5.968,-20.091 36.892,-123.598 43.354,-132.924 0.744,-1.074 1.84,-2.051 3.213,-2.936 1.158,1.624 2.366,3.19 3.538,4.794 0.408,0.523 0.842,1.018 1.256,1.534 2.559,3.199 5.215,6.286 7.955,9.273 4.557,4.913 11.54,9.527 17.211,13.96 l 0.008,-1.427 c -5.99,-5.213 -11.778,-10.664 -17.219,-16.533 -3.182,-3.469 -6.282,-7.036 -9.211,-10.806 -1.416,-1.939 -2.905,-3.795 -4.267,-5.802 -0.178,-0.259 -0.38,-0.561 -0.596,-0.892 -1.461,-2.231 -3.665,-5.9 -4.725,-7.795 2.358,0.822 5.955,4.302 8.153,5.308 2.215,0.994 4.302,2.135 6.457,3.196 0.668,0.352 1.309,0.74 1.971,1.103 10.898,-2.675 25.62,-3.294 36.484,-2.368 3.424,0.292 6.519,0.726 9.31,1.286 1.105,-0.926 2.201,-1.86 3.345,-2.75 1.808,-1.316 3.537,-2.7 5.412,-3.963 1.861,-1.273 3.747,-2.527 5.802,-3.646 -0.524,1.761 -1.161,3.43 -1.821,5.08 -0.18,0.452 -0.352,0.908 -0.537,1.356 -0.848,2.094 -1.843,4.073 -2.757,6.114 -1.938,3.996 -4.081,7.822 -6.325,11.568 -2.246,3.745 -4.667,7.35 -7.159,10.895 -2.015,2.846 -5.073,3.82 -7.229,6.557 l 0.341,55.113 1.785,-51.364 c -0.336,-0.707 3.088,-3.461 5.103,-6.307 2.492,-3.546 4.913,-7.148 7.159,-10.897 1.381,-2.303 2.7,-4.657 3.981,-7.044 0.8,-1.491 1.601,-2.984 2.344,-4.522 0.396,-0.887 0.809,-1.76 1.218,-2.637 3.152,1.697 5.334,3.788 6.494,6.282 17.369,37.301 35.987,131.312 36.772,135.294 l -1.768,0.846 4.104,0.138 c 0.063,0.308 0.063,0.303 0,-0.005 m -22.984,-145.65 c 3.271,13.038 6.629,27.324 9.88,41.695 8.838,1.971 17.526,4.382 26.039,7.24 -0.216,-12.503 -1.038,-26.53 -2.499,-39.558 -10.851,-3.925 -22.01,-7.047 -33.42,-9.377 m -16.451,-52.772 c 3.753,6.569 8.852,23.316 14.333,44.459 11.434,2.203 22.637,5.158 33.551,8.853 -0.283,-13.209 -1.306,-28.133 -3.107,-41.39 -14.432,-5.264 -29.402,-9.377 -44.777,-11.922 m 56.857,150.738 c -0.177,-12.514 -0.909,-26.463 -2.231,-39.647 -8.592,-3.079 -17.373,-5.695 -26.324,-7.841 3.237,14.516 6.319,28.856 9.045,41.807 6.595,1.664 13.104,3.549 19.51,5.681 m 2.465,8.93 c -6.582,-2.303 -13.325,-4.352 -20.2,-6.141 4.322,20.732 7.496,36.685 8.543,41.976 4.603,1.269 9.168,2.635 13.679,4.127 -0.143,-12.595 -0.805,-26.575 -2.022,-39.962 m -212.968,45.347 c 4.301,-1.586 10.633,-3.762 18.658,-6.103 0.581,-2.172 5.095,-19.088 11.389,-42.243 -10.661,2.999 -18.414,5.783 -22.521,7.358 -3.097,13.923 -5.667,28.295 -7.526,40.988 m 7.481,-49.545 c 5.385,-1.995 13.935,-4.903 25.031,-7.855 3.561,-13.055 7.545,-27.553 11.63,-42.228 -13.985,3.538 -24.142,7.158 -29.074,9.058 -3.16,13.823 -5.755,28.311 -7.587,41.025 m 7.481,-49.551 c 6.42,-2.387 17.337,-6.07 31.678,-9.489 4.064,-14.521 8.161,-28.958 11.979,-42.082 -17.501,3.863 -30.189,8.385 -35.948,10.628 -3.28,13.82 -5.931,28.488 -7.709,40.943 m 7.474,-49.551 c 7.442,-2.778 20.925,-7.208 38.754,-10.788 6.607,-22.401 12.079,-39.614 14.607,-44.525 -21.835,3.98 -37.963,9.923 -45.057,12.835 -3.603,13.924 -6.472,29.401 -8.304,42.478 m 96.697,-105.422 c -40.206,0 -71.265,10.776 -81.366,14.754 -3.452,13.062 -6.166,27.771 -7.862,40.177 13.424,-5.041 46.486,-16.475 89.113,-16.475 h 0.011 c 27.044,0 53.258,5.176 78.01,13.641 -0.326,-12.561 -1.393,-26.645 -3.228,-38.968 -23.684,-8.71 -48.795,-13.128 -74.678,-13.129 m 0.13,-50.065 h -0.008 c -35.537,0 -63.022,9.75 -73.193,13.926 -3.93,13.151 -6.943,29.263 -8.693,42.447 12.655,-4.778 42.784,-14.305 81.764,-14.305 25.364,0.002 50.03,4.099 73.413,12.184 -0.426,-13.306 -1.77,-28.649 -4.07,-41.117 -22.069,-8.187 -45.339,-13.135 -69.213,-13.135 m 0.156,-46.601 c -32.171,0 -56.831,8.4 -66.104,12.085 -3.929,12.24 -6.861,27.963 -8.491,40.665 11.859,-4.509 39.077,-13.781 74.431,-13.781 h 0.012 c 23.671,0 46.775,4.188 68.775,11.888 -0.525,-13.996 -2.137,-28.355 -4.563,-39.346 -20.546,-7.639 -42.078,-11.507 -64.06,-11.511 m 58.137,-37.922 c -18.725,-6.912 -38.195,-10.415 -57.942,-10.415 -27.285,-0.005 -48.326,6.769 -57.589,10.37 -4.72,10.946 -8.082,28.059 -9.754,41.673 11.029,-4.227 35.386,-12.047 67.14,-12.047 h 0.008 c 21.964,0 43.499,3.87 64.109,11.184 -0.697,-15.121 -2.842,-30.678 -5.972,-40.765 m -6.898,-49.796 c -16.574,-5.945 -33.633,-8.958 -50.81,-8.958 -21.279,0 -38.092,4.686 -47.403,8.038 -6.59,6.932 -10.938,27.433 -12.743,42.962 10.17,-3.927 31.715,-10.663 59.912,-10.659 20.235,0 40.18,3.503 59.389,10.425 -0.97,-16.947 -4.058,-34.517 -8.345,-41.808 m -219.021,454.561 c 0.043,-2.635 0.28,-5.357 0.552,-8.149 0.598,-5.582 1.625,-11.428 2.988,-17.426 1.276,-6.018 3.183,-12.115 5.053,-18.327 1.932,-6.199 4.176,-12.431 6.532,-18.629 2.332,-6.213 4.733,-12.413 7.256,-18.475 2.491,-6.084 4.945,-12.077 7.32,-17.873 4.77,-11.616 9.123,-22.561 12.341,-32.166 1.645,-4.784 3.009,-9.228 4.062,-13.214 1.124,-3.963 1.859,-7.494 2.413,-10.393 0.577,-2.901 0.849,-5.209 1.005,-6.786 0.175,-1.566 0.268,-2.4 0.268,-2.4 0,0 -0.24,0.806 -0.693,2.315 -0.408,1.518 -1.161,3.699 -2.118,6.459 -0.964,2.756 -2.23,6.065 -3.774,9.823 -1.521,3.76 -3.402,7.944 -5.435,12.51 -4.251,9.083 -9.209,19.678 -14.522,31.031 -2.61,5.719 -5.426,11.592 -7.989,17.708 -2.625,6.083 -5.165,12.34 -7.612,18.647 -4.658,12.698 -8.805,25.708 -10.989,38.372 -1.23,6.293 -1.811,12.513 -2.042,18.412 -0.241,5.904 0.085,11.518 0.832,16.627 0.254,2.561 0.911,4.977 1.352,7.273 0.542,2.284 1.288,4.398 1.863,6.396 1.415,3.93 2.86,7.258 4.353,9.865 1.294,2.698 2.752,4.491 3.604,5.823 0.889,1.304 1.359,1.997 1.359,1.997 0,0 -0.341,-0.766 -0.985,-2.208 -0.617,-1.439 -1.673,-3.536 -2.551,-6.297 -1.056,-2.681 -1.918,-6.102 -2.843,-9.988 -0.759,-3.939 -1.392,-8.395 -1.601,-13.292 -0.078,-2.45 -0.18,-4.991 0.001,-7.635 m 212.255,-500.057 c -11.181,-4.928 -26.873,-7.75 -43.055,-7.75 -17.431,0 -33.302,3.3 -41.417,8.605 -6.728,4.401 -10.78,22.988 -12.307,37.133 9.272,-3.621 28.051,-9.455 52.735,-9.455 18.487,0 36.827,3.302 54.614,9.824 -1.277,-17.727 -5.327,-36.049 -10.57,-38.357 m 116.665,507.692 c -0.211,4.897 -0.845,9.353 -1.603,13.292 -0.926,3.886 -1.789,7.307 -2.842,9.988 -0.878,2.761 -1.936,4.858 -2.552,6.297 -0.642,1.442 -0.985,2.208 -0.985,2.208 0,0 0.471,-0.693 1.358,-1.997 0.85,-1.332 2.308,-3.125 3.604,-5.823 1.496,-2.607 2.938,-5.935 4.355,-9.865 0.574,-1.998 1.32,-4.112 1.862,-6.396 0.44,-2.296 1.097,-4.712 1.352,-7.273 0.75,-5.109 1.072,-10.723 0.831,-16.627 -0.232,-5.899 -0.813,-12.119 -2.039,-18.412 -2.187,-12.664 -6.332,-25.674 -10.987,-38.372 -2.449,-6.307 -4.99,-12.564 -7.62,-18.647 -2.557,-6.116 -5.376,-11.989 -7.984,-17.708 -5.315,-11.353 -10.274,-21.948 -14.523,-31.031 -2.035,-4.566 -3.917,-8.75 -5.435,-12.51 -1.546,-3.758 -2.812,-7.067 -3.777,-9.823 -0.957,-2.76 -1.711,-4.941 -2.116,-6.459 -0.453,-1.509 -0.694,-2.315 -0.694,-2.315 0,0 0.093,0.834 0.268,2.4 0.154,1.577 0.426,3.885 1.004,6.786 0.556,2.899 1.293,6.43 2.414,10.393 1.049,3.986 2.416,8.43 4.064,13.214 3.219,9.605 7.572,20.55 12.34,32.166 2.375,5.796 4.831,11.789 7.321,17.873 2.523,6.062 4.924,12.262 7.255,18.475 2.355,6.198 4.6,12.43 6.533,18.629 1.87,6.21 3.779,12.309 5.053,18.326 1.363,5.999 2.39,11.845 2.991,17.427 0.27,2.792 0.508,5.514 0.552,8.149 0.178,2.644 0.077,5.185 0,7.635 m 49.419,96.429 c -53.092,26.886 -108.748,8.091 -131.987,-2.235 l -16.702,-2.235 -4.053,4.833 c 0,0 -13.387,-5.314 -31.227,-9.558 l -33.413,-4.471 c -25.878,2.118 -61.311,17.178 -61.693,17.34 l -2.57,1.102 -7.905,-8.398 -8.044,1.197 c -19.125,9.438 -76.247,32.334 -132.251,2.425 -81.209,-43.371 -51.872,-158.942 -24.991,-207.925 46.73,-85.153 181.933,-239.912 157.943,-382.86 0,0 5.859,-5.377 13.605,-11.017 l 0.051,-0.511 0.695,-0.028 c 1.113,-0.802 2.262,-1.604 3.436,-2.394 l -0.022,-0.035 c 0.06,-0.039 0.573,-0.375 1.459,-0.919 4.377,-2.857 9.013,-5.468 13.358,-7.11 13.491,-6.337 34.874,-14.114 58.569,-14.114 16.248,0 33.575,3.665 50.188,13.946 14.102,2.709 31.047,20.667 31.047,20.667 -27.091,142.394 104.717,300.05 149.588,386.201 25.809,49.554 57.049,164.503 -25.081,206.099"
           style="fill:#000000;fill-opacity:1;fill-rule:nonzero;stroke:none"
           id="path871"
           inkscape:connector-curvature="0" /></g></marker></defs><sodipodi:namedview
     pagecolor="#ffffff"
     bordercolor="#666666"
     borderopacity="1"
     objecttolerance="10"
     gridtolerance="10"
     guidetolerance="10"
     inkscape:pageopacity="0"
     inkscape:pageshadow="2"
     inkscape:window-width="1920"
     inkscape:window-height="1017"
     id="namedview3159"
     showgrid="false"
     inkscape:zoom="0.74049389"
     inkscape:cx="447.67419"
     inkscape:cy="183.6612"
     inkscape:window-x="1912"
     inkscape:window-y="-8"
     inkscape:window-maximized="1"
     inkscape:current-layer="g3165"
     inkscape:showpageshadow="2"
     inkscape:pagecheckerboard="0"
     inkscape:deskcolor="#d1d1d1"
     showguides="false" /><g
     id="g3165"
     inkscape:groupmode="layer"
     inkscape:label="cobra-snake--publicdomainvectors.org"
     transform="matrix(1.3333333,0,0,-1.3333333,0,1066.6667)"><path
       id="path8722-6-0"
       style="fill:#ffffff;fill-opacity:0.5;stroke-width:0.495679"
       d="m 181.30804,479.43333 c -3.15746,0.16322 -5.92833,1.94483 -8.30461,3.89381 -2.08383,1.69482 -4.1391,3.33779 -6.49174,4.68273 -2.02156,1.38636 -3.36324,3.57128 -5.49543,4.81837 -2.89208,2.05347 -5.869,4.03148 -8.40241,6.53256 -2.46844,1.95712 -5.19197,3.62093 -7.35515,5.93864 -1.24812,1.23969 -2.77327,2.1291 -4.20207,3.13332 -3.52039,2.60405 -6.66481,5.67039 -10.12446,8.35117 -1.90859,1.56874 -3.96049,2.95515 -5.87706,4.51145 -2.10712,1.85137 -4.3021,3.59897 -6.5613,5.2604 -1.70834,1.32426 -3.28714,2.80452 -4.90688,4.23053 -2.23172,1.69897 -4.58947,3.25682 -6.5704,5.25946 -2.11008,1.97227 -4.40606,3.72857 -6.72758,5.44086 -1.655238,1.29264 -3.114738,2.81278 -4.552344,4.33348 -3.590275,2.79902 -7.013516,5.81268 -10.279342,8.98237 -0.666868,0.7472 -1.410587,1.41764 -2.250606,1.96402 -0.874468,0.64083 -1.574619,1.4789 -2.264775,2.30078 -1.053636,0.7739 -2.010329,1.66238 -2.91275,2.60692 -3.676003,3.76403 -7.17732,7.69469 -10.898825,11.41567 -2.538851,2.41043 -4.311123,5.46314 -6.484936,8.17736 -2.318484,3.07695 -4.752049,6.08343 -7.215728,9.00989 -1.365292,1.76728 -2.055473,3.9335 -3.302017,5.7772 -1.899537,2.94197 -3.778506,5.89982 -5.456141,8.97582 -2.212419,4.00572 -4.291848,8.09146 -6.012358,12.33536 -1.363268,3.38257 -3.002804,6.66585 -3.992778,10.18823 -1.701638,5.61457 -2.961107,11.35385 -4.058567,17.11345 -1.307622,7.27109 -1.908349,14.68629 -1.495931,22.0703 0.215538,4.77786 0.297015,9.59325 1.253487,14.2965 0.591631,3.14167 1.359191,6.32415 1.886495,9.42971 0.29014,1.99943 0.48405,4.03757 1.20787,5.94172 0.481721,1.28901 1.154165,2.49481 1.660418,3.77505 2.332883,5.4286 4.579978,10.99577 8.222651,15.70947 2.500081,3.29737 5.610644,6.06015 8.789415,8.68297 1.634097,1.44667 3.315155,2.90093 5.339236,3.77655 6.776869,3.20192 13.777254,5.92219 20.912281,8.21519 1.909715,0.59879 3.492642,1.85751 5.028029,3.09292 3.000166,2.34206 6.158604,4.47037 9.213807,6.73824 3.991088,2.92155 8.044929,5.77988 12.386879,8.16251 2.74246,1.49159 5.13069,3.54319 7.86726,5.04679 8.02737,4.461 17.01371,6.95314 26.07583,8.1917 7.84657,1.04141 15.91338,1.07107 23.65515,-0.71973 3.96924,-1.00056 7.80289,-2.47212 11.5774,-4.04008 2.74481,-1.27589 5.28752,-2.977 8.15284,-3.99293 3.07865,-1.22346 5.6282,-3.40368 8.55102,-4.91698 1.13681,-0.48708 2.30752,-0.91395 3.35167,-1.5929 1.78634,-1.12735 3.47761,-2.40032 5.28993,-3.48924 1.85658,-1.15862 3.70561,-2.33093 5.46332,-3.6368 1.04492,-0.7274 2.17986,-1.43878 3.28333,-1.92232 5.01572,-2.35467 10.47033,-3.56155 15.38079,-6.17365 3.14613,-1.71518 6.39212,-3.63584 8.37713,-6.72077 1.99282,-3.03716 2.42203,-6.7311 2.90974,-10.24483 0.67736,-4.19338 0.53724,-8.69033 -1.39355,-12.55165 -1.38005,-2.88455 -3.16651,-5.57103 -5.19765,-8.03511 -2.43051,-2.64953 -6.14737,-4.02654 -9.71858,-3.61912 -2.42957,0.13216 -4.88223,0.64298 -7.29449,0.45117 -2.57788,-0.0186 -5.05021,0.84249 -7.60015,1.09556 -5.04794,0.72634 -10.09795,1.4511 -15.12752,2.28854 -2.23181,0.0158 -4.41773,0.50936 -6.56584,1.07059 -2.32363,0.55141 -4.75559,1.24461 -7.14722,0.70051 -0.44844,-0.25464 -0.36394,-0.88009 -0.48965,-1.3156 -0.23093,-1.81228 -0.0394,-3.64456 -0.14453,-5.46459 0.0393,-0.38648 -0.0975,-0.9064 0.0512,-1.20998 2.3779,-0.64867 4.65641,-1.60866 7.00771,-2.3442 2.88674,-0.97325 5.88852,-1.52743 8.84979,-2.21814 1.64642,-0.35637 3.28766,-0.75799 4.96766,-0.91197 1.52952,-0.20837 3.01346,-0.67351 4.5208,-0.96786 1.27547,0.0388 2.55888,0.20256 3.82649,-0.0398 3.54028,-0.47689 6.98583,-2.6204 8.46004,-5.95571 1.70431,-3.67259 0.97648,-8.24266 -1.43286,-11.3954 -1.84091,-2.68218 -4.65497,-4.45097 -7.4274,-6.03585 -0.80274,-0.61969 -1.54349,-1.31402 -2.31061,-1.97622 -4.3461,-0.31803 -8.62935,0.92439 -12.58274,2.62751 -4.27669,1.68552 -8.51298,3.54317 -12.79147,5.14521 -3.00866,0.95378 -6.10838,1.58903 -9.20651,2.17009 -1.72328,0.24386 -3.52739,0.5379 -5.25725,0.94428 -1.41291,0.28659 -2.82334,0.52342 -4.30416,0.73983 -0.75612,0.11328 -1.51468,0.20891 -2.2724,0.31071 -1.40366,-2.23595 -2.99201,-4.44536 -3.68458,-7.0428 -0.42391,-1.37708 -1.01311,-2.69638 -1.54663,-4.02964 -0.45404,-1.84536 -0.50152,-3.77078 -1.06341,-5.59388 -0.6151,-2.47237 -1.16159,-4.97503 -1.28978,-7.52673 -0.26166,-2.69878 -0.48749,-5.34458 -0.40174,-8.07622 0.11058,-2.94661 0.41005,-5.85341 0.75525,-8.76724 0.14345,-1.07407 0.33007,-2.29082 0.55612,-3.4087 0.8,-3.44514 1.65645,-6.87614 2.47572,-10.31637 -0.0508,-0.28421 0.15646,-0.63717 0.20361,-0.9484 0.81059,-2.82437 1.68502,-5.55881 2.79291,-8.28453 0.57791,-1.4214 1.26044,-2.93546 1.99733,-4.33672 1.49126,-2.94257 3.26465,-5.73372 4.84099,-8.62548 0.3002,-0.81814 0.78732,-1.55434 1.13908,-2.35195 1.57689,-3.07204 3.04974,-6.21714 4.94964,-9.10583 1.15401,-1.09734 1.91852,-2.51227 2.65288,-3.90265 1.8444,-2.85911 4.03645,-5.51287 5.91408,-8.32083 1.64587,-2.39355 3.45525,-4.7358 5.28939,-7.02074 5.13003,-6.49964 10.41527,-12.8753 15.79131,-19.17243 0.7777,-0.9179 1.48207,-1.90669 2.28037,-2.80065 1.58827,-0.93043 3.03522,-2.13782 4.05505,-3.6844 0.71337,-1.04922 1.24038,-2.2292 1.51633,-3.4687 2.22194,-0.96535 3.8789,-2.86938 5.04789,-4.94314 0.89673,-1.44502 1.90568,-2.83142 3.18401,-3.96527 3.45808,-3.33233 6.42836,-7.12173 9.41855,-10.86668 2.00316,-1.99251 3.93729,-4.22679 4.73212,-6.99861 0.93012,-2.98191 0.4636,-6.41473 -1.44206,-8.92314 -1.91781,-2.74114 -4.89306,-4.41826 -7.58465,-6.28752 -7.24685,-4.78537 -14.80923,-9.1454 -22.81155,-12.54422 -3.79729,-1.55708 -7.77433,-2.88213 -11.90223,-3.09751 -0.30826,-0.0107 -0.61651,-0.01 -0.92487,-0.005 z" /><path
       id="path2334"
       style="fill:#9c9ea0;fill-opacity:0.5;stroke:none;stroke-width:0.17266"
       d="m 123.41248,719.7966 c -0.0466,0.002 -0.0846,-0.0114 -0.12759,-0.0275 -1.67014,-0.62499 -7.55498,-4.49918 -12.41851,-8.17596 -2.17765,-1.64628 -4.61991,-3.41754 -5.42709,-3.93537 -1.10908,-0.71151 -2.35535,-1.83208 -5.10029,-4.58703 -4.521593,-4.53807 -6.603535,-7.0811 -10.479282,-12.79635 -3.42192,-5.04602 -4.732517,-7.3728 -5.557616,-9.87278 -0.256467,-0.77708 -0.878467,-2.22545 -1.382778,-3.21798 -0.991889,-1.95214 -2.695752,-6.89199 -3.524177,-10.21824 -0.645395,-2.59135 -1.83447,-8.85295 -2.180648,-11.48227 -0.143782,-1.09208 -0.354273,-3.57128 -0.468123,-5.50952 -0.726107,-12.36176 2.145269,-26.84032 8.07488,-40.71299 4.14478,-9.69698 9.189875,-18.3264 16.375484,-28.01085 1.4487,-1.95249 3.28693,-4.51232 4.08552,-5.68912 0.7986,-1.1768 1.52593,-2.24067 1.61636,-2.36319 0.12094,-0.16387 0.22275,-0.0546 0.38568,0.41317 0.12182,0.34969 0.22324,0.65866 0.22474,0.68599 0.007,0.14216 7.82866,5.18316 9.77858,6.30249 4.95233,2.84284 23.439,12.38496 27.26793,14.0751 0.85019,0.37529 2.39573,1.15695 3.43487,1.73608 1.03914,0.57913 1.96318,1.07769 2.05405,1.10799 0.0909,0.0303 -0.32632,0.94414 -0.92741,2.03148 -3.14216,5.68388 -4.88773,10.27552 -7.51451,19.76128 -0.63113,2.27911 -1.17427,4.17169 -1.20613,4.20526 -0.16236,0.17085 -7.11688,-2.38105 -10.43905,-3.83037 -1.18704,-0.51785 -4.45008,-1.73231 -7.25149,-2.69784 -6.46311,-2.22757 -7.42106,-2.56929 -13.81308,-4.92953 -6.41419,-2.36842 -9.350318,-3.35351 -12.321354,-4.13459 -5.775633,-1.51843 -7.880568,-1.4674 -7.880568,0.19038 0,1.25127 1.902338,2.63831 7.684288,5.60571 1.804301,0.926 4.027014,1.95326 4.939344,2.28271 0.91231,0.32945 2.8544,1.08106 4.31615,1.67033 6.66127,2.6853 23.61264,7.77281 30.80094,9.24372 1.61438,0.33034 3.02046,0.63172 3.12475,0.6693 0.13561,0.0489 0.12682,0.37991 -0.0324,1.16295 -0.30771,1.51338 -0.87669,6.56745 -1.1237,9.98663 -0.23284,3.22313 -0.13245,7.52571 0.26891,11.56765 0.35379,3.56295 0.52135,4.57248 1.32782,7.99932 0.3761,1.59814 0.75707,3.5528 0.84694,4.34363 0.095,0.83634 0.40956,2.11283 0.75174,3.05114 0.32357,0.88725 1.01048,2.78696 1.52607,4.22194 0.51558,1.43499 1.13259,2.95826 1.371,3.38482 l 0.43279,0.7753 -2.17476,0.1109 c -1.19628,0.061 -2.95238,0.23127 -3.90201,0.37783 -3.99922,0.61721 -15.12792,1.23914 -18.73376,1.04715 -1.09208,-0.0581 -3.03416,-0.0313 -4.31616,0.0599 -4.21586,0.29971 -12.35399,-0.34187 -23.017529,-1.81558 -5.11927,-0.70748 -7.023618,-0.76567 -7.557691,-0.2316 -0.453315,0.45332 -0.329792,1.12503 0.303252,1.64874 0.427212,0.35342 4.453183,1.99632 7.152371,2.91865 7.171637,2.45058 23.248737,4.6072 36.155407,4.84905 6.38893,0.11971 18.50143,-0.1787 21.75547,-0.53584 4.1466,-0.45511 9.71434,-1.28466 12.81499,-1.9088 1.63677,-0.32947 3.19783,-0.59865 3.46922,-0.59865 0.60832,0 7.66377,-1.5669 9.78741,-2.17378 0.85466,-0.24424 2.99114,-1.03083 4.74796,-1.74786 12.45435,-5.08314 14.70459,-5.91975 15.92307,-5.91975 0.26671,0 0.89157,0.26033 1.38866,0.57903 0.4971,0.31869 1.48707,0.93435 2.1993,1.36805 2.39519,1.45854 3.79798,3.26314 3.79798,4.88439 0,0.67531 -0.0887,0.88849 -0.57117,1.371 -0.77958,0.77958 -1.68596,0.99311 -3.62624,0.85283 -1.44812,-0.1047 -1.81285,-0.0605 -4.19152,0.50836 -1.43294,0.34267 -2.90742,0.62318 -3.27588,0.62318 -0.6588,0 -4.12938,0.74461 -9.74521,2.09134 -1.56689,0.37576 -4.20784,1.15359 -5.86969,1.72823 -3.20474,1.10815 -5.03144,1.67214 -6.98456,2.15611 -0.76299,0.18907 -2.90302,1.14454 -5.87067,2.6213 -2.56841,1.27808 -5.63276,2.74108 -6.80988,3.25135 -2.83824,1.23036 -4.63316,2.22283 -7.44286,4.11496 -6.77158,4.56018 -14.28641,10.85464 -20.20094,16.92114 -5.6543,5.79959 -6.39146,6.55379 -6.71762,6.5655 z m 29.24151,-126.5032 -0.77236,-0.56823 c -1.62552,-1.19366 -18.67998,-11.08258 -25.89595,-15.01625 -2.23163,-1.21654 -4.91147,-2.68058 -5.95606,-3.25233 -1.04459,-0.57175 -3.50134,-1.99819 -5.45947,-3.17087 -1.95813,-1.17268 -3.65459,-2.13256 -3.76952,-2.13256 -0.11493,0 0.17531,-0.40825 0.64575,-0.9068 1.27711,-1.35345 3.54229,-4.06322 5.63613,-6.74412 1.02432,-1.31152 2.94871,-3.52087 4.2769,-4.9099 1.32819,-1.38903 3.22182,-3.58824 4.2082,-4.88733 0.98638,-1.29908 2.04698,-2.55575 2.3573,-2.79303 0.31032,-0.23728 1.14751,-1.10502 1.85973,-1.92745 0.71223,-0.82243 1.46314,-1.53871 1.66837,-1.59182 0.20523,-0.0531 0.70969,0.0534 1.12173,0.23652 1.09102,0.485 23.45542,13.80171 26.30323,15.66201 1.32948,0.86847 3.03827,2.14212 3.79797,2.83131 0.75971,0.68919 1.61509,1.3781 1.89998,1.52999 0.73898,0.394 1.82975,0.35412 2.45249,-0.0893 1.17262,-0.83498 2.98637,-3.7671 2.98637,-4.82844 0,-0.46633 -0.13626,-0.72479 -0.6114,-1.16 -0.79102,-0.72454 -4.20738,-2.74785 -8.02189,-4.7519 -1.66185,-0.87309 -3.75945,-2.11552 -4.6616,-2.76065 -0.90215,-0.64513 -2.65081,-1.75033 -3.88533,-2.45642 -1.23452,-0.70608 -3.86035,-2.23536 -5.83535,-3.39757 -3.64835,-2.14691 -7.34438,-4.06471 -9.53126,-4.94621 -0.66474,-0.26795 -1.27015,-0.53858 -1.34549,-0.60159 -0.31994,-0.26764 1.89805,-2.82281 4.8677,-5.60767 0.60758,-0.56977 2.6373,-2.70626 4.51047,-4.74796 1.87317,-2.04171 4.44271,-4.72253 5.71071,-5.95705 3.89452,-3.79167 4.20178,-4.11095 4.98645,-5.17977 0.95412,-1.29967 4.36167,-4.81588 5.96096,-6.15136 0.66474,-0.55509 1.2322,-1.0103 1.26109,-1.01181 0.0289,-0.002 0.57226,0.44592 1.20809,0.99316 1.65706,1.42619 5.32918,4.14296 8.92575,6.60476 1.70933,1.17002 4.57453,3.17148 6.36726,4.44668 5.80678,4.13048 9.12923,6.21935 10.63336,6.68719 0.23374,0.0727 0.64946,0.35701 0.92448,0.63202 0.27501,0.27502 1.23117,0.93011 2.12372,1.4554 1.76763,1.0403 2.24281,1.61796 2.05111,2.49077 -0.12366,0.56305 -1.13377,1.5454 -2.10607,2.04718 -0.78443,0.40484 -1.49222,1.14248 -3.08451,3.21602 -0.6563,0.85467 -2.36489,2.91339 -3.79602,4.57524 -3.31347,3.84771 -6.44119,7.6476 -11.29972,13.72671 -3.97616,4.97505 -5.38204,6.83266 -8.80602,11.6334 -1.09208,1.5312 -2.66548,3.73586 -3.49571,4.8991 -0.83024,1.16325 -1.67924,2.46483 -1.88722,2.89216 -0.20797,0.42733 -0.74091,1.18699 -1.18453,1.68898 -0.98898,1.11908 -2.31005,3.42903 -5.15623,9.01505 z" /><path
       style="fill:#264e97;fill-opacity:0.5;stroke:none;stroke-width:0.488357"
       d="m 176.36311,491.20233 c -2.55167,1.87854 -5.7382,4.39305 -7.08118,5.58779 -1.34298,1.19475 -3.76035,3.08332 -5.37193,4.19684 -1.61158,1.11352 -3.53567,2.59339 -4.27576,3.28859 -0.74009,0.69521 -2.76515,2.37551 -4.50015,3.734 -6.76442,5.29651 -8.27181,6.50057 -12.61428,10.0759 -2.47101,2.03447 -6.03539,4.89136 -7.92084,6.34864 -1.88546,1.45727 -4.4127,3.45682 -5.61611,4.44343 -1.2034,0.98661 -4.29833,3.51386 -6.87762,5.61611 -2.57928,2.10224 -7.51974,6.12975 -10.97881,8.95002 -3.45906,2.82026 -7.18967,6.00679 -8.29026,7.08117 -1.10058,1.07439 -3.734049,3.38188 -5.852159,5.12775 -7.511222,6.19123 -24.122487,23.29506 -30.026914,30.91728 -6.458055,8.33693 -6.321091,8.1415 -10.675493,15.23248 -6.851938,11.15813 -11.940567,22.04385 -14.405629,30.81687 -5.753605,20.47679 -5.988355,37.58001 -0.817537,59.56401 0.77555,3.29731 5.736431,13.90376 8.172203,17.47233 1.338887,1.96156 4.115969,4.93264 6.715327,7.18444 3.936767,3.41038 5.146478,4.13856 10.820105,6.5131 3.513288,1.47039 8.763989,3.49426 11.668222,4.49749 2.904232,1.00323 6.244274,2.50072 7.422309,3.32777 1.178041,0.82704 6.294486,4.47049 11.369885,8.09654 18.628571,13.30894 27.150301,17.58808 39.335511,19.7521 10.33106,1.83473 19.19991,1.49869 27.33644,-1.03578 4.25479,-1.32533 16.46089,-7.10457 20.60709,-9.75686 1.41841,-0.90735 3.13672,-1.86179 3.81844,-2.12098 0.68174,-0.2592 4.03815,-2.31268 7.4587,-4.5633 7.6212,-5.01451 9.57338,-6.0145 17.28722,-8.85527 6.70739,-2.47012 10.33382,-4.58026 11.91547,-6.93332 0.68291,-1.016 1.24775,-3.062 1.64222,-5.94858 l 0.60129,-4.39992 -3.76489,-5.44511 -3.76488,-5.44509 -4.69759,0.26598 c -4.57944,0.25928 -28.63606,3.73447 -32.53393,4.6998 -1.07439,0.26609 -3.66196,0.49753 -5.75016,0.51434 -3.0895,0.0249 -4.17759,-0.17972 -5.84138,-1.09825 -2.58767,-1.42857 -4.1762,-3.77372 -4.57072,-6.7477 l -0.30867,-2.32689 -3.95552,2.42764 c -12.51679,7.68203 -22.81534,17.70075 -28.85712,28.07305 -1.94108,3.33235 -3.76376,5.03728 -5.38521,5.03728 -1.67716,0 -12.76516,-4.15054 -17.71022,-6.62942 -24.447285,-12.25502 -41.573433,-39.5381 -44.580325,-71.01937 -0.997095,-10.4393 -0.540987,-15.81799 2.722684,-32.10763 2.042192,-10.19298 3.526338,-14.41873 8.772959,-24.97886 7.028648,-14.14692 16.38054,-26.7145 30.948482,-41.59023 4.58779,-4.68473 8.34174,-8.64815 8.34211,-8.80762 4.9e-4,-0.30573 6.04679,-5.96854 23.62179,-22.12437 5.8738,-5.3995 13.59084,-12.61922 17.14897,-16.04382 3.55813,-3.42461 6.8358,-6.22656 7.28372,-6.22656 1.48503,0 5.84389,2.5065 11.03742,6.34691 2.82027,2.08546 6.77384,4.83939 8.78573,6.11982 2.01188,1.28044 6.19641,4.27349 9.29896,6.65124 3.10255,2.37775 5.96155,4.31523 6.35335,4.30551 0.3918,-0.01 1.48152,-1.10171 2.42161,-2.42664 0.94009,-1.32494 3.46733,-4.35034 5.61611,-6.72312 5.94328,-6.56289 9.64305,-11.0664 10.09497,-12.28805 0.55297,-1.49483 -1.04215,-2.92899 -8.552,-7.68898 -10.81655,-6.85587 -22.93028,-12.383 -27.08484,-12.35796 -0.85548,0.005 -2.94534,1.20615 -5.95717,3.42346 z m 30.64441,232.2537 c 0.60434,0.16794 1.09881,0.47245 1.09881,0.67671 0,0.20426 -3.21753,1.75731 -7.15005,3.45123 -7.26838,3.13081 -16.51211,8.14363 -21.11534,11.45072 -1.39839,1.00465 -2.66786,1.70131 -2.82103,1.54813 -0.59121,-0.59121 4.37841,-7.18351 8.08457,-10.72436 6.07083,-5.80004 9.65939,-7.31977 16.40902,-6.94912 2.41737,0.13275 4.88968,0.37876 5.49402,0.54669 z"
       id="path2658" /><path
       style="fill:#ffd43b;fill-opacity:0.49824563;stroke-width:0.756174;stroke-dasharray:none"
       d="m 605.91806,470.24413 c -2.67482,0.0181 -5.34322,0.34383 -7.98946,0.90118 -1.3462,0.28135 -2.82927,0.62227 -4.21942,1.00492 -1.87367,0.51143 -3.87583,1.15307 -5.77819,1.85421 -4.05954,1.4916 -8.17699,3.40024 -12.17522,5.43364 -6.60048,3.36165 -13.25921,6.72485 -19.74513,10.39991 -5.85187,3.31416 -11.52221,7.25912 -17.3651,10.60589 -2.05594,1.19375 -4.18712,2.26433 -6.03222,4.07312 -1.69601,1.87934 -3.80901,2.63775 -5.78662,3.65812 -1.03397,0.53524 -2.03253,1.22119 -2.88895,2.2274 -2.76489,2.51864 -5.64928,4.77668 -8.62905,6.71477 -4.66919,3.10309 -9.14372,6.77247 -13.74366,10.0796 -2.94993,2.18704 -5.9741,4.15159 -8.95631,6.24287 -4.82879,3.42295 -9.17876,8.06972 -13.95208,11.64138 -2.01042,1.59162 -4.18698,2.66908 -6.21514,4.21096 -4.67423,3.56137 -9.35395,7.1046 -14.05458,10.59232 -3.44031,2.6038 -6.91871,5.11353 -10.29427,7.89034 -2.15808,1.73739 -4.51372,2.88002 -6.77424,4.29967 -5.11829,3.08569 -10.07844,6.69873 -15.24185,9.62959 -3.69601,2.10834 -7.47761,3.88321 -11.21254,5.83984 -6.17627,3.11808 -12.63864,4.87087 -19.10882,6.11104 -6.36173,1.13926 -12.79999,1.7961 -19.20492,1.11083 -4.55513,-0.62 -9.06799,-1.79535 -13.53971,-3.17976 -2.06899,-0.70465 -4.18131,-1.30755 -6.13664,-2.54599 -1.89166,-1.84925 -4.17911,-2.50786 -6.19301,-4.01094 -4.85401,-3.37224 -9.46479,-7.4464 -13.91485,-11.82532 -2.28475,-2.19096 -4.33422,-4.84947 -6.62586,-7.02322 -0.62587,-0.50461 -1.27563,-1.26632 -2.01547,-1.23634 -0.47512,0.65705 0.0432,1.56405 0.21001,2.2645 1.43811,4.14175 3.54345,7.67977 5.6191,11.16717 1.19814,2.12458 2.25145,4.41283 3.19183,6.79034 1.9422,3.77882 4.19887,7.19056 6.39758,10.65328 7.80385,11.99996 16.26452,23.215 25.73397,32.40975 4.48856,4.42209 9.37973,7.8646 14.0849,11.75562 3.76881,2.99798 7.84227,5.44602 11.86819,7.76803 4.22146,2.38301 8.49151,4.65106 12.91224,6.1318 3.75753,1.41235 7.4561,3.17626 11.28486,4.16535 6.05331,1.66395 12.21285,2.35347 18.36411,2.64822 4.24093,0.18362 8.6033,0.15109 12.89069,0.0502 3.36346,-0.089 6.74417,-0.31168 10.10114,-1.05881 2.67412,-0.58725 5.45368,-1.40302 8.14707,-2.23683 12.63246,-3.98575 25.01342,-10.2209 36.19126,-19.73423 4.01509,-3.40653 7.88371,-7.19441 11.43902,-11.55256 6.60807,-7.98784 12.81634,-16.71445 18.8777,-25.61138 5.83691,-8.57579 11.45959,-17.45264 16.95131,-26.49275 4.89524,-7.78733 9.99953,-15.31234 15.41846,-22.33675 1.51207,-1.98293 3.12599,-3.78956 4.786,-5.50137 1.62228,-1.76509 3.11219,-3.76464 4.54265,-5.84323 1.73318,-2.32698 3.69893,-4.24608 5.73157,-5.97513 2.02479,-1.81736 3.89805,-3.94696 5.79805,-6.01757 6.26062,-6.56243 13.57885,-10.67113 21.02225,-13.42728 4.69139,-1.70368 9.66937,-2.42859 14.41763,-0.75657 4.05168,1.38694 7.79681,4.18489 11.32516,7.32062 1.18143,1.1651 2.54073,2.36504 3.06529,4.39493 0.17201,1.45325 0.86212,2.62331 1.40728,3.83075 1.57006,2.98657 2.57744,6.49431 3.53615,9.95563 1.15561,4.43281 2.08607,9.05498 2.19493,13.8214 0.1308,4.59105 0.13831,9.19584 -0.0286,13.78499 -0.26778,6.27957 -1.52012,12.34517 -2.7031,18.36209 -0.98079,4.71082 -1.99544,9.43051 -3.44872,13.88777 -2.45859,8.314 -4.53286,16.85031 -6.81975,25.26332 -0.20749,1.00505 -0.45771,2.51511 0.29032,3.17599 0.61074,0.48144 1.35213,0.25017 1.84604,-0.4248 1.81538,-2.2007 3.17067,-5.05941 4.63838,-7.72161 1.86569,-3.55478 3.59039,-7.06335 5.30777,-10.79418 2.06225,-4.55812 4.13814,-9.16475 5.51694,-14.26221 0.77938,-2.68696 1.70265,-5.2779 2.5387,-7.92595 1.27299,-4.5389 2.21346,-9.26482 3.09355,-13.9432 1.10786,-6.13446 2.17256,-12.32695 2.50486,-18.6693 0.47866,-8.34828 0.50854,-16.77261 -0.10788,-25.10745 -0.51042,-6.43752 -1.69997,-12.73555 -3.23856,-18.80785 -0.71873,-2.68686 -1.46722,-5.43242 -2.77046,-7.65177 -1.14172,-2.2385 -2.00451,-4.73169 -2.90481,-7.17653 -1.20614,-2.83815 -3.00974,-5.03146 -4.64712,-7.24078 -1.8102,-2.27731 -3.5607,-4.665 -5.46006,-6.78669 -3.4556,-3.49338 -7.35436,-5.98315 -11.3429,-7.89324 -2.18275,-1.04349 -4.44018,-1.71996 -6.72035,-2.12106 -0.81648,-0.1525 -1.81169,-0.31501 -2.6987,-0.44123 -4.17406,-0.57217 -8.36993,-0.84207 -12.56263,-0.78945 z"
       id="path592" /><text
       xml:space="preserve"
       style="font-style:normal;font-weight:normal;font-size:180px;line-height:0.85;font-family:sans-serif;text-align:start;letter-spacing:0px;word-spacing:0px;text-anchor:start;fill:#9c9ea0;fill-opacity:0.49824563;stroke:none;stroke-width:0.99975;stroke-dasharray:none"
       x="513.69824"
       y="-674.64484"
       id="text5581-3"
       transform="scale(1,-1)"><tspan
         sodipodi:role="line"
         style="font-style:normal;font-variant:normal;font-weight:bold;font-stretch:normal;font-size:120px;font-family:'Century Gothic';-inkscape-font-specification:'Century Gothic Bold';text-align:center;text-anchor:middle;fill:#9c9ea0;fill-opacity:0.49824563;stroke:none;stroke-width:0.99975;stroke-dasharray:none;stroke-opacity:1"
         x="513.69824"
         y="-674.64484"
         id="tspan409-7"
         dx="0">COBRA</tspan><tspan
         sodipodi:role="line"
         style="font-style:normal;font-variant:normal;font-weight:normal;font-stretch:normal;font-size:140px;font-family:'Century Gothic';-inkscape-font-specification:'Century Gothic';text-align:center;text-anchor:middle;fill:#9c9ea0;fill-opacity:0.49824563;stroke:#b1b1b1;stroke-width:0.99975;stroke-dasharray:none;stroke-opacity:1"
         x="513.69824"
         y="-521.64484"
         id="tspan1527">DataLab</tspan></text></g></svg>
