<?xml version="1.0" encoding="UTF-8" standalone="no"?>
<svg
   width="256"
   height="256"
   id="svg2"
   version="1.1"
   inkscape:version="1.1 (c68e22c387, 2021-05-23)"
   sodipodi:docname="codraft_titleicon.svg"
   inkscape:export-filename="codraft_titleicon.png"
   inkscape:export-xdpi="90"
   inkscape:export-ydpi="90"
   xmlns:inkscape="http://www.inkscape.org/namespaces/inkscape"
   xmlns:sodipodi="http://sodipodi.sourceforge.net/DTD/sodipodi-0.dtd"
   xmlns:xlink="http://www.w3.org/1999/xlink"
   xmlns="http://www.w3.org/2000/svg"
   xmlns:svg="http://www.w3.org/2000/svg"
   xmlns:rdf="http://www.w3.org/1999/02/22-rdf-syntax-ns#"
   xmlns:cc="http://creativecommons.org/ns#"
   xmlns:dc="http://purl.org/dc/elements/1.1/">
  <sodipodi:namedview
     pagecolor="#ffffff"
     bordercolor="#666666"
     borderopacity="1"
     objecttolerance="10"
     gridtolerance="10"
     guidetolerance="10"
     inkscape:pageopacity="0"
     inkscape:pageshadow="2"
     inkscape:window-width="1920"
     inkscape:window-height="1017"
     id="namedview38"
     showgrid="false"
     inkscape:zoom="0.921875"
     inkscape:cx="128.54237"
     inkscape:cy="127.45763"
     inkscape:window-x="-8"
     inkscape:window-y="-8"
     inkscape:window-maximized="1"
     inkscape:current-layer="g27"
     inkscape:pagecheckerboard="0" />
  <metadata
     id="metadata2193">image/svg+xml<rdf:RDF>
  <cc:Work
     rdf:about="">
    <dc:format>image/svg+xml</dc:format>
    <dc:type
       rdf:resource="http://purl.org/dc/dcmitype/StillImage" />
  </cc:Work>
</rdf:RDF>
</metadata>
  <defs
     id="defs5">
    <linearGradient
       id="linearGradient3310">
      <stop
         offset="0"
         stop-color="rgb(156, 158, 160)"
         id="stop3312" />
      <stop
         offset="0.125"
         stop-color="rgb(156, 158, 160)"
         id="stop3816" />
      <stop
         offset="0.25"
         stop-color="rgb(156, 158, 160)"
         id="stop3814" />
      <stop
         offset="0.5"
         stop-color="rgb(38, 78, 151)"
         id="stop3812" />
      <stop
         offset="1"
         stop-color="rgb(38, 78, 151)"
         id="stop3314" />
    </linearGradient>
    <linearGradient
       id="linearGradient4671">
      <stop
         offset="0"
         stop-color="rgb(255, 212, 59)"
         id="stop4673" />
      <stop
         offset="1"
         stop-color="rgb(255, 232, 115)"
         id="stop4675" />
    </linearGradient>
    <linearGradient
       id="linearGradient4689">
      <stop
         offset="0"
         stop-color="rgb(90, 159, 212)"
         id="stop4691" />
      <stop
         offset="1"
         stop-color="rgb(48, 105, 152)"
         id="stop4693" />
    </linearGradient>
    <linearGradient
       xlink:href="#linearGradient3310"
       y2="0.498194"
       x2="1.03408"
       y1="0.498194"
       x1="0"
       id="linearGradient3237" />
    <linearGradient
       xlink:href="#linearGradient4671"
       y2="0.5"
       x2="0"
       y1="0.5"
       x1="1"
       id="svg_1" />
    <linearGradient
       xlink:href="#linearGradient4689"
       y2="0.5"
       x2="1"
       y1="0.5"
       x1="0"
       id="svg_2" />
  </defs>
  <g
     id="g22">
    <title
       id="title24">background</title>
    <rect
       height="402"
       width="582"
       y="-1"
       x="-1"
       fill="none"
       id="canvas_background" />
  </g>
  <g
     id="g27">
    <title
       id="title29">Layer 1</title>
    <g
       transform="matrix(1.17874, 0, 0, 1.17874, 39.5143, 10.1722)"
       id="g3227">
      <path
         d="m130.647507,74.890068c-3.668533,-26.448032 -19.984268,-47.297806 -36.442223,-46.569284c-16.457954,0.728519 -26.825821,22.759459 -23.157288,49.207491c3.668533,26.448021 19.984261,47.297806 36.442215,46.569283c16.457954,-0.728523 26.825829,-22.759468 23.157295,-49.207489z"
         fill-rule="nonzero"
         fill="url(#svg_2)"
         id="path3040-7" />
      <path
         d="m16.281998,68.071075c3.668531,-26.448032 19.984261,-47.297806 36.442215,-46.569284c16.457954,0.728519 26.825821,22.759459 23.157295,49.207491c-3.668533,26.448021 -19.984264,47.297806 -36.442219,46.569283c-16.457954,-0.728523 -26.825821,-22.759468 -23.157291,-49.207489z"
         fill-rule="nonzero"
         fill="url(#svg_1)"
         id="path3040" />
      <path
         d="m50.660271,149.999985c-14.25798,-0.000168 -25.842541,-7.325363 -34.753731,-21.975647c-8.91121,-14.650558 -13.36681,-34.544479 -13.36682,-59.681847c2.88073,-36.37199 19.978011,-56.795041 44.26549,-67.802771c-8.573341,20.862441 -9.17131,24.119469 -12.573971,35.811419c-3.305279,11.586742 -4.957899,22.72184 -4.95788,33.405338c-0.000019,2.749321 0.194401,6.362831 0.583281,10.84053c0.38883,4.477524 1.036911,8.130302 1.94426,10.958374c1.166531,3.456291 2.624729,6.303886 4.374599,8.542809c1.749802,2.238693 4.342152,3.358093 7.777061,3.358208c3.175591,-0.000114 5.913761,-1.630127 8.214508,-4.890015c2.300671,-3.260132 4.066711,-8.03231 5.298122,-14.316582c7.842396,-33.506771 13.398479,-53.239141 23.520557,-67.531252c12.169655,-12.95742 18.959419,-14.03888 29.004883,-14.03889c10.781509,-0.00002 17.465042,2.4677 24.908066,13.34011c24.836548,34.401682 11.592896,97.798323 -25.424423,122.197042c4.666115,-7.070068 8.570847,-15.73069 11.714195,-25.981934c3.143105,-10.251488 4.714714,-20.71888 4.714828,-31.402199c-0.000114,-3.770706 -0.210747,-7.52169 -0.631874,-11.252953c-0.421387,-3.731415 -1.215286,-7.325287 -2.381737,-10.781609c-0.972244,-3.063698 -2.44664,-5.695278 -4.423187,-7.894737c-1.976791,-2.199593 -4.228897,-3.299351 -6.756317,-3.29929c-3.82383,-0.000061 -6.756424,1.767406 -8.797806,5.302429c-2.04158,3.534889 -3.904823,10.212021 -5.589767,20.031422c-1.10183,6.441391 -2.171181,12.627548 -3.208031,18.558517c-1.037025,5.930763 -2.462822,12.313316 -4.277382,19.14769c-3.629379,13.432693 -8.571045,23.350204 -14.82502,29.752548c-6.25412,6.402039 -14.371407,9.603134 -24.351906,9.603287z"
         fill="url(#linearGradient3237)"
         id="path3045" />
    </g>
    <text
       y="243.457"
       x="11.11908"
       font-weight="normal"
       font-style="normal"
       font-size="40px"
       id="text3035"
       style="font-style:normal;font-weight:normal;font-size:40px;line-height:0%;font-family:sans-serif;text-align:start;text-anchor:start;fill:#9c9ea0"><tspan
         y="243.457"
         x="11.1191"
         font-weight="bold"
         font-style="normal"
         font-size="56px"
         id="tspan3037"
         style="font-style:normal;font-weight:bold;font-size:56px;line-height:125%;font-family:Tahoma;text-align:start;text-anchor:start;fill:#9c9ea0">Codra<tspan
   style="line-height:125%;text-align:start;text-anchor:start;fill:#264e97"
   id="tspan3015">FT</tspan></tspan></text>
  </g>
</svg>
