<?xml version="1.0" encoding="UTF-8" standalone="no"?>
<!-- Created with Inkscape (http://www.inkscape.org/) -->

<svg
   version="1.1"
   id="svg3157"
   xml:space="preserve"
   width="2600"
   height="2000"
   viewBox="0 0 2599.9996 2000"
   xmlns:xlink="http://www.w3.org/1999/xlink"
   xmlns="http://www.w3.org/2000/svg"
   xmlns:svg="http://www.w3.org/2000/svg"><defs
     id="defs3161"><rect
       x="397.03232"
       y="102.6342"
       width="198.51616"
       height="135.045"
       id="rect483" /><marker
       markerWidth="700"
       markerHeight="700"
       refX="350"
       refY="350"
       orient="auto"
       id="marker1068"><g
         id="use859"
         transform="matrix(1.3061145,0,0,-1.0907137,-173.85658,852.94723)"><path
           d="m 375.35627,684.77075 c 2.504,1.333 5.022,2.631 7.587,3.8 2.533,1.248 5.143,2.288 7.725,3.409 2.596,1.086 5.238,2.036 7.852,3.061 l 1.278,0.501 1.321,-0.562 c 2.774,-1.168 5.523,-2.384 8.276,-3.596 2.695,-1.349 5.471,-2.501 8.099,-4.009 l 7.965,-4.338 c 2.557,-1.683 5.206,-3.14 7.684,-5.013 l -0.075,-0.185 h -0.004 l -0.076,-0.186 -0.506,0.206 -32.744,13.383 -31.136,-11.089 -0.472,-0.169 -0.137,0.375 c 2.384,1.669 4.91,2.936 7.363,4.412 m 86.771,47.215 v -0.666 c 0,0 -1.409,-17.827 -1.743,-16.911 -0.331,0.915 -6.65,11.412 -6.65,11.412 z m -5.992,-32.821 c 12.277,2.727 18.745,21.492 34.738,15.494 0,0 -18.493,28.49 -27.991,23.492 -6.091,-3.207 -19.579,-12.783 -28.473,-19.243 l -21.835,-12.496 15.235,4.231 c 4.437,-4.393 15.996,-14.219 28.326,-11.478 m -119.158,28.821 8.583,-6.164 c 0,0 -6.411,-10.496 -6.74,-11.412 -0.333,-0.916 -1.843,16.91 -1.843,16.91 z m 2.871,-28.821 c 11.618,-2.583 22.546,5.988 27.482,10.662 l 14.863,-5.198 -12.68,8.459 c -3.951,2.931 -27.716,20.486 -36.413,25.063 -9.495,4.998 -27.988,-23.492 -27.988,-23.492 15.994,5.998 22.462,-12.767 34.736,-15.494 m 286.235,12.994 c -42.654,38.986 -105.963,-7.995 -105.963,-7.995 0,0 -17.743,20.826 -15.079,41.484 2.662,20.658 103.961,31.489 137.723,-26.378 53.335,-91.414 -85.548,-257.019 -85.548,-257.019 93.965,140.949 90.877,229.79 68.867,249.908 m -103.954,-262.832 c -4.262,-8.849 -8.031,-17.324 -11.354,-25.216 -1.553,-3.989 -3.045,-7.811 -4.458,-11.446 -1.29,-3.684 -2.507,-7.179 -3.656,-10.463 -2.018,-6.651 -3.743,-12.491 -4.705,-17.399 -1.182,-4.876 -1.745,-8.775 -2.167,-11.434 -0.43,-2.663 -0.659,-4.086 -0.659,-4.086 0,0 0.078,1.436 0.226,4.129 0.175,2.688 0.211,6.68 1.069,11.663 0.583,5.033 1.852,11.037 3.37,17.932 0.899,3.409 1.856,7.042 2.864,10.868 1.214,3.766 2.49,7.726 3.823,11.857 2.885,8.183 6.219,16.981 10.213,26.071 3.93,9.122 8.302,18.632 13.128,28.302 4.8,9.687 9.806,19.653 15.116,29.65 5.256,10.001 10.595,20.168 15.936,30.329 10.688,20.27 20.919,40.732 28.881,60.495 3.943,9.897 7.171,19.637 9.687,29.018 0.956,4.729 2.232,9.313 2.722,13.823 0.292,2.247 0.721,4.46 0.894,6.637 0.12,2.186 0.238,4.328 0.355,6.427 0.215,2.111 -0.015,4.153 -0.086,6.163 -0.149,1.998 -0.077,3.993 -0.375,5.878 -0.684,3.748 -0.89,7.45 -2.067,10.677 -0.478,1.647 -0.943,3.245 -1.392,4.784 -0.477,1.533 -1.238,2.89 -1.808,4.265 -0.609,1.364 -1.195,2.672 -1.757,3.923 -0.567,1.246 -1.371,2.273 -1.996,3.342 -1.355,2.065 -2.413,4.032 -3.581,5.598 -1.237,1.512 -2.288,2.801 -3.139,3.846 -1.707,2.087 -2.616,3.202 -2.616,3.202 0,0 1.02,-1.013 2.935,-2.914 0.958,-0.949 2.138,-2.123 3.523,-3.498 1.34,-1.42 2.605,-3.326 4.157,-5.356 0.724,-1.044 1.646,-2.067 2.33,-3.297 0.674,-1.237 1.382,-2.533 2.12,-3.882 0.695,-1.373 1.593,-2.732 2.214,-4.277 0.589,-1.56 1.202,-3.178 1.835,-4.848 1.484,-3.299 2.01,-7.092 3.03,-11.002 0.479,-1.964 0.519,-4.034 0.792,-6.131 0.191,-2.102 0.548,-4.262 0.449,-6.464 0.378,-8.851 -0.854,-18.356 -2.744,-28.232 -2.211,-9.794 -5.073,-20.001 -8.927,-30.193 -3.845,-10.183 -8.091,-20.601 -13.022,-30.854 -4.822,-10.314 -10.052,-20.598 -15.334,-30.834 -10.844,-20.243 -21.688,-40.486 -31.856,-59.466 -4.967,-9.52 -9.723,-18.73 -13.97,-27.587 m -213.677,-75.958 c -0.424,2.659 -0.986,6.558 -2.171,11.434 -0.96,4.908 -2.685,10.748 -4.706,17.399 -1.146,3.284 -2.364,6.779 -3.651,10.463 -1.417,3.635 -2.907,7.457 -4.461,11.446 -3.323,7.892 -7.09,16.367 -11.351,25.216 -4.248,8.857 -9.007,18.067 -13.972,27.587 -10.168,18.98 -21.012,39.223 -31.857,59.466 -5.283,10.236 -10.509,20.52 -15.332,30.834 -4.934,10.253 -9.174,20.671 -13.025,30.854 -3.852,10.192 -6.717,20.399 -8.923,30.193 -1.893,9.876 -3.125,19.381 -2.749,28.232 -0.094,2.202 0.26,4.362 0.451,6.464 0.275,2.097 0.31,4.167 0.792,6.131 1.019,3.91 1.548,7.703 3.03,11.002 0.633,1.67 1.246,3.288 1.836,4.848 0.62,1.545 1.517,2.904 2.216,4.277 0.736,1.349 1.444,2.645 2.118,3.882 0.684,1.23 1.606,2.253 2.332,3.297 1.553,2.03 2.813,3.936 4.155,5.356 1.386,1.375 2.567,2.549 3.524,3.498 1.914,1.901 2.935,2.914 2.935,2.914 0,0 -0.911,-1.115 -2.614,-3.202 -0.854,-1.045 -1.907,-2.334 -3.141,-3.846 -1.17,-1.566 -2.224,-3.533 -3.582,-5.598 -0.625,-1.069 -1.427,-2.096 -1.996,-3.342 -0.559,-1.251 -1.146,-2.559 -1.758,-3.923 -0.567,-1.375 -1.331,-2.732 -1.807,-4.265 -0.448,-1.539 -0.913,-3.137 -1.393,-4.784 -1.173,-3.227 -1.383,-6.929 -2.067,-10.677 -0.296,-1.885 -0.226,-3.88 -0.373,-5.878 -0.071,-2.01 -0.303,-4.052 -0.086,-6.163 0.117,-2.099 0.233,-4.241 0.354,-6.427 0.175,-2.177 0.602,-4.39 0.896,-6.637 0.489,-4.51 1.762,-9.094 2.72,-13.823 2.515,-9.381 5.747,-19.121 9.69,-29.018 7.959,-19.763 18.189,-40.225 28.881,-60.495 5.337,-10.161 10.677,-20.328 15.933,-30.329 5.31,-9.997 10.319,-19.963 15.117,-29.65 4.825,-9.67 9.199,-19.18 13.126,-28.302 3.994,-9.09 7.329,-17.888 10.215,-26.071 1.332,-4.131 2.61,-8.091 3.824,-11.857 1.006,-3.826 1.964,-7.459 2.862,-10.868 1.52,-6.895 2.791,-12.899 3.37,-17.932 0.86,-4.983 0.895,-8.975 1.07,-11.663 0.148,-2.693 0.226,-4.129 0.226,-4.129 0,0 -0.229,1.423 -0.658,4.086 m -146.979,345.901 c 35.178,59.866 135.319,48.581 137.985,27.923 0.564,-4.372 0.195,-8.816 -0.725,-13.112 l -23.018,-24.449 c -18.623,11.124 -64.349,32.881 -97.558,2.527 -22.011,-20.118 -25.1,-108.959 68.866,-249.908 0,0 -139.166,165.771 -85.55,257.019 m 174.896,43.117 c 9.691,-3.951 43.915,-17.165 67.946,-17.165 3.06,0 5.897,0.218 8.426,0.648 24.641,4.184 41.703,9.813 48.067,12.105 l 75.275,-89.802 -59.955,-23.984 c -9.324,4.09 -56.156,24.247 -73.688,24.247 -0.383,0 -0.749,-0.007 -1.104,-0.026 -9.846,-0.487 -29.382,-6.704 -48.275,-12.72 -14.726,-4.686 -29.952,-9.535 -34.621,-9.535 -5.981,0 -33.774,17.333 -58.606,34.944 z m 101.687,-186.177 1.046,62.321 11.917,-1.357 z m -82.896,60.759 11.863,1.768 3.566,-64.526 z m 123.945,3.406 c -16.789,-83.6 -38.53,-175.696 -45.731,-182.29 -18.115,-10.617 -61.007,-5.057 -66.095,1.58 -4.89,6.968 -34.029,109.48 -52.505,176.937 l 5.175,-1.306 c 5.968,-20.091 36.892,-123.598 43.354,-132.924 0.744,-1.074 1.84,-2.051 3.213,-2.936 1.158,1.624 2.366,3.19 3.538,4.794 0.408,0.523 0.842,1.018 1.256,1.534 2.559,3.199 5.215,6.286 7.955,9.273 4.557,4.913 11.54,9.527 17.211,13.96 l 0.008,-1.427 c -5.99,-5.213 -11.778,-10.664 -17.219,-16.533 -3.182,-3.469 -6.282,-7.036 -9.211,-10.806 -1.416,-1.939 -2.905,-3.795 -4.267,-5.802 -0.178,-0.259 -0.38,-0.561 -0.596,-0.892 -1.461,-2.231 -3.665,-5.9 -4.725,-7.795 2.358,0.822 5.955,4.302 8.153,5.308 2.215,0.994 4.302,2.135 6.457,3.196 0.668,0.352 1.309,0.74 1.971,1.103 10.898,-2.675 25.62,-3.294 36.484,-2.368 3.424,0.292 6.519,0.726 9.31,1.286 1.105,-0.926 2.201,-1.86 3.345,-2.75 1.808,-1.316 3.537,-2.7 5.412,-3.963 1.861,-1.273 3.747,-2.527 5.802,-3.646 -0.524,1.761 -1.161,3.43 -1.821,5.08 -0.18,0.452 -0.352,0.908 -0.537,1.356 -0.848,2.094 -1.843,4.073 -2.757,6.114 -1.938,3.996 -4.081,7.822 -6.325,11.568 -2.246,3.745 -4.667,7.35 -7.159,10.895 -2.015,2.846 -5.073,3.82 -7.229,6.557 l 0.341,55.113 1.785,-51.364 c -0.336,-0.707 3.088,-3.461 5.103,-6.307 2.492,-3.546 4.913,-7.148 7.159,-10.897 1.381,-2.303 2.7,-4.657 3.981,-7.044 0.8,-1.491 1.601,-2.984 2.344,-4.522 0.396,-0.887 0.809,-1.76 1.218,-2.637 3.152,1.697 5.334,3.788 6.494,6.282 17.369,37.301 35.987,131.312 36.772,135.294 l -1.768,0.846 4.104,0.138 c 0.063,0.308 0.063,0.303 0,-0.005 m -22.984,-145.65 c 3.271,13.038 6.629,27.324 9.88,41.695 8.838,1.971 17.526,4.382 26.039,7.24 -0.216,-12.503 -1.038,-26.53 -2.499,-39.558 -10.851,-3.925 -22.01,-7.047 -33.42,-9.377 m -16.451,-52.772 c 3.753,6.569 8.852,23.316 14.333,44.459 11.434,2.203 22.637,5.158 33.551,8.853 -0.283,-13.209 -1.306,-28.133 -3.107,-41.39 -14.432,-5.264 -29.402,-9.377 -44.777,-11.922 m 56.857,150.738 c -0.177,-12.514 -0.909,-26.463 -2.231,-39.647 -8.592,-3.079 -17.373,-5.695 -26.324,-7.841 3.237,14.516 6.319,28.856 9.045,41.807 6.595,1.664 13.104,3.549 19.51,5.681 m 2.465,8.93 c -6.582,-2.303 -13.325,-4.352 -20.2,-6.141 4.322,20.732 7.496,36.685 8.543,41.976 4.603,1.269 9.168,2.635 13.679,4.127 -0.143,-12.595 -0.805,-26.575 -2.022,-39.962 m -212.968,45.347 c 4.301,-1.586 10.633,-3.762 18.658,-6.103 0.581,-2.172 5.095,-19.088 11.389,-42.243 -10.661,2.999 -18.414,5.783 -22.521,7.358 -3.097,13.923 -5.667,28.295 -7.526,40.988 m 7.481,-49.545 c 5.385,-1.995 13.935,-4.903 25.031,-7.855 3.561,-13.055 7.545,-27.553 11.63,-42.228 -13.985,3.538 -24.142,7.158 -29.074,9.058 -3.16,13.823 -5.755,28.311 -7.587,41.025 m 7.481,-49.551 c 6.42,-2.387 17.337,-6.07 31.678,-9.489 4.064,-14.521 8.161,-28.958 11.979,-42.082 -17.501,3.863 -30.189,8.385 -35.948,10.628 -3.28,13.82 -5.931,28.488 -7.709,40.943 m 7.474,-49.551 c 7.442,-2.778 20.925,-7.208 38.754,-10.788 6.607,-22.401 12.079,-39.614 14.607,-44.525 -21.835,3.98 -37.963,9.923 -45.057,12.835 -3.603,13.924 -6.472,29.401 -8.304,42.478 m 96.697,-105.422 c -40.206,0 -71.265,10.776 -81.366,14.754 -3.452,13.062 -6.166,27.771 -7.862,40.177 13.424,-5.041 46.486,-16.475 89.113,-16.475 h 0.011 c 27.044,0 53.258,5.176 78.01,13.641 -0.326,-12.561 -1.393,-26.645 -3.228,-38.968 -23.684,-8.71 -48.795,-13.128 -74.678,-13.129 m 0.13,-50.065 h -0.008 c -35.537,0 -63.022,9.75 -73.193,13.926 -3.93,13.151 -6.943,29.263 -8.693,42.447 12.655,-4.778 42.784,-14.305 81.764,-14.305 25.364,0.002 50.03,4.099 73.413,12.184 -0.426,-13.306 -1.77,-28.649 -4.07,-41.117 -22.069,-8.187 -45.339,-13.135 -69.213,-13.135 m 0.156,-46.601 c -32.171,0 -56.831,8.4 -66.104,12.085 -3.929,12.24 -6.861,27.963 -8.491,40.665 11.859,-4.509 39.077,-13.781 74.431,-13.781 h 0.012 c 23.671,0 46.775,4.188 68.775,11.888 -0.525,-13.996 -2.137,-28.355 -4.563,-39.346 -20.546,-7.639 -42.078,-11.507 -64.06,-11.511 m 58.137,-37.922 c -18.725,-6.912 -38.195,-10.415 -57.942,-10.415 -27.285,-0.005 -48.326,6.769 -57.589,10.37 -4.72,10.946 -8.082,28.059 -9.754,41.673 11.029,-4.227 35.386,-12.047 67.14,-12.047 h 0.008 c 21.964,0 43.499,3.87 64.109,11.184 -0.697,-15.121 -2.842,-30.678 -5.972,-40.765 m -6.898,-49.796 c -16.574,-5.945 -33.633,-8.958 -50.81,-8.958 -21.279,0 -38.092,4.686 -47.403,8.038 -6.59,6.932 -10.938,27.433 -12.743,42.962 10.17,-3.927 31.715,-10.663 59.912,-10.659 20.235,0 40.18,3.503 59.389,10.425 -0.97,-16.947 -4.058,-34.517 -8.345,-41.808 m -219.021,454.561 c 0.043,-2.635 0.28,-5.357 0.552,-8.149 0.598,-5.582 1.625,-11.428 2.988,-17.426 1.276,-6.018 3.183,-12.115 5.053,-18.327 1.932,-6.199 4.176,-12.431 6.532,-18.629 2.332,-6.213 4.733,-12.413 7.256,-18.475 2.491,-6.084 4.945,-12.077 7.32,-17.873 4.77,-11.616 9.123,-22.561 12.341,-32.166 1.645,-4.784 3.009,-9.228 4.062,-13.214 1.124,-3.963 1.859,-7.494 2.413,-10.393 0.577,-2.901 0.849,-5.209 1.005,-6.786 0.175,-1.566 0.268,-2.4 0.268,-2.4 0,0 -0.24,0.806 -0.693,2.315 -0.408,1.518 -1.161,3.699 -2.118,6.459 -0.964,2.756 -2.23,6.065 -3.774,9.823 -1.521,3.76 -3.402,7.944 -5.435,12.51 -4.251,9.083 -9.209,19.678 -14.522,31.031 -2.61,5.719 -5.426,11.592 -7.989,17.708 -2.625,6.083 -5.165,12.34 -7.612,18.647 -4.658,12.698 -8.805,25.708 -10.989,38.372 -1.23,6.293 -1.811,12.513 -2.042,18.412 -0.241,5.904 0.085,11.518 0.832,16.627 0.254,2.561 0.911,4.977 1.352,7.273 0.542,2.284 1.288,4.398 1.863,6.396 1.415,3.93 2.86,7.258 4.353,9.865 1.294,2.698 2.752,4.491 3.604,5.823 0.889,1.304 1.359,1.997 1.359,1.997 0,0 -0.341,-0.766 -0.985,-2.208 -0.617,-1.439 -1.673,-3.536 -2.551,-6.297 -1.056,-2.681 -1.918,-6.102 -2.843,-9.988 -0.759,-3.939 -1.392,-8.395 -1.601,-13.292 -0.078,-2.45 -0.18,-4.991 0.001,-7.635 m 212.255,-500.057 c -11.181,-4.928 -26.873,-7.75 -43.055,-7.75 -17.431,0 -33.302,3.3 -41.417,8.605 -6.728,4.401 -10.78,22.988 -12.307,37.133 9.272,-3.621 28.051,-9.455 52.735,-9.455 18.487,0 36.827,3.302 54.614,9.824 -1.277,-17.727 -5.327,-36.049 -10.57,-38.357 m 116.665,507.692 c -0.211,4.897 -0.845,9.353 -1.603,13.292 -0.926,3.886 -1.789,7.307 -2.842,9.988 -0.878,2.761 -1.936,4.858 -2.552,6.297 -0.642,1.442 -0.985,2.208 -0.985,2.208 0,0 0.471,-0.693 1.358,-1.997 0.85,-1.332 2.308,-3.125 3.604,-5.823 1.496,-2.607 2.938,-5.935 4.355,-9.865 0.574,-1.998 1.32,-4.112 1.862,-6.396 0.44,-2.296 1.097,-4.712 1.352,-7.273 0.75,-5.109 1.072,-10.723 0.831,-16.627 -0.232,-5.899 -0.813,-12.119 -2.039,-18.412 -2.187,-12.664 -6.332,-25.674 -10.987,-38.372 -2.449,-6.307 -4.99,-12.564 -7.62,-18.647 -2.557,-6.116 -5.376,-11.989 -7.984,-17.708 -5.315,-11.353 -10.274,-21.948 -14.523,-31.031 -2.035,-4.566 -3.917,-8.75 -5.435,-12.51 -1.546,-3.758 -2.812,-7.067 -3.777,-9.823 -0.957,-2.76 -1.711,-4.941 -2.116,-6.459 -0.453,-1.509 -0.694,-2.315 -0.694,-2.315 0,0 0.093,0.834 0.268,2.4 0.154,1.577 0.426,3.885 1.004,6.786 0.556,2.899 1.293,6.43 2.414,10.393 1.049,3.986 2.416,8.43 4.064,13.214 3.219,9.605 7.572,20.55 12.34,32.166 2.375,5.796 4.831,11.789 7.321,17.873 2.523,6.062 4.924,12.262 7.255,18.475 2.355,6.198 4.6,12.43 6.533,18.629 1.87,6.21 3.779,12.309 5.053,18.326 1.363,5.999 2.39,11.845 2.991,17.427 0.27,2.792 0.508,5.514 0.552,8.149 0.178,2.644 0.077,5.185 0,7.635 m 49.419,96.429 c -53.092,26.886 -108.748,8.091 -131.987,-2.235 l -16.702,-2.235 -4.053,4.833 c 0,0 -13.387,-5.314 -31.227,-9.558 l -33.413,-4.471 c -25.878,2.118 -61.311,17.178 -61.693,17.34 l -2.57,1.102 -7.905,-8.398 -8.044,1.197 c -19.125,9.438 -76.247,32.334 -132.251,2.425 -81.209,-43.371 -51.872,-158.942 -24.991,-207.925 46.73,-85.153 181.933,-239.912 157.943,-382.86 0,0 5.859,-5.377 13.605,-11.017 l 0.051,-0.511 0.695,-0.028 c 1.113,-0.802 2.262,-1.604 3.436,-2.394 l -0.022,-0.035 c 0.06,-0.039 0.573,-0.375 1.459,-0.919 4.377,-2.857 9.013,-5.468 13.358,-7.11 13.491,-6.337 34.874,-14.114 58.569,-14.114 16.248,0 33.575,3.665 50.188,13.946 14.102,2.709 31.047,20.667 31.047,20.667 -27.091,142.394 104.717,300.05 149.588,386.201 25.809,49.554 57.049,164.503 -25.081,206.099"
           style="fill:#000000;fill-opacity:1;fill-rule:nonzero;stroke:none"
           id="path871" /></g></marker></defs><g
     id="g3165"
     transform="matrix(1.3333333,0,0,-1.3333333,1694.2156,1494.6959)"><rect
       style="fill:#ffffff;stroke-width:83.7252"
       id="rect1"
       width="1950"
       height="1500"
       x="-1270.6617"
       y="-1121.022"
       transform="scale(1,-1)"
       ry="7.0678296" /><image
       preserveAspectRatio="none"
       width="1357.6025"
       height="424.25082"
       xlink:href="DataLab-Banner2.svg"
       id="image1-0"
       x="-974.46295"
       y="-370.14734"
       transform="scale(1,-1)" /></g></svg>
