<?xml version="1.0" encoding="UTF-8" standalone="no"?>
  <svg width="14" height="14" viewBox="0 0 14 14" version="1.1" id="svg24"
 xmlns="http://www.w3.org/2000/svg">
  <rect id="rect3" width="10.5" height="10.5" x="1.75" y="1.75" fill="#440154" fill-opacity="1" stroke="none" stroke-width="1.2228" stroke-dasharray="none" />
  <!-- Gray axes -->
  <line x1="7" y1="1" x2="7" y2="13" stroke="#696969" stroke-width="0.53" id="line1" />
  <line x1="1" y1="7" x2="13" y2="7" stroke="#696969" stroke-width="0.53" id="line2" />
  <!-- Uniform noise pattern (2D - evenly distributed) -->
  <path id="circle2" d="M 2.82,3.1 A 0.22,0.22 0 0 1 2.6,3.32 0.22,0.22 0 0 1 2.38,3.1 0.22,0.22 0 0 1 2.6,2.88 0.22,0.22 0 0 1 2.82,3.1 Z" opacity="1" fill="#a8db34" stroke-width="1.83332" />
  <path id="circle3" d="M 3.32,9.6 A 0.22,0.22 0 0 1 3.1,9.82 0.22,0.22 0 0 1 2.88,9.6 0.22,0.22 0 0 1 3.1,9.38 0.22,0.22 0 0 1 3.32,9.6 Z" opacity="1" fill="#a8db34" stroke-width="1.83332" />
  <path id="circle4" d="M 3.82,6.1 A 0.22,0.22 0 0 1 3.6,6.32 0.22,0.22 0 0 1 3.38,6.1 0.22,0.22 0 0 1 3.6,5.88 0.22,0.22 0 0 1 3.82,6.1 Z" opacity="1" fill="#a8db34" stroke-width="1.83332" />
  <path id="circle5" d="M 4.32,11.1 A 0.22,0.22 0 0 1 4.1,11.32 0.22,0.22 0 0 1 3.88,11.1 0.22,0.22 0 0 1 4.1,10.88 0.22,0.22 0 0 1 4.32,11.1 Z" opacity="1" fill="#a8db34" stroke-width="1.83332" />
  <path id="circle6" d="M 4.82,4.6 A 0.22,0.22 0 0 1 4.6,4.82 0.22,0.22 0 0 1 4.38,4.6 0.22,0.22 0 0 1 4.6,4.38 0.22,0.22 0 0 1 4.82,4.6 Z" opacity="1" fill="#a8db34" stroke-width="1.83332" />
  <path id="circle7" d="M 5.32,8.1 A 0.22,0.22 0 0 1 5.1,8.32 0.22,0.22 0 0 1 4.88,8.1 0.22,0.22 0 0 1 5.1,7.88 0.22,0.22 0 0 1 5.32,8.1 Z" opacity="1" fill="#a8db34" stroke-width="1.83332" />
  <path id="circle8" d="M 5.82,5.6 A 0.22,0.22 0 0 1 5.6,5.82 0.22,0.22 0 0 1 5.38,5.6 0.22,0.22 0 0 1 5.6,5.38 0.22,0.22 0 0 1 5.82,5.6 Z" opacity="1" fill="#a8db34" stroke-width="1.83332" />
  <path id="circle9" d="M 6.32,10.1 A 0.22,0.22 0 0 1 6.1,10.32 0.22,0.22 0 0 1 5.88,10.1 0.22,0.22 0 0 1 6.1,9.88 0.22,0.22 0 0 1 6.32,10.1 Z" opacity="1" fill="#a8db34" stroke-width="1.83332" />
  <path id="circle10" d="M 6.82,3.6 A 0.22,0.22 0 0 1 6.6,3.82 0.22,0.22 0 0 1 6.38,3.6 0.22,0.22 0 0 1 6.6,3.38 0.22,0.22 0 0 1 6.82,3.6 Z" opacity="1" fill="#a8db34" stroke-width="1.83332" />
  <path id="circle11" d="M 7.82,8.6 A 0.22,0.22 0 0 1 7.6,8.82 0.22,0.22 0 0 1 7.38,8.6 0.22,0.22 0 0 1 7.6,8.38 0.22,0.22 0 0 1 7.82,8.6 Z" opacity="1" fill="#a8db34" stroke-width="1.83332" />
  <path id="circle12" d="M 8.32,5.1 A 0.22,0.22 0 0 1 8.1,5.32 0.22,0.22 0 0 1 7.88,5.1 0.22,0.22 0 0 1 8.1,4.88 0.22,0.22 0 0 1 8.32,5.1 Z" opacity="1" fill="#a8db34" stroke-width="1.83332" />
  <path id="circle13" d="M 8.82,10.6 A 0.22,0.22 0 0 1 8.6,10.82 0.22,0.22 0 0 1 8.38,10.6 0.22,0.22 0 0 1 8.6,10.38 0.22,0.22 0 0 1 8.82,10.6 Z" opacity="1" fill="#a8db34" stroke-width="1.83332" />
  <path id="circle14" d="M 9.32,6.6 A 0.22,0.22 0 0 1 9.1,6.82 0.22,0.22 0 0 1 8.88,6.6 0.22,0.22 0 0 1 9.1,6.38 0.22,0.22 0 0 1 9.32,6.6 Z" opacity="1" fill="#a8db34" stroke-width="1.83332" />
  <path id="circle15" d="M 9.82,4.1 A 0.22,0.22 0 0 1 9.6,4.32 0.22,0.22 0 0 1 9.38,4.1 0.22,0.22 0 0 1 9.6,3.88 0.22,0.22 0 0 1 9.82,4.1 Z" opacity="1" fill="#a8db34" stroke-width="1.83332" />
  <path id="circle16" d="M 10.32,9.1 A 0.22,0.22 0 0 1 10.1,9.32 0.22,0.22 0 0 1 9.88,9.1 0.22,0.22 0 0 1 10.1,8.88 0.22,0.22 0 0 1 10.32,9.1 Z" opacity="1" fill="#a8db34" stroke-width="1.83332" />
  <path id="circle17" d="M 10.82,7.1 A 0.22,0.22 0 0 1 10.6,7.32 0.22,0.22 0 0 1 10.38,7.1 0.22,0.22 0 0 1 10.6,6.88 0.22,0.22 0 0 1 10.82,7.1 Z" opacity="1" fill="#a8db34" stroke-width="1.83332" />
  <path id="circle18" d="M 11.32,11.6 A 0.22,0.22 0 0 1 11.1,11.82 0.22,0.22 0 0 1 10.88,11.6 0.22,0.22 0 0 1 11.1,11.38 0.22,0.22 0 0 1 11.32,11.6 Z" opacity="1" fill="#a8db34" stroke-width="1.83332" />
  <path id="circle19" d="M 11.82,5.6 A 0.22,0.22 0 0 1 11.6,5.82 0.22,0.22 0 0 1 11.38,5.6 0.22,0.22 0 0 1 11.6,5.38 0.22,0.22 0 0 1 11.82,5.6 Z" opacity="1" fill="#a8db34" stroke-width="1.83332" />
  <!-- Additional even distribution -->
  <path id="circle20" d="M 3.82,8.6 A 0.22,0.22 0 0 1 3.6,8.82 0.22,0.22 0 0 1 3.38,8.6 0.22,0.22 0 0 1 3.6,8.38 0.22,0.22 0 0 1 3.82,8.6 Z" opacity="1" fill="#a8db34" stroke-width="1.83332" />
  <path id="circle21" d="M 5.82,11.6 A 0.22,0.22 0 0 1 5.6,11.82 0.22,0.22 0 0 1 5.38,11.6 0.22,0.22 0 0 1 5.6,11.38 0.22,0.22 0 0 1 5.82,11.6 Z" opacity="1" fill="#a8db34" stroke-width="1.83332" />
  <path id="circle22" d="M 7.32,4.6 A 0.22,0.22 0 0 1 7.1,4.82 0.22,0.22 0 0 1 6.88,4.6 0.22,0.22 0 0 1 7.1,4.38 0.22,0.22 0 0 1 7.32,4.6 Z" opacity="1" fill="#a8db34" stroke-width="1.83332" />
  <path id="circle23" d="M 9.32,9.6 A 0.22,0.22 0 0 1 9.1,9.82 0.22,0.22 0 0 1 8.88,9.6 0.22,0.22 0 0 1 9.1,9.38 0.22,0.22 0 0 1 9.32,9.6 Z" opacity="1" fill="#a8db34" stroke-width="1.83332" />
  <path id="circle24" d="M 11.32,3.1 A 0.22,0.22 0 0 1 11.1,3.32 0.22,0.22 0 0 1 10.88,3.1 0.22,0.22 0 0 1 11.1,2.88 0.22,0.22 0 0 1 11.32,3.1 Z" opacity="1" fill="#a8db34" stroke-width="1.83332" />
</svg>
