<?xml version="1.0" encoding="UTF-8" standalone="no"?>
  <svg width="14" height="14" viewBox="0 0 14 14" version="1.1" id="svg19"
 xmlns="http://www.w3.org/2000/svg">
  <rect id="rect3-9" width="10.5" height="10.5" x="1.75" y="1.75" fill="#440154" fill-opacity="1" stroke="none" stroke-width="1.2228" stroke-dasharray="none" />
  <!-- Gray axes -->
  <line x1="7" y1="1" x2="7" y2="13" stroke="#696969" stroke-width="0.53" id="line1" />
  <line x1="1" y1="7" x2="13" y2="7" stroke="#696969" stroke-width="0.53" id="line2" />
  <!-- Checkerboard pattern (8x8 grid) -->
  <rect x="1.75" y="1.75" width="1.5" height="1.5" fill="#d62728" id="rect2" fill-opacity="1" />
  <rect x="4.75" y="1.75" width="1.5" height="1.5" fill="#d62728" id="rect3" fill-opacity="1" />
  <rect x="7.75" y="1.75" width="1.5" height="1.5" fill="#d62728" id="rect4" fill-opacity="1" />
  <rect x="10.75" y="1.75" width="1.5" height="1.5" fill="#d62728" id="rect5" fill-opacity="1" />
  <rect x="3.25" y="3.25" width="1.5" height="1.5" fill="#d62728" id="rect6" fill-opacity="1" />
  <rect x="6.25" y="3.25" width="1.5" height="1.5" fill="#d62728" id="rect7" fill-opacity="1" />
  <rect x="9.25" y="3.25" width="1.5" height="1.5" fill="#d62728" id="rect8" fill-opacity="1" />
  <rect x="1.75" y="4.75" width="1.5" height="1.5" fill="#d62728" id="rect9" fill-opacity="1" />
  <rect x="4.75" y="4.75" width="1.5" height="1.5" fill="#d62728" id="rect10" fill-opacity="1" />
  <rect x="7.75" y="4.75" width="1.5" height="1.5" fill="#d62728" id="rect11" fill-opacity="1" />
  <rect x="10.75" y="4.75" width="1.5" height="1.5" fill="#d62728" id="rect12" fill-opacity="1" />
  <rect x="3.25" y="6.25" width="1.5" height="1.5" fill="#d62728" id="rect13" fill-opacity="1" />
  <rect x="6.25" y="6.25" width="1.5" height="1.5" fill="#d62728" id="rect14" fill-opacity="1" />
  <rect x="9.25" y="6.25" width="1.5" height="1.5" fill="#d62728" id="rect15" fill-opacity="1" />
  <rect x="1.75" y="7.75" width="1.5" height="1.5" fill="#d62728" id="rect16" fill-opacity="1" />
  <rect x="4.75" y="7.75" width="1.5" height="1.5" fill="#d62728" id="rect17" fill-opacity="1" />
  <rect x="7.75" y="7.75" width="1.5" height="1.5" fill="#d62728" id="rect18" fill-opacity="1" />
  <rect x="10.75" y="7.75" width="1.5" height="1.5" fill="#d62728" id="rect19" fill-opacity="1" />
  <rect x="3.25" y="9.25" width="1.5" height="1.5" fill="#d62728" id="rect6-7" fill-opacity="1" />
  <rect x="6.25" y="9.25" width="1.5" height="1.5" fill="#d62728" id="rect7-6" fill-opacity="1" />
  <rect x="9.25" y="9.25" width="1.5" height="1.5" fill="#d62728" id="rect8-1" fill-opacity="1" />
  <rect x="1.75" y="10.75" width="1.5" height="1.5" fill="#d62728" id="rect9-8" fill-opacity="1" />
  <rect x="4.75" y="10.75" width="1.5" height="1.5" fill="#d62728" id="rect10-9" fill-opacity="1" />
  <rect x="7.75" y="10.75" width="1.5" height="1.5" fill="#d62728" id="rect11-2" fill-opacity="1" />
  <rect x="10.75" y="10.75" width="1.5" height="1.5" fill="#d62728" id="rect12-7" fill-opacity="1" />
</svg>
