<?xml version="1.0" encoding="UTF-8" standalone="no"?>
<svg width="14" height="14" viewBox="0 0 14 14" version="1.1" id="svg19" sodipodi:docname="checkerboard.svg" inkscape:version="1.4.2 (f4327f4, 2025-05-13)"
    xmlns:inkscape="http://www.inkscape.org/namespaces/inkscape"
    xmlns:sodipodi="http://sodipodi.sourceforge.net/DTD/sodipodi-0.dtd"
    xmlns="http://www.w3.org/2000/svg"
    xmlns:svg="http://www.w3.org/2000/svg">
    <defs id="defs19" />
    <sodipodi:namedview id="namedview19" pagecolor="#505050" bordercolor="#ffffff" borderopacity="1" inkscape:showpageshadow="0" inkscape:pageopacity="0" inkscape:pagecheckerboard="1" inkscape:deskcolor="#505050" inkscape:zoom="57.642857" inkscape:cx="7" inkscape:cy="7" inkscape:window-width="1920" inkscape:window-height="1009" inkscape:window-x="-8" inkscape:window-y="-8" inkscape:window-maximized="1" inkscape:current-layer="svg19" />
    <rect style="fill:#440154;fill-opacity:1;stroke:none;stroke-width:1.2228;stroke-dasharray:none" id="rect3-9" width="10.5" height="10.5" x="1.75" y="1.75" />
    <!-- Gray axes -->
    <line x1="7" y1="1" x2="7" y2="13" stroke="#696969" stroke-width="0.53" id="line1" />
    <line x1="1" y1="7" x2="13" y2="7" stroke="#696969" stroke-width="0.53" id="line2" />
    <!-- Checkerboard pattern (8x8 grid) -->
    <rect x="1.75" y="1.75" width="1.5" height="1.5" id="rect2"  fill="#a8db34" fill-opacity="1" />
    <rect x="4.75" y="1.75" width="1.5" height="1.5" id="rect3"  fill="#a8db34" fill-opacity="1" />
    <rect x="7.75" y="1.75" width="1.5" height="1.5" id="rect4"  fill="#a8db34" fill-opacity="1" />
    <rect x="10.75" y="1.75" width="1.5" height="1.5" id="rect5"  fill="#a8db34" fill-opacity="1" />
    <rect x="3.25" y="3.25" width="1.5" height="1.5" id="rect6"  fill="#a8db34" fill-opacity="1" />
    <rect x="6.25" y="3.25" width="1.5" height="1.5" id="rect7"  fill="#a8db34" fill-opacity="1" />
    <rect x="9.25" y="3.25" width="1.5" height="1.5" id="rect8"  fill="#a8db34" fill-opacity="1" />
    <rect x="1.75" y="4.75" width="1.5" height="1.5" id="rect9"  fill="#a8db34" fill-opacity="1" />
    <rect x="4.75" y="4.75" width="1.5" height="1.5" id="rect10"  fill="#a8db34" fill-opacity="1" />
    <rect x="7.75" y="4.75" width="1.5" height="1.5" id="rect11"  fill="#a8db34" fill-opacity="1" />
    <rect x="10.75" y="4.75" width="1.5" height="1.5" id="rect12"  fill="#a8db34" fill-opacity="1" />
    <rect x="3.25" y="6.25" width="1.5" height="1.5" id="rect13"  fill="#a8db34" fill-opacity="1" />
    <rect x="6.25" y="6.25" width="1.5" height="1.5" id="rect14"  fill="#a8db34" fill-opacity="1" />
    <rect x="9.25" y="6.25" width="1.5" height="1.5" id="rect15"  fill="#a8db34" fill-opacity="1" />
    <rect x="1.75" y="7.75" width="1.5" height="1.5" id="rect16"  fill="#a8db34" fill-opacity="1" />
    <rect x="4.75" y="7.75" width="1.5" height="1.5" id="rect17"  fill="#a8db34" fill-opacity="1" />
    <rect x="7.75" y="7.75" width="1.5" height="1.5" id="rect18"  fill="#a8db34" fill-opacity="1" />
    <rect x="10.75" y="7.75" width="1.5" height="1.5" id="rect19"  fill="#a8db34" fill-opacity="1" />
    <rect x="3.25" y="9.25" width="1.5" height="1.5" id="rect6-7"  fill="#a8db34" fill-opacity="1" />
    <rect x="6.25" y="9.25" width="1.5" height="1.5" id="rect7-6"  fill="#a8db34" fill-opacity="1" />
    <rect x="9.25" y="9.25" width="1.5" height="1.5" id="rect8-1"  fill="#a8db34" fill-opacity="1" />
    <rect x="1.75" y="10.75" width="1.5" height="1.5" id="rect9-8"  fill="#a8db34" fill-opacity="1" />
    <rect x="4.75" y="10.75" width="1.5" height="1.5" id="rect10-9"  fill="#a8db34" fill-opacity="1" />
    <rect x="7.75" y="10.75" width="1.5" height="1.5" id="rect11-2"  fill="#a8db34" fill-opacity="1" />
    <rect x="10.75" y="10.75" width="1.5" height="1.5" id="rect12-7"  fill="#a8db34" fill-opacity="1" />
</svg>
