<?xml version="1.0" encoding="UTF-8" standalone="no"?>
<svg role="img" focusable="false" aria-hidden="true" viewBox="0 0 14 14" version="1.1" id="svg2" sodipodi:docname="gaussian.svg" inkscape:version="1.4.2 (f4327f4, 2025-05-13)"
    xmlns:inkscape="http://www.inkscape.org/namespaces/inkscape"
    xmlns:sodipodi="http://sodipodi.sourceforge.net/DTD/sodipodi-0.dtd"
    xmlns="http://www.w3.org/2000/svg"
    xmlns:svg="http://www.w3.org/2000/svg">
    <defs id="defs2" />
    <sodipodi:namedview id="namedview2" pagecolor="#505050" bordercolor="#ffffff" borderopacity="1" inkscape:showpageshadow="0" inkscape:pageopacity="0" inkscape:pagecheckerboard="1" inkscape:deskcolor="#505050" inkscape:zoom="57.642857" inkscape:cx="7" inkscape:cy="7" inkscape:window-width="1920" inkscape:window-height="1009" inkscape:window-x="-8" inkscape:window-y="-8" inkscape:window-maximized="1" inkscape:current-layer="svg2" />
    <rect style="fill:#696969;fill-opacity:1;stroke-width:0.547874" width="0.53186357" height="12.584304" x="6.7340684" y="0.70784807" id="rect1" />
    <rect style="fill:#696969;fill-opacity:1;stroke-width:0.54642" width="0.53186357" height="12.5176" x="6.7340684" y="-13.258801" transform="rotate(90)" id="rect2" />
    <path class="fil1 str1" d="m 0.5698224,11.41513 v 0 h 0.0421939 0.043952 0.0421939 0.043952 0.0421939 0.043952 0.0421939 0.043952 l 0.042194,-0.0018 h 0.0421939 0.043952 0.042194 0.043952 l 0.042194,-0.0035 h 0.043952 0.042194 l 0.043952,-0.0018 h 0.042194 l 0.043952,-0.0018 h 0.042194 l 0.043952,-0.0018 h 0.042194 l 0.043952,-0.0018 0.042194,-0.0018 h 0.043952 l 0.042194,-0.0035 0.043952,-0.0018 0.042194,-0.0018 0.043952,-0.0035 0.042194,-0.0018 0.042194,-0.0035 0.043952,-0.0035 0.042194,-0.0018 0.043952,-0.0035 0.042194,-0.0053 0.043952,-0.0035 0.042194,-0.007 0.043952,-0.0035 0.042194,-0.0053 0.043952,-0.007 0.042194,-0.0053 0.043952,-0.007 0.042194,-0.0088 0.043952,-0.007 0.042194,-0.01055 0.043952,-0.0088 0.042194,-0.01055 0.043952,-0.01231 0.042194,-0.01231 0.040436,-0.01055 0.043952,-0.01231 0.042194,-0.01758 0.043952,-0.01406 0.042194,-0.01758 0.043952,-0.01758 0.042194,-0.01934 0.043952,-0.0211 0.042194,-0.0211 0.043952,-0.02461 0.042194,-0.02461 0.043952,-0.02637 0.042194,-0.02637 0.043952,-0.03165 0.042194,-0.02989 0.043952,-0.0334 0.042194,-0.03692 0.042194,-0.03692 0.043952,-0.03868 0.042194,-0.04044 0.043952,-0.04571 0.042194,-0.04395 0.043952,-0.04923 0.042194,-0.04923 0.043952,-0.0545 0.042194,-0.05626 0.043952,-0.05802 0.042194,-0.06153 0.043952,-0.06329 0.042194,-0.06681 0.043952,-0.07032 0.042194,-0.07384 0.043952,-0.075598 0.042194,-0.077356 0.043952,-0.08263 0.042194,-0.086146 0.043952,-0.087904 0.042194,-0.093178 0.042194,-0.093178 0.043952,-0.098453 0.042194,-0.1002106 0.043952,-0.1054848 0.042194,-0.1054848 0.043952,-0.110759 0.04219,-0.115793 L 4.6556003,8.7199935 4.6977942,8.6004441 4.7417462,8.4791366 4.7839402,8.3507967 4.8278922,8.224215 4.8700861,8.0906009 4.9140381,7.9569868 4.956232,7.8233727 5.000184,7.6827263 5.0423779,7.5420799 5.0863299,7.3979174 5.1285238,7.2555129 5.1724758,7.1078342 5.2146698,6.9601555 5.2568637,6.8107187 5.3008157,6.6595238 5.3430096,6.5065708 5.3869616,6.3553759 5.4291555,6.202423 5.4731075,6.0477119 5.5153014,5.894759 5.5592534,5.7400479 5.6014474,5.5888531 5.6453994,5.4359001 5.6875933,5.2864633 5.7315453,5.1370265 5.7737392,4.9858316 5.8176912,4.8416691 5.8598851,4.6957484 5.9038371,4.555102 5.946031,4.4126975 5.989983,4.2773254 6.032177,4.1437113 6.076129,4.0136134 6.118323,3.8887897 6.160517,3.7657241 6.204469,3.6461747 6.246663,3.5336575 6.290615,3.4246566 6.332809,3.3209299 l 0.043952,-0.098453 0.042194,-0.09142 0.043952,-0.089662 0.042194,-0.079114 0.043952,-0.075597 0.042194,-0.070323 0.043952,-0.061533 0.042194,-0.056259 0.043952,-0.049226 0.042194,-0.042194 0.043952,-0.03692 0.042194,-0.028129 0.043952,-0.021097 0.042194,-0.014065 0.043952,-0.00703 h 0.040436 l 0.042194,0.00703 0.043952,0.014065 0.042194,0.021097 0.043952,0.028129 0.042194,0.03692 0.043952,0.042194 0.042194,0.049226 0.043952,0.056259 0.042194,0.061533 0.043952,0.070323 0.042194,0.075597 0.042194,0.079114 0.043952,0.089662 0.042194,0.09142 0.043952,0.098453 0.042194,0.1037267 0.043952,0.1090009 0.042194,0.1125172 0.043952,0.1195494 0.042194,0.1230656 0.043952,0.1248237 0.042194,0.1300979 0.043952,0.1336141 0.042194,0.1353721 0.043952,0.1424045 0.042194,0.1406464 0.043952,0.1459207 0.042194,0.1441625 0.043952,0.1511949 0.042194,0.1494368 0.043952,0.1494368 0.042194,0.152953 0.042194,0.1511948 0.043952,0.1547111 0.042194,0.1529529 0.043952,0.1547111 0.042194,0.1529529 0.043952,0.1511949 0.042194,0.152953 0.043952,0.1511949 0.042194,0.1494368 0.043952,0.1476787 0.042194,0.1476787 0.043952,0.1424045 0.042194,0.1441625 0.043952,0.1406464 0.042194,0.1406464 0.043952,0.1336141 0.042194,0.1336141 0.043952,0.1336141 0.042194,0.1265817 0.043952,0.1283399 0.042194,0.1213075 0.042194,0.1195494 0.043952,0.1160333 0.042194,0.1160333 0.043952,0.110759 0.042194,0.1054848 0.043952,0.1054848 0.042194,0.1002106 0.043952,0.098453 0.042194,0.093178 0.043952,0.093178 0.042194,0.087904 0.043952,0.086146 0.042194,0.08263 0.043952,0.077356 0.042194,0.075598 0.043952,0.07384 0.042194,0.07032 0.04395,0.06681 0.04219,0.06329 0.04395,0.06153 0.04219,0.05802 0.04219,0.05626 0.04395,0.0545 0.04219,0.04923 0.04395,0.04923 0.04219,0.04395 0.04395,0.04571 0.04219,0.04044 0.04395,0.03868 0.04219,0.03692 0.04395,0.03692 0.04219,0.0334 0.04395,0.02989 0.04219,0.03165 0.04395,0.02637 0.04219,0.02637 0.04395,0.02461 0.04219,0.02461 0.04395,0.0211 0.04219,0.0211 0.04395,0.01934 0.04219,0.01758 0.04219,0.01758 0.04395,0.01406 0.04219,0.01758 0.04395,0.01231 0.04044,0.01055 0.04395,0.01231 0.04219,0.01231 0.04395,0.01055 0.04219,0.0088 0.04395,0.01055 0.04219,0.007 0.04395,0.0088 0.04219,0.007 0.04219,0.0053 0.04395,0.007 0.04219,0.0053 0.04395,0.0035 0.04219,0.007 0.04395,0.0035 0.04219,0.0053 0.04395,0.0035 0.04219,0.0018 0.04395,0.0035 0.04219,0.0035 0.04395,0.0018 0.04219,0.0035 0.04395,0.0018 0.04219,0.0018 0.04395,0.0035 h 0.04219 l 0.04395,0.0018 0.04219,0.0018 h 0.04395 l 0.04219,0.0018 h 0.04219 l 0.04395,0.0018 h 0.04219 l 0.04395,0.0018 h 0.04219 0.04395 l 0.04219,0.0035 h 0.04395 0.04219 0.04395 0.04219 l 0.04395,0.0018 h 0.04219 0.04395 0.04219 0.04395 0.04219 0.04395 0.04219 0.04395" id="path6" style="fill:none;fill-rule:evenodd;stroke:#0066cc;stroke-width:0.35;stroke-linejoin:bevel;stroke-dasharray:none;image-rendering:optimizeQuality;shape-rendering:geometricPrecision;text-rendering:geometricPrecision;stroke-opacity:1" />
</svg>
