<?xml version="1.0" encoding="UTF-8" standalone="no"?>
<svg role="img" focusable="false" aria-hidden="true" viewBox="0 0 14 14" version="1.1"
    xmlns="http://www.w3.org/2000/svg">
    <rect style="fill:#696969;fill-opacity:1;stroke-width:0.547874" width="0.53186357" height="12.584304" x="6.7340684" y="0.70784807" />
    <rect style="fill:#696969;fill-opacity:1;stroke-width:0.54642" width="0.53186357" height="12.5176" x="6.7340684" y="-13.258801" transform="rotate(90)" />
    <path style="fill:none;stroke:#009966;stroke-width:0.35;stroke-linejoin:round" d="M 1,7 C 1.5,5.5 2,4.5 2.5,5.5 3,7 3.3,8.5 3.6,7.5 3.9,6 4.2,4 4.5,5 4.8,6.5 5,8.5 5.3,7.5 5.6,6 5.9,3.5 6.3,5 6.7,7 6.9,9.5 7.2,7.5 7.5,5 7.8,2 8.2,5 8.6,8 8.9,11 9.3,8 9.7,5 10.1,2 10.6,5.5 11.1,9 11.6,12 12.2,8.5 12.8,5 13,2" />
</svg>
