<?xml version="1.0" encoding="UTF-8" standalone="no"?>
<svg role="img" focusable="false" aria-hidden="true" viewBox="0 0 14 14" version="1.1" id="svg2" sodipodi:docname="planck.svg" inkscape:version="1.4.2 (f4327f4, 2025-05-13)"
    xmlns:inkscape="http://www.inkscape.org/namespaces/inkscape"
    xmlns:sodipodi="http://sodipodi.sourceforge.net/DTD/sodipodi-0.dtd"
    xmlns="http://www.w3.org/2000/svg"
    xmlns:svg="http://www.w3.org/2000/svg">
    <defs id="defs2" />
    <sodipodi:namedview id="namedview2" pagecolor="#505050" bordercolor="#ffffff" borderopacity="1" inkscape:showpageshadow="0" inkscape:pageopacity="0" inkscape:pagecheckerboard="1" inkscape:deskcolor="#505050" inkscape:zoom="57.642857" inkscape:cx="7" inkscape:cy="7" inkscape:window-width="1920" inkscape:window-height="1009" inkscape:window-x="-8" inkscape:window-y="-8" inkscape:window-maximized="1" inkscape:current-layer="svg2" />
    <rect style="fill:#696969;fill-opacity:1;stroke-width:0.547874" width="0.53186357" height="12.584304" x="6.7340684" y="0.70784807" id="rect1" />
    <rect style="fill:#696969;fill-opacity:1;stroke-width:0.54642" width="0.53186357" height="12.5176" x="6.7340684" y="-13.258801" transform="rotate(90)" id="rect2" />
    <path class="fil1 str1" d="m 0.57018818,11.45747 v 0 h 0.042194 0.043952 0.042194 0.043952 0.042194 0.043952 0.042194 0.043952 l 0.042194,-0.0018 h 0.042194 0.043952 0.042194 0.043952 l 0.042194,-0.0035 h 0.043952 0.042194 l 0.043952,-0.0018 h 0.042194 l 0.043952,-0.0018 h 0.042194 l 0.043952,-0.0018 h 0.042194 l 0.043952,-0.0018 0.042194,-0.0018 h 0.043952 l 0.042194,-0.0035 0.043952,-0.0018 0.042194,-0.0018 0.043952,-0.0035 0.042194,-0.0018 0.042194,-0.0035 0.043952,-0.0035 0.042194,-0.0018 0.043952,-0.0035 0.042194,-0.0053 0.043952,-0.0035 0.042194,-0.007 0.043952,-0.0035 0.042194,-0.0053 0.043952,-0.007 0.042194,-0.0053 0.043952,-0.007 0.042194,-0.0088 0.043952,-0.007 0.042194,-0.01055 0.043952,-0.0088 0.042194,-0.01055 0.04395,-0.01231 0.04219,-0.01231 0.04044,-0.01055 0.04395,-0.01231 0.04219,-0.01758 0.04395,-0.01406 0.04219,-0.01758 0.04395,-0.01758 0.04219,-0.01934 0.04395,-0.0211 0.04219,-0.0211 0.04395,-0.02461 0.04219,-0.02461 0.04395,-0.02637 0.04219,-0.02637 0.04395,-0.03165 0.04219,-0.02989 0.04395,-0.0334 0.04219,-0.03692 0.04219,-0.03692 0.04395,-0.03868 0.04219,-0.04044 0.04395,-0.04571 0.04219,-0.04395 0.04395,-0.04923 0.04219,-0.04923 0.04395,-0.0545 0.04219,-0.05626 0.04395,-0.05802 0.04219,-0.06153 0.04395,-0.06329 0.04219,-0.06681 0.04395,-0.07032 0.04219,-0.07384 0.04395,-0.0756 0.04219,-0.077356 0.04395,-0.08263 0.04219,-0.086146 0.04395,-0.087904 0.04219,-0.093178 0.04219,-0.093178 0.04395,-0.098453 0.04219,-0.1002106 0.04395,-0.1054848 0.04219,-0.1054848 0.04395,-0.110759 0.04219,-0.115793 0.04395,-0.1159913 0.04219,-0.1195494 0.04395,-0.1213075 0.04219,-0.1283399 0.04395,-0.1265817 0.04219,-0.1336141 0.04395,-0.1336141 0.04219,-0.1336141 0.04395,-0.1406464 0.04219,-0.1406464 0.04395,-0.1441625 0.04219,-0.1424045 0.04395,-0.1476787 0.04219,-0.1476787 0.04219,-0.1494368 0.04395,-0.1511949 0.04219,-0.152953 0.04395,-0.1511949 0.04219,-0.1529529 0.04395,-0.1547111 0.04219,-0.1529529 0.04395,-0.1547111 0.04219,-0.1511948 0.04395,-0.152953 0.04219,-0.1494368 0.04395,-0.1494368 0.04219,-0.1511949 0.04395,-0.1441625 0.04219,-0.1459207 0.04395,-0.1406464 0.04219,-0.1424045 0.04395,-0.1353721 0.04219,-0.1336141 0.04395,-0.1300979 0.04219,-0.1248237 0.04219,-0.1230656 0.04395,-0.1195494 0.04219,-0.1125172 0.04395,-0.1090009 0.04219,-0.1037267 0.04395,-0.098453 0.04219,-0.09142 0.04395,-0.089662 0.04219,-0.079114 0.04395,-0.075597 0.04219,-0.070323 0.04395,-0.061533 0.04219,-0.056259 0.04395,-0.049226 0.04219,-0.042194 0.04395,-0.03692 0.04219,-0.028129 0.04395,-0.021097 0.04219,-0.014065 0.04395,-0.00703 h 0.04044 l 0.04219,0.00703 0.04395,0.014065 0.04219,0.021097 0.04395,0.028129 0.04219,0.03692 0.04395,0.042194 0.04219,0.049226 0.04395,0.056259 0.04219,0.061533 0.04395,0.070323 0.04219,0.075597 0.04219,0.079114 0.04395,0.089662 0.04219,0.09142 0.04395,0.098453 0.04219,0.1037267 0.04395,0.1090009 0.04219,0.1125172 0.04395,0.1195494 0.04219,0.1230656 0.04395,0.1248237 0.04219,0.1300979 0.04395,0.1336141 0.04219,0.1353721 0.04395,0.1424045 0.04219,0.1406464 0.04395,0.1459207 0.04219,0.1441625 0.04395,0.1511949 0.04219,0.1494368 0.04395,0.1494368 0.04219,0.152953 0.04219,0.1511948 0.04395,0.1547111 0.04219,0.1529529 0.04395,0.1547111 0.04219,0.1529529 0.04395,0.1511949 0.04219,0.152953 0.04395,0.1511949 0.04219,0.1494368 0.04395,0.1476787 0.04219,0.1476787 0.04395,0.1424045 0.04219,0.1441625 0.04395,0.1406464 0.04219,0.1406464 0.04395,0.1336141 0.04219,0.1336141 0.04395,0.1336141 0.04219,0.1265817 0.04395,0.1283399 0.04219,0.1213075 0.04219,0.1195494 0.04395,0.1160333 0.04219,0.1160333 0.04395,0.110759 0.04219,0.1054848 0.04395,0.1054848 0.04219,0.1002106 0.04395,0.098453 0.04219,0.093178 0.04395,0.093178 0.04219,0.087904 0.04395,0.086146 0.04219,0.08263 0.04395,0.077356 0.04219,0.0756 0.04395,0.07384 0.04219,0.07032 0.04395,0.06681 0.04219,0.06329 0.04395,0.06153 0.04219,0.05802 0.04219,0.05626 0.04395,0.0545 0.04219,0.04923 0.04395,0.04923 0.04219,0.04395 0.04395,0.04571 0.04219,0.04044 0.04395,0.03868 0.04219,0.03692 0.04395,0.03692 0.04219,0.0334 0.04395,0.02989 0.04219,0.03165 0.04395,0.02637 0.04219,0.02637 0.04395,0.02461 0.04219,0.02461 0.04395,0.0211 0.04219,0.0211 0.04395,0.01934 0.04219,0.01758 0.04219,0.01758 0.04395,0.01406 0.04219,0.01758 0.04395,0.01231 0.04044,0.01055 0.04395,0.01231 0.04219,0.01231 0.04395,0.01055 0.04219,0.0088 0.04395,0.01055 0.04219,0.007 0.04395,0.0088 0.04219,0.007 0.04219,0.0053 0.04395,0.007 0.04219,0.0053 0.04395,0.0035 0.04219,0.007 0.04395,0.0035 0.04219,0.0053 0.04395,0.0035 0.04219,0.0018 0.04395,0.0035 0.04219,0.0035 0.04395,0.0018 0.04219,0.0035 0.04395,0.0018 0.04219,0.0018 0.04395,0.0035 h 0.04219 l 0.04395,0.0018 0.04219,0.0018 h 0.04395 l 0.04219,0.0018 h 0.04219 l 0.04395,0.0018 h 0.04219 l 0.04395,0.0018 h 0.04219 0.04395 l 0.04219,0.0035 h 0.04395 0.04219 0.04395 0.04219 l 0.04395,0.0018 h 0.04219 0.04395 0.04219 0.04395 0.04219 0.04395 0.04219 0.04395" id="path6" style="fill:none;fill-rule:evenodd;stroke:#ff6600;stroke-width:0.35;stroke-linejoin:bevel;stroke-dasharray:none;stroke-opacity:1;image-rendering:optimizeQuality;shape-rendering:geometricPrecision;text-rendering:geometricPrecision" />
</svg>
