<?xml version="1.0" encoding="UTF-8" standalone="no"?>
  <svg
 role="img"
 focusable="false"
 aria-hidden="true"
 viewBox="0 0 14 14"
 version="1.1"
 id="svg12"
 xmlns="http://www.w3.org/2000/svg">
  <rect
 id="rect28089"
 width="0.53186357"
 height="12.584304"
 x="6.7340684"
 y="0.70784807" fill="#696969" fill-opacity="1" stroke-width="0.547874" />
  <rect
 id="rect28089-7"
 width="0.53186357"
 height="12.5176"
 x="6.7340684"
 y="-13.258801"
 transform="rotate(90)" fill="#696969" fill-opacity="1" stroke-width="0.54642" />
  <path
 d="m 0.61482615,11.270947 0.080858,-0.01105 0.080858,-0.01127 0.080858,-0.0115 0.080859,-0.01173 0.080858,-0.01197 0.080858,-0.01221 0.080858,-0.01246 0.080859,-0.01271 0.080858,-0.01297 0.080858,-0.01323 0.080858,-0.0135 0.080859,-0.01378 0.080858,-0.01405 0.080858,-0.01434 0.080858,-0.01463 0.080858,-0.01492 0.080859,-0.01522 0.080858,-0.01553 0.080858,-0.01584 0.080858,-0.01616 0.080858,-0.01649 0.080858,-0.01683 0.080858,-0.01716 0.080858,-0.01751 0.080858,-0.01787 0.080859,-0.01823 0.080858,-0.01859 0.080858,-0.01897 0.080858,-0.01935 0.080858,-0.01974 0.080858,-0.02014 0.080858,-0.02055 0.080858,-0.02096 0.080858,-0.02138 0.080859,-0.02182 0.080858,-0.02226 0.080858,-0.02271 0.080859,-0.02317 0.080858,-0.02364 0.080858,-0.02411 0.080858,-0.0246 0.080858,-0.02509 0.080858,-0.02561 0.080858,-0.02612 0.080858,-0.02665 0.080858,-0.02719 0.080859,-0.02773 0.080858,-0.0283 0.080858,-0.02887 0.080858,-0.02945 0.080859,-0.03005 0.080858,-0.03065 0.080858,-0.03127 0.080858,-0.0319 0.080858,-0.03255 0.080858,-0.03321 0.080858,-0.03387 0.080858,-0.03456 0.080859,-0.03526 0.080858,-0.03597 0.080858,-0.03669 0.080858,-0.03744 0.080858,-0.0382 0.080859,-0.03896 0.080858,-0.03975 0.080858,-0.04056 0.080858,-0.04138 0.080858,-0.04222 0.080859,-0.04307 0.080858,-0.04394 0.080858,-0.04482 0.080859,-0.04573 0.080857,-0.04665 0.080858,-0.0476 0.080858,-0.04856 0.080858,-0.04954 0.080859,-0.05054 0.080858,-0.05156 0.080857,-0.0526 0.080859,-0.05366 0.080858,-0.05474 0.080858,-0.05585 0.080858,-0.05698 0.080858,-0.05814 0.080858,-0.05931 0.080857,-0.0605 0.080858,-0.06173 0.080858,-0.06298 0.080858,-0.06424 0.080858,-0.06554 0.080858,-0.06687 0.080858,-0.06821 0.080858,-0.0696 0.080858,-0.071 0.080859,-0.07244 0.080858,-0.0739 0.080858,-0.07539 0.080858,-0.07692 0.080858,-0.07847 0.080858,-0.08006 0.080858,-0.08167 0.080858,-0.08332 0.080859,-0.085 0.080857,-0.08672 0.080858,-0.08847 0.080858,-0.09026 0.080858,-0.092084 0.080859,-0.093945 0.080857,-0.095844 0.080858,-0.097778 0.080858,-0.099755 0.08084,-0.1017767 0.080859,-0.1038259 0.080858,-0.1059222 0.080858,-0.1080632 0.080858,-0.1102454 0.08086,-0.1124732 0.08086,-0.1147439 0.08086,-0.1170638 0.08086,-0.119426 L 10.39865,5.6649295 10.47951,5.540629 10.56037,5.4138162 10.64123,5.2844418 10.72209,5.1524542 10.80295,5.0178003 10.88381,4.8804253 10.96467,4.7402752 11.04553,4.5972954 11.12639,4.4514263 11.20725,4.3026095 11.28811,4.1507876 11.36897,3.9958984 11.44983,3.8378798 11.53069,3.6766703 11.61155,3.5122025 11.69241,3.3444138 11.77327,3.173234 11.85413,2.9985973 11.93499,2.8204317 12.01585,2.6386678 12.09671,2.453232 12.17757,2.26405 12.25843,2.0710459 12.33929,1.874144 12.42015,1.6732629 12.50101,1.4683243 12.58187,1.2592455 12.66273,1.0459428 12.74359,0.82833252"
 id="path5900" fill="none" stroke="#da251d" stroke-width="0.5" stroke-dasharray="none" stroke-opacity="1" />
</svg>
