<?xml version="1.0" encoding="UTF-8" standalone="no"?>
<svg
   role="img"
   focusable="false"
   aria-hidden="true"
   viewBox="0 0 14 14"
   version="1.1"
   id="svg12"
   sodipodi:docname="interactive_fit.svg"
   inkscape:version="1.4.2 (f4327f4, 2025-05-13)"
   xmlns:inkscape="http://www.inkscape.org/namespaces/inkscape"
   xmlns:sodipodi="http://sodipodi.sourceforge.net/DTD/sodipodi-0.dtd"
   xmlns="http://www.w3.org/2000/svg"
   xmlns:svg="http://www.w3.org/2000/svg">
  <defs
     id="defs16" />
  <sodipodi:namedview
     id="namedview14"
     pagecolor="#ffffff"
     bordercolor="#000000"
     borderopacity="0.25"
     inkscape:showpageshadow="2"
     inkscape:pageopacity="0.0"
     inkscape:pagecheckerboard="0"
     inkscape:deskcolor="#d1d1d1"
     showgrid="false"
     inkscape:zoom="21.137442"
     inkscape:cx="-1.6794842"
     inkscape:cy="12.51334"
     inkscape:window-width="1920"
     inkscape:window-height="1009"
     inkscape:window-x="-8"
     inkscape:window-y="-8"
     inkscape:window-maximized="1"
     inkscape:current-layer="svg12" />
  <g
     id="g5"
     transform="matrix(0.03054242,0,0,0.03054242,-0.89402465,-1.0144076)">
    <path
       fill="#597b91"
       d="M 463.962,58.145 H 52.959 c -7.574,0 -13.713,6.14 -13.713,13.713 V 454.75 c 0,6.577 5.692,11.91 12.714,11.91 h 413.002 c 7.022,0 12.714,-5.332 12.714,-11.91 V 71.858 c -10e-4,-7.574 -6.14,-13.713 -13.714,-13.713 z"
       id="path1" />
    <circle
       fill="#d32a2a"
       cx="64.638"
       cy="90.449997"
       r="9.349"
       id="circle1" />
    <circle
       fill="#132028"
       cx="450.448"
       cy="90.449997"
       r="9.349"
       id="circle2" />
    <circle
       fill="#59cafc"
       cx="94.792999"
       cy="90.449997"
       r="9.349"
       id="circle3" />
    <path
       fill="#ffffff"
       d="m 401.169,101.021 h -262.88 c -5.589,0 -10.12,-4.531 -10.12,-10.12 v -0.903 c 0,-5.589 4.531,-10.12 10.12,-10.12 h 262.88 c 5.589,0 10.12,4.531 10.12,10.12 v 0.903 c 0,5.59 -4.531,10.12 -10.12,10.12 z"
       id="path3" />
    <path
       fill="#cfd3d3"
       d="m 172.378,101.021 h -33.637 c -5.839,0 -10.572,-4.733 -10.572,-10.572 0,-5.839 4.733,-10.572 10.572,-10.572 h 33.637 z"
       id="path4" />
    <path
       fill="#e0e0e0"
       d="m 61.234,122.755 v 312.127 c 0,6.325 5.122,11.452 11.44,11.452 h 371.63 c 6.318,0 11.44,-5.127 11.44,-11.452 V 122.755 Z"
       id="path5" />
  </g>
  <g
     id="g1"
     transform="matrix(0.780813,0,0,0.780813,1.5343079,2.2516394)">
    <rect
       style="fill:#696969;fill-opacity:0.817241;stroke-width:0.547874"
       id="rect28089"
       width="0.53186357"
       height="12.584304"
       x="6.7340684"
       y="0.70784807" />
    <rect
       style="fill:#696969;fill-opacity:0.817241;stroke-width:0.54642"
       id="rect28089-7"
       width="0.53186357"
       height="12.5176"
       x="6.7340684"
       y="-13.258801"
       transform="rotate(90)" />
    <path
       id="polynomial"
       fill="none"
       stroke="#ff0000"
       stroke-width="0.0220592px"
       stroke-linecap="square"
       d="M 1.4802918,12.652509 C 1.5813427,10.919553 1.683854,9.4700874 1.787925,8.2631271 1.9848785,5.9789651 2.1878911,4.5578968 2.3979754,3.7319625 c 0.1798512,-0.707079 0.3654747,-0.9803001 0.55794,-0.9803001 0.181306,0 0.3693161,0.2424595 0.5656265,0.5984318 0.1804159,0.3271591 0.3683373,0.7510777 0.5662799,1.1757575 0.1716158,0.3681895 0.3502025,0.7357348 0.5394129,1.045121 0.1619925,0.2648851 0.3280405,0.4810326 0.5029593,0.624551 0.160301,0.1315191 0.319231,0.1948129 0.4814762,0.1948129 0.1851295,0 0.3656689,-0.082406 0.5456398,-0.2156352 C 6.3732036,6.0148713 6.5849776,5.78435 6.7960982,5.5474512 7.0259146,5.2895728 7.2545129,5.0246472 7.4855457,4.8367801 7.680207,4.6784873 7.8753077,4.5759539 8.074378,4.5759539 c 0.1582171,0 0.3152868,0.064765 0.4744308,0.2086082 0.1658245,0.1498806 0.3258577,0.3783471 0.4842766,0.6773829 0.1760475,0.3323088 0.343375,0.7390633 0.5054844,1.1837737 0.1888361,0.5180298 0.3681922,1.0809663 0.5407622,1.6174084 0.19575,0.6084878 0.382681,1.1826017 0.562723,1.6113762 0.188592,0.4491337 0.370157,0.7400667 0.545891,0.7400667 0.259497,0 0.507629,-0.6343677 0.746495,-2.3514429 0.200709,-1.4427734 0.395555,-3.6548845 0.585269,-6.9156378"
       style="stroke:#da251d;stroke-width:0.35;stroke-dasharray:none;stroke-opacity:1" />
  </g>
</svg>
