<?xml version="1.0" encoding="UTF-8" standalone="no"?>
  <svg
 role="img"
 focusable="false"
 aria-hidden="true"
 viewBox="0 0 14 14"
 version="1.1"
 id="svg12"
 xmlns="http://www.w3.org/2000/svg">
  <rect
 id="rect28089"
 width="0.53186357"
 height="12.584304"
 x="6.7340684"
 y="0.70784807" fill="#696969" fill-opacity="0.817241" stroke-width="0.547874" />
  <rect
 id="rect28089-7"
 width="0.53186357"
 height="12.5176"
 x="6.7340684"
 y="-13.258801"
 transform="rotate(90)" fill="#696969" fill-opacity="0.817241" stroke-width="0.54642" />
  <g
 id="g1"
 transform="matrix(0.96267442,0,0,1,0.01952688,0)">
  <g
 id="0"
 transform="matrix(6.7874995e-4,0,0,6.7874995e-4,0.34667491,7.5260217)"
 style="fill-rule:evenodd;stroke-width:493.554;stroke-dasharray:none;image-rendering:optimizeQuality;shape-rendering:geometricPrecision;text-rendering:geometricPrecision">
  <path
 class="fil1 str1"
 d="m 260,5786 v 0 h 24 25 24 25 24 25 24 25 l 24,-1 h 24 25 24 25 l 24,-2 h 25 24 l 25,-1 h 24 l 25,-1 h 24 l 25,-1 h 24 l 25,-1 24,-1 h 25 l 24,-2 25,-1 24,-1 25,-2 24,-1 24,-2 25,-2 24,-1 25,-2 24,-3 25,-2 24,-4 25,-2 24,-3 25,-4 24,-3 25,-4 24,-5 25,-4 24,-6 25,-5 24,-6 25,-7 24,-7 23,-6 25,-7 24,-10 25,-8 24,-10 25,-10 24,-11 25,-12 24,-12 25,-14 24,-14 25,-15 24,-15 25,-18 24,-17 25,-19 24,-21 24,-21 25,-22 24,-23 25,-26 24,-25 25,-28 24,-28 25,-31 24,-32 25,-33 24,-35 25,-36 24,-38 25,-40 24,-42 25,-43 24,-44 25,-47 24,-49 25,-50 24,-53 24,-53 25,-56 24,-57 25,-60 24,-60 25,-63 24,-66 25,-66 24,-68 25,-69 24,-73 25,-72 24,-76 25,-76 24,-76 25,-80 24,-80 25,-82 24,-81 25,-84 24,-84 24,-85 25,-86 24,-87 25,-86 24,-87 25,-88 24,-87 25,-88 24,-86 25,-87 24,-85 25,-85 24,-86 25,-82 24,-83 25,-80 24,-81 25,-77 24,-76 25,-74 24,-71 24,-70 25,-68 24,-64 25,-62 24,-59 25,-56 24,-52 25,-51 24,-45 25,-43 24,-40 25,-35 24,-32 25,-28 24,-24 25,-21 24,-16 25,-12 24,-8 25,-4 h 23 l 24,4 25,8 24,12 25,16 24,21 25,24 24,28 25,32 24,35 25,40 24,43 24,45 25,51 24,52 25,56 24,59 25,62 24,64 25,68 24,70 25,71 24,74 25,76 24,77 25,81 24,80 25,83 24,82 25,86 24,85 25,85 24,87 24,86 25,88 24,87 25,88 24,87 25,86 24,87 25,86 24,85 25,84 24,84 25,81 24,82 25,80 24,80 25,76 24,76 25,76 24,72 25,73 24,69 24,68 25,66 24,66 25,63 24,60 25,60 24,57 25,56 24,53 25,53 24,50 25,49 24,47 25,44 24,43 25,42 24,40 25,38 24,36 25,35 24,33 24,32 25,31 24,28 25,28 24,25 25,26 24,23 25,22 24,21 25,21 24,19 25,17 24,18 25,15 24,15 25,14 24,14 25,12 24,12 25,11 24,10 24,10 25,8 24,10 25,7 23,6 25,7 24,7 25,6 24,5 25,6 24,4 25,5 24,4 24,3 25,4 24,3 25,2 24,4 25,2 24,3 25,2 24,1 25,2 24,2 25,1 24,2 25,1 24,1 25,2 h 24 l 25,1 24,1 h 25 l 24,1 h 24 l 25,1 h 24 l 25,1 h 24 25 l 24,2 h 25 24 25 24 l 25,1 h 24 25 24 25 24 25 24 25"
 id="path6" fill="none" stroke="#da251d" stroke-width="493.554" stroke-dasharray="none" />
  </g>
  <g
 id="0-2"
 transform="matrix(8.6283278e-4,0,0,0.00172612,4.7015894,1.4728893)"
 style="fill-rule:evenodd;stroke-width:199.117;stroke-dasharray:none;image-rendering:optimizeQuality;shape-rendering:geometricPrecision;text-rendering:geometricPrecision">
  <path
 class="fil1 str1"
 d="m 260,5786 v 0 h 24 25 24 25 24 25 24 25 l 24,-1 h 24 25 24 25 l 24,-2 h 25 24 l 25,-1 h 24 l 25,-1 h 24 l 25,-1 h 24 l 25,-1 24,-1 h 25 l 24,-2 25,-1 24,-1 25,-2 24,-1 24,-2 25,-2 24,-1 25,-2 24,-3 25,-2 24,-4 25,-2 24,-3 25,-4 24,-3 25,-4 24,-5 25,-4 24,-6 25,-5 24,-6 25,-7 24,-7 23,-6 25,-7 24,-10 25,-8 24,-10 25,-10 24,-11 25,-12 24,-12 25,-14 24,-14 25,-15 24,-15 25,-18 24,-17 25,-19 24,-21 24,-21 25,-22 24,-23 25,-26 24,-25 25,-28 24,-28 25,-31 24,-32 25,-33 24,-35 25,-36 24,-38 25,-40 24,-42 25,-43 24,-44 25,-47 24,-49 25,-50 24,-53 24,-53 25,-56 24,-57 25,-60 24,-60 25,-63 24,-66 25,-66 24,-68 25,-69 24,-73 25,-72 24,-76 25,-76 24,-76 25,-80 24,-80 25,-82 24,-81 25,-84 24,-84 24,-85 25,-86 24,-87 25,-86 24,-87 25,-88 24,-87 25,-88 24,-86 25,-87 24,-85 25,-85 24,-86 25,-82 24,-83 25,-80 24,-81 25,-77 24,-76 25,-74 24,-71 24,-70 25,-68 24,-64 25,-62 24,-59 25,-56 24,-52 25,-51 24,-45 25,-43 24,-40 25,-35 24,-32 25,-28 24,-24 25,-21 24,-16 25,-12 24,-8 25,-4 h 23 l 24,4 25,8 24,12 25,16 24,21 25,24 24,28 25,32 24,35 25,40 24,43 24,45 25,51 24,52 25,56 24,59 25,62 24,64 25,68 24,70 25,71 24,74 25,76 24,77 25,81 24,80 25,83 24,82 25,86 24,85 25,85 24,87 24,86 25,88 24,87 25,88 24,87 25,86 24,87 25,86 24,85 25,84 24,84 25,81 24,82 25,80 24,80 25,76 24,76 25,76 24,72 25,73 24,69 24,68 25,66 24,66 25,63 24,60 25,60 24,57 25,56 24,53 25,53 24,50 25,49 24,47 25,44 24,43 25,42 24,40 25,38 24,36 25,35 24,33 24,32 25,31 24,28 25,28 24,25 25,26 24,23 25,22 24,21 25,21 24,19 25,17 24,18 25,15 24,15 25,14 24,14 25,12 24,12 25,11 24,10 24,10 25,8 24,10 25,7 23,6 25,7 24,7 25,6 24,5 25,6 24,4 25,5 24,4 24,3 25,4 24,3 25,2 24,4 25,2 24,3 25,2 24,1 25,2 24,2 25,1 24,2 25,1 24,1 25,2 h 24 l 25,1 24,1 h 25 l 24,1 h 24 l 25,1 h 24 l 25,1 h 24 25 l 24,2 h 25 24 25 24 l 25,1 h 24 25 24 25 24 25 24 25"
 id="path6-4" fill="none" stroke="#da251d" stroke-width="199.117" stroke-dasharray="none" />
  </g>
  <g
 id="0-6"
 transform="matrix(4.0899267e-4,0,0,9.9893282e-4,10.733566,5.6800927)"
 style="fill-rule:evenodd;stroke-width:355.14;stroke-dasharray:none;image-rendering:optimizeQuality;shape-rendering:geometricPrecision;text-rendering:geometricPrecision">
  <path
 class="fil1 str1"
 d="m 260,5786 v 0 h 24 25 24 25 24 25 24 25 l 24,-1 h 24 25 24 25 l 24,-2 h 25 24 l 25,-1 h 24 l 25,-1 h 24 l 25,-1 h 24 l 25,-1 24,-1 h 25 l 24,-2 25,-1 24,-1 25,-2 24,-1 24,-2 25,-2 24,-1 25,-2 24,-3 25,-2 24,-4 25,-2 24,-3 25,-4 24,-3 25,-4 24,-5 25,-4 24,-6 25,-5 24,-6 25,-7 24,-7 23,-6 25,-7 24,-10 25,-8 24,-10 25,-10 24,-11 25,-12 24,-12 25,-14 24,-14 25,-15 24,-15 25,-18 24,-17 25,-19 24,-21 24,-21 25,-22 24,-23 25,-26 24,-25 25,-28 24,-28 25,-31 24,-32 25,-33 24,-35 25,-36 24,-38 25,-40 24,-42 25,-43 24,-44 25,-47 24,-49 25,-50 24,-53 24,-53 25,-56 24,-57 25,-60 24,-60 25,-63 24,-66 25,-66 24,-68 25,-69 24,-73 25,-72 24,-76 25,-76 24,-76 25,-80 24,-80 25,-82 24,-81 25,-84 24,-84 24,-85 25,-86 24,-87 25,-86 24,-87 25,-88 24,-87 25,-88 24,-86 25,-87 24,-85 25,-85 24,-86 25,-82 24,-83 25,-80 24,-81 25,-77 24,-76 25,-74 24,-71 24,-70 25,-68 24,-64 25,-62 24,-59 25,-56 24,-52 25,-51 24,-45 25,-43 24,-40 25,-35 24,-32 25,-28 24,-24 25,-21 24,-16 25,-12 24,-8 25,-4 h 23 l 24,4 25,8 24,12 25,16 24,21 25,24 24,28 25,32 24,35 25,40 24,43 24,45 25,51 24,52 25,56 24,59 25,62 24,64 25,68 24,70 25,71 24,74 25,76 24,77 25,81 24,80 25,83 24,82 25,86 24,85 25,85 24,87 24,86 25,88 24,87 25,88 24,87 25,86 24,87 25,86 24,85 25,84 24,84 25,81 24,82 25,80 24,80 25,76 24,76 25,76 24,72 25,73 24,69 24,68 25,66 24,66 25,63 24,60 25,60 24,57 25,56 24,53 25,53 24,50 25,49 24,47 25,44 24,43 25,42 24,40 25,38 24,36 25,35 24,33 24,32 25,31 24,28 25,28 24,25 25,26 24,23 25,22 24,21 25,21 24,19 25,17 24,18 25,15 24,15 25,14 24,14 25,12 24,12 25,11 24,10 24,10 25,8 24,10 25,7 23,6 25,7 24,7 25,6 24,5 25,6 24,4 25,5 24,4 24,3 25,4 24,3 25,2 24,4 25,2 24,3 25,2 24,1 25,2 24,2 25,1 24,2 25,1 24,1 25,2 h 24 l 25,1 24,1 h 25 l 24,1 h 24 l 25,1 h 24 l 25,1 h 24 25 l 24,2 h 25 24 25 24 l 25,1 h 24 25 24 25 24 25 24 25"
 id="path6-7" fill="none" stroke="#da251d" stroke-width="355.14" stroke-dasharray="none" />
  </g>
  </g>
</svg>
