<?xml version="1.0" encoding="UTF-8" standalone="no"?>
  <svg
 role="img"
 focusable="false"
 aria-hidden="true"
 viewBox="0 0 14 14"
 version="1.1"
 id="svg12"
 xmlns="http://www.w3.org/2000/svg">
  <rect
 id="rect28089"
 width="0.53186357"
 height="12.584304"
 x="6.7340684"
 y="0.70784807" fill="#696969" fill-opacity="0.817241" stroke-width="0.547874" />
  <rect
 id="rect28089-7"
 width="0.53186357"
 height="12.5176"
 x="6.7340684"
 y="-13.258801"
 transform="rotate(90)" fill="#696969" fill-opacity="0.817241" stroke-width="0.54642" />
  <g
 transform="matrix(0.02859249,0,0,0.02859249,-1.7208957,0.09993511)"
 id="g3796"
 style="stroke-width:14.1233;stroke-dasharray:none">
  <polyline
 id="polyline94"
 points="102.938,391.714 103.7,391.635 104.462,391.555 105.225,391.474 105.987,391.393 106.75,391.31 107.513,391.227 108.275,391.142 109.038,391.057 109.8,390.971 110.563,390.883 111.325,390.795 112.087,390.706 112.85,390.616 113.612,390.524 114.375,390.432 115.138,390.339 115.9,390.245 116.663,390.149 117.425,390.052 118.188,389.955 118.95,389.855 119.712,389.755 120.475,389.654 121.237,389.552 122,389.448 122.763,389.343 123.525,389.237 124.288,389.13 125.05,389.021 125.813,388.911 126.575,388.8 127.337,388.688 128.1,388.573 128.862,388.458 129.625,388.341 130.388,388.223 131.15,388.103 131.913,387.982 132.675,387.859 133.438,387.735 134.2,387.609 134.962,387.481 135.725,387.353 136.487,387.222 137.25,387.089 138.013,386.955 138.775,386.819 139.538,386.682 140.3,386.542 141.063,386.401 141.825,386.258 142.587,386.113 143.35,385.967 144.112,385.818 144.875,385.667 145.638,385.515 146.4,385.36 147.163,385.203 147.925,385.044 148.688,384.883 149.45,384.719 150.212,384.554 150.975,384.386 151.737,384.216 152.5,384.043 153.263,383.869 154.025,383.691 154.788,383.511 155.55,383.329 156.313,383.144 157.075,382.956 157.837,382.766 158.6,382.573 159.362,382.377 160.125,382.179 160.888,381.977 161.65,381.772 162.413,381.565 163.175,381.354 163.938,381.141 164.7,380.924 165.462,380.704 166.225,380.481 166.987,380.254 167.75,380.024 168.513,379.791 169.275,379.553 170.038,379.313 170.8,379.068 171.563,378.82 172.325,378.568 173.087,378.312 173.85,378.051 174.612,377.787 175.375,377.519 176.138,377.246 176.9,376.969 177.663,376.688 178.425,376.402 179.188,376.111 179.95,375.816 180.712,375.516 181.475,375.21 182.237,374.9 183,374.585 183.763,374.265 184.525,373.939 185.288,373.607 186.05,373.271 186.813,372.928 187.575,372.579 188.337,372.225 189.1,371.864 189.862,371.497 190.625,371.124 191.388,370.744 192.15,370.357 192.913,369.964 193.675,369.564 194.438,369.156 195.2,368.742 195.962,368.319 196.725,367.89 197.487,367.452 198.25,367.006 199.013,366.553 199.775,366.09 200.538,365.62 201.3,365.14 202.063,364.652 202.825,364.154 203.587,363.647 204.35,363.13 205.112,362.604 205.875,362.067 206.638,361.52 207.4,360.962 208.163,360.393 208.925,359.813 209.688,359.222 210.45,358.62 211.212,358.005 211.975,357.377 212.737,356.738 213.5,356.085 214.263,355.419 215.025,354.74 215.788,354.047 216.55,353.339 217.313,352.617 218.075,351.88 218.837,351.127 219.6,350.359 220.362,349.575 221.125,348.773 221.888,347.956 222.65,347.12 223.413,346.266 224.175,345.394 224.938,344.503 225.7,343.593 226.462,342.663 227.225,341.712 227.987,340.741 228.75,339.748 229.513,338.732 230.275,337.694 231.038,336.633 231.8,335.548 232.563,334.438 233.325,333.304 234.087,332.144 234.85,330.956 235.612,329.742 236.375,328.5 237.138,327.229 237.9,325.928 238.663,324.597 239.425,323.235 240.188,321.841 240.95,320.415 241.712,318.955 242.475,317.46 243.237,315.931 244,314.364 244.763,312.761 245.525,311.12 246.288,309.439 247.05,307.719 247.813,305.958 248.575,304.154 249.337,302.308 250.1,300.417 250.862,298.481 251.625,296.499 252.388,294.47 253.15,292.393 253.913,290.266 254.675,288.088 255.438,285.86 256.2,283.579 256.962,281.244 257.725,278.854 258.487,276.41 259.25,273.909 260.013,271.35 260.775,268.733 261.538,266.058 262.3,263.322 263.063,260.526 263.825,257.668 264.587,254.75 265.35,251.769 266.112,248.725 266.875,245.619 267.638,242.45 268.4,239.218 269.163,235.924 269.925,232.568 270.688,229.15 271.45,225.672 272.212,222.135 272.975,218.54 273.737,214.888 274.5,211.181 275.263,207.422 276.025,203.614 276.788,199.759 277.55,195.86 278.313,191.921 279.075,187.947 279.837,183.941 280.6,179.91 281.362,175.858 282.125,171.792 282.888,167.718 283.65,163.643 284.413,159.575 285.175,155.521 285.938,151.49 286.7,147.491 287.462,143.535 288.225,139.629 288.987,135.786 289.75,132.015 290.513,128.328 291.275,124.736 292.038,121.25 292.8,117.882 293.563,114.645 294.325,111.548 295.087,108.605 295.85,105.826 296.612,103.223 297.375,100.805 298.138,98.5845 298.9,96.5693 299.663,94.769 300.425,93.1914 301.188,91.8438 301.95,90.7329 302.712,89.8628 303.475,89.2388 304.237,88.8628 305,88.7373 305.763,88.8628 306.525,89.2388 307.288,89.8628 308.05,90.7329 308.813,91.8438 309.575,93.1914 310.337,94.769 311.1,96.5693 311.862,98.5845 312.625,100.805 313.388,103.223 314.15,105.826 314.913,108.605 315.675,111.548" fill="none" stroke="#da251d" stroke-width="14.1233" stroke-dasharray="none" />
  <polyline
 id="polyline96"
 points="101.413,391.87 102.175,391.792" fill="none" stroke="#da251d" stroke-width="14.1233" stroke-dasharray="none" />
  <polyline
 id="polyline98"
 points="316.438,114.645 317.2,117.882 317.962,121.25 318.725,124.736 319.487,128.328 320.25,132.015 321.013,135.786 321.775,139.629 322.538,143.535 323.3,147.491 324.063,151.49 324.825,155.521 325.587,159.575 326.35,163.643 327.112,167.718 327.875,171.792 328.638,175.858 329.4,179.91 330.163,183.941 330.925,187.947 331.688,191.921 332.45,195.86 333.212,199.759 333.975,203.614 334.737,207.422 335.5,211.181 336.263,214.888 337.025,218.54 337.788,222.135 338.55,225.672 339.313,229.15 340.075,232.568 340.837,235.924 341.6,239.218 342.362,242.45 343.125,245.619 343.888,248.725 344.65,251.769 345.413,254.75 346.175,257.668 346.938,260.526 347.7,263.322 348.462,266.058 349.225,268.733 349.987,271.35 350.75,273.909 351.513,276.41 352.275,278.854 353.038,281.244 353.8,283.579 354.563,285.86 355.325,288.088 356.087,290.266 356.85,292.393 357.612,294.47 358.375,296.499 359.138,298.481 359.9,300.417 360.663,302.308 361.425,304.154 362.188,305.958 362.95,307.719 363.712,309.439 364.475,311.12 365.237,312.761 366,314.364 366.763,315.931 367.525,317.46 368.288,318.955 369.05,320.415 369.813,321.841 370.575,323.235 371.337,324.597 372.1,325.928 372.862,327.229 373.625,328.5 374.388,329.742 375.15,330.956 375.913,332.144 376.675,333.304 377.438,334.438 378.2,335.548 378.962,336.633 379.725,337.694 380.487,338.732 381.25,339.748 382.013,340.741 382.775,341.712 383.538,342.663 384.3,343.593 385.063,344.503 385.825,345.394 386.587,346.266 387.35,347.12 388.112,347.956 388.875,348.773 389.638,349.575 390.4,350.359 391.163,351.127 391.925,351.88 392.688,352.617 393.45,353.339 394.212,354.047 394.975,354.74 395.737,355.419 396.5,356.085 397.263,356.738 398.025,357.377 398.788,358.005 399.55,358.62 400.313,359.222 401.075,359.813 401.837,360.393 402.6,360.962 403.362,361.52 404.125,362.067 404.888,362.604 405.65,363.13 406.413,363.647 407.175,364.154 407.938,364.652 408.7,365.14 409.462,365.62 410.225,366.09 410.987,366.553 411.75,367.006 412.513,367.452 413.275,367.89 414.038,368.319 414.8,368.742 415.563,369.156 416.325,369.564 417.087,369.964 417.85,370.357 418.612,370.744 419.375,371.124 420.138,371.497 420.9,371.864 421.663,372.225 422.425,372.579 423.188,372.928 423.95,373.271 424.712,373.607 425.475,373.939 426.237,374.265 427,374.585 427.763,374.9 428.525,375.21 429.288,375.516 430.05,375.816 430.813,376.111 431.575,376.402 432.337,376.688 433.1,376.969 433.862,377.246 434.625,377.519 435.388,377.787 436.15,378.051 436.913,378.312 437.675,378.568 438.438,378.82 439.2,379.068 439.962,379.313 440.725,379.553 441.487,379.791 442.25,380.024 443.013,380.254 443.775,380.481 444.538,380.704 445.3,380.924 446.063,381.141 446.825,381.354 447.587,381.565 448.35,381.772 449.112,381.977 449.875,382.179 450.638,382.377 451.4,382.573 452.163,382.766 452.925,382.956 453.688,383.144 454.45,383.329 455.212,383.511 455.975,383.691 456.737,383.869 457.5,384.043 458.263,384.216 459.025,384.386 459.788,384.554 460.55,384.719 461.313,384.883 462.075,385.044 462.837,385.203 463.6,385.36 464.362,385.515 465.125,385.667 465.888,385.818 466.65,385.967 467.413,386.113 468.175,386.258 468.938,386.401 469.7,386.542 470.462,386.682 471.225,386.819 471.987,386.955 472.75,387.089 473.513,387.222 474.275,387.353 475.038,387.481 475.8,387.609 476.563,387.735 477.325,387.859 478.087,387.982 478.85,388.103 479.612,388.223 480.375,388.341 481.138,388.458 481.9,388.573 482.663,388.688 483.425,388.8 484.188,388.911 484.95,389.021 485.712,389.13 486.475,389.237 487.237,389.343 488,389.448 488.763,389.552 489.525,389.654 490.288,389.755 491.05,389.855 491.813,389.955 492.575,390.052 493.337,390.149 494.1,390.245 494.862,390.339 495.625,390.432 496.388,390.524 497.15,390.616 497.913,390.706 498.675,390.795 499.438,390.883 500.2,390.971 500.962,391.057 501.725,391.142 502.487,391.227 503.25,391.31 504.013,391.393 504.775,391.474 505.538,391.555 506.3,391.635 507.063,391.714 507.825,391.792 508.587,391.87 509.35,391.946 510.112,392.022 510.875,392.097 511.638,392.171 512.4,392.244 513.163,392.317 513.925,392.389 514.688,392.459 515.45,392.53 516.212,392.6 516.975,392.668 517.737,392.736 518.5,392.804 519.263,392.871 520.025,392.937 520.788,393.002 521.55,393.067 522.313,393.131 523.075,393.195 523.837,393.257 524.6,393.32 525.362,393.381 526.125,393.442 526.888,393.502 527.65,393.563 528.413,393.622 529.175,393.68 529.938,393.738 530.7,393.795 531.462,393.853 532.225,393.909 532.987,393.965 533.75,394.02" fill="none" stroke="#da251d" stroke-width="14.1233" stroke-dasharray="none" />
  <polyline
 id="polyline100"
 points="100.65,391.946 101.413,391.87" fill="none" stroke="#da251d" stroke-width="14.1233" stroke-dasharray="none" />
  <polyline
 id="polyline102"
 points="102.175,391.792 102.938,391.714" fill="none" stroke="#da251d" stroke-width="14.1233" stroke-dasharray="none" />
  <polyline
 id="polyline104"
 points="99.8877,392.022 100.65,391.946" fill="none" stroke="#da251d" stroke-width="14.1233" stroke-dasharray="none" />
  <polyline
 id="polyline106"
 points="99.125,392.097 99.8877,392.022" fill="none" stroke="#da251d" stroke-width="14.1233" stroke-dasharray="none" />
  <polyline
 id="polyline108"
 points="98.3623,392.171 99.125,392.097" fill="none" stroke="#da251d" stroke-width="14.1233" stroke-dasharray="none" />
  <polyline
 id="polyline110"
 points="97.6001,392.244 98.3623,392.171" fill="none" stroke="#da251d" stroke-width="14.1233" stroke-dasharray="none" />
  <polyline
 id="polyline112"
 points="96.8374,392.317 97.6001,392.244" fill="none" stroke="#da251d" stroke-width="14.1233" stroke-dasharray="none" />
  <polyline
 id="polyline114"
 points="96.0752,392.389 96.8374,392.317" fill="none" stroke="#da251d" stroke-width="14.1233" stroke-dasharray="none" />
  <polyline
 id="polyline116"
 points="95.3125,392.459 96.0752,392.389" fill="none" stroke="#da251d" stroke-width="14.1233" stroke-dasharray="none" />
  <polyline
 id="polyline118"
 points="94.5498,392.53 95.3125,392.459" fill="none" stroke="#da251d" stroke-width="14.1233" stroke-dasharray="none" />
  <polyline
 id="polyline120"
 points="93.7876,392.6 94.5498,392.53" fill="none" stroke="#da251d" stroke-width="14.1233" stroke-dasharray="none" />
  <polyline
 id="polyline122"
 points="93.0249,392.668 93.7876,392.6" fill="none" stroke="#da251d" stroke-width="14.1233" stroke-dasharray="none" />
  <polyline
 id="polyline124"
 points="92.2627,392.736 93.0249,392.668" fill="none" stroke="#da251d" stroke-width="14.1233" stroke-dasharray="none" />
  <polyline
 id="polyline126"
 points="91.5,392.804 92.2627,392.736" fill="none" stroke="#da251d" stroke-width="14.1233" stroke-dasharray="none" />
  <polyline
 id="polyline128"
 points="90.7373,392.871 91.5,392.804" fill="none" stroke="#da251d" stroke-width="14.1233" stroke-dasharray="none" />
  <polyline
 id="polyline130"
 points="89.9751,392.937 90.7373,392.871" fill="none" stroke="#da251d" stroke-width="14.1233" stroke-dasharray="none" />
  <polyline
 id="polyline132"
 points="89.2124,393.002 89.9751,392.937" fill="none" stroke="#da251d" stroke-width="14.1233" stroke-dasharray="none" />
  <polyline
 id="polyline134"
 points="88.4502,393.067 89.2124,393.002" fill="none" stroke="#da251d" stroke-width="14.1233" stroke-dasharray="none" />
  <polyline
 id="polyline136"
 points="87.6875,393.131 88.4502,393.067" fill="none" stroke="#da251d" stroke-width="14.1233" stroke-dasharray="none" />
  <polyline
 id="polyline138"
 points="86.9248,393.195 87.6875,393.131" fill="none" stroke="#da251d" stroke-width="14.1233" stroke-dasharray="none" />
  <polyline
 id="polyline140"
 points="86.1626,393.257 86.9248,393.195" fill="none" stroke="#da251d" stroke-width="14.1233" stroke-dasharray="none" />
  <polyline
 id="polyline142"
 points="85.3999,393.32 86.1626,393.257" fill="none" stroke="#da251d" stroke-width="14.1233" stroke-dasharray="none" />
  <polyline
 id="polyline144"
 points="84.6377,393.381 85.3999,393.32" fill="none" stroke="#da251d" stroke-width="14.1233" stroke-dasharray="none" />
  <polyline
 id="polyline146"
 points="83.875,393.442 84.6377,393.381" fill="none" stroke="#da251d" stroke-width="14.1233" stroke-dasharray="none" />
  <polyline
 id="polyline148"
 points="83.1123,393.502 83.875,393.442" fill="none" stroke="#da251d" stroke-width="14.1233" stroke-dasharray="none" />
  <polyline
 id="polyline150"
 points="82.3501,393.563 83.1123,393.502" fill="none" stroke="#da251d" stroke-width="14.1233" stroke-dasharray="none" />
  <polyline
 id="polyline152"
 points="81.5874,393.622 82.3501,393.563" fill="none" stroke="#da251d" stroke-width="14.1233" stroke-dasharray="none" />
  <polyline
 id="polyline154"
 points="80.8252,393.68 81.5874,393.622" fill="none" stroke="#da251d" stroke-width="14.1233" stroke-dasharray="none" />
  <polyline
 id="polyline156"
 points="80.0625,393.738 80.8252,393.68" fill="none" stroke="#da251d" stroke-width="14.1233" stroke-dasharray="none" />
  <polyline
 id="polyline158"
 points="79.2998,393.795 80.0625,393.738" fill="none" stroke="#da251d" stroke-width="14.1233" stroke-dasharray="none" />
  <polyline
 id="polyline160"
 points="78.5376,393.853 79.2998,393.795" fill="none" stroke="#da251d" stroke-width="14.1233" stroke-dasharray="none" />
  <polyline
 id="polyline162"
 points="77.7749,393.909 78.5376,393.853" fill="none" stroke="#da251d" stroke-width="14.1233" stroke-dasharray="none" />
  <polyline
 id="polyline164"
 points="77.0127,393.965 77.7749,393.909" fill="none" stroke="#da251d" stroke-width="14.1233" stroke-dasharray="none" />
  <polyline
 id="polyline166"
 points="76.25,394.02 77.0127,393.965"
 transform="translate(0.01322523,0.00463424)" fill="none" stroke="#da251d" stroke-width="14.1233" stroke-dasharray="none" />
  <polyline
 id="polyline168"
 points="315.675,111.548 316.438,114.645" fill="none" stroke="#da251d" stroke-width="14.1233" stroke-dasharray="none" />
  </g>
</svg>
