<?xml version="1.0" encoding="UTF-8" standalone="no"?>
  <svg
 role="img"
 focusable="false"
 aria-hidden="true"
 viewBox="0 0 14 14"
 version="1.1"
 id="svg12"
 xmlns="http://www.w3.org/2000/svg">
  <rect
 id="rect28089"
 width="0.53186357"
 height="12.584304"
 x="6.7340684"
 y="0.70784807" fill="#696969" fill-opacity="0.817241" stroke-width="0.547874" />
  <rect
 id="rect28089-7"
 width="0.53186357"
 height="12.5176"
 x="6.7340684"
 y="-13.258801"
 transform="rotate(90)" fill="#696969" fill-opacity="0.817241" stroke-width="0.54642" />
  <path
 id="polynomial"
 fill="none"
 stroke-width="0.0220592px"
 stroke-linecap="square"
 d="M 1.4802918,12.652509 C 1.5813427,10.919553 1.683854,9.4700874 1.787925,8.2631271 1.9848785,5.9789651 2.1878911,4.5578968 2.3979754,3.7319625 c 0.1798512,-0.707079 0.3654747,-0.9803001 0.55794,-0.9803001 0.181306,0 0.3693161,0.2424595 0.5656265,0.5984318 0.1804159,0.3271591 0.3683373,0.7510777 0.5662799,1.1757575 0.1716158,0.3681895 0.3502025,0.7357348 0.5394129,1.045121 0.1619925,0.2648851 0.3280405,0.4810326 0.5029593,0.624551 0.160301,0.1315191 0.319231,0.1948129 0.4814762,0.1948129 0.1851295,0 0.3656689,-0.082406 0.5456398,-0.2156352 C 6.3732036,6.0148713 6.5849776,5.78435 6.7960982,5.5474512 7.0259146,5.2895728 7.2545129,5.0246472 7.4855457,4.8367801 7.680207,4.6784873 7.8753077,4.5759539 8.074378,4.5759539 c 0.1582171,0 0.3152868,0.064765 0.4744308,0.2086082 0.1658245,0.1498806 0.3258577,0.3783471 0.4842766,0.6773829 0.1760475,0.3323088 0.343375,0.7390633 0.5054844,1.1837737 0.1888361,0.5180298 0.3681922,1.0809663 0.5407622,1.6174084 0.19575,0.6084878 0.382681,1.1826017 0.562723,1.6113762 0.188592,0.4491337 0.370157,0.7400667 0.545891,0.7400667 0.259497,0 0.507629,-0.6343677 0.746495,-2.3514429 0.200709,-1.4427734 0.395555,-3.6548845 0.585269,-6.9156378" stroke-dasharray="none" stroke="#da251d" stroke-opacity="1" />
</svg>
