<?xml version="1.0" encoding="UTF-8" standalone="no"?>
  <svg
 role="img"
 focusable="false"
 aria-hidden="true"
 viewBox="0 0 14 14"
 version="1.1"
 id="svg12"
 xmlns="http://www.w3.org/2000/svg">
  <rect
 id="rect28089"
 width="0.53186357"
 height="12.584304"
 x="6.7340684"
 y="0.70784807" fill="#696969" fill-opacity="0.817241" stroke-width="0.547874" />
  <rect
 id="rect28089-7"
 width="0.53186357"
 height="12.5176"
 x="6.7340684"
 y="-13.258801"
 transform="rotate(90)" fill="#696969" fill-opacity="0.817241" stroke-width="0.54642" />
  <path
 class="fil1 str1"
 d="m 0.55660255,11.379281 v 0 h 0.0421939 0.043952 0.0421939 0.043952 0.0421939 0.043952 0.0421939 0.043952 l 0.0421939,-0.0018 h 0.0421939 0.043952 0.042194 0.043952 l 0.042194,-0.0035 h 0.043952 0.042194 l 0.043952,-0.0018 h 0.042194 l 0.043952,-0.0018 h 0.042194 l 0.043952,-0.0018 H 1.50245 l 0.043952,-0.0018 0.042194,-0.0018 h 0.043952 l 0.042194,-0.0035 0.043952,-0.0018 0.042194,-0.0018 0.043952,-0.0035 0.042194,-0.0018 0.042194,-0.0035 0.043952,-0.0035 0.042194,-0.0018 0.043952,-0.0035 0.042194,-0.0053 0.043952,-0.0035 0.042194,-0.007 0.043952,-0.0035 0.042194,-0.0053 0.043952,-0.007 0.042194,-0.0053 0.043952,-0.007 0.042194,-0.0088 0.043952,-0.007 0.042194,-0.01055 0.043952,-0.0088 0.042194,-0.01055 0.043952,-0.01231 0.042194,-0.01231 0.040436,-0.01055 0.043952,-0.01231 0.042194,-0.01758 0.043952,-0.01406 0.042194,-0.01758 0.043952,-0.01758 0.042194,-0.01934 0.043952,-0.0211 0.042194,-0.0211 0.043952,-0.02461 0.042194,-0.02461 0.043952,-0.02637 0.042194,-0.02637 0.043952,-0.03165 0.042194,-0.02989 0.043952,-0.0334 0.042194,-0.03692 0.042194,-0.03692 0.043952,-0.03868 0.042194,-0.04044 0.043952,-0.04571 0.042194,-0.04395 0.043952,-0.04923 0.042194,-0.04923 0.043952,-0.0545 0.042194,-0.05626 0.043952,-0.05802 0.042194,-0.06153 0.043952,-0.06329 0.042194,-0.06681 0.043952,-0.07032 0.042194,-0.07384 L 4.083314,9.956713 4.125508,9.879357 4.16946,9.796727 4.211654,9.710581 4.255606,9.622677 4.2978,9.529499 4.339994,9.436321 4.383946,9.337868 4.426137,9.23794 4.4700886,9.1324548 4.5122825,9.02697 4.5562345,8.916211 4.5984285,8.8001777 4.6423805,8.6841444 4.6845744,8.564595 4.7285264,8.4432875 4.7707203,8.3149476 4.8146723,8.1883659 4.8568662,8.0547518 4.9008182,7.9211377 4.9430121,7.7875236 4.9869641,7.6468772 5.0291581,7.5062308 5.0731101,7.3620683 5.115304,7.2196638 5.159256,7.0719851 5.2014499,6.9243064 5.2436438,6.7748696 5.2875958,6.6236747 5.3297897,6.4707217 5.3737417,6.3195268 5.4159357,6.1665739 5.4598877,6.0118628 5.5020816,5.8589099 5.5460336,5.7041988 5.5882275,5.553004 5.6321795,5.400051 5.6743734,5.2506142 5.7183254,5.1011774 5.7605193,4.9499825 5.8044713,4.80582 5.8466653,4.6598993 5.8906173,4.5192529 5.9328112,4.3768484 5.9767632,4.2414763 6.0189571,4.1078622 6.0629091,3.9777643 6.105103,3.8529406 6.1472969,3.729875 l 0.043952,-0.1195494 0.042194,-0.1125172 0.043952,-0.1090009 0.042194,-0.1037267 0.043952,-0.098452 0.042194,-0.09142 0.043952,-0.089662 0.042194,-0.079114 0.043952,-0.075597 0.042194,-0.070323 0.043952,-0.061533 0.042194,-0.056259 0.043952,-0.049226 0.042194,-0.042194 0.043952,-0.03692 0.042194,-0.028129 0.043952,-0.021097 0.042194,-0.014065 0.043952,-0.00703 h 0.040436"
 id="path6" fill="none" stroke="#da251d" stroke-width="0.35" stroke-dasharray="none" />
  <path
 class="fil1 str1"
 d="M 13.204251,8.448231 13.142691,8.436194 13.078671,8.426574 13.017211,8.414537 12.953191,8.4025 12.891731,8.389258 12.827711,8.37481 12.766251,8.360362 12.702231,8.34351 12.640771,8.326658 12.576751,8.3086 12.515291,8.290542 12.451271,8.26887 12.389811,8.248403 12.325791,8.225532 12.264231,8.200251 12.202771,8.17497 l -0.06402,-0.026485 -0.06146,-0.027691 -0.06402,-0.0313 -0.06146,-0.030095 -0.06402,-0.03371 -0.06146,-0.033711 -0.06402,-0.037318 -0.06146,-0.038524 -0.06402,-0.039729 -0.06146,-0.042133 -0.06402,-0.043337 -0.06146,-0.045748 -0.06402,-0.048151 -0.06147,-0.050561 -0.06402,-0.051767 -0.06146,-0.052972 -0.06402,-0.05658 -0.06171,-0.05899 -0.06402,-0.06019 -0.06138,-0.063805 -0.06146,-0.063806 -0.06402,-0.067413 -0.06146,-0.068427 -0.06402,-0.072231 -0.06146,-0.07223 L 10.571351,6.882224 10.509891,6.80277 10.445871,6.723316 10.384411,6.641455 10.320391,6.558391 10.258931,6.47051 10.194911,6.383834 10.133461,6.292351 10.069441,6.20086 10.007891,6.109425 9.943868,6.0131791 9.8824072,5.9168955 9.8183841,5.8181803 9.7569248,5.7206697 9.6929017,5.6195469 9.6314424,5.518425 9.5699832,5.4160985 9.50596,5.3125682 9.4445008,5.2078341 9.380478,5.1043038 9.3190187,4.9995697 9.2549957,4.8936318 9.1935364,4.7888977 9.1295134,4.6829598 9.0680541,4.5794296 9.004031,4.4746955 8.9425718,4.372369 8.8785487,4.2700432 8.8170895,4.1665129 8.7530664,4.0677977 8.6916071,3.9678788 8.6275841,3.8715718 8.5661248,3.7740613 8.5021017,3.681365 8.4406425,3.5898732 8.3766194,3.500789 8.3151604,3.415317 8.2537014,3.331048 8.1896784,3.249187 8.1282194,3.172141 8.0641964,3.097503 8.0027374,3.026476 7.9387144,2.959063 7.8772554,2.896464 7.8132324,2.83507 7.7517734,2.7809 7.6877504,2.729133 7.6262914,2.680982 7.5622684,2.63885 7.5008094,2.600326 7.4367864,2.566616 7.3753274,2.537727 7.3113044,2.512446 7.2498454,2.493184 7.1858224,2.478736 7.1243634,2.469106 7.0603404,2.464316 h -0.05891"
 id="path6-8" fill="none" stroke="#da251d" stroke-width="0.34956" stroke-dasharray="none" />
</svg>
