<?xml version="1.0" encoding="UTF-8" standalone="no"?>
<svg
   role="img"
   focusable="false"
   aria-hidden="true"
   viewBox="0 0 14 14"
   version="1.1"
   id="svg6"
   sodipodi:docname="fileopen_h5.svg"
   inkscape:version="1.2.2 (732a01da63, 2022-12-09)"
   xmlns:inkscape="http://www.inkscape.org/namespaces/inkscape"
   xmlns:sodipodi="http://sodipodi.sourceforge.net/DTD/sodipodi-0.dtd"
   xmlns:xlink="http://www.w3.org/1999/xlink"
   xmlns="http://www.w3.org/2000/svg"
   xmlns:svg="http://www.w3.org/2000/svg">
  <defs
     id="defs10">
    <linearGradient
       id="BlueGreen"
       gradientUnits="userSpaceOnUse"
       y1="20"
       x1="0"
       y2="180"
       x2="0"
       xlink:href="#linearGradientStops"
       gradientTransform="matrix(0.01432918,0,0,0.01432918,4.3523275,6.6499205)" />
    <linearGradient
       id="linearGradientStops">
      <stop
         offset="0"
         style="stop-color:#0515fe"
         id="stop2" />
      <stop
         offset="1"
         style="stop-color:#2cab28"
         id="stop4" />
    </linearGradient>
    <linearGradient
       id="BlueGreen-3"
       gradientUnits="userSpaceOnUse"
       y1="20"
       x1="0"
       y2="180"
       x2="0"
       xlink:href="#linearGradientStops"
       gradientTransform="matrix(0.01528505,0,-0.00362829,0.01528505,4.6510126,6.3736634)" />
  </defs>
  <sodipodi:namedview
     id="namedview8"
     pagecolor="#ffffff"
     bordercolor="#666666"
     borderopacity="1.0"
     inkscape:pageshadow="2"
     inkscape:pageopacity="0.0"
     inkscape:pagecheckerboard="0"
     showgrid="false"
     inkscape:zoom="59.428571"
     inkscape:cx="2.6838943"
     inkscape:cy="7.0504808"
     inkscape:window-width="1920"
     inkscape:window-height="1017"
     inkscape:window-x="-8"
     inkscape:window-y="-8"
     inkscape:window-maximized="1"
     inkscape:current-layer="svg6"
     inkscape:showpageshadow="2"
     inkscape:deskcolor="#d1d1d1" />
  <g
     id="g447"
     transform="matrix(1.0801283,0,0,1.0678153,-0.58493595,-0.53618489)">
    <path
       fill="#ffa000"
       d="M 10.672764,3.5860832 H 6.1208753 L 4.982903,2.4481109 H 2.1379723 c -0.6258847,0 -1.1379722,0.5120875 -1.1379722,1.1379723 v 6.8278338 c 0,0.625885 0.5120875,1.137972 1.1379722,1.137972 h 8.8192857 c 0.483638,0 0.853479,-0.369841 0.853479,-0.853479 V 4.7240554 c 0,-0.6258847 -0.512088,-1.1379722 -1.137973,-1.1379722 z"
       id="path2" />
    <path
       fill="#ffca28"
       d="M 11.867635,5.2930416 H 4.2147717 c -0.5405368,0 -1.024175,0.3982903 -1.1095229,0.9388271 L 2.1379723,11.551889 h 9.0184307 c 0.540536,0 1.024175,-0.39829 1.109523,-0.938827 L 12.977158,6.630159 C 13.119405,5.9473756 12.578868,5.2930416 11.867635,5.2930416 Z"
       id="path4" />
  </g>
  <path
     style="fill:url(#BlueGreen-3);stroke-width:0.0152851"
     d="M 7.174383,6.4388522 A 0.32590913,0.41299645 48.384303 0 0 6.7247523,6.8108876 L 6.4153141,8.1144753 H 5.0470322 L 5.3552515,6.8160223 A 0.32590913,0.41299645 48.384303 0 0 5.071201,6.4439873 0.32590913,0.41299645 48.384303 0 0 4.6215712,6.8160223 L 3.8257174,10.168761 a 0.32590913,0.41299645 48.384303 1 0 0.7336804,0 L 4.872875,8.8481577 H 6.9748374 L 7.3673857,7.194447 C 8.4567712,7.2997356 8.738254,7.9387314 8.5952323,8.5196484 8.4374631,9.1603397 7.7368699,9.8596735 6.3575295,9.8150272 A 0.32590913,0.41299645 48.384303 1 0 6.1598937,10.548321 c 1.0127864,0.03278 1.8721389,-0.328288 2.4476497,-0.8597838 L 8.4863933,10.198915 a 0.32590913,0.41299645 48.384303 1 0 0.7336811,0 L 9.5363437,8.8665473 H 10.758461 A 0.32590913,0.41299645 48.384303 1 0 10.932618,8.1328652 H 9.7105191 L 9.9372438,7.1777288 H 11.653525 A 0.32590913,0.41299645 48.384303 1 0 11.827682,6.4440467 H 7.2386465 a 0.32590913,0.41299645 48.384303 0 0 -0.064276,-0.00519 z"
     id="path10-2" />
</svg>
