<?xml version="1.0" encoding="UTF-8" standalone="no"?>
  <svg
 version="1.1"
 width="256"
 height="256"
 viewBox="0 0 256 256"
 xml:space="preserve"
 id="svg2"
 xmlns="http://www.w3.org/2000/svg">
  <defs
 id="defs1">
  </defs>
  <g
 style="opacity:1;fill:none;fill-rule:nonzero;stroke:none;stroke-width:0;stroke-linecap:butt;stroke-linejoin:miter;stroke-miterlimit:10;stroke-dasharray:none"
 transform="matrix(-2.4247935,0,0,2.4247935,237.11641,18.88308)"
 id="g2">
  <path
 d="M 89.566,43.779 64.315,12.722 c -0.368,-0.452 -0.92,-0.714 -1.502,-0.714 h -19.52 c -0.747,0 -1.427,0.43 -1.748,1.104 -0.321,0.674 -0.225,1.473 0.246,2.053 L 66.049,45 41.791,74.836 c -0.471,0.579 -0.567,1.378 -0.246,2.053 0.321,0.674 1.001,1.104 1.748,1.104 h 19.521 c 0.582,0 1.134,-0.263 1.502,-0.714 L 89.567,46.222 c 0.578,-0.712 0.578,-1.732 -10e-4,-2.443 z"
 stroke-linecap="round"
 id="path1" opacity="1" fill="#ffcd50" stroke="none" stroke-width="1" stroke-dasharray="none" />
  <path
 d="M 48.208,43.779 22.958,12.722 C 22.59,12.27 22.039,12.008 21.456,12.008 H 1.936 c -0.747,0 -1.427,0.43 -1.748,1.104 -0.321,0.674 -0.225,1.473 0.246,2.053 L 24.692,45 0.434,74.836 c -0.471,0.579 -0.567,1.378 -0.246,2.053 0.321,0.674 1.001,1.104 1.748,1.104 h 19.521 c 0.583,0 1.134,-0.263 1.502,-0.714 l 25.25,-31.057 c 0.577,-0.712 0.577,-1.732 -0.001,-2.443 z"
 stroke-linecap="round"
 id="path2" opacity="1" fill="#ffcd50" stroke="none" stroke-width="1" stroke-dasharray="none" />
  </g>
</svg>
