<?xml version="1.0" encoding="utf-8"?>
<!-- Generator: Adobe Illustrator 26.5.0, SVG Export Plug-In . SVG Version: 6.00 Build 0)  -->
<svg version="1.1" xmlns="http://www.w3.org/2000/svg" xmlns:xlink="http://www.w3.org/1999/xlink" x="0px" y="0px"
	 viewBox="0 0 200.05 200.05" style="enable-background:new 0 0 200.05 200.05;" xml:space="preserve">
<style type="text/css">
	.st0{fill:#E60019;}
	.st1{fill:#FFFFFF;}
</style>
<g id="Calque_1">
</g>
<g id="_x32_.2">
	<rect class="st0" width="200.05" height="200.05"/>
	<g>
		<path class="st1" d="M59.33,113.55c11.94,0,22.08-6.55,23.93-7.75c1.28,2.24,6.36,7.75,17.35,7.75c8.7,0,18.35-4.33,21.57-6.41
			c1.97,2.64,6.01,6.42,18.33,6.42c8.14,0,13.3-2.82,16.54-6.71c0.06,2.05,0.14,4.04,0.23,5.57l4.93,0.76
			c-0.16-5.14-0.03-22.94-0.03-23.21c0-22.36-17-23.94-20.56-23.94c-5.53,0-10.86,1.15-16.47,3.36l-0.4,5.89
			c2.18-1.02,9.18-4.03,16.16-4.03c5.49,0,9.72,1.84,12.59,5.48c-18.9,9.94-30.18,17.94-31.88,24.57
			c-4.84,3.27-13.36,7.05-20.95,7.05c-8.08,0-11.56-3.49-13.07-5.52c20.74-13.95,31.49-22,30.17-28.36
			c-1.18-5.73-9.7-8.42-17.34-8.42c-7.81,0-13.18,3.37-15.72,5.99c-4.08,4.21-6.03,10.45-5.78,18.55c0.11,3.54,0.81,7.23,1.98,10.46
			c-3.18,2.07-11.85,7.31-21.8,7.31c-11.82,0-16.68-9.23-16.68-18.55c0-9.03,4.54-18.56,16.68-18.56c6.83,0,13.68,2.88,16.02,3.96
			l-0.39-5.88c-4.41-1.72-10.21-3.28-15.23-3.28c-20.1,0-21.76,16.87-21.66,23.74C37.76,96.68,39.6,113.55,59.33,113.55z
			 M155.87,81.15c0.64,1.61,1.18,3.69,1.51,5.65c0.02,0.1,1.38,10.56-4.19,16.95c-2.88,3.31-7.22,4.76-12.73,4.8
			c-12.57,0.11-13.79-4.66-13.79-4.66C125.36,100.97,129.6,95.07,155.87,81.15z M87.92,75.86c2.88-3.31,7.15-4.98,12.66-4.98
			c5.94,0,10.93,2.07,11.44,4.45c0.38,1.78-1.3,4.06-8.98,10.22c-0.08,0.07-7.84,6.65-17.86,12.6c-0.63-1.6-1.12-3.4-1.45-5.34
			C83.71,92.7,82.35,82.25,87.92,75.86z"/>
		<rect x="42.73" y="129.15" class="st1" width="114.58" height="4.88"/>
	</g>
</g>
</svg>
