<?xml version="1.0" encoding="UTF-8" standalone="no"?>
<svg
   enable-background="new 0 0 128 128"
   id="Слой_1"
   version="1.1"
   viewBox="0 0 128 128"
   xml:space="preserve"
   sodipodi:docname="x.svg"
   inkscape:version="1.4 (86a8ad7, 2024-10-11)"
   xmlns:inkscape="http://www.inkscape.org/namespaces/inkscape"
   xmlns:sodipodi="http://sodipodi.sourceforge.net/DTD/sodipodi-0.dtd"
   xmlns="http://www.w3.org/2000/svg"
   xmlns:svg="http://www.w3.org/2000/svg"><defs
     id="defs21" /><sodipodi:namedview
     id="namedview21"
     pagecolor="#ffffff"
     bordercolor="#000000"
     borderopacity="0.25"
     inkscape:showpageshadow="2"
     inkscape:pageopacity="0.0"
     inkscape:pagecheckerboard="true"
     inkscape:deskcolor="#d1d1d1"
     inkscape:zoom="4.4912329"
     inkscape:cx="33.175745"
     inkscape:cy="73.142499"
     inkscape:window-width="1920"
     inkscape:window-height="1009"
     inkscape:window-x="-8"
     inkscape:window-y="-8"
     inkscape:window-maximized="1"
     inkscape:current-layer="Слой_1" /><g
     id="g8"
     transform="matrix(0.05003595,0,0,0.05003595,0.56867565,47.393819)"><path
       class="cls-2"
       d="m 446.06,479.34 43.97,43.97 c -48.33,48.33 -112.56,74.95 -180.87,74.95 -68.31,0 -132.54,-26.62 -180.87,-74.95 C 79.96,474.98 53.34,410.75 53.34,342.44 c 0,-68.31 26.62,-132.54 74.95,-180.87 48.33,-48.33 112.56,-74.95 180.87,-74.95 68.31,0 132.54,26.62 180.87,74.95 l -43.97,43.97 c -36.57,-36.57 -85.18,-56.69 -136.9,-56.69 -51.72,0 -100.32,20.12 -136.9,56.69 -36.57,36.57 -56.69,85.18 -56.69,136.9 0,51.72 20.12,100.33 56.69,136.9 36.57,36.57 85.18,56.69 136.9,56.69 51.72,0 100.32,-20.12 136.9,-56.69 z"
       id="path1"
       style="fill:#004d9a" /><path
       class="cls-2"
       d="m 1501.09,342.44 c 0,66.49 -25.89,128.99 -72.91,176.01 -47,47.01 -109.51,72.9 -176,72.9 H 1086.25 V 93.54 h 165.93 c 66.48,0 128.99,25.89 176,72.9 47.02,47.01 72.91,109.52 72.91,176 z m -62.22,0 c 0,-49.86 -19.42,-96.75 -54.67,-132 -35.26,-35.26 -82.14,-54.68 -132,-54.68 h -103.71 v 373.36 h 103.71 c 49.86,0 96.74,-19.42 132,-54.67 35.26,-35.26 54.68,-82.14 54.68,-132 z"
       id="path2"
       style="fill:#004d9a" /><path
       class="cls-2"
       d="m 1830.27,415.66 109.79,175.69 H 1866.7 L 1762.99,425.41 H 1628.93 V 591.35 H 1566.7 V 93.54 h 207.42 c 44.32,0 86.01,17.29 117.33,48.6 31.32,31.33 48.6,73.01 48.6,117.33 0,44.32 -17.29,86.01 -48.6,117.33 -17.56,17.56 -38.44,30.77 -61.19,38.86 z m -56.14,-52.48 c 27.72,0 53.72,-10.78 73.36,-30.35 19.57,-19.63 30.35,-45.63 30.35,-73.36 0,-27.73 -10.79,-53.72 -30.35,-73.36 -19.64,-19.57 -45.63,-30.35 -73.36,-30.35 h -145.19 v 207.42 z"
       id="path3"
       style="fill:#004d9a" /><path
       class="cls-2"
       d="m 2108,474.17 -55.82,117.17 h -67.9 L 2202.07,93.53 h 62.23 l 217.79,497.81 h -67.89 l -54.27,-122.31 c -156.81,-56.55 -251.92,5.14 -251.92,5.14 z m 225.71,-66.74 -100.53,-229.75 -96.91,229.66 c 0,0 80.63,-36.39 197.44,0.09 z"
       id="path4"
       style="fill:#004d9a" /><path
       class="cls-1"
       d="m 913.75,309.97 c 5.47,17.03 8.43,35.2 8.43,54.05 0,97.49 -79.03,176.53 -176.53,176.53 -97.5,0 -176.53,-79.03 -176.53,-176.53 0,-87.63 63.86,-160.35 147.57,-174.17 l 49.3,-99.91 C 632.89,96.36 526.94,206.31 526.94,341 c 0,134.69 112.54,251.36 251.36,251.36 138.82,0 251.36,-112.54 251.36,-251.36 0,-58.85 -20.23,-112.98 -54.1,-155.81 l -61.81,124.77 z"
       id="path5"
       style="fill:#9da0a2" /><path
       class="cls-2"
       d="m 671.98,569.53 c 32.29,15.1 68.32,23.53 106.32,23.53 138.82,0 251.36,-112.54 251.36,-251.36 0,-59.05 -20.36,-113.34 -54.44,-156.24 L 914.4,309.29 c 14.38,17.8 23.25,49.6 23.25,80.56 0,104.35 -83.9,191.93 -188.25,191.93 -27.28,0 -52.27,-3.45 -75.96,-11.73 l -1.46,-0.53 z"
       id="path6"
       style="fill:#004d9a" /><path
       class="cls-2"
       d="M 823.34,205.2 883.48,73.45 c 0.79,-1.74 0.65,-3.76 -0.38,-5.36 -1.03,-1.61 -2.81,-2.58 -4.72,-2.58 h -62.77 c -2.2,0 -4.19,1.28 -5.1,3.28 l -54.33,118.16 c 24.03,1.59 46.73,7.99 67.17,18.25 z"
       id="path7"
       style="fill:#004d9a" /><path
       class="cls-1"
       d="m 983.31,68.09 c -1.03,-1.61 -2.81,-2.58 -4.72,-2.58 h -62.77 c -2.2,0 -4.19,1.28 -5.1,3.28 L 843,216.68 c 20.76,14.04 38.35,32.4 51.52,53.77 l 89.17,-197 c 0.79,-1.74 0.65,-3.76 -0.38,-5.36 z"
       id="path8"
       style="fill:#9da0a2" /></g></svg>
