<?xml version="1.0" encoding="iso-8859-1"?>
<!-- Uploaded to: SVG Repo, www.svgrepo.com, Generator: SVG Repo Mixer Tools -->
<svg version="1.1" id="Layer_1" xmlns="http://www.w3.org/2000/svg" xmlns:xlink="http://www.w3.org/1999/xlink" 
	 viewBox="0 0 512 512" xml:space="preserve">
<polygon style="fill:#B5E45F;" points="512,159.485 512,126.093 434.863,126.093 434.863,77.137 385.907,77.137 385.907,0 
	352.515,0 352.515,77.137 310.432,77.137 310.432,0 277.041,0 277.041,77.137 234.959,77.137 234.959,0 201.568,0 201.568,77.137 
	159.485,77.137 159.485,0 126.093,0 126.093,77.137 77.137,77.137 77.137,126.093 0,126.093 0,159.485 77.137,159.485 
	77.137,201.568 0,201.568 0,234.959 77.137,234.959 77.137,277.041 0,277.041 0,310.432 77.137,310.432 77.137,352.515 0,352.515 
	0,385.907 77.137,385.907 77.137,434.863 126.093,434.863 126.093,512 159.485,512 159.485,434.863 201.568,434.863 201.568,512 
	234.959,512 234.959,434.863 277.041,434.863 277.041,512 310.432,512 310.432,434.863 352.515,434.863 352.515,512 385.907,512 
	385.907,434.863 434.863,434.863 434.863,385.907 512,385.907 512,352.515 434.863,352.515 434.863,310.432 512,310.432 
	512,277.041 434.863,277.041 434.863,234.959 512,234.959 512,201.568 434.863,201.568 434.863,159.485 "/>
<g>
	<polygon style="fill:#7DBB4E;" points="512,159.485 512,126.093 434.863,126.093 434.863,77.137 385.907,77.137 385.907,0 
		352.515,0 352.515,77.137 310.432,77.137 310.432,0 277.041,0 277.041,77.137 256,77.137 256,434.863 277.041,434.863 277.041,512 
		310.432,512 310.432,434.863 352.515,434.863 352.515,512 385.907,512 385.907,434.863 434.863,434.863 434.863,385.907 
		512,385.907 512,352.515 434.863,352.515 434.863,310.432 512,310.432 512,277.041 434.863,277.041 434.863,234.959 512,234.959 
		512,201.568 434.863,201.568 434.863,159.485 	"/>
	<rect x="110.525" y="110.525" style="fill:#7DBB4E;" width="290.938" height="290.938"/>
</g>
<rect x="256" y="110.525" style="fill:#588D3F;" width="145.475" height="290.938"/>
<path style="fill:#EEBF70;" d="M342.486,256.072c6.115-6.477,9.87-15.204,9.87-24.814c0-18.792-14.335-34.225-32.664-35.987
	c0.292-1.011,0.545-3.572,0.545-9.452c0-17.739-14.381-32.119-32.119-32.119s-32.119,14.381-32.119,32.119
	c0-17.739-14.381-32.119-32.119-32.119s-32.119,14.381-32.119,32.119c0,5.88,0.255,8.441,0.545,9.452
	c-18.33,1.762-32.664,17.195-32.664,35.987c0,9.61,3.755,18.337,9.87,24.814l-0.08-0.073c-6.072,6.469-9.79,15.172-9.79,24.744
	c0,19.079,14.778,34.697,33.509,36.057l-0.002,0.01c-0.903,2.965-1.389,6.112-1.389,9.372c0,17.739,14.381,32.119,32.119,32.119
	s32.119-14.381,32.119-32.119c0,17.739,14.381,32.119,32.119,32.119s32.119-14.381,32.119-32.119c0-3.26-0.486-6.407-1.389-9.372
	l-0.002-0.01c18.731-1.361,33.509-16.978,33.509-36.057c0-9.572-3.719-18.275-9.79-24.744L342.486,256.072z"/>
<path style="fill:#E79C25;" d="M342.486,256.072c6.115-6.477,9.87-15.204,9.87-24.814c0-19.081-14.778-34.711-33.513-36.069
	c0,0,1.394,4.399,1.394-9.371c0-17.739-14.381-32.119-32.119-32.119s-32.119,14.381-32.119,32.119v140.364
	c0,17.739,14.381,32.119,32.119,32.119c17.739,0,32.119-14.381,32.119-32.119c0-3.26-0.486-6.407-1.389-9.372l-0.002-0.01
	c18.731-1.361,33.509-16.978,33.509-36.057c0-9.572-3.719-18.275-9.79-24.744L342.486,256.072z"/>
<path style="fill:#F3D49D;" d="M369.052,231.258c0-21.634-13.254-40.546-32.236-48.652c-1.662-25.423-22.862-45.601-48.698-45.601
	c-12.291,0-23.527,4.577-32.118,12.102c-8.592-7.525-19.827-12.102-32.118-12.102c-25.836,0-47.036,20.178-48.698,45.601
	c-18.982,8.106-32.236,27.018-32.236,48.652c0,8.929,2.234,17.342,6.158,24.725c-4.013,7.555-6.158,16.019-6.158,24.76
	c0,21.835,13.308,40.617,32.237,48.669c1.67,25.415,22.866,45.585,48.697,45.585c12.291,0,23.528-4.576,32.118-12.102
	c8.592,7.525,19.827,12.102,32.118,12.102c25.83,0,47.026-20.169,48.697-45.585c18.93-8.052,32.237-26.834,32.237-48.669
	c0-8.741-2.146-17.204-6.158-24.76C366.818,248.599,369.052,240.186,369.052,231.258z M223.882,341.605
	c-6.527,0-12.107-4.082-14.355-9.822c9.716-2.618,18.6-7.979,25.469-15.564l-24.75-22.416c-3.741,4.132-8.869,6.407-14.436,6.407
	c-10.736,0-19.469-8.734-19.469-19.469c0-0.117,0.014-0.233,0.017-0.349c6.026,2.394,12.585,3.725,19.453,3.725v-33.391
	c-10.736,0-19.469-8.734-19.469-19.469c0-6.647,3.405-12.582,8.583-16.105c5.473,7.279,12.966,13.059,21.817,16.38l11.728-31.264
	c-5.987-2.246-10.008-8.053-10.008-14.45c0-8.505,6.92-15.423,15.423-15.423c8.504,0,15.421,6.92,15.421,15.423v140.364
	C239.304,334.687,232.386,341.605,223.882,341.605z M288.118,341.605c-8.505,0-15.422-6.919-15.422-15.422V185.818
	c0-8.505,6.919-15.423,15.422-15.423s15.423,6.919,15.423,15.423c0,6.398-4.021,12.205-10.008,14.45l11.728,31.264
	c8.851-3.32,16.344-9.1,21.817-16.38c5.178,3.523,8.583,9.458,8.583,16.105c0,10.735-8.734,19.469-19.469,19.469v33.391
	c6.869,0,13.428-1.331,19.454-3.725c0.002,0.117,0.017,0.232,0.017,0.349c0,10.735-8.734,19.469-19.469,19.469
	c-5.567,0-10.694-2.275-14.436-6.407l-24.75,22.416c6.869,7.583,15.753,12.946,25.469,15.564
	C300.226,337.523,294.645,341.605,288.118,341.605z"/>
<path style="fill:#EEBF70;" d="M369.052,231.258c0-21.634-13.254-40.546-32.236-48.652c-1.662-25.423-22.862-45.601-48.698-45.601
	c-12.291,0-23.527,4.577-32.118,12.102c0,31.269,0,186.687,0,213.789c8.592,7.525,19.827,12.102,32.118,12.102
	c25.83,0,47.026-20.169,48.697-45.585c18.93-8.052,32.237-26.834,32.237-48.669c0-8.741-2.146-17.204-6.158-24.76
	C366.818,248.599,369.052,240.186,369.052,231.258z M288.118,341.605c-8.505,0-15.422-6.919-15.422-15.422V185.818
	c0-8.505,6.919-15.423,15.422-15.423s15.423,6.919,15.423,15.423c0,6.398-4.021,12.205-10.008,14.45l11.728,31.264
	c8.851-3.32,16.344-9.1,21.817-16.38c5.178,3.523,8.583,9.458,8.583,16.105c0,10.735-8.734,19.469-19.469,19.469v33.391
	c6.869,0,13.428-1.331,19.454-3.725c0.002,0.117,0.017,0.232,0.017,0.349c0,10.735-8.734,19.469-19.469,19.469
	c-5.567,0-10.694-2.275-14.436-6.407l-24.75,22.416c6.869,7.583,15.753,12.946,25.469,15.564
	C300.226,337.523,294.645,341.605,288.118,341.605z"/>
</svg>