<?xml version="1.0" encoding="UTF-8" standalone="no"?>
<svg
   version="1.1"
   width="256"
   height="256"
   viewBox="0 0 256 256"
   xml:space="preserve"
   id="svg14"
   sodipodi:docname="mobile-phone-1187.svg"
   inkscape:version="1.4.2 (f4327f4, 2025-05-13)"
   xmlns:inkscape="http://www.inkscape.org/namespaces/inkscape"
   xmlns:sodipodi="http://sodipodi.sourceforge.net/DTD/sodipodi-0.dtd"
   xmlns="http://www.w3.org/2000/svg"
   xmlns:svg="http://www.w3.org/2000/svg"><defs
   id="defs14">
	
	
	
	
	
	
	
	
	
	
	
	
	
	
	
	
	
	
</defs><sodipodi:namedview
   id="namedview14"
   pagecolor="#505050"
   bordercolor="#ffffff"
   borderopacity="1"
   inkscape:showpageshadow="0"
   inkscape:pageopacity="0"
   inkscape:pagecheckerboard="1"
   inkscape:deskcolor="#505050"
   inkscape:zoom="3.1523438"
   inkscape:cx="128"
   inkscape:cy="115.31103"
   inkscape:window-width="1920"
   inkscape:window-height="1009"
   inkscape:window-x="-8"
   inkscape:window-y="-8"
   inkscape:window-maximized="1"
   inkscape:current-layer="svg14" />

<circle
   cx="97.375702"
   cy="87.881859"
   r="68.408478"
   style="fill:#d3ecfb;fill-rule:nonzero;stroke:none;stroke-width:4.51809;stroke-linecap:butt;stroke-linejoin:miter;stroke-miterlimit:10;stroke-dasharray:none"
   id="circle11" /><g
   id="g1"
   transform="matrix(21.263514,0,0,21.263514,-48.031362,-58.936785)"><rect
     style="fill:#696969;fill-opacity:0.817241;stroke-width:0.402"
     id="rect28089"
     width="0.47309414"
     height="7.6168156"
     x="6.7652464"
     y="3.1933856" /><rect
     style="fill:#696969;fill-opacity:0.817241;stroke-width:0.402"
     id="rect28089-7"
     width="0.47309414"
     height="7.6168156"
     x="6.6469727"
     y="-10.810202"
     transform="rotate(90)" /><path
     style="fill:none;fill-opacity:0.817241;stroke:#ff0000;stroke-width:0.402;stroke-opacity:1"
     d="m 3.5245514,10.005941 c 0,0.09462 1.5139012,-0.5677129 1.5139012,-0.5677129 L 5.9846409,8.2081834 7.0727574,5.653475 8.2554928,4.4234302 10.195179,3.8557173"
     id="path32265" /><circle
     cx="8.2457867"
     cy="4.4486394"
     r="0.58283854"
     id="circle20-2"
     style="fill:#ff5555;stroke-width:0.19428" /><circle
     cx="7.0560775"
     cy="5.641458"
     r="0.58283854"
     id="circle22-3"
     style="fill:#ff5555;stroke-width:0.19428" /><circle
     cx="6.0082951"
     cy="8.2554922"
     r="0.58283854"
     id="circle24-6"
     style="fill:#ff5555;stroke-width:0.19428" /><circle
     cx="5.0078225"
     cy="9.4161282"
     r="0.58283854"
     id="circle26-0"
     style="fill:#ff5555;stroke-width:0.19428" /><circle
     cx="3.534256"
     cy="10.017958"
     r="0.58283854"
     id="circle28-1"
     style="fill:#ff5555;stroke-width:0.19428" /><circle
     cx="10.147869"
     cy="3.9030263"
     r="0.58283854"
     id="circle28-1-2"
     style="fill:#ff5555;stroke-width:0.19428" /></g><path
   d="m 97.398289,160.78583 c -18.677806,0 -37.351091,-7.11148 -51.569535,-21.32992 -28.432371,-28.43237 -28.432371,-74.702182 0,-103.134552 28.436888,-28.4323701 74.706696,-28.4368882 103.139066,0 28.43689,28.43237 28.43689,74.702182 0,103.134552 -14.21844,14.21844 -32.89625,21.32992 -51.569531,21.32992 z m -0.0048,-136.758208 c -16.360023,0 -32.724562,6.225935 -45.180949,18.682322 -24.912775,24.912775 -24.912775,65.444606 0,90.357376 24.912774,24.91278 65.44912,24.91278 90.36189,0 24.91278,-24.91277 24.91278,-65.444601 0,-90.357376 C 130.11803,30.258075 113.758,24.027622 97.393465,24.027622 Z"
   style="fill:#000000;fill-rule:nonzero;stroke:none;stroke-width:4.51809;stroke-linecap:butt;stroke-linejoin:miter;stroke-miterlimit:10;stroke-dasharray:none"
   stroke-linecap="round"
   id="path9" /><path
   d="m 242.37039,232.863 v 0 c -4.82984,4.82984 -12.72747,4.82984 -17.55731,0 l -60.05,-60.05 c -4.82984,-4.82984 -4.82984,-12.72747 0,-17.55732 v 0 c 4.82984,-4.82984 12.72747,-4.82984 17.55732,0 l 60.04999,60.05 c 4.82533,4.82984 4.82533,12.73199 0,17.55732 z"
   style="fill:#5b5d6e;fill-rule:nonzero;stroke:none;stroke-width:4.51809;stroke-linecap:butt;stroke-linejoin:miter;stroke-miterlimit:10;stroke-dasharray:none"
   stroke-linecap="round"
   id="path10" /><path
   d="m 233.59174,241.0046 c -4.53165,0 -8.78318,-1.75753 -11.96844,-4.94731 l -60.05903,-60.05 c -6.60094,-6.60093 -6.60094,-17.34044 0,-23.9459 6.60094,-6.60094 17.34497,-6.60094 23.9459,0 l 60.05,60.05452 c 3.18977,3.18525 4.94731,7.43678 4.94731,11.96843 0,4.53165 -1.75754,8.78318 -4.94731,11.97295 -3.18526,3.19429 -7.43678,4.94731 -11.96843,4.94731 z m -60.05,-84.86337 c -2.02411,0 -4.04821,0.7726 -5.58437,2.30875 -3.07682,3.08134 -3.07682,8.08739 0,11.16873 l 60.05452,60.05451 c 2.96387,2.96387 8.19582,2.96387 11.16421,0 1.48194,-1.48193 2.29971,-3.46989 2.29971,-5.58436 0,-2.11447 -0.81777,-4.09791 -2.29971,-5.57985 l -60.05451,-60.05903 c -1.54067,-1.54067 -3.56026,-2.30875 -5.57985,-2.30875 z"
   style="fill:#5b5d6e;fill-rule:nonzero;stroke:none;stroke-width:4.51809;stroke-linecap:butt;stroke-linejoin:miter;stroke-miterlimit:10;stroke-dasharray:none"
   stroke-linecap="round"
   id="path11" /><rect
   x="2.1837602"
   y="199.43059"
   rx="0"
   ry="0"
   width="9.0361032"
   height="26.837227"
   style="fill:#5b5d6e;fill-rule:nonzero;stroke:none;stroke-width:4.51805;stroke-linecap:butt;stroke-linejoin:miter;stroke-miterlimit:10;stroke-dasharray:none"
   transform="rotate(-45)"
   id="rect11" /><path
   d="m 97.398289,160.78583 c -18.677806,0 -37.351091,-7.11148 -51.569535,-21.32992 -28.432371,-28.43237 -28.432371,-74.702182 0,-103.134552 28.436888,-28.4323701 74.706696,-28.4368882 103.139066,0 28.43689,28.43237 28.43689,74.702182 0,103.134552 -14.21844,14.21844 -32.89625,21.32992 -51.569531,21.32992 z m -0.0048,-136.758208 c -16.360023,0 -32.724562,6.225935 -45.180949,18.682322 -24.912775,24.912775 -24.912775,65.444606 0,90.357376 24.912774,24.91278 65.44912,24.91278 90.36189,0 24.91278,-24.91277 24.91278,-65.444601 0,-90.357376 C 130.11803,30.258075 113.758,24.027622 97.393465,24.027622 Z"
   style="fill:#5b5d6e;fill-rule:nonzero;stroke:none;stroke-width:4.51809;stroke-linecap:butt;stroke-linejoin:miter;stroke-miterlimit:10;stroke-dasharray:none"
   stroke-linecap="round"
   id="path12" /><path
   d="m 97.398289,160.78583 c -18.677806,0 -37.351091,-7.11148 -51.569535,-21.32992 -28.432371,-28.43237 -28.432371,-74.702182 0,-103.134552 28.436888,-28.4323701 74.706696,-28.4368882 103.139066,0 28.43689,28.43237 28.43689,74.702182 0,103.134552 -14.21844,14.21844 -32.89625,21.32992 -51.569531,21.32992 z m -0.0048,-136.758208 c -16.360023,0 -32.724562,6.225935 -45.180949,18.682322 -24.912775,24.912775 -24.912775,65.444606 0,90.357376 24.912774,24.91278 65.44912,24.91278 90.36189,0 24.91278,-24.91277 24.91278,-65.444601 0,-90.357376 C 130.11803,30.258075 113.758,24.027622 97.393465,24.027622 Z"
   style="fill:#5b5d6e;fill-rule:nonzero;stroke:none;stroke-width:4.51809;stroke-linecap:butt;stroke-linejoin:miter;stroke-miterlimit:10;stroke-dasharray:none"
   stroke-linecap="round"
   id="path14" /></svg>
