<?xml version="1.0" encoding="UTF-8" standalone="no"?>
<svg
   version="1.1"
   width="256"
   height="256"
   viewBox="0 0 256 256"
   xml:space="preserve"
   id="svg14"
   sodipodi:docname="analysis.svg"
   inkscape:version="1.4.2 (f4327f4, 2025-05-13)"
   xmlns:inkscape="http://www.inkscape.org/namespaces/inkscape"
   xmlns:sodipodi="http://sodipodi.sourceforge.net/DTD/sodipodi-0.dtd"
   xmlns="http://www.w3.org/2000/svg"
   xmlns:svg="http://www.w3.org/2000/svg"><defs
   id="defs14">
	
	
	
	
	
	
	
	
	
	
	
	
	
	
	
	
	
	
</defs><sodipodi:namedview
   id="namedview14"
   pagecolor="#505050"
   bordercolor="#ffffff"
   borderopacity="1"
   inkscape:showpageshadow="0"
   inkscape:pageopacity="0"
   inkscape:pagecheckerboard="1"
   inkscape:deskcolor="#505050"
   inkscape:zoom="3.1523438"
   inkscape:cx="128"
   inkscape:cy="116.89715"
   inkscape:window-width="1920"
   inkscape:window-height="1009"
   inkscape:window-x="-8"
   inkscape:window-y="-8"
   inkscape:window-maximized="1"
   inkscape:current-layer="svg14" />

<circle
   cx="90.349953"
   cy="88.360413"
   r="73.084595"
   style="fill:#d3ecfb;fill-rule:nonzero;stroke:none;stroke-width:4.82693;stroke-linecap:butt;stroke-linejoin:miter;stroke-miterlimit:10;stroke-dasharray:none"
   id="circle11" /><path
   style="fill:none;fill-opacity:0.817241;stroke:#ff0000;stroke-width:8.86745;stroke-opacity:1"
   d="m 17.281371,156.83207 c 0,2.08716 33.394129,-12.52279 33.394129,-12.52279 L 71.546832,117.17655 95.548863,60.823951 121.63803,33.691219 164.42426,21.168422"
   id="path32265" /><circle
   cx="121.42393"
   cy="34.247292"
   r="12.856443"
   id="circle20-2"
   style="fill:#ff5555;stroke-width:4.28549" /><circle
   cx="95.180931"
   cy="60.558876"
   r="12.856443"
   id="circle22-3"
   style="fill:#ff5555;stroke-width:4.28549" /><circle
   cx="72.068604"
   cy="118.2201"
   r="12.856443"
   id="circle24-6"
   style="fill:#ff5555;stroke-width:4.28549" /><circle
   cx="49.999851"
   cy="143.82179"
   r="12.856443"
   id="circle26-0"
   style="fill:#ff5555;stroke-width:4.28549" /><circle
   cx="17.495438"
   cy="157.09714"
   r="12.856443"
   id="circle28-1"
   style="fill:#ff5555;stroke-width:4.28549" /><circle
   cx="163.38069"
   cy="22.211981"
   r="12.856443"
   id="circle28-1-2"
   style="fill:#ff5555;stroke-width:4.28549" /><path
   d="m 90.374085,166.24781 c -19.954545,0 -39.904258,-7.59759 -55.094617,-22.78795 -30.3758916,-30.37589 -30.3758916,-79.808514 0,-110.184404 30.380717,-30.3758897 79.813342,-30.3807165 110.189232,0 30.38072,30.37589 30.38072,79.808514 0,110.184404 -15.19035,15.19036 -35.14491,22.78795 -55.094615,22.78795 z m -0.0051,-146.106439 c -17.478327,0 -34.961479,6.651515 -48.269333,19.959369 -26.61571,26.61571 -26.61571,69.91813 0,96.53383 26.615708,26.61571 69.922958,26.61571 96.538658,0 26.61572,-26.6157 26.61572,-69.91812 0,-96.53383 C 125.33041,26.797712 107.85208,20.141371 90.36893,20.141371 Z"
   style="fill:#000000;fill-rule:nonzero;stroke:none;stroke-width:4.82693;stroke-linecap:butt;stroke-linejoin:miter;stroke-miterlimit:10;stroke-dasharray:none"
   stroke-linecap="round"
   id="path9" /><path
   d="m 245.25588,243.25187 v 0 c -5.15998,5.15999 -13.59747,5.15999 -18.75745,0 L 162.34366,179.0971 c -5.15999,-5.15999 -5.15999,-13.59747 0,-18.75746 v 0 c 5.15998,-5.15999 13.59747,-5.15999 18.75746,0 l 64.15476,64.15477 c 5.15517,5.15998 5.15517,13.60229 0,18.75746 z"
   style="fill:#5b5d6e;fill-rule:nonzero;stroke:none;stroke-width:4.82693;stroke-linecap:butt;stroke-linejoin:miter;stroke-miterlimit:10;stroke-dasharray:none"
   stroke-linecap="round"
   id="path10" /><path
   d="m 235.87716,251.95 c -4.84141,0 -9.38356,-1.87767 -12.78656,-5.28549 l -64.16441,-64.15477 c -7.05215,-7.05214 -7.05215,-18.52576 0,-25.58275 7.05215,-7.05214 18.5306,-7.05214 25.58275,0 l 64.15476,64.1596 c 3.40781,3.40299 5.28549,7.94514 5.28549,12.78655 0,4.84141 -1.87768,9.38356 -5.28549,12.79137 -3.40299,3.41264 -7.94512,5.28549 -12.78654,5.28549 z m -64.15477,-90.66428 c -2.16247,0 -4.32493,0.82541 -5.9661,2.46657 -3.28713,3.29196 -3.28713,8.6402 0,11.93218 l 64.1596,64.15959 c 3.16647,3.16646 8.75606,3.16646 11.92735,0 1.58324,-1.58324 2.45692,-3.70708 2.45692,-5.96609 0,-2.25901 -0.87368,-4.37803 -2.45692,-5.96126 l -64.15958,-64.16442 c -1.64599,-1.64599 -3.80363,-2.46657 -5.96127,-2.46657 z"
   style="fill:#5b5d6e;fill-rule:nonzero;stroke:none;stroke-width:4.82693;stroke-linecap:butt;stroke-linejoin:miter;stroke-miterlimit:10;stroke-dasharray:none"
   stroke-linecap="round"
   id="path11" /><rect
   x="-3.4322002"
   y="199.47888"
   rx="0"
   ry="0"
   width="9.6537743"
   height="28.671709"
   style="fill:#5b5d6e;fill-rule:nonzero;stroke:none;stroke-width:4.82688;stroke-linecap:butt;stroke-linejoin:miter;stroke-miterlimit:10;stroke-dasharray:none"
   transform="rotate(-45)"
   id="rect11" /><path
   d="m 90.374085,166.24781 c -19.954545,0 -39.904258,-7.59759 -55.094617,-22.78795 -30.3758916,-30.37589 -30.3758916,-79.808514 0,-110.184404 30.380717,-30.3758897 79.813342,-30.3807165 110.189232,0 30.38072,30.37589 30.38072,79.808514 0,110.184404 -15.19035,15.19036 -35.14491,22.78795 -55.094615,22.78795 z m -0.0051,-146.106439 c -17.478327,0 -34.961479,6.651515 -48.269333,19.959369 -26.61571,26.61571 -26.61571,69.91813 0,96.53383 26.615708,26.61571 69.922958,26.61571 96.538658,0 26.61572,-26.6157 26.61572,-69.91812 0,-96.53383 C 125.33041,26.797712 107.85208,20.141371 90.36893,20.141371 Z"
   style="fill:#5b5d6e;fill-rule:nonzero;stroke:none;stroke-width:4.82693;stroke-linecap:butt;stroke-linejoin:miter;stroke-miterlimit:10;stroke-dasharray:none"
   stroke-linecap="round"
   id="path12" /><path
   d="m 90.374085,166.24781 c -19.954545,0 -39.904258,-7.59759 -55.094617,-22.78795 -30.3758916,-30.37589 -30.3758916,-79.808514 0,-110.184404 30.380717,-30.3758897 79.813342,-30.3807165 110.189232,0 30.38072,30.37589 30.38072,79.808514 0,110.184404 -15.19035,15.19036 -35.14491,22.78795 -55.094615,22.78795 z m -0.0051,-146.106439 c -17.478327,0 -34.961479,6.651515 -48.269333,19.959369 -26.61571,26.61571 -26.61571,69.91813 0,96.53383 26.615708,26.61571 69.922958,26.61571 96.538658,0 26.61572,-26.6157 26.61572,-69.91812 0,-96.53383 C 125.33041,26.797712 107.85208,20.141371 90.36893,20.141371 Z"
   style="fill:#5b5d6e;fill-rule:nonzero;stroke:none;stroke-width:4.82693;stroke-linecap:butt;stroke-linejoin:miter;stroke-miterlimit:10;stroke-dasharray:none"
   stroke-linecap="round"
   id="path14" /></svg>
