<svg xmlns="http://www.w3.org/2000/svg" xmlns:xlink="http://www.w3.org/1999/xlink" version="1.1" width="256" height="256" viewBox="0 0 256 256" xml:space="preserve">
  <defs>
  </defs>
  <g style="stroke: none; stroke-width: 0; stroke-dasharray: none; stroke-linecap: butt; stroke-linejoin: miter; stroke-miterlimit: 10; fill: none; fill-rule: nonzero; opacity: 1;" transform="translate(1.4065934065934016 1.4065934065934016) scale(2.81 2.81)" >
  <path d="M 15.983 32.802 c -0.057 0 -0.114 -0.002 -0.171 -0.007 c -0.621 -0.053 -1.181 -0.393 -1.516 -0.919 l -5.609 -8.814 C 8.094 22.13 8.368 20.894 9.3 20.301 c 0.933 -0.593 2.168 -0.318 2.761 0.614 l 4.204 6.605 l 14.91 -16.391 c 0.743 -0.819 2.007 -0.877 2.825 -0.134 c 0.817 0.743 0.877 2.008 0.134 2.825 L 17.462 32.148 C 17.082 32.566 16.543 32.802 15.983 32.802 z" transform=" matrix(1 0 0 1 0 0) " stroke-linecap="round" stroke="none" stroke-width="1" stroke-dasharray="none" fill="rgb(35,183,52)" opacity="1" />
  <path d="M 15.983 71.746 c -0.057 0 -0.114 -0.002 -0.171 -0.008 c -0.621 -0.053 -1.181 -0.393 -1.516 -0.919 l -5.609 -8.814 c -0.593 -0.932 -0.318 -2.168 0.614 -2.761 c 0.933 -0.594 2.168 -0.318 2.761 0.614 l 4.204 6.605 l 14.91 -16.391 c 0.743 -0.817 2.007 -0.877 2.825 -0.134 c 0.817 0.743 0.877 2.008 0.134 2.825 L 17.462 71.092 C 17.082 71.511 16.543 71.746 15.983 71.746 z" transform=" matrix(1 0 0 1 0 0) " stroke-linecap="round" stroke="none" stroke-width="1" stroke-dasharray="none" fill="rgb(35,183,52)" opacity="1" />
  <path d="M 29.494 40.582 H 2 c -1.104 0 -2 -0.896 -2 -2 V 12.857 c 0 -1.104 0.896 -2 2 -2 h 19.593 c 1.104 0 2 0.896 2 2 s -0.896 2 -2 2 H 4 v 21.724 h 23.494 v -8.145 c 0 -1.104 0.896 -2 2 -2 s 2 0.896 2 2 v 10.145 C 31.494 39.686 30.599 40.582 29.494 40.582 z" transform=" matrix(1 0 0 1 0 0) " stroke-linecap="round" stroke="none" stroke-width="1" stroke-dasharray="none" fill="rgb(62,89,88)" opacity="1" />
  <path d="M 88 21.333 H 42.359 c -1.104 0 -2 -0.896 -2 -2 s 0.896 -2 2 -2 H 88 c 1.104 0 2 0.896 2 2 S 89.104 21.333 88 21.333 z" transform=" matrix(1 0 0 1 0 0) " stroke-linecap="round" stroke="none" stroke-width="1" stroke-dasharray="none" fill="rgb(62,89,88)" opacity="1" />
  <path d="M 75.983 33.724 H 42.359 c -1.104 0 -2 -0.896 -2 -2 s 0.896 -2 2 -2 h 33.624 c 1.104 0 2 0.896 2 2 S 77.088 33.724 75.983 33.724 z" transform=" matrix(1 0 0 1 0 0) " stroke-linecap="round" stroke="none" stroke-width="1" stroke-dasharray="none" fill="rgb(62,89,88)" opacity="1" />
  <path d="M 29.494 79.525 H 2 c -1.104 0 -2 -0.896 -2 -2 V 51.801 c 0 -1.104 0.896 -2 2 -2 h 19.593 c 1.104 0 2 0.896 2 2 s -0.896 2 -2 2 H 4 v 21.725 h 23.494 v -8.145 c 0 -1.104 0.896 -2 2 -2 s 2 0.896 2 2 v 10.145 C 31.494 78.63 30.599 79.525 29.494 79.525 z" transform=" matrix(1 0 0 1 0 0) " stroke-linecap="round" stroke="none" stroke-width="1" stroke-dasharray="none" fill="rgb(62,89,88)" opacity="1" />
  <path d="M 88 60.276 H 42.359 c -1.104 0 -2 -0.896 -2 -2 s 0.896 -2 2 -2 H 88 c 1.104 0 2 0.896 2 2 S 89.104 60.276 88 60.276 z" transform=" matrix(1 0 0 1 0 0) " stroke-linecap="round" stroke="none" stroke-width="1" stroke-dasharray="none" fill="rgb(62,89,88)" opacity="1" />
  <path d="M 75.983 72.667 H 42.359 c -1.104 0 -2 -0.896 -2 -2 s 0.896 -2 2 -2 h 33.624 c 1.104 0 2 0.896 2 2 S 77.088 72.667 75.983 72.667 z" transform=" matrix(1 0 0 1 0 0) " stroke-linecap="round" stroke="none" stroke-width="1" stroke-dasharray="none" fill="rgb(62,89,88)" opacity="1" />
  </g>
</svg>