<?xml version="1.0" encoding="UTF-8" standalone="no"?>
<!-- Uploaded to: SVG Repo, www.svgrepo.com, Generator: SVG Repo Mixer Tools -->

<svg
   fill="#000000"
   width="800px"
   height="800px"
   viewBox="0 0 32 32"
   version="1.1"
   id="svg6"
   xmlns="http://www.w3.org/2000/svg"
   xmlns:svg="http://www.w3.org/2000/svg">
  <defs
     id="defs10" />
  
  <title
     id="title2">collapse</title>
  <path
     d="M11.493 8.757l-3.454-3.453-2.665 2.665 3.454 3.453-2.59 2.59 7.797 0.004-0.017-7.784-2.525 2.525zM23.172 11.422l3.454-3.453-2.665-2.665-3.454 3.453-2.525-2.525-0.017 7.784 7.797-0.004-2.59-2.59zM8.828 20.578l-3.454 3.453 2.665 2.665 3.454-3.453 2.526 2.525 0.017-7.784-7.797 0.004 2.589 2.59zM25.762 17.988l-7.797-0.004 0.017 7.784 2.525-2.525 3.454 3.453 2.665-2.665-3.454-3.453 2.59-2.59z"
     id="path4"
     style="fill:#2b7c2b;fill-opacity:1" />
</svg>
