<?xml version="1.0" encoding="UTF-8" standalone="no"?>
<svg
   version="1.1"
   width="256"
   height="256"
   viewBox="0 0 256 256"
   xml:space="preserve"
   id="svg11"
   xmlns="http://www.w3.org/2000/svg"
   xmlns:svg="http://www.w3.org/2000/svg"><defs
   id="defs11" />
<g
   style="stroke: none; stroke-width: 0; stroke-dasharray: none; stroke-linecap: butt; stroke-linejoin: miter; stroke-miterlimit: 10; fill: none; fill-rule: nonzero; opacity: 1;"
   transform="translate(1.4065934065934016 1.4065934065934016) scale(2.81 2.81)"
   id="g11">
	<path
   d="M 83.018 77.406 H 6.982 C 3.678 77.406 1 74.728 1 71.424 V 18.576 c 0 -3.304 2.678 -5.982 5.982 -5.982 h 76.036 c 3.304 0 5.982 2.678 5.982 5.982 v 52.848 C 89 74.728 86.322 77.406 83.018 77.406 z"
   style="stroke: none; stroke-width: 1; stroke-dasharray: none; stroke-linecap: butt; stroke-linejoin: miter; stroke-miterlimit: 10; fill: rgb(195,198,244); fill-rule: nonzero; opacity: 1;"
   transform=" matrix(1 0 0 1 0 0) "
   stroke-linecap="round"
   id="path1" />
	<path
   d="M 83.018 12.594 H 6.982 C 3.678 12.594 1 15.272 1 18.576 v 14.609 h 88 V 18.576 C 89 15.272 86.322 12.594 83.018 12.594 z"
   style="stroke: none; stroke-width: 1; stroke-dasharray: none; stroke-linecap: butt; stroke-linejoin: miter; stroke-miterlimit: 10; fill: rgb(82,75,226); fill-rule: nonzero; opacity: 1;"
   transform=" matrix(1 0 0 1 0 0) "
   stroke-linecap="round"
   id="path2" />
	<path
   d="M 83.018 78.406 H 6.982 C 3.132 78.406 0 75.274 0 71.424 V 18.576 c 0 -3.85 3.132 -6.982 6.982 -6.982 h 76.035 c 3.851 0 6.982 3.132 6.982 6.982 v 52.848 C 90 75.274 86.868 78.406 83.018 78.406 z M 6.982 13.594 C 4.235 13.594 2 15.829 2 18.576 v 52.848 c 0 2.747 2.235 4.982 4.982 4.982 h 76.035 c 2.747 0 4.982 -2.235 4.982 -4.982 V 18.576 c 0 -2.748 -2.235 -4.982 -4.982 -4.982 H 6.982 z"
   style="stroke: none; stroke-width: 1; stroke-dasharray: none; stroke-linecap: butt; stroke-linejoin: miter; stroke-miterlimit: 10; fill: rgb(0,0,0); fill-rule: nonzero; opacity: 1;"
   transform=" matrix(1 0 0 1 0 0) "
   stroke-linecap="round"
   id="path3" />
	<path
   d="M 60.832 26.617 H 11.168 c -2.059 0 -3.728 -1.669 -3.728 -3.728 v 0 c 0 -2.059 1.669 -3.728 3.728 -3.728 h 49.664 c 2.059 0 3.728 1.669 3.728 3.728 v 0 C 64.56 24.948 62.891 26.617 60.832 26.617 z"
   style="stroke: none; stroke-width: 1; stroke-dasharray: none; stroke-linecap: butt; stroke-linejoin: miter; stroke-miterlimit: 10; fill: rgb(255,255,255); fill-rule: nonzero; opacity: 1;"
   transform=" matrix(1 0 0 1 0 0) "
   stroke-linecap="round"
   id="path4" />
	<path
   d="M 89 34.186 H 1 c -0.552 0 -1 -0.448 -1 -1 V 18.576 c 0 -3.85 3.132 -6.982 6.982 -6.982 h 76.035 c 3.851 0 6.982 3.132 6.982 6.982 v 14.609 C 90 33.738 89.553 34.186 89 34.186 z M 2 32.186 h 86 V 18.576 c 0 -2.747 -2.235 -4.982 -4.982 -4.982 H 6.982 C 4.235 13.594 2 15.829 2 18.576 V 32.186 z"
   style="stroke: none; stroke-width: 1; stroke-dasharray: none; stroke-linecap: butt; stroke-linejoin: miter; stroke-miterlimit: 10; fill: rgb(0,0,0); fill-rule: nonzero; opacity: 1;"
   transform=" matrix(1 0 0 1 0 0) "
   stroke-linecap="round"
   id="path5" />
	<path
   d="M 60.832 27.618 H 11.168 c -2.607 0 -4.728 -2.121 -4.728 -4.728 s 2.121 -4.728 4.728 -4.728 h 49.664 c 2.606 0 4.728 2.121 4.728 4.728 S 63.438 27.618 60.832 27.618 z M 11.168 20.162 c -1.504 0 -2.728 1.224 -2.728 2.728 s 1.224 2.728 2.728 2.728 h 49.664 c 1.504 0 2.728 -1.224 2.728 -2.728 s -1.224 -2.728 -2.728 -2.728 H 11.168 z"
   style="stroke: none; stroke-width: 1; stroke-dasharray: none; stroke-linecap: butt; stroke-linejoin: miter; stroke-miterlimit: 10; fill: rgb(0,0,0); fill-rule: nonzero; opacity: 1;"
   transform=" matrix(1 0 0 1 0 0) "
   stroke-linecap="round"
   id="path6" />
	<path
   d="M 78.832 26.617 h -3.664 c -2.059 0 -3.728 -1.669 -3.728 -3.728 v 0 c 0 -2.059 1.669 -3.728 3.728 -3.728 h 3.664 c 2.059 0 3.728 1.669 3.728 3.728 v 0 C 82.56 24.948 80.891 26.617 78.832 26.617 z"
   style="stroke: none; stroke-width: 1; stroke-dasharray: none; stroke-linecap: butt; stroke-linejoin: miter; stroke-miterlimit: 10; fill: rgb(255,255,255); fill-rule: nonzero; opacity: 1;"
   transform=" matrix(1 0 0 1 0 0) "
   stroke-linecap="round"
   id="path7" />
	<path
   d="M 78.832 27.618 h -3.664 c -2.606 0 -4.728 -2.121 -4.728 -4.728 s 2.121 -4.728 4.728 -4.728 h 3.664 c 2.606 0 4.728 2.121 4.728 4.728 S 81.438 27.618 78.832 27.618 z M 75.168 20.162 c -1.504 0 -2.728 1.224 -2.728 2.728 s 1.224 2.728 2.728 2.728 h 3.664 c 1.504 0 2.728 -1.224 2.728 -2.728 s -1.224 -2.728 -2.728 -2.728 H 75.168 z"
   style="stroke: none; stroke-width: 1; stroke-dasharray: none; stroke-linecap: butt; stroke-linejoin: miter; stroke-miterlimit: 10; fill: rgb(0,0,0); fill-rule: nonzero; opacity: 1;"
   transform=" matrix(1 0 0 1 0 0) "
   stroke-linecap="round"
   id="path8" />
	
	<path
   d="m 17.504754,69.4604 c -0.585957,0 -1.164228,-0.267043 -1.542698,-0.770389 -0.633986,-0.851077 -0.45916,-2.053729 0.389997,-2.689635 L 30.960616,55.097746 16.353974,44.197038 c -0.851078,-0.635907 -1.025904,-1.838558 -0.391918,-2.687715 0.633985,-0.851077 1.8424,-1.025904 2.687714,-0.391918 L 35.319747,53.55889 c 0.486055,0.363101 0.772309,0.933688 0.772309,1.540777 0,0.607089 -0.286254,1.175755 -0.770388,1.540777 L 18.651691,69.083851 C 18.307802,69.335524 17.904357,69.4604 17.504754,69.4604 Z"
   style="opacity:1;fill:#000000;fill-rule:nonzero;stroke:none;stroke-width:1.92117;stroke-linecap:butt;stroke-linejoin:miter;stroke-miterlimit:10;stroke-dasharray:none"
   stroke-linecap="round"
   id="path10" /><path
   d="m 36.939396,69.4604 c -0.585957,0 -1.164228,-0.267043 -1.542698,-0.770389 -0.633986,-0.851077 -0.45916,-2.053729 0.389997,-2.689635 L 50.395258,55.097746 35.788616,44.197038 c -0.851078,-0.635907 -1.025904,-1.838558 -0.391918,-2.687715 0.633985,-0.851077 1.8424,-1.025904 2.687714,-0.391918 L 54.754389,53.55889 c 0.486055,0.363101 0.772309,0.933688 0.772309,1.540777 0,0.607089 -0.286254,1.175755 -0.770388,1.540777 L 38.086333,69.083851 C 37.742444,69.335524 37.338999,69.4604 36.939396,69.4604 Z"
   style="fill:#000000;fill-rule:nonzero;stroke:none;stroke-width:1.92117;stroke-linecap:butt;stroke-linejoin:miter;stroke-miterlimit:10;stroke-dasharray:none"
   stroke-linecap="round"
   id="path10-9" /><path
   d="m 56.374038,69.4604 c -0.585957,0 -1.164228,-0.267043 -1.542698,-0.770389 -0.633986,-0.851077 -0.45916,-2.053729 0.389997,-2.689635 L 69.8299,55.097746 55.223258,44.197038 C 54.37218,43.561131 54.197354,42.35848 54.83134,41.509323 c 0.633985,-0.851077 1.8424,-1.025904 2.687714,-0.391918 L 74.189031,53.55889 c 0.486055,0.363101 0.772309,0.933688 0.772309,1.540777 0,0.607089 -0.286254,1.175755 -0.770388,1.540777 L 57.520975,69.083851 C 57.177086,69.335524 56.773641,69.4604 56.374038,69.4604 Z"
   style="fill:#000000;fill-rule:nonzero;stroke:none;stroke-width:1.92117;stroke-linecap:butt;stroke-linejoin:miter;stroke-miterlimit:10;stroke-dasharray:none"
   stroke-linecap="round"
   id="path10-8" />
	
</g>
</svg>
