<svg xmlns="http://www.w3.org/2000/svg" xmlns:xlink="http://www.w3.org/1999/xlink" version="1.1" width="256" height="256" viewBox="0 0 256 256" xml:space="preserve">
  <defs>
  </defs>
  <g style="stroke: none; stroke-width: 0; stroke-dasharray: none; stroke-linecap: butt; stroke-linejoin: miter; stroke-miterlimit: 10; fill: none; fill-rule: nonzero; opacity: 1;" transform="translate(1.4065934065934016 1.4065934065934016) scale(2.81 2.81)" >
  <path d="M 69.098 89 H 8.442 C 4.332 89 1 85.668 1 81.558 V 8.442 C 1 4.332 4.332 1 8.442 1 h 73.115 C 85.668 1 89 4.332 89 8.442 v 60.656 C 89 80.09 80.09 89 69.098 89 z" transform=" matrix(1 0 0 1 0 0) " stroke-linecap="round" stroke="none" stroke-width="1" stroke-dasharray="none" fill="rgb(220,235,244)" opacity="1" />
  <path d="M 61.381 51.08 l -11.384 -3.479 c -1.47 -0.449 -2.845 0.926 -2.396 2.396 l 3.479 11.384 c 0.501 1.64 1.397 3.132 2.61 4.344 l 21.708 21.708 c 2.089 2.089 5.476 2.089 7.565 0 l 4.47 -4.47 c 2.089 -2.089 2.089 -5.476 0 -7.565 L 65.725 53.69 C 64.513 52.477 63.021 51.581 61.381 51.08 z" transform=" matrix(1 0 0 1 0 0) " stroke-linecap="round" stroke="none" stroke-width="1" stroke-dasharray="none" fill="rgb(255,246,164)" opacity="1" />
  <path d="M 63.409 90 H 8.08 C 3.625 90 0 86.375 0 81.92 V 8.08 C 0 3.625 3.625 0 8.08 0 h 73.84 C 86.375 0 90 3.625 90 8.08 v 57.44 c 0 0.553 -0.447 1 -1 1 s -1 -0.447 -1 -1 V 8.08 C 88 4.728 85.272 2 81.92 2 H 8.08 C 4.728 2 2 4.728 2 8.08 v 73.84 C 2 85.272 4.728 88 8.08 88 h 55.329 c 0.553 0 1 0.447 1 1 S 63.962 90 63.409 90 z" transform=" matrix(1 0 0 1 0 0) " stroke-linecap="round" stroke="none" stroke-width="1" stroke-dasharray="none" fill="rgb(0,0,0)" opacity="1" />
  <path d="M 79.181 89.997 c -1.626 0 -3.252 -0.619 -4.489 -1.856 L 52.982 66.433 c -1.323 -1.324 -2.312 -2.971 -2.858 -4.76 l -3.479 -11.384 c -0.316 -1.034 -0.038 -2.151 0.728 -2.916 c 0.765 -0.766 1.887 -1.046 2.916 -0.728 l 11.384 3.479 c 1.789 0.547 3.436 1.535 4.76 2.858 l 21.708 21.709 c 2.476 2.476 2.476 6.503 0 8.979 l -4.471 4.471 C 82.433 89.378 80.807 89.997 79.181 89.997 z M 49.425 48.515 c -0.324 0 -0.545 0.18 -0.638 0.272 c -0.117 0.117 -0.375 0.441 -0.229 0.918 l 3.479 11.384 c 0.452 1.478 1.268 2.836 2.36 3.93 l 21.709 21.708 c 1.695 1.695 4.455 1.695 6.15 0 l 4.471 -4.471 c 1.695 -1.695 1.695 -4.455 0 -6.15 L 65.019 54.396 c -1.094 -1.093 -2.452 -1.908 -3.93 -2.36 l 0 0 l -11.384 -3.479 C 49.604 48.527 49.511 48.515 49.425 48.515 z" transform=" matrix(1 0 0 1 0 0) " stroke-linecap="round" stroke="none" stroke-width="1" stroke-dasharray="none" fill="rgb(0,0,0)" opacity="1" />
  <path d="M 70.886 83.922 c -0.256 0 -0.512 -0.098 -0.707 -0.293 c -0.391 -0.391 -0.391 -1.023 0 -1.414 l 12.036 -12.036 c 0.391 -0.391 1.023 -0.391 1.414 0 s 0.391 1.023 0 1.414 L 71.593 83.629 C 71.397 83.824 71.142 83.922 70.886 83.922 z" transform=" matrix(1 0 0 1 0 0) " stroke-linecap="round" stroke="none" stroke-width="1" stroke-dasharray="none" fill="rgb(0,0,0)" opacity="1" />
  <path d="M 72.719 22 H 17.281 c -0.552 0 -1 -0.448 -1 -1 s 0.448 -1 1 -1 h 55.438 c 0.553 0 1 0.448 1 1 S 73.271 22 72.719 22 z" transform=" matrix(1 0 0 1 0 0) " stroke-linecap="round" stroke="none" stroke-width="1" stroke-dasharray="none" fill="rgb(0,0,0)" opacity="1" />
  <path d="M 72.719 38 H 17.281 c -0.552 0 -1 -0.448 -1 -1 s 0.448 -1 1 -1 h 55.438 c 0.553 0 1 0.448 1 1 S 73.271 38 72.719 38 z" transform=" matrix(1 0 0 1 0 0) " stroke-linecap="round" stroke="none" stroke-width="1" stroke-dasharray="none" fill="rgb(0,0,0)" opacity="1" />
  <path d="M 32.719 54 H 17.281 c -0.552 0 -1 -0.447 -1 -1 s 0.448 -1 1 -1 h 15.438 c 0.552 0 1 0.447 1 1 S 33.271 54 32.719 54 z" transform=" matrix(1 0 0 1 0 0) " stroke-linecap="round" stroke="none" stroke-width="1" stroke-dasharray="none" fill="rgb(0,0,0)" opacity="1" />
  <path d="M 42.719 70 H 17.281 c -0.552 0 -1 -0.447 -1 -1 s 0.448 -1 1 -1 h 25.438 c 0.552 0 1 0.447 1 1 S 43.271 70 42.719 70 z" transform=" matrix(1 0 0 1 0 0) " stroke-linecap="round" stroke="none" stroke-width="1" stroke-dasharray="none" fill="rgb(0,0,0)" opacity="1" />
  </g>
</svg>