<?xml version="1.0" encoding="UTF-8" standalone="no"?>
<!-- Uploaded to: SVG Repo, www.svgrepo.com, Generator: SVG Repo Mixer Tools -->

<svg
   fill="#000000"
   width="800px"
   height="800px"
   viewBox="0 0 32 32"
   version="1.1"
   id="svg1224"
   xmlns="http://www.w3.org/2000/svg"
   xmlns:svg="http://www.w3.org/2000/svg">
  <defs
     id="defs1228" />
  
  <title
     id="title1220">expand</title>
  <path
     d="M13.816 5.989l-7.785 0.046 0.003 7.735 2.59-2.591 3.454 3.454 2.665-2.665-3.453-3.454 2.526-2.525zM12.079 17.35l-3.454 3.455-2.59-2.592-0.003 7.799 7.785-0.018-2.526-2.525 3.454-3.453-2.666-2.666zM19.922 14.633l3.453-3.454 2.59 2.591 0.004-7.735-7.785-0.046 2.526 2.525-3.454 3.454 2.666 2.665zM23.375 20.805l-3.453-3.455-2.666 2.666 3.454 3.453-2.526 2.525 7.785 0.018-0.004-7.799-2.59 2.592z"
     id="path1222"
     style="fill:#2b7c2b;fill-opacity:1" />
</svg>
