<?xml version="1.0" encoding="UTF-8" standalone="no"?>
<!-- Uploaded to: SVG Repo, www.svgrepo.com, Generator: SVG Repo Mixer Tools -->

<svg
   fill="#000000"
   width="800px"
   height="800px"
   viewBox="0 0 32 32"
   version="1.1"
   id="svg1224"
   sodipodi:docname="expand_selection.svg"
   inkscape:version="1.2.2 (732a01da63, 2022-12-09)"
   xmlns:inkscape="http://www.inkscape.org/namespaces/inkscape"
   xmlns:sodipodi="http://sodipodi.sourceforge.net/DTD/sodipodi-0.dtd"
   xmlns="http://www.w3.org/2000/svg"
   xmlns:svg="http://www.w3.org/2000/svg"
   xmlns:rdf="http://www.w3.org/1999/02/22-rdf-syntax-ns#"
   xmlns:cc="http://creativecommons.org/ns#"
   xmlns:dc="http://purl.org/dc/elements/1.1/">
  <defs
     id="defs1228" />
  <sodipodi:namedview
     id="namedview1226"
     pagecolor="#ffffff"
     bordercolor="#000000"
     borderopacity="0.25"
     inkscape:showpageshadow="2"
     inkscape:pageopacity="0.0"
     inkscape:pagecheckerboard="0"
     inkscape:deskcolor="#d1d1d1"
     showgrid="false"
     inkscape:zoom="1.07875"
     inkscape:cx="340.67207"
     inkscape:cy="400.4635"
     inkscape:window-width="1920"
     inkscape:window-height="1017"
     inkscape:window-x="-8"
     inkscape:window-y="-8"
     inkscape:window-maximized="1"
     inkscape:current-layer="svg1224" />
  <title
     id="title1220">expand</title>
  <path
     d="M13.816 5.989l-7.785 0.046 0.003 7.735 2.59-2.591 3.454 3.454 2.665-2.665-3.453-3.454 2.526-2.525zM12.079 17.35l-3.454 3.455-2.59-2.592-0.003 7.799 7.785-0.018-2.526-2.525 3.454-3.453-2.666-2.666zM19.922 14.633l3.453-3.454 2.59 2.591 0.004-7.735-7.785-0.046 2.526 2.525-3.454 3.454 2.666 2.665zM23.375 20.805l-3.453-3.455-2.666 2.666 3.454 3.453-2.526 2.525 7.785 0.018-0.004-7.799-2.59 2.592z"
     id="path1222"
     style="fill:#2b7c2b;fill-opacity:1" />
  <rect
     style="fill:#ffd42a;fill-opacity:1;stroke:#da6500;stroke-width:0.65271;stroke-dasharray:none;stroke-opacity:1"
     id="rect3271"
     width="6.7517533"
     height="6.3881974"
     x="12.642662"
     y="12.787361" />
  <metadata
     id="metadata3847">
    <rdf:RDF>
      <cc:Work
         rdf:about="">
        <dc:title>expand</dc:title>
      </cc:Work>
    </rdf:RDF>
  </metadata>
</svg>
