<?xml version="1.0" encoding="UTF-8" standalone="no"?>
  <svg
 version="1.1"
 width="256"
 height="256"
 viewBox="0 0 256 256"
 xml:space="preserve"
 id="svg8"
 xmlns="http://www.w3.org/2000/svg">
  &#10;&#10;<defs
 id="defs1">&#10;&#10;	&#10;	&#10;	&#10;	&#10;	&#10;	&#10;	&#10;	&#10;</defs>&#10;&#10;<g
 id="g1"
 transform="translate(-18.588258)">
  <path
 d="m 197.31402,255.71318 h 46.82875 c 5.61332,0 10.16382,-5.35577 10.16382,-11.96169 V 69.593764 L 195.1788,0 H 49.033748 C 43.420427,0 38.869926,5.3557706 38.869926,11.961694 V 88.931363 52.77636 84.172257 243.75149 c 0,6.60592 4.550501,11.96169 10.163822,11.96169 h 45.70848 z"
 stroke-linecap="round"
 id="path1" fill="#ea5440" stroke="none" stroke-width="2.60792" stroke-dasharray="none" />
  <path
 d="m 254.30659,69.593764 h -49.8688 c -5.11303,0 -9.25899,-4.878439 -9.25899,-10.899064 V 0 Z"
 stroke-linecap="round"
 id="path2" fill="#c54837" stroke="none" stroke-width="2.60792" stroke-dasharray="none" />
  <path
 d="m 70.51558,227.32049 c -5.504036,0 -9.00273,-3.12322 -10.55154,-4.90669 l -0.597337,-0.69121 -0.379736,-0.82347 c -3.643757,-7.90619 -5.256567,-20.24547 7.718455,-34.17622 10.594202,-11.37501 28.262583,-21.15001 48.290438,-28.57405 6.7627,-12.64649 13.08594,-26.14631 18.19744,-39.07012 -12.78728,-21.299342 -18.06518,-43.725104 -12.67635,-58.534794 3.02509,-8.311516 9.29713,-13.542484 17.66412,-14.728625 l 0.90027,-0.064 c 9.16059,0 15.73984,5.469902 18.05665,15.001693 3.11042,12.812883 -1.30561,33.937295 -9.68966,56.896376 3.17869,4.7275 6.83098,9.455 10.9526,14.05023 3.89123,4.69763 7.85925,8.96006 11.82301,12.79581 21.57668,-2.85868 41.19067,-2.39788 53.42328,2.21869 13.78569,5.2011 16.08971,14.48969 16.23051,19.56706 l 0.005,0.128 c 0.0683,8.14938 -4.01922,14.33182 -11.2214,16.96437 -14.98037,5.48697 -40.01733,-5.24376 -62.62654,-25.35696 -13.87103,2.24428 -28.45459,5.86244 -42.02268,10.54727 -15.04436,27.13191 -32.12392,49.89472 -44.706401,56.38863 -3.349355,1.71948 -6.276308,2.36801 -8.789391,2.36801 z m -0.392536,-12.91101 c 0.47787,0.19626 1.369609,0.16213 3.310955,-0.84054 8.341387,-4.3051 19.810261,-18.70519 31.142601,-37.19704 -11.891277,5.58083 -21.943608,12.03208 -28.505784,19.07639 -8.593123,9.22459 -7.172313,15.85503 -5.947772,18.96119 z M 183.51896,155.88323 c 17.72812,13.32062 33.67702,18.05665 40.74693,15.4625 1.36961,-0.4992 2.82455,-1.32267 2.81175,-4.77443 -0.0427,-1.42081 -0.2688,-4.98777 -7.95311,-7.88912 -8.32433,-3.14455 -21.04761,-3.92109 -35.60557,-2.79895 z m -41.6472,-24.05989 c -2.88855,6.87365 -6.06297,13.80276 -9.42086,20.60387 7.39418,-2.12908 14.92489,-3.94243 22.37028,-5.40164 -2.08215,-2.24428 -4.1259,-4.57389 -6.10991,-6.97177 -2.40215,-2.67522 -4.68483,-5.42724 -6.83951,-8.23046 z m -2.33815,-73.267684 c -2.26561,0.401069 -5.25657,1.60001 -6.99311,6.365908 -3.00802,8.264587 -0.91307,22.464155 6.48111,38.003456 5.2651,-16.298773 7.77391,-30.489807 5.67043,-39.151197 -1.088,-4.501362 -3.03788,-5.154166 -5.15843,-5.218167 z"
 stroke-linecap="round"
 id="path2-5" fill="#ffffff" stroke="none" stroke-width="4.26669" stroke-dasharray="none" />
  </g>
</svg>
