<svg xmlns="http://www.w3.org/2000/svg" xmlns:xlink="http://www.w3.org/1999/xlink" version="1.1" width="256" height="256" viewBox="0 0 256 256" xml:space="preserve">
  <g style="stroke: none; stroke-width: 0; stroke-dasharray: none; stroke-linecap: butt; stroke-linejoin: miter; stroke-miterlimit: 10; fill: none; fill-rule: nonzero; opacity: 1;" transform="translate(1.4065934065934016 1.4065934065934016) scale(2.81 2.81)">
  <path d="M 45 90 L 45 90 C 20.147 90 0 69.853 0 45 v 0 C 0 20.147 20.147 0 45 0 h 0 c 24.853 0 45 20.147 45 45 v 0 C 90 69.853 69.853 90 45 90 z" transform=" matrix(1 0 0 1 0 0) " stroke-linecap="round" stroke="none" stroke-width="1" stroke-dasharray="none" fill="rgb(0,159,229)" opacity="1" />
  <path d="M 44.616 12.5 c -8.369 0 -16.415 3.286 -22.413 8.979 l -3.812 -3.812 c -1.056 -1.056 -2.861 -0.308 -2.861 1.185 v 11.966 c 0 1.551 1.257 2.808 2.808 2.808 h 11.966 c 1.493 0 2.241 -1.806 1.185 -2.861 l -3.478 -3.478 c 4.566 -4.307 10.593 -6.667 17.046 -6.555 c 12.489 0.217 22.969 10.191 23.779 22.655 c 0.917 14.112 -10.302 25.886 -24.219 25.886 c -9.647 0 -17.997 -5.658 -21.908 -13.83 c -0.867 -1.812 -2.881 -2.766 -4.817 -2.231 l 0 0 c -2.5 0.69 -3.708 3.475 -2.585 5.813 c 5.697 11.861 18.382 19.755 32.687 18.304 C 63.598 75.745 75.98 62.899 77.039 47.25 C 78.322 28.316 63.281 12.5 44.616 12.5 z" transform=" matrix(1 0 0 1 0 0) " stroke-linecap="round" stroke="none" stroke-width="1" stroke-dasharray="none" fill="rgb(255,255,255)" opacity="1" />
  <path d="M 52.576 57.133 c -0.873 0 -1.753 -0.276 -2.498 -0.849 l -8.929 -6.848 c -1.015 -0.778 -1.609 -1.983 -1.609 -3.262 V 32.726 c 0 -2.271 1.84 -4.111 4.111 -4.111 s 4.112 1.84 4.112 4.111 v 11.42 l 7.319 5.614 c 1.802 1.382 2.143 3.962 0.76 5.764 C 55.032 56.579 53.812 57.133 52.576 57.133 z" transform=" matrix(1 0 0 1 0 0) " stroke-linecap="round" stroke="none" stroke-width="1" stroke-dasharray="none" fill="rgb(255,255,255)" opacity="1" />
  </g>
</svg>