<?xml version="1.0" encoding="UTF-8" standalone="no"?>
<svg
   role="img"
   focusable="false"
   aria-hidden="true"
   viewBox="0 0 14 14"
   version="1.1"
   id="svg14"
   xmlns:xlink="http://www.w3.org/1999/xlink"
   xmlns="http://www.w3.org/2000/svg"
   xmlns:svg="http://www.w3.org/2000/svg">
  <defs
     id="defs18">
    <linearGradient
       id="BlueGreen"
       gradientUnits="userSpaceOnUse"
       y1="20"
       x1="0"
       y2="180"
       x2="0"
       xlink:href="#linearGradientStops"
       gradientTransform="matrix(0.01229036,0,0,0.01229036,4.0293076,3.003469)" />
    <linearGradient
       id="linearGradientStops">
      <stop
         offset="0"
         style="stop-color:#0515fe"
         id="stop2" />
      <stop
         offset="1"
         style="stop-color:#2cab28"
         id="stop4" />
    </linearGradient>
  </defs>
  
  <g
     id="g973"
     transform="translate(-2.307e-4,-2.307e-4)">
    <path
       d="M 12.75,1.2692307 V 12.75 H 2.863782 L 1.2692307,11.155448 V 1.2692307 Z"
       id="path2"  fill="#808080" fill-opacity="1" />
    <path
       fill="#ffffff"
       d="m 2.2259614,2.2259614 c 0,-0.1763573 0.1425529,-0.3189101 0.3189103,-0.3189101 h 8.9294863 c 0.176358,0 0.318911,0.1425528 0.318911,0.3189101 v 4.4647434 c 0,0.1763574 -0.142553,0.3189103 -0.318911,0.3189103 H 2.5448717 c -0.1763574,0 -0.3189103,-0.1425529 -0.3189103,-0.3189103 z"
       id="path4"
       style="stroke-width:0.956731" />
    <path
       d="M 11.793269,12.75 V 9.560897 c 0,-0.3520769 -0.285744,-0.6378204 -0.637821,-0.6378204 H 6.3717946 c -0.3520769,0 -0.6378205,0.2857435 -0.6378205,0.6378204 V 12.75 Z"
       id="path8"
       style="fill:#333333;stroke-width:0.956731" />
    <path
       fill="#b0bec5"
       d="M 9.8798073,12.75 V 9.560897 c 0,-0.3520769 -0.2857436,-0.6378204 -0.6378206,-0.6378204 H 4.4583332 c -0.3520769,0 -0.6378205,0.2857435 -0.6378205,0.6378204 V 12.75 Z"
       id="path10"
       style="stroke-width:0.956731" />
    <path
       d="M 6.3717946,12.112179 H 5.0961536 V 9.560897 h 1.275641 z"
       id="path12"
       style="fill:#333333;stroke-width:0.956731" />
  </g>
</svg>
