<?xml version="1.0" encoding="UTF-8" standalone="no"?>
<svg
   role="img"
   focusable="false"
   aria-hidden="true"
   viewBox="0 0 14 14"
   version="1.1"
   id="svg12"
   sodipodi:docname="new_sig.svg"
   inkscape:version="1.2.2 (732a01da63, 2022-12-09)"
   xmlns:inkscape="http://www.inkscape.org/namespaces/inkscape"
   xmlns:sodipodi="http://sodipodi.sourceforge.net/DTD/sodipodi-0.dtd"
   xmlns="http://www.w3.org/2000/svg"
   xmlns:svg="http://www.w3.org/2000/svg">
  <defs
     id="defs16" />
  <sodipodi:namedview
     id="namedview14"
     pagecolor="#ffffff"
     bordercolor="#000000"
     borderopacity="0.25"
     inkscape:showpageshadow="2"
     inkscape:pageopacity="0.0"
     inkscape:pagecheckerboard="0"
     inkscape:deskcolor="#d1d1d1"
     showgrid="false"
     inkscape:zoom="42.274884"
     inkscape:cx="4.7191141"
     inkscape:cy="7.2856498"
     inkscape:window-width="1920"
     inkscape:window-height="1017"
     inkscape:window-x="-8"
     inkscape:window-y="-8"
     inkscape:window-maximized="1"
     inkscape:current-layer="svg12" />
  <path
     style="fill:#37474f;fill-opacity:1;stroke-width:0.0499186"
     d="M 11.675765,12.128782 C 9.0267931,12.168326 3.6663496,12.147831 3.5042119,12.09754 2.8719874,11.901432 2.1296024,11.159709 1.872636,10.46742 1.7581758,10.159057 1.7637517,9.8882153 1.961894,6.1304014 2.1520354,2.5243182 2.1863862,2.1095818 2.3043493,1.9956358 2.4233551,1.8810227 2.8112319,1.8676583 6.4486683,1.8547498 c 3.7790137,-0.01341 4.0320977,-0.0061 4.3370687,0.1253306 0.681469,0.2936835 1.382427,1.0679658 1.550284,1.7124248 0.0337,0.129404 -0.03084,1.9300465 -0.150169,4.1891652 -0.175211,3.3172896 -0.22825,3.9853226 -0.325837,4.1041536 -0.06411,0.07807 -0.146911,0.142503 -0.184203,0.142984 z"
     id="path468" />
  <rect
     style="fill:#e6e6e6;fill-opacity:1;stroke:none;stroke-width:1.57074;stroke-opacity:1"
     id="rect10749-5"
     width="7.8104901"
     height="7.8187361"
     x="3.3771245"
     y="3.1234901"
     transform="matrix(1,0,-0.04725952,0.99888264,0,0)" />
  <rect
     style="fill:#696969;fill-opacity:0.817241;stroke-width:0.402"
     id="rect28089"
     width="0.47309414"
     height="7.6168156"
     x="6.7652464"
     y="3.1933856" />
  <rect
     style="fill:#696969;fill-opacity:0.817241;stroke-width:0.402"
     id="rect28089-7"
     width="0.47309414"
     height="7.6168156"
     x="6.6469727"
     y="-10.810202"
     transform="rotate(90)" />
  <g
     id="g3798"
     transform="matrix(0.54267566,0,0,0.54267566,6.7985787,6.8695433)">
    <circle
       cx="7"
       cy="7"
       r="6"
       fill="#4caf50"
       id="circle2915" />
    <g
       fill="#ffffff"
       id="g2921">
      <path
         d="M 6.1428571,4.1428571 H 7.8571429 V 9.8571429 H 6.1428571 Z"
         id="path2917" />
      <path
         d="M 4.1428571,6.1428571 H 9.8571429 V 7.8571429 H 4.1428571 Z"
         id="path2919" />
    </g>
  </g>
  <path
     style="fill:none;fill-opacity:0.817241;stroke-width:0.402;stroke:#ff0000;stroke-opacity:1"
     d="m 3.5245514,10.005941 c 0,0.09462 1.5139012,-0.5677129 1.5139012,-0.5677129 L 5.9846409,8.2081834 7.0727574,5.653475 8.2554928,4.4234302 10.195179,3.8557173"
     id="path32265" />
  <circle
     cx="8.2457867"
     cy="4.4486394"
     r="0.58283854"
     id="circle20-2"
     style="fill:#ff5555;stroke-width:0.19428" />
  <circle
     cx="7.0560775"
     cy="5.641458"
     r="0.58283854"
     id="circle22-3"
     style="fill:#ff5555;stroke-width:0.19428" />
  <circle
     cx="6.0082951"
     cy="8.2554922"
     r="0.58283854"
     id="circle24-6"
     style="fill:#ff5555;stroke-width:0.19428" />
  <circle
     cx="5.0078225"
     cy="9.4161282"
     r="0.58283854"
     id="circle26-0"
     style="fill:#ff5555;stroke-width:0.19428" />
  <circle
     cx="3.534256"
     cy="10.017958"
     r="0.58283854"
     id="circle28-1"
     style="fill:#ff5555;stroke-width:0.19428" />
  <circle
     cx="10.147869"
     cy="3.9030263"
     r="0.58283854"
     id="circle28-1-2"
     style="fill:#ff5555;stroke-width:0.19428" />
</svg>
