<svg xmlns="http://www.w3.org/2000/svg" xmlns:xlink="http://www.w3.org/1999/xlink" version="1.1" width="256" height="256" viewBox="0 0 256 256" xml:space="preserve">
  <g style="stroke: none; stroke-width: 0; stroke-dasharray: none; stroke-linecap: butt; stroke-linejoin: miter; stroke-miterlimit: 10; fill: none; fill-rule: nonzero; opacity: 1;" transform="translate(1.4065934065934016 1.4065934065934016) scale(2.81 2.81)">
  <circle cx="45" cy="45" r="45" transform=" matrix(1 0 0 1 0 0) " stroke="none" stroke-width="1" stroke-dasharray="none" fill="rgb(32,196,203)" opacity="1" />
  <line x1="0" y1="-23.202000000000005" x2="0" y2="23.202000000000005" transform=" matrix(1 0 0 1 0 0) " stroke="none" stroke-width="1" stroke-dasharray="none" fill="rgb(27,167,173)" opacity="1" />
  <path d="M 41.781 73.921 c -1.381 0 -2.5 -1.119 -2.5 -2.5 V 25.017 c 0 -1.381 1.119 -2.5 2.5 -2.5 s 2.5 1.119 2.5 2.5 v 46.404 C 44.281 72.802 43.162 73.921 41.781 73.921 z" transform=" matrix(1 0 0 1 0 0) " stroke-linecap="round" stroke="none" stroke-width="1" stroke-dasharray="none" fill="rgb(27,167,173)" opacity="1" />
  <line x1="0" y1="-23.202000000000005" x2="0" y2="23.202000000000005" transform=" matrix(1 0 0 1 0 0) " stroke="none" stroke-width="1" stroke-dasharray="none" fill="rgb(27,167,173)" opacity="1" />
  <path d="M 62.414 73.921 c -1.381 0 -2.5 -1.119 -2.5 -2.5 V 25.017 c 0 -1.381 1.119 -2.5 2.5 -2.5 s 2.5 1.119 2.5 2.5 v 46.404 C 64.914 72.802 63.795 73.921 62.414 73.921 z" transform=" matrix(1 0 0 1 0 0) " stroke-linecap="round" stroke="none" stroke-width="1" stroke-dasharray="none" fill="rgb(27,167,173)" opacity="1" />
  <line x1="0" y1="-23.202000000000005" x2="0" y2="23.202000000000005" transform=" matrix(1 0 0 1 0 0) " stroke="none" stroke-width="1" stroke-dasharray="none" fill="rgb(27,167,173)" opacity="1" />
  <path d="M 21.149 73.921 c -1.381 0 -2.5 -1.119 -2.5 -2.5 V 25.017 c 0 -1.381 1.119 -2.5 2.5 -2.5 s 2.5 1.119 2.5 2.5 v 46.404 C 23.649 72.802 22.53 73.921 21.149 73.921 z" transform=" matrix(1 0 0 1 0 0) " stroke-linecap="round" stroke="none" stroke-width="1" stroke-dasharray="none" fill="rgb(27,167,173)" opacity="1" />
  <circle cx="41.779" cy="59.969" r="5.149" transform=" matrix(1 0 0 1 0 0) " stroke="none" stroke-width="1" stroke-dasharray="none" fill="rgb(27,167,173)" opacity="1" />
  <path d="M 41.781 66.621 c -3.666 0 -6.649 -2.982 -6.649 -6.648 s 2.983 -6.649 6.649 -6.649 s 6.648 2.983 6.648 6.649 S 45.447 66.621 41.781 66.621 z M 41.781 56.323 c -2.012 0 -3.649 1.637 -3.649 3.649 c 0 2.012 1.637 3.648 3.649 3.648 c 2.012 0 3.648 -1.637 3.648 -3.648 C 45.43 57.96 43.793 56.323 41.781 56.323 z" transform=" matrix(1 0 0 1 0 0) " stroke-linecap="round" stroke="none" stroke-width="1" stroke-dasharray="none" fill="rgb(27,167,173)" opacity="1" />
  <circle cx="62.419000000000004" cy="49.049" r="5.149" transform=" matrix(1 0 0 1 0 0) " stroke="none" stroke-width="1" stroke-dasharray="none" fill="rgb(27,167,173)" opacity="1" />
  <path d="M 62.414 55.698 c -3.666 0 -6.649 -2.983 -6.649 -6.649 s 2.983 -6.648 6.649 -6.648 s 6.648 2.982 6.648 6.648 S 66.08 55.698 62.414 55.698 z M 62.414 45.4 c -2.013 0 -3.649 1.637 -3.649 3.648 c 0 2.013 1.637 3.649 3.649 3.649 c 2.012 0 3.648 -1.637 3.648 -3.649 C 66.063 47.037 64.426 45.4 62.414 45.4 z" transform=" matrix(1 0 0 1 0 0) " stroke-linecap="round" stroke="none" stroke-width="1" stroke-dasharray="none" fill="rgb(27,167,173)" opacity="1" />
  <circle cx="21.149" cy="35.699" r="5.149" transform=" matrix(1 0 0 1 0 0) " stroke="none" stroke-width="1" stroke-dasharray="none" fill="rgb(27,167,173)" opacity="1" />
  <path d="M 21.149 42.348 c -3.666 0 -6.649 -2.983 -6.649 -6.649 s 2.983 -6.649 6.649 -6.649 s 6.649 2.983 6.649 6.649 S 24.815 42.348 21.149 42.348 z M 21.149 32.05 c -2.012 0 -3.649 1.637 -3.649 3.649 s 1.637 3.649 3.649 3.649 s 3.649 -1.637 3.649 -3.649 S 23.161 32.05 21.149 32.05 z" transform=" matrix(1 0 0 1 0 0) " stroke-linecap="round" stroke="none" stroke-width="1" stroke-dasharray="none" fill="rgb(27,167,173)" opacity="1" />
  <path d="M 45.219 70.483 c -1.381 0 -2.5 -1.119 -2.5 -2.5 V 21.58 c 0 -1.381 1.119 -2.5 2.5 -2.5 s 2.5 1.119 2.5 2.5 v 46.404 C 47.719 69.364 46.6 70.483 45.219 70.483 z" transform=" matrix(1 0 0 1 0 0) " stroke-linecap="round" stroke="none" stroke-width="1" stroke-dasharray="none" fill="rgb(255,255,255)" opacity="1" />
  <path d="M 65.852 70.483 c -1.381 0 -2.5 -1.119 -2.5 -2.5 V 21.58 c 0 -1.381 1.119 -2.5 2.5 -2.5 s 2.5 1.119 2.5 2.5 v 46.404 C 68.352 69.364 67.232 70.483 65.852 70.483 z" transform=" matrix(1 0 0 1 0 0) " stroke-linecap="round" stroke="none" stroke-width="1" stroke-dasharray="none" fill="rgb(255,255,255)" opacity="1" />
  <path d="M 24.586 70.483 c -1.381 0 -2.5 -1.119 -2.5 -2.5 V 21.58 c 0 -1.381 1.119 -2.5 2.5 -2.5 s 2.5 1.119 2.5 2.5 v 46.404 C 27.086 69.364 25.967 70.483 24.586 70.483 z" transform=" matrix(1 0 0 1 0 0) " stroke-linecap="round" stroke="none" stroke-width="1" stroke-dasharray="none" fill="rgb(255,255,255)" opacity="1" />
  <circle cx="45.219" cy="56.539" r="5.149" transform=" matrix(1 0 0 1 0 0) " stroke="none" stroke-width="1" stroke-dasharray="none" fill="rgb(255,255,255)" opacity="1" />
  <path d="M 45.219 63.184 c -3.666 0 -6.649 -2.982 -6.649 -6.648 s 2.983 -6.649 6.649 -6.649 s 6.648 2.983 6.648 6.649 S 48.885 63.184 45.219 63.184 z M 45.219 52.886 c -2.012 0 -3.649 1.637 -3.649 3.649 c 0 2.012 1.637 3.648 3.649 3.648 c 2.012 0 3.648 -1.637 3.648 -3.648 C 48.867 54.522 47.23 52.886 45.219 52.886 z" transform=" matrix(1 0 0 1 0 0) " stroke-linecap="round" stroke="none" stroke-width="1" stroke-dasharray="none" fill="rgb(255,255,255)" opacity="1" />
  <circle cx="65.849" cy="45.609" r="5.149" transform=" matrix(1 0 0 1 0 0) " stroke="none" stroke-width="1" stroke-dasharray="none" fill="rgb(255,255,255)" opacity="1" />
  <path d="M 65.852 52.261 c -3.666 0 -6.649 -2.982 -6.649 -6.649 c 0 -3.666 2.983 -6.649 6.649 -6.649 s 6.648 2.983 6.648 6.649 C 72.5 49.278 69.518 52.261 65.852 52.261 z M 65.852 41.963 c -2.013 0 -3.649 1.637 -3.649 3.649 s 1.637 3.649 3.649 3.649 c 2.012 0 3.648 -1.637 3.648 -3.649 S 67.863 41.963 65.852 41.963 z" transform=" matrix(1 0 0 1 0 0) " stroke-linecap="round" stroke="none" stroke-width="1" stroke-dasharray="none" fill="rgb(255,255,255)" opacity="1" />
  <circle cx="24.589000000000002" cy="32.259" r="5.149" transform=" matrix(1 0 0 1 0 0) " stroke="none" stroke-width="1" stroke-dasharray="none" fill="rgb(255,255,255)" opacity="1" />
  <path d="M 24.586 38.91 c -3.666 0 -6.649 -2.983 -6.649 -6.649 s 2.983 -6.649 6.649 -6.649 s 6.649 2.983 6.649 6.649 S 28.252 38.91 24.586 38.91 z M 24.586 28.612 c -2.012 0 -3.649 1.637 -3.649 3.649 s 1.637 3.649 3.649 3.649 s 3.649 -1.637 3.649 -3.649 S 26.599 28.612 24.586 28.612 z" transform=" matrix(1 0 0 1 0 0) " stroke-linecap="round" stroke="none" stroke-width="1" stroke-dasharray="none" fill="rgb(255,255,255)" opacity="1" />
  </g>
</svg>