<?xml version="1.0" encoding="UTF-8" standalone="no"?>
<svg
   version="1.1"
   width="256"
   height="256"
   viewBox="0 0 256 256"
   xml:space="preserve"
   id="svg1"
   sodipodi:docname="restore_selection.svg"
   inkscape:version="1.3.2 (091e20e, 2023-11-25, custom)"
   xmlns:inkscape="http://www.inkscape.org/namespaces/inkscape"
   xmlns:sodipodi="http://sodipodi.sourceforge.net/DTD/sodipodi-0.dtd"
   xmlns="http://www.w3.org/2000/svg"
   xmlns:svg="http://www.w3.org/2000/svg"><sodipodi:namedview
   id="namedview1"
   pagecolor="#505050"
   bordercolor="#ffffff"
   borderopacity="1"
   inkscape:showpageshadow="0"
   inkscape:pageopacity="0"
   inkscape:pagecheckerboard="1"
   inkscape:deskcolor="#505050"
   inkscape:zoom="3.0351562"
   inkscape:cx="127.83526"
   inkscape:cy="128"
   inkscape:window-width="1920"
   inkscape:window-height="991"
   inkscape:window-x="-9"
   inkscape:window-y="-9"
   inkscape:window-maximized="1"
   inkscape:current-layer="svg1" />

<defs
   id="defs1">
</defs>
<g
   style="opacity:1;fill:none;fill-rule:nonzero;stroke:none;stroke-width:0;stroke-linecap:butt;stroke-linejoin:miter;stroke-miterlimit:10;stroke-dasharray:none"
   transform="matrix(2.2242714,0,0,2.2242714,27.76438,27.76438)"
   id="g1">
	<circle
   cx="45"
   cy="45"
   r="45"
   style="opacity:1;fill:#77b1f2;fill-rule:nonzero;stroke:none;stroke-width:1;stroke-linecap:butt;stroke-linejoin:miter;stroke-miterlimit:10;stroke-dasharray:none"
   id="circle1" />
	<path
   d="m 69.643,24.047 c -0.566,-0.72 -1.611,-0.862 -2.342,-0.309 -6.579,4.976 -12.729,10.529 -18.402,16.574 -3.022,3.229 -5.905,6.603 -8.599,10.161 -1.431,1.904 -2.808,3.86 -4.109,5.889 h -0.082 l -7.6,-15.206 C 28.436,41.01 28.352,40.863 28.262,40.723 26.861,38.555 23.919,37.982 21.8,39.514 c -1.987,1.437 -2.337,4.279 -1.006,6.339 l 12.304,19.043 0.151,0.234 c 0.435,0.676 1.13,1.198 2.019,1.398 1.525,0.343 3.04,-0.567 3.671,-1.997 1.623,-3.678 3.724,-7.281 6.016,-10.76 2.337,-3.525 4.898,-6.936 7.614,-10.228 5.102,-6.169 10.74,-11.942 16.842,-17.188 0.682,-0.587 0.788,-1.601 0.232,-2.308 z"
   style="opacity:1;fill:#ffffff;fill-rule:nonzero;stroke:none;stroke-width:1;stroke-linecap:butt;stroke-linejoin:miter;stroke-miterlimit:10;stroke-dasharray:none"
   stroke-linecap="round"
   id="path1" />
</g>
</svg>
