<?xml version="1.0" encoding="UTF-8" standalone="no"?>
<svg
   role="img"
   focusable="false"
   aria-hidden="true"
   viewBox="0 0 14 14"
   id="svg2"
   version="1.1"
   width="100%"
   height="100%"
   xmlns="http://www.w3.org/2000/svg"
   xmlns:svg="http://www.w3.org/2000/svg">
  
  <defs
     id="defs34" />
  
  <rect
     style="fill:#e6e6e6;fill-opacity:1;stroke:none;stroke-width:2.0957;stroke-opacity:1"
     id="rect10749-5"
     width="10.420824"
     height="10.431826"
     x="2.358062"
     y="1.7919176"
     transform="matrix(1,0,-0.04725952,0.99888264,0,0)" />
  <rect
     style="fill:#696969;fill-opacity:0.817241;stroke-width:0.536351"
     id="rect28089"
     width="0.63120633"
     height="10.162421"
     x="6.9907875"
     y="1.8878272" />
  <rect
     style="fill:#696969;fill-opacity:0.817241;stroke-width:0.536351"
     id="rect28089-7"
     width="0.63120633"
     height="10.162421"
     x="6.4956326"
     y="-12.387603"
     transform="rotate(90)" />
  <path
     style="fill:none;fill-opacity:0.817241;stroke:#ff0000;stroke-width:0.536351;stroke-opacity:1"
     d="m 2.6670239,10.977197 c 0,0.126243 2.0198612,-0.757447 2.0198612,-0.757447 L 5.9492973,8.5786137 7.401071,5.1700996 8.9790876,3.5289632 11.567034,2.7715157"
     id="path32265" />
  <circle
     cx="8.9661379"
     cy="3.5625975"
     r="0.77762818"
     id="circle20-2"
     style="fill:#ff5555;stroke-width:0.25921" />
  <circle
     cx="7.3788161"
     cy="5.1540666"
     r="0.77762818"
     id="circle22-3"
     style="fill:#ff5555;stroke-width:0.25921" />
  <circle
     cx="5.9808574"
     cy="8.6417341"
     r="0.77762818"
     id="circle24-6"
     style="fill:#ff5555;stroke-width:0.25921" />
  <circle
     cx="4.646018"
     cy="10.190263"
     r="0.77762818"
     id="circle26-0"
     style="fill:#ff5555;stroke-width:0.25921" />
  <circle
     cx="2.6799734"
     cy="10.993229"
     r="0.77762818"
     id="circle28-1"
     style="fill:#ff5555;stroke-width:0.25921" />
  <circle
     cx="11.503914"
     cy="2.8346357"
     r="0.77762818"
     id="circle28-1-2"
     style="fill:#ff5555;stroke-width:0.25921" />
  <path
     style="fill:#ffff00;fill-opacity:1;stroke:#ff6600;stroke-width:0.43679434;stroke-linecap:butt;stroke-linejoin:miter;stroke-miterlimit:4;stroke-opacity:1;stroke-dasharray:none"
     d="m 8.5963008,6.4700627 0,2.1990978 -2.200976,0 0,2.2412805 2.200976,0 0,2.199098 2.2375212,0 0,-2.199098 2.200978,0 0,-2.2412805 -2.200978,0 0,-2.1990978 -2.2375212,0 z"
     id="rect3031" />
</svg>
