<?xml version="1.0" encoding="UTF-8" standalone="no"?>
<svg
   role="img"
   focusable="false"
   aria-hidden="true"
   viewBox="0 0 14 14"
   id="svg2"
   version="1.1"
   inkscape:version="1.4 (86a8ad7, 2024-10-11)"
   width="100%"
   height="100%"
   sodipodi:docname="roi_copy.svg"
   xmlns:inkscape="http://www.inkscape.org/namespaces/inkscape"
   xmlns:sodipodi="http://sodipodi.sourceforge.net/DTD/sodipodi-0.dtd"
   xmlns="http://www.w3.org/2000/svg"
   xmlns:svg="http://www.w3.org/2000/svg"
   xmlns:rdf="http://www.w3.org/1999/02/22-rdf-syntax-ns#"
   xmlns:cc="http://creativecommons.org/ns#"
   xmlns:dc="http://purl.org/dc/elements/1.1/">
  <metadata
     id="metadata12">
    <rdf:RDF>
      <cc:Work
         rdf:about="">
        <dc:format>image/svg+xml</dc:format>
        <dc:type
           rdf:resource="http://purl.org/dc/dcmitype/StillImage" />
      </cc:Work>
    </rdf:RDF>
  </metadata>
  <defs
     id="defs10" />
  <sodipodi:namedview
     pagecolor="#000000"
     bordercolor="#666666"
     borderopacity="1"
     objecttolerance="10"
     gridtolerance="10"
     guidetolerance="10"
     inkscape:pageopacity="0"
     inkscape:pageshadow="2"
     inkscape:window-width="1920"
     inkscape:window-height="991"
     id="namedview8"
     showgrid="false"
     inkscape:zoom="16.857143"
     inkscape:cx="7.118644"
     inkscape:cy="7.029661"
     inkscape:window-x="-9"
     inkscape:window-y="-9"
     inkscape:window-maximized="1"
     inkscape:current-layer="svg2"
     inkscape:showpageshadow="2"
     inkscape:pagecheckerboard="false"
     inkscape:deskcolor="#000000" />
  <path
     d="M 11.533192,7.0991553 V 2.5703355 c 0.425492,-0.1515952 0.732345,-0.5536524 0.732345,-1.0311407 0,-0.60638114 -0.492136,-1.09851687 -1.098518,-1.09851687 -0.477487,0 -0.879546,0.30685172 -1.031141,0.73234437 H 2.6776803 C 2.526085,0.7475294 2.1240279,0.44067793 1.646539,0.44067793 c -0.6063812,0 -1.09851684,0.49213573 -1.09851684,1.09851687 0,0.4774883 0.30685233,0.8795456 0.73234464,1.0311407 v 4.5288198 c -0.42549231,0.1515956 -0.73234464,0.553653 -0.73234464,1.0311416 0,0.6063825 0.49213564,1.0985173 1.09851684,1.0985173 0.4774889,0 0.879546,-0.3068529 1.0311413,-0.732346 h 7.4581977 c 0.151595,0.4254943 0.553654,0.732346 1.031141,0.732346 0.606382,0 1.098518,-0.4921348 1.098518,-1.0985173 0,-0.4774895 -0.306853,-0.879546 -0.732345,-1.0311416 z M 10.135878,7.7641246 H 2.6776803 C 2.5678285,7.4536106 2.3232255,7.2097397 2.0127114,7.0991553 V 2.5703355 C 2.3232255,2.4597559 2.5670964,2.2158814 2.6776803,1.9053663 h 7.4581977 c 0.110585,0.3105151 0.354456,0.5543858 0.664969,0.6649692 v 4.5288198 c -0.310513,0.11058 -0.555117,0.3544553 -0.664969,0.6649693 z"
     id="path6"
     inkscape:connector-curvature="0"
     style="fill:#4949ff;fill-opacity:1;stroke-width:1.46469" />
  <path
     style="fill:#ffffff;fill-opacity:1;stroke:none;stroke-width:0.0103914;stroke-linecap:square;stroke-dasharray:none;stroke-dashoffset:1.1932;stroke-opacity:1"
     d="M 2.6199,7.6014496 C 2.5346707,7.4382782 2.305249,7.2138043 2.133326,7.1253688 L 2.016423,7.0652357 V 4.8342519 2.6032683 L 2.1593045,2.5286376 C 2.3224763,2.443408 2.5469503,2.2139863 2.6353852,2.0420633 L 2.6955189,1.9251599 H 6.40678 10.118041 l 0.06013,0.1169034 c 0.08844,0.171923 0.31291,0.4013447 0.476081,0.4865739 l 0.142882,0.074631 v 2.2314772 2.2314775 l -0.142882,0.074631 c -0.163173,0.08523 -0.387647,0.3146513 -0.476083,0.4865744 l -0.06014,0.1169034 H 6.4062858 2.694531 Z"
     id="path1" />
  <text
     xml:space="preserve"
     style="font-size:5.35456px;line-height:0.85;font-family:'Franklin Gothic Demi Cond';-inkscape-font-specification:'Franklin Gothic Demi Cond';text-align:center;letter-spacing:0px;text-anchor:middle;opacity:1;fill:#4d4d4d;fill-opacity:1;stroke:none;stroke-width:0.196217;stroke-linecap:square;stroke-dasharray:none;stroke-opacity:1"
     x="6.4067798"
     y="6.6191649"
     id="text1"><tspan
       sodipodi:role="line"
       id="tspan1"
       x="6.4067798"
       y="6.6191649"
       style="font-style:normal;font-variant:normal;font-weight:normal;font-stretch:normal;font-size:5.35456px;font-family:'Franklin Gothic Medium';-inkscape-font-specification:'Franklin Gothic Medium, ';fill:#4d4d4d;fill-opacity:1;stroke:none;stroke-width:0.196217;stroke-dasharray:none;stroke-opacity:1">ROI</tspan></text>
  <g
     id="g306"
     transform="matrix(0.83676874,0,0,0.83676874,2.69213,3.7958618)">
    <rect
       style="fill:#ffccaa;stroke:#d45500;stroke-width:0;stroke-miterlimit:4;stroke-dasharray:none"
       id="rect955"
       width="3.6778848"
       height="6.3810096"
       x="4.0258412"
       y="2.4609373" />
    <rect
       style="fill:#ffccaa;stroke:#d45500;stroke-width:0;stroke-miterlimit:4;stroke-dasharray:none"
       id="rect955-6"
       width="3.6778843"
       height="4.3371396"
       x="5.3046875"
       y="4.5048075" />
    <rect
       style="fill:#ffccaa;stroke:#d45500;stroke-width:0;stroke-miterlimit:4;stroke-dasharray:none"
       id="rect955-68"
       width="3.6778848"
       height="6.3810096"
       x="7.7433882"
       y="4.9393029" />
    <rect
       style="fill:#ffccaa;stroke:#d45500;stroke-width:0;stroke-miterlimit:4;stroke-dasharray:none"
       id="rect955-6-6"
       width="3.6778843"
       height="4.3371396"
       x="9.022234"
       y="6.9831729" />
    <path
       d="M 11.460937,4.5048077 H 9.6021631 V 3.8852163 L 7.7433894,2.0264423 H 3.40625 v 7.4350961 h 3.717548 v 2.4783646 h 6.195913 V 6.3635817 Z m 0,0.8762376 0.982539,0.9825364 H 11.460937 Z M 7.7433894,2.9026799 8.7259291,3.8852163 H 7.7433894 Z M 4.0258413,2.6460336 H 7.123798 V 4.5048077 H 8.982572 V 8.841947 H 4.0258413 Z M 12.700119,11.320312 H 7.7433894 V 9.4615384 H 9.6021631 V 5.124399 h 1.2391829 v 1.858774 h 1.858773 z"
       id="path2-0"
       style="fill:#ff6600;stroke-width:0.826122" />
  </g>
</svg>
