<?xml version="1.0" encoding="UTF-8" standalone="no"?>
<svg
   role="img"
   focusable="false"
   aria-hidden="true"
   viewBox="0 0 14 14"
   version="1.1"
   id="svg12"
   sodipodi:docname="roi_grid.svg"
   inkscape:version="1.4 (86a8ad7, 2024-10-11)"
   xml:space="preserve"
   xmlns:inkscape="http://www.inkscape.org/namespaces/inkscape"
   xmlns:sodipodi="http://sodipodi.sourceforge.net/DTD/sodipodi-0.dtd"
   xmlns="http://www.w3.org/2000/svg"
   xmlns:svg="http://www.w3.org/2000/svg"><defs
     id="defs16"><filter
       style="color-interpolation-filters:sRGB;"
       inkscape:label="Greyscale"
       id="filter1"
       x="0"
       y="0"
       width="1"
       height="1"><feColorMatrix
         values="0.21 0.72 0.072 0.0917431 0 0.21 0.72 0.072 0.0917431 0 0.21 0.72 0.072 0.0917431 0 0 0 0 1 0 "
         id="feColorMatrix1" /></filter></defs><sodipodi:namedview
     id="namedview14"
     pagecolor="#ffffff"
     bordercolor="#000000"
     borderopacity="0.25"
     inkscape:showpageshadow="2"
     inkscape:pageopacity="0.0"
     inkscape:pagecheckerboard="0"
     inkscape:deskcolor="#d1d1d1"
     showgrid="false"
     inkscape:zoom="42.274884"
     inkscape:cx="3.2998316"
     inkscape:cy="5.9964683"
     inkscape:window-width="1920"
     inkscape:window-height="1009"
     inkscape:window-x="-8"
     inkscape:window-y="-8"
     inkscape:window-maximized="1"
     inkscape:current-layer="svg12" /><path
     d="M 6.2389831,3.5755219 V 1.4156638 C 6.4419063,1.3433658 6.5882489,1.1516191 6.5882489,0.9238983 6.5882489,0.6347065 6.3535429,0.4 6.0643501,0.4 5.8366298,0.4 5.6448827,0.5463418 5.5725845,0.7492653 H 2.0156641 C 1.9433661,0.5463417 1.7516195,0.4 1.5238983,0.4 1.2347065,0.4 1,0.6347065 1,0.9238983 1,1.1516191 1.1463423,1.343366 1.3492655,1.4156638 V 3.5755219 C 1.1463423,3.6478199 1,3.8395666 1,4.0672875 c 0,0.2891926 0.2347065,0.5238986 0.5238983,0.5238986 0.2277212,0 0.4194679,-0.1463426 0.4917658,-0.3492658 h 3.5569204 c 0.072298,0.2029237 0.2640453,0.3492658 0.4917656,0.3492658 0.2891928,0 0.5238988,-0.234706 0.5238988,-0.5238986 0,-0.2277219 -0.1463426,-0.4194675 -0.3492658,-0.4917656 z M 5.5725845,3.8926546 H 2.0156641 C 1.9632743,3.7445662 1.8466196,3.6282612 1.6985311,3.5755219 V 1.4156638 c 0.1480885,-0.052737 0.264394,-0.1690442 0.317133,-0.3171332 h 3.5569204 c 0.052737,0.148089 0.1690444,0.2643944 0.3171328,0.3171332 V 3.5755219 C 5.7416289,3.6282579 5.6249742,3.7445662 5.5725845,3.8926546 Z"
     id="path6"
     inkscape:connector-curvature="0"
     style="fill:#4949ff;fill-opacity:1;stroke-width:0.69853" /><path
     d="M 12.63875,3.5755219 V 1.4156638 C 12.841664,1.3433658 12.988,1.1516191 12.988,0.9238983 12.988,0.6347065 12.753304,0.4 12.464124,0.4 12.236415,0.4 12.044676,0.5463418 11.972381,0.7492653 H 8.4156188 C 8.343324,0.5463417 8.151586,0.4 7.9238749,0.4 7.634696,0.4 7.4,0.6347065 7.4,0.9238983 7.4,1.1516191 7.5463358,1.343366 7.7492499,1.4156638 V 3.5755219 C 7.5463358,3.6478199 7.4,3.8395666 7.4,4.0672875 c 0,0.2891926 0.234696,0.5238986 0.5238749,0.5238986 0.2277111,0 0.4194492,-0.1463426 0.4917439,-0.3492658 h 3.5567622 c 0.0723,0.2029237 0.264034,0.3492658 0.491743,0.3492658 0.28918,0 0.523876,-0.234706 0.523876,-0.5238986 0,-0.2277219 -0.146336,-0.4194675 -0.34925,-0.4917656 z M 11.972381,3.8926546 H 8.4156188 C 8.3632313,3.7445662 8.2465818,3.6282612 8.0984999,3.5755219 V 1.4156638 C 8.2465818,1.3629268 8.3628821,1.2466196 8.4156188,1.0985306 h 3.5567622 c 0.05274,0.148089 0.169037,0.2643944 0.317118,0.3171332 v 2.1598581 c -0.148081,0.052736 -0.264731,0.1690443 -0.317118,0.3171327 z"
     id="path6-0"
     inkscape:connector-curvature="0"
     style="fill:#4949ff;fill-opacity:1;stroke-width:0.698514" /><path
     d="M 6.2389831,7.9755219 V 5.8156638 C 6.4419063,5.7433658 6.5882489,5.5516191 6.5882489,5.3238983 6.5882489,5.0347065 6.3535429,4.8 6.0643501,4.8 5.8366298,4.8 5.6448827,4.9463418 5.5725845,5.1492653 H 2.0156641 C 1.9433661,4.9463417 1.7516195,4.8 1.5238983,4.8 1.2347065,4.8 1,5.0347065 1,5.3238983 1,5.5516191 1.1463423,5.743366 1.3492655,5.8156638 V 7.9755219 C 1.1463423,8.0478199 1,8.2395666 1,8.4672875 c 0,0.2891926 0.2347065,0.5238986 0.5238983,0.5238986 0.2277212,0 0.4194679,-0.1463426 0.4917658,-0.3492658 h 3.5569204 c 0.072298,0.2029237 0.2640453,0.3492658 0.4917656,0.3492658 0.2891928,0 0.5238988,-0.234706 0.5238988,-0.5238986 0,-0.2277219 -0.1463426,-0.4194675 -0.3492658,-0.4917656 z M 5.5725845,8.2926546 H 2.0156641 C 1.9632743,8.1445662 1.8466196,8.0282612 1.6985311,7.9755219 V 5.8156638 c 0.1480885,-0.052737 0.264394,-0.1690442 0.317133,-0.3171332 h 3.5569204 c 0.052737,0.148089 0.1690444,0.2643944 0.3171328,0.3171332 V 7.9755219 C 5.7416289,8.0282579 5.6249742,8.1445662 5.5725845,8.2926546 Z"
     id="path6-9"
     inkscape:connector-curvature="0"
     style="fill:#4949ff;fill-opacity:1;stroke-width:0.69853" /><path
     d="M 12.63875,7.9755219 V 5.8156638 C 12.841664,5.7433658 12.988,5.5516191 12.988,5.3238983 12.988,5.0347065 12.753304,4.8 12.464124,4.8 12.236415,4.8 12.044676,4.9463418 11.972381,5.1492653 H 8.415619 C 8.343324,4.9463417 8.151586,4.8 7.923875,4.8 7.634696,4.8 7.4,5.0347065 7.4,5.3238983 7.4,5.5516191 7.546336,5.743366 7.74925,5.8156638 V 7.9755219 C 7.546336,8.0478199 7.4,8.2395666 7.4,8.4672875 c 0,0.2891926 0.234696,0.5238986 0.523875,0.5238986 0.227711,0 0.419449,-0.1463426 0.491744,-0.3492658 h 3.556762 c 0.0723,0.2029237 0.264034,0.3492658 0.491743,0.3492658 0.28918,0 0.523876,-0.234706 0.523876,-0.5238986 0,-0.2277219 -0.146336,-0.4194675 -0.34925,-0.4917656 z M 11.972381,8.2926546 H 8.415619 C 8.363231,8.1445662 8.246582,8.0282612 8.0985,7.9755219 V 5.8156638 C 8.246582,5.7629268 8.362882,5.6466196 8.415619,5.4985306 h 3.556762 c 0.05274,0.148089 0.169037,0.2643944 0.317118,0.3171332 v 2.1598581 c -0.148081,0.052736 -0.264731,0.1690443 -0.317118,0.3171327 z"
     id="path6-0-4"
     inkscape:connector-curvature="0"
     style="fill:#4949ff;fill-opacity:1;stroke-width:0.698514" /><path
     d="M 6.2389831,12.475522 V 10.315664 C 6.4419063,10.243364 6.5882489,10.051619 6.5882489,9.8238983 6.5882489,9.5347065 6.3535429,9.3 6.0643501,9.3 5.8366298,9.3 5.6448827,9.4463418 5.5725845,9.6492653 H 2.0156641 C 1.9433661,9.4463417 1.7516195,9.3 1.5238983,9.3 1.2347065,9.3 1,9.5347065 1,9.8238983 1,10.051619 1.1463423,10.243366 1.3492655,10.315664 v 2.159858 C 1.1463423,12.547822 1,12.739567 1,12.967287 c 0,0.289193 0.2347065,0.523899 0.5238983,0.523899 0.2277212,0 0.4194679,-0.146343 0.4917658,-0.349266 h 3.5569204 c 0.072298,0.202924 0.2640453,0.349266 0.4917656,0.349266 0.2891928,0 0.5238988,-0.234706 0.5238988,-0.523899 0,-0.227721 -0.1463426,-0.419467 -0.3492658,-0.491765 z M 5.5725845,12.792655 H 2.0156641 c -0.05239,-0.148089 -0.1690445,-0.264394 -0.317133,-0.317133 v -2.159858 c 0.1480885,-0.05274 0.264394,-0.169044 0.317133,-0.3171334 h 3.5569204 c 0.052737,0.1480894 0.1690444,0.2643944 0.3171328,0.3171334 v 2.159858 c -0.1480884,0.05274 -0.2647431,0.169044 -0.3171328,0.317133 z"
     id="path6-8"
     inkscape:connector-curvature="0"
     style="fill:#4949ff;fill-opacity:1;stroke-width:0.69853" /><path
     d="M 12.63875,12.475522 V 10.315664 C 12.841664,10.243364 12.988,10.051619 12.988,9.8238983 12.988,9.5347065 12.753304,9.3 12.464124,9.3 12.236415,9.3 12.044676,9.4463418 11.972381,9.6492653 H 8.4156188 C 8.343324,9.4463417 8.151586,9.3 7.9238749,9.3 7.634696,9.3 7.4,9.5347065 7.4,9.8238983 c 0,0.2277207 0.1463358,0.4194677 0.3492499,0.4917657 v 2.159858 C 7.5463358,12.547822 7.4,12.739567 7.4,12.967287 c 0,0.289193 0.234696,0.523899 0.5238749,0.523899 0.2277111,0 0.4194492,-0.146343 0.4917439,-0.349266 h 3.5567622 c 0.0723,0.202924 0.264034,0.349266 0.491743,0.349266 0.28918,0 0.523876,-0.234706 0.523876,-0.523899 0,-0.227721 -0.146336,-0.419467 -0.34925,-0.491765 z m -0.666369,0.317133 H 8.4156188 C 8.3632313,12.644566 8.2465818,12.528261 8.0984999,12.475522 V 10.315664 C 8.2465818,10.262924 8.3628821,10.14662 8.4156188,9.9985306 h 3.5567622 c 0.05274,0.1480894 0.169037,0.2643944 0.317118,0.3171334 v 2.159858 c -0.148081,0.05274 -0.264731,0.169044 -0.317118,0.317133 z"
     id="path6-0-8"
     inkscape:connector-curvature="0"
     style="fill:#4949ff;fill-opacity:1;stroke-width:0.698514" /></svg>
