<?xml version="1.0" encoding="UTF-8" standalone="no"?>
  <svg
 role="img"
 focusable="false"
 aria-hidden="true"
 viewBox="0 0 14 14"
 id="svg2"
 version="1.1"
 width="100%"
 height="100%"
 xmlns="http://www.w3.org/2000/svg"
 xmlns:rdf="http://www.w3.org/1999/02/22-rdf-syntax-ns#"
 xmlns:cc="http://creativecommons.org/ns#"
 xmlns:dc="http://purl.org/dc/elements/1.1/">
  <metadata
 id="metadata12">
  <rdf:RDF>
  <cc:Work
 rdf:about="">
  <dc:format>image/svg+xml</dc:format>
  <dc:type
 rdf:resource="http://purl.org/dc/dcmitype/StillImage" />
  </cc:Work>
  </rdf:RDF>
  </metadata>
  <path
 d="M 12.853106,8.297265 V 3.1264622 c 0.485809,-0.1730847 0.83616,-0.6321355 0.83616,-1.1773101 0,-0.6923386 -0.561898,-1.25423698 -1.254238,-1.25423698 -0.545174,0 -1.004226,0.35034958 -1.177311,0.83615768 H 2.742282 C 2.5691972,1.0452644 2.1101465,0.69491512 1.5649712,0.69491512 c -0.69233883,0 -1.25423716,0.56189838 -1.25423716,1.25423698 0,0.5451746 0.35035027,1.0042256 0.83615816,1.1773101 V 8.297265 C 0.66108431,8.47035 0.31073404,8.929401 0.31073404,9.474576 c 0,0.69234 0.56189833,1.254238 1.25423716,1.254238 0.5451753,0 1.004226,-0.350351 1.1773108,-0.83616 h 8.515435 c 0.173085,0.48581 0.632137,0.83616 1.177311,0.83616 0.69234,0 1.254238,-0.561898 1.254238,-1.254238 0,-0.545176 -0.350351,-1.004226 -0.83616,-1.177311 z M 11.257717,9.056497 H 2.742282 C 2.6168582,8.7019661 2.3375814,8.4235252 1.9830504,8.297265 V 3.1264622 C 2.3375814,3.0002072 2.6160222,2.7217623 2.742282,2.3672301 h 8.515435 c 0.126256,0.3545322 0.404701,0.6329728 0.759232,0.7592321 V 8.297265 c -0.354531,0.1262549 -0.633808,0.4047011 -0.759232,0.759232 z"
 id="path6" fill="#4949ff" fill-opacity="1" stroke-width="1.67231" />
  <path
 d="M 2.676311,8.870762 C 2.579,8.6844602 2.3170567,8.4281659 2.1207627,8.3271944 L 1.9872881,8.258537 V 5.7113001 3.1640633 l 0.1631356,-0.08521 C 2.336726,2.9815419 2.5930203,2.7195986 2.6939913,2.5233046 l 0.068658,-0.1334745 h 4.237351 4.2373507 l 0.06866,0.1334745 c 0.100972,0.196294 0.357266,0.4582373 0.543568,0.5555483 l 0.163136,0.08521 v 2.5478006 2.5478007 l -0.163136,0.08521 C 11.663274,8.442186 11.40698,8.704129 11.306008,8.900423 l -0.06866,0.133475 H 6.9994361 2.7615213 Z"
 id="path1" fill="#ffffff" fill-opacity="1" stroke="none" stroke-width="0.0118644" stroke-dasharray="none" stroke-opacity="1" />
  <g
 id="g6"
 transform="matrix(0.16660078,0,0,0.16660078,-15.854599,-12.611447)">
  <path
 d="m 157.871,142.68385 -12.28021,-12.28022 -4.79322,4.77809 -4.79321,4.77809 -9.31827,-20.78315 c -5.12505,-11.43075 -9.28032,-20.813833 -9.23393,-20.851311 0.0463,-0.03746 9.25729,4.059371 20.46867,9.104121 11.21138,5.04473 20.54113,9.24048 20.73278,9.32388 0.19164,0.0834 -1.80699,2.32664 -4.44141,4.98501 l -4.78986,4.83338 12.36412,12.36043 12.3641,12.36043 -1.81293,1.83573 c -0.9971,1.00966 -1.89696,1.83573 -1.99966,1.83573 -0.10271,0 -5.71285,-5.5261 -12.46697,-12.28021 z"
 id="path6-8" fill="#cccccc" stroke="none" stroke-width="0.296183" />
  <path
 d="m 119.47049,100.36099 38.62937,17.33414 -5.80074,5.80074 -2.96271,2.96271 2.96271,2.96271 19.69655,19.69655 -3.76729,3.76729 -19.69655,-19.69655 -2.96271,-2.96271 -2.9627,2.96271 -5.80075,5.80074 -17.33518,-38.62833 m -5.56922,-6.960472 c -0.94182,0 -1.70031,0.994204 -1.26345,1.967455 l 22.00449,49.038657 c 0.23886,0.5322 0.7522,0.82344 1.27392,0.82344 0.34991,0 0.70506,-0.13095 0.98163,-0.40858 l 8.67022,-8.67021 21.4639,21.46391 c 0.33001,0.33 0.76268,0.49553 1.19535,0.49553 0.43267,0 0.86535,-0.16553 1.1964,-0.49553 l 7.30095,-7.30096 c 0.66001,-0.66 0.66001,-1.73173 0,-2.39174 l -21.46286,-21.46391 8.67022,-8.67021 c 0.68934,-0.68934 0.47562,-1.85641 -0.41487,-2.25555 L 114.47852,93.527282 c -0.19486,-0.08695 -0.38972,-0.126764 -0.57725,-0.126764 z"
 stroke-linecap="round"
 id="path1-2" fill="#999999" stroke="none" stroke-width="1.04763" stroke-dasharray="none" />
  </g>
</svg>
