<?xml version="1.0" encoding="UTF-8" standalone="no"?>
  <svg
 role="img"
 focusable="false"
 aria-hidden="true"
 viewBox="0 0 14 14"
 id="svg2"
 version="1.1"
 width="100%"
 height="100%"
 xmlns="http://www.w3.org/2000/svg"
 xmlns:rdf="http://www.w3.org/1999/02/22-rdf-syntax-ns#"
 xmlns:cc="http://creativecommons.org/ns#"
 xmlns:dc="http://purl.org/dc/elements/1.1/">
  <metadata
 id="metadata12">
  <rdf:RDF>
  <cc:Work
 rdf:about="">
  <dc:format>image/svg+xml</dc:format>
  <dc:type
 rdf:resource="http://purl.org/dc/dcmitype/StillImage" />
  </cc:Work>
  </rdf:RDF>
  </metadata>
  <path
 d="M 12.853106,8.949807 V 3.7790042 c 0.485809,-0.1730847 0.83616,-0.6321355 0.83616,-1.1773101 0,-0.6923386 -0.561898,-1.2542368 -1.254238,-1.2542368 -0.545174,0 -1.004226,0.3503494 -1.177311,0.8361575 H 2.742282 C 2.5691972,1.6978064 2.1101465,1.3474573 1.5649712,1.3474573 c -0.69233883,0 -1.25423716,0.5618982 -1.25423716,1.2542368 0,0.5451746 0.35035027,1.0042256 0.83615816,1.1773101 V 8.949807 c -0.48580789,0.173085 -0.83615816,0.632136 -0.83615816,1.177311 0,0.69234 0.56189833,1.254238 1.25423716,1.254238 0.5451753,0 1.004226,-0.350351 1.1773108,-0.83616 h 8.515435 c 0.173085,0.48581 0.632137,0.83616 1.177311,0.83616 0.69234,0 1.254238,-0.561898 1.254238,-1.254238 0,-0.545176 -0.350351,-1.004226 -0.83616,-1.177311 z M 11.257717,9.709039 H 2.742282 C 2.6168582,9.3545081 2.3375814,9.0760672 1.9830504,8.949807 V 3.7790042 C 2.3375814,3.6527492 2.6160222,3.3743043 2.742282,3.0197721 h 8.515435 c 0.126256,0.3545322 0.404701,0.6329728 0.759232,0.7592321 V 8.949807 c -0.354531,0.1262549 -0.633808,0.4047011 -0.759232,0.759232 z"
 id="path6" fill="#4949ff" fill-opacity="1" stroke-width="1.67231" />
  <path
 d="M 2.676311,9.523304 C 2.579,9.3370022 2.3170567,9.0807079 2.1207627,8.9797364 L 1.9872881,8.911079 V 6.3638421 3.8166053 l 0.1631356,-0.08521 C 2.336726,3.6340839 2.5930203,3.3721406 2.6939913,3.1758466 l 0.068658,-0.1334745 h 4.237351 4.2373507 l 0.06866,0.1334745 c 0.100972,0.196294 0.357266,0.4582373 0.543568,0.5555483 l 0.163136,0.08521 v 2.5478006 2.5478007 l -0.163136,0.08521 C 11.663274,9.094728 11.40698,9.356671 11.306008,9.552965 L 11.237348,9.68644 H 6.9994361 2.7615213 Z"
 id="path1" fill="#ffffff" fill-opacity="1" stroke="none" stroke-width="0.0118644" stroke-dasharray="none" stroke-opacity="1" />
  <path
 d="m 9.0295425,6.8709371 v 2.1990978 h -2.200976 v 2.2412811 h 2.200976 v 2.199098 h 2.2375215 v -2.199098 h 2.200977 V 9.0700349 H 11.267064 V 6.8709371 Z"
 id="rect3031" fill="#ffff00" fill-opacity="1" stroke="#ff6600" stroke-width="0.436794" stroke-dasharray="none" stroke-opacity="1" />
</svg>
