<?xml version="1.0" encoding="UTF-8" standalone="no"?>
<svg
   role="img"
   focusable="false"
   aria-hidden="true"
   viewBox="0 0 14 14"
   id="svg2"
   version="1.1"
   inkscape:version="1.4 (86a8ad7, 2024-10-11)"
   width="100%"
   height="100%"
   sodipodi:docname="roi_paste.svg"
   xmlns:inkscape="http://www.inkscape.org/namespaces/inkscape"
   xmlns:sodipodi="http://sodipodi.sourceforge.net/DTD/sodipodi-0.dtd"
   xmlns="http://www.w3.org/2000/svg"
   xmlns:svg="http://www.w3.org/2000/svg"
   xmlns:rdf="http://www.w3.org/1999/02/22-rdf-syntax-ns#"
   xmlns:cc="http://creativecommons.org/ns#"
   xmlns:dc="http://purl.org/dc/elements/1.1/">
  <metadata
     id="metadata12">
    <rdf:RDF>
      <cc:Work
         rdf:about="">
        <dc:format>image/svg+xml</dc:format>
        <dc:type
           rdf:resource="http://purl.org/dc/dcmitype/StillImage" />
      </cc:Work>
    </rdf:RDF>
  </metadata>
  <defs
     id="defs10" />
  <sodipodi:namedview
     pagecolor="#000000"
     bordercolor="#666666"
     borderopacity="1"
     objecttolerance="10"
     gridtolerance="10"
     guidetolerance="10"
     inkscape:pageopacity="0"
     inkscape:pageshadow="2"
     inkscape:window-width="1920"
     inkscape:window-height="991"
     id="namedview8"
     showgrid="false"
     inkscape:zoom="16.857143"
     inkscape:cx="7.118644"
     inkscape:cy="7.029661"
     inkscape:window-x="-9"
     inkscape:window-y="-9"
     inkscape:window-maximized="1"
     inkscape:current-layer="svg2"
     inkscape:showpageshadow="2"
     inkscape:pagecheckerboard="false"
     inkscape:deskcolor="#000000" />
  <path
     d="M 11.533192,7.0991553 V 2.5703355 c 0.425492,-0.1515952 0.732345,-0.5536524 0.732345,-1.0311407 0,-0.60638114 -0.492136,-1.09851687 -1.098518,-1.09851687 -0.477487,0 -0.879546,0.30685172 -1.031141,0.73234437 H 2.6776803 C 2.526085,0.7475294 2.1240279,0.44067793 1.646539,0.44067793 c -0.6063812,0 -1.09851684,0.49213573 -1.09851684,1.09851687 0,0.4774883 0.30685233,0.8795456 0.73234464,1.0311407 v 4.5288198 c -0.42549231,0.1515956 -0.73234464,0.553653 -0.73234464,1.0311416 0,0.6063825 0.49213564,1.0985173 1.09851684,1.0985173 0.4774889,0 0.879546,-0.3068529 1.0311413,-0.732346 h 7.4581977 c 0.151595,0.4254943 0.553654,0.732346 1.031141,0.732346 0.606382,0 1.098518,-0.4921348 1.098518,-1.0985173 0,-0.4774895 -0.306853,-0.879546 -0.732345,-1.0311416 z M 10.135878,7.7641246 H 2.6776803 C 2.5678285,7.4536106 2.3232255,7.2097397 2.0127114,7.0991553 V 2.5703355 C 2.3232255,2.4597559 2.5670964,2.2158814 2.6776803,1.9053663 h 7.4581977 c 0.110585,0.3105151 0.354456,0.5543858 0.664969,0.6649692 v 4.5288198 c -0.310513,0.11058 -0.555117,0.3544553 -0.664969,0.6649693 z"
     id="path6"
     inkscape:connector-curvature="0"
     style="fill:#4949ff;fill-opacity:1;stroke-width:1.46469" />
  <path
     style="fill:#ffffff;fill-opacity:1;stroke:none;stroke-width:0.0103914;stroke-linecap:square;stroke-dasharray:none;stroke-dashoffset:1.1932;stroke-opacity:1"
     d="M 2.6199,7.6014496 C 2.5346707,7.4382782 2.305249,7.2138043 2.133326,7.1253688 L 2.016423,7.0652357 V 4.8342519 2.6032683 L 2.1593045,2.5286376 C 2.3224763,2.443408 2.5469503,2.2139863 2.6353852,2.0420633 L 2.6955189,1.9251599 H 6.40678 10.118041 l 0.06013,0.1169034 c 0.08844,0.171923 0.31291,0.4013447 0.476081,0.4865739 l 0.142882,0.074631 v 2.2314772 2.2314775 l -0.142882,0.074631 c -0.163173,0.08523 -0.387647,0.3146513 -0.476083,0.4865744 l -0.06014,0.1169034 H 6.4062858 2.694531 Z"
     id="path1" />
  <text
     xml:space="preserve"
     style="font-size:5.35456px;line-height:0.85;font-family:'Franklin Gothic Demi Cond';-inkscape-font-specification:'Franklin Gothic Demi Cond';text-align:center;letter-spacing:0px;text-anchor:middle;opacity:1;fill:#4d4d4d;fill-opacity:1;stroke:none;stroke-width:0.196217;stroke-linecap:square;stroke-dasharray:none;stroke-opacity:1"
     x="6.4067798"
     y="6.6191649"
     id="text1"><tspan
       sodipodi:role="line"
       id="tspan1"
       x="6.4067798"
       y="6.6191649"
       style="font-style:normal;font-variant:normal;font-weight:normal;font-stretch:normal;font-size:5.35456px;font-family:'Franklin Gothic Medium';-inkscape-font-specification:'Franklin Gothic Medium, ';fill:#4d4d4d;fill-opacity:1;stroke:none;stroke-width:0.196217;stroke-dasharray:none;stroke-opacity:1">ROI</tspan></text>
  <g
     id="g1016"
     transform="matrix(0.81634845,0,0,0.81634845,2.9518278,4.0384075)">
    <rect
       style="fill:#aaccff;stroke:#d45500;stroke-width:0;stroke-miterlimit:4;stroke-dasharray:none"
       id="rect991"
       width="6.7790279"
       height="6.9265242"
       x="4.6328125"
       y="3.4551136" />
    <rect
       style="fill:#aaccff;stroke:#d45500;stroke-width:0;stroke-miterlimit:4;stroke-dasharray:none"
       id="rect991-2"
       width="4.4232593"
       height="4.1164284"
       x="7.766736"
       y="6.5655842" />
    <path
       d="M 11.125783,9.6749069 H 8.8175127 V 8.976419 h 2.3082703 z m -7.9e-4,-1.290258 H 8.8174888 V 7.6861608 H 11.124993 Z M 11.422987,4.9411872 H 6.9970833 V 11.367325 H 12.875567 V 6.3924861 Z m 0.521272,5.4948288 H 7.9284152 V 5.8724959 h 2.7960868 v 1.0554847 h 1.219757 z M 6.1687195,9.625 H 4.6328125 V 3.4551137 h 1.4047351 l 0.58013,0.5820774 H 8.555959 L 9.1438464,3.4551137 h 1.3329326 v 0.7410727 h 0.942936 V 2.5276869 h -1.326404 c -0.2116981,0 -0.4147851,-0.083776 -0.5649271,-0.2330081 L 9.021597,1.7904027 H 6.111258 L 5.6044951,2.2946325 C 5.4543609,2.4438888 5.2512902,2.527663 5.0395764,2.527663 H 3.7131486 v 8.040268 h 2.4555709 z"
       id="path2-1"
       style="fill:#0066ff;stroke-width:0.798077" />
  </g>
</svg>
