<?xml version="1.0" encoding="UTF-8" standalone="no"?>
<svg
   version="1.1"
   width="256"
   height="256"
   viewBox="0 0 256 256"
   xml:space="preserve"
   id="svg2"
   sodipodi:docname="show_first.svg"
   inkscape:version="1.3.2 (091e20e, 2023-11-25, custom)"
   xmlns:inkscape="http://www.inkscape.org/namespaces/inkscape"
   xmlns:sodipodi="http://sodipodi.sourceforge.net/DTD/sodipodi-0.dtd"
   xmlns="http://www.w3.org/2000/svg"
   xmlns:svg="http://www.w3.org/2000/svg"><sodipodi:namedview
   id="namedview2"
   pagecolor="#ffffff"
   bordercolor="#000000"
   borderopacity="0.25"
   inkscape:showpageshadow="2"
   inkscape:pageopacity="0.0"
   inkscape:pagecheckerboard="0"
   inkscape:deskcolor="#d1d1d1"
   inkscape:zoom="3.1757812"
   inkscape:cx="120.75769"
   inkscape:cy="126.42559"
   inkscape:window-width="1920"
   inkscape:window-height="1009"
   inkscape:window-x="-8"
   inkscape:window-y="-8"
   inkscape:window-maximized="1"
   inkscape:current-layer="svg2" />

<defs
   id="defs1">
</defs>
<g
   style="opacity:1;fill:none;fill-rule:nonzero;stroke:none;stroke-width:0;stroke-linecap:butt;stroke-linejoin:miter;stroke-miterlimit:10;stroke-dasharray:none"
   transform="matrix(0,2.0787714,-2.0787714,0,242.34104,34.455287)"
   id="g2">
	<circle
   cx="45"
   cy="45"
   r="45"
   style="opacity:1;fill:#ffcc66;fill-rule:nonzero;stroke:none;stroke-width:1;stroke-linecap:butt;stroke-linejoin:miter;stroke-miterlimit:10;stroke-dasharray:none"
   id="circle1" />
	<path
   d="m 55.111,58.881 c -0.666,-0.913 -1.912,-1.233 -2.903,-0.69 -2.197,1.206 -4.655,1.835 -7.208,1.835 -6.4,0 -11.863,-4.029 -14.025,-9.677 h 5.305 c 0.653,0 1.253,-0.358 1.564,-0.932 0.31,-0.574 0.281,-1.273 -0.076,-1.819 L 23.016,25.046 c -0.329,-0.502 -0.888,-0.805 -1.488,-0.805 -0.6,0 -1.159,0.303 -1.488,0.805 L 5.29,47.599 c -0.357,0.546 -0.386,1.245 -0.076,1.819 0.311,0.575 0.911,0.932 1.564,0.932 h 6.764 C 16.095,65.409 29.225,76.916 45,76.916 c 5.988,0 11.736,-1.636 16.768,-4.754 1.131,-0.701 1.41,-2.23 0.626,-3.305 z"
   style="opacity:1;fill:#ed7161;fill-rule:nonzero;stroke:none;stroke-width:1;stroke-linecap:butt;stroke-linejoin:miter;stroke-miterlimit:10;stroke-dasharray:none"
   stroke-linecap="round"
   id="path1" />
	<path
   d="m 84.786,39.868 c -0.31,-0.574 -0.911,-0.932 -1.563,-0.932 H 76.331 C 73.489,24.229 60.525,13.084 45,13.084 c -5.41,0 -10.676,1.356 -15.37,3.94 -1.161,0.639 -1.511,2.151 -0.785,3.26 l 6.767,10.336 c 0.617,0.943 1.842,1.332 2.856,0.842 2.024,-0.978 4.249,-1.489 6.532,-1.489 6.127,0 11.402,3.691 13.738,8.963 h -5.017 c -0.653,0 -1.253,0.358 -1.563,0.932 -0.311,0.574 -0.282,1.273 0.076,1.819 l 14.75,22.553 c 0.328,0.502 0.888,0.805 1.488,0.805 0.6,0 1.16,-0.303 1.488,-0.805 L 84.71,41.687 c 0.358,-0.546 0.386,-1.245 0.076,-1.819 z"
   style="opacity:1;fill:#88c057;fill-rule:nonzero;stroke:none;stroke-width:1;stroke-linecap:butt;stroke-linejoin:miter;stroke-miterlimit:10;stroke-dasharray:none"
   stroke-linecap="round"
   id="path2" />
</g>
<path
   style="font-size:266.667px;line-height:1.05;font-family:'Franklin Gothic Demi Cond';-inkscape-font-specification:'Franklin Gothic Demi Cond';letter-spacing:0px;fill:#ffffff;stroke:#666666;stroke-width:7.744;stroke-linecap:square"
   d="m 56.886618,38.351457 h 29.81774 V 188.61205 h 29.427122 v 29.03649 H 17.693859 V 188.61205 H 47.641808 V 83.664013 Q 34.360546,97.466113 17.693859,105.92966 V 71.163997 Q 41.522008,58.663982 56.886618,38.351457 Z"
   id="text1"
   aria-label="1" /></svg>
