<?xml version="1.0" encoding="UTF-8" standalone="no"?>
  <svg
 role="img"
 focusable="false"
 aria-hidden="true"
 viewBox="0 0 14 14"
 version="1.1"
 id="svg6"
 xmlns="http://www.w3.org/2000/svg">
  <g
 id="g1"
 transform="matrix(0.77403846,0,0,0.77403846,1.5930314,1.5817308)">
  <path
 d="M 0.45591186,0 C 0.20418398,0 0,0.1689063 0,0.3789063 V 13.621094 C 0,13.831194 0.20418398,14 0.45591186,14 H 4.6167432 c 0.2518147,0 0.4542171,-0.168806 0.4542171,-0.378906 V 0.3789063 C 5.0709603,0.1689063 4.8685579,0 4.6167432,0 Z M 1.0508006,1.0585938 H 4.0201597 V 4.2734376 H 1.0508006 Z m 0,4.2832032 H 4.0201597 V 8.5566407 H 1.0508006 Z m 0,4.2832026 H 4.0201597 V 12.841797 H 1.0508006 Z"
 id="path2" fill="#999999" stroke-width="0.931535" />
  <path
 d="M 0.58881375,2.5672787 V 0.5737384 H 2.5354802 4.4821465 V 2.5672787 4.5608189 H 2.5354802 0.58881375 Z"
 id="path1898" fill="#80b3ff" fill-opacity="1" stroke="#d45500" stroke-width="0.0120351" />
  <path
 d="M 0.58870016,6.9646774 V 4.9711544 H 2.5354802 4.4822601 v 1.993523 1.9935231 H 2.5354802 0.58870016 Z"
 id="path1974" fill="#e6cccc" fill-opacity="1" stroke="#d45500" stroke-width="0.012067" />
  <path
 d="M 0.58894791,11.362075 V 9.3685358 H 2.5354801 4.4820123 v 1.9935392 1.99354 H 2.5354801 0.58894791 Z"
 id="path2050" fill="#ff8080" fill-opacity="1" stroke="#d45500" stroke-width="0.0120347" />
  <path
 d="M 4.9876524,0 C 4.7359245,0 4.5317405,0.1689063 4.5317405,0.3789063 V 13.621094 C 4.5317405,13.831194 4.7359245,14 4.9876524,14 H 9.1484835 C 9.4002982,14 9.602701,13.831194 9.602701,13.621094 V 0.3789063 C 9.602701,0.1689063 9.4002982,0 9.1484835,0 Z M 5.5825411,1.0585938 H 8.5519002 V 4.2734376 H 5.5825411 Z m 0,4.2832032 H 8.5519002 V 8.5566407 H 5.5825411 Z m 0,4.2832026 H 8.5519002 V 12.841797 H 5.5825411 Z"
 id="path2-7" fill="#999999" stroke-width="0.931535" />
  <path
 d="M 5.1205543,2.5672787 V 0.5737384 H 7.0672208 9.0138873 V 2.5672787 4.5608189 H 7.0672208 5.1205543 Z"
 id="path1898-8" fill="#e9afaf" fill-opacity="1" stroke="#d45500" stroke-width="0.0120351" />
  <path
 d="M 5.1204407,6.9646774 V 4.9711544 H 7.0672208 9.014001 v 1.993523 1.9935231 H 7.0672208 5.1204407 Z"
 id="path1974-1" fill="#aaccff" fill-opacity="1" stroke="#d45500" stroke-width="0.012067" />
  <path
 d="M 5.1206884,11.362075 V 9.3685358 h 1.9465323 1.9465321 v 1.9935392 1.99354 H 7.0672207 5.1206884 Z"
 id="path2050-7" fill="#0066ff" fill-opacity="1" stroke="#d45500" stroke-width="0.0120347" />
  <path
 d="M 9.4849749,0 C 9.233247,0 9.0290627,0.1689063 9.0290627,0.3789063 V 13.621094 C 9.0290627,13.831194 9.233247,14 9.4849749,14 h 4.1608311 c 0.251815,0 0.454217,-0.168806 0.454217,-0.378906 V 0.3789063 C 14.100023,0.1689063 13.897621,0 13.645806,0 Z m 0.5948891,1.0585938 h 2.969359 v 3.2148438 h -2.969359 z m 0,4.2832032 h 2.969359 v 3.2148438 h -2.969359 z m 0,4.2832027 h 2.969359 v 3.2167973 h -2.969359 z"
 id="path2-3" fill="#999999" stroke-width="0.931535" />
  <path
 d="M 9.6178763,2.5672788 V 0.5737384 h 1.9466667 1.946666 V 2.5672788 4.5608189 H 11.564543 9.6178763 Z"
 id="path1898-1" fill="#aaccff" fill-opacity="1" stroke="#d45500" stroke-width="0.0120351" />
  <path
 d="m 9.6177626,6.9646774 v -1.993523 h 1.9467804 1.94678 v 1.993523 1.9935232 h -1.94678 -1.9467804 z"
 id="path1974-4" fill="#e6cccc" fill-opacity="1" stroke="#d45500" stroke-width="0.012067" />
  <path
 d="M 9.6180108,11.362075 V 9.3685358 h 1.9465322 1.946532 v 1.9935392 1.99354 H 11.564543 9.6180108 Z"
 id="path2050-4" fill="#afdde9" fill-opacity="1" stroke="#d45500" stroke-width="0.0120347" />
  </g>
  <g
 transform="translate(9.0021101,-1035.6192)"
 id="g10">
  <circle
 cx="1.7804884"
 cy="1046.4354"
 r="2.9268293"
 fill="#f44336"
 id="circle2" />
  <g
 fill="#ffffff"
 id="g8">
  <path
 d="m 3.334781,1047.3665 -0.6207805,0.6208 -2.48312193,-2.4831 0.6207805,-0.6208 z"
 id="path4" />
  <path
 d="m 0.8493176,1047.9896 -0.6207805,-0.6207 2.483122,-2.4832 0.6207805,0.6208 z"
 id="path6-2" />
  </g>
  </g>
</svg>
