<?xml version="1.0" encoding="UTF-8" standalone="no"?>
<svg
   role="img"
   focusable="false"
   aria-hidden="true"
   viewBox="0 0 14 14"
   id="svg2"
   version="1.1"
   inkscape:version="1.4.2 (f4327f4, 2025-05-13)"
   width="100%"
   height="100%"
   sodipodi:docname="annotations_paste.svg"
   xmlns:inkscape="http://www.inkscape.org/namespaces/inkscape"
   xmlns:sodipodi="http://sodipodi.sourceforge.net/DTD/sodipodi-0.dtd"
   xmlns="http://www.w3.org/2000/svg"
   xmlns:svg="http://www.w3.org/2000/svg"
   xmlns:rdf="http://www.w3.org/1999/02/22-rdf-syntax-ns#"
   xmlns:cc="http://creativecommons.org/ns#"
   xmlns:dc="http://purl.org/dc/elements/1.1/">
  <metadata
     id="metadata12">
    <rdf:RDF>
      <cc:Work
         rdf:about="">
        <dc:format>image/svg+xml</dc:format>
        <dc:type
           rdf:resource="http://purl.org/dc/dcmitype/StillImage" />
      </cc:Work>
    </rdf:RDF>
  </metadata>
  <defs
     id="defs10" />
  <sodipodi:namedview
     pagecolor="#ffffff"
     bordercolor="#666666"
     borderopacity="1"
     objecttolerance="10"
     gridtolerance="10"
     guidetolerance="10"
     inkscape:pageopacity="0"
     inkscape:pageshadow="2"
     inkscape:window-width="1920"
     inkscape:window-height="1009"
     id="namedview8"
     showgrid="false"
     inkscape:zoom="16.857143"
     inkscape:cx="7.029661"
     inkscape:cy="7.148305"
     inkscape:window-x="-8"
     inkscape:window-y="-8"
     inkscape:window-maximized="1"
     inkscape:current-layer="svg2"
     inkscape:pagecheckerboard="0"
     inkscape:showpageshadow="0"
     inkscape:deskcolor="#505050" />
  <g
     id="g1"
     transform="translate(0.1779661,0.47457627)">
    <rect
       style="fill:#ffeeaa;stroke:#aa8800;stroke-width:0.497199;stroke-miterlimit:4;stroke-dasharray:none"
       id="rect924"
       width="5.309072"
       height="4.7191753"
       x="2.1643627"
       y="6.5601668" />
    <ellipse
       style="fill:#aaffaa;stroke:#008000;stroke-width:0.497199;stroke-miterlimit:4;stroke-dasharray:none"
       id="path1036"
       cx="4.2600341"
       cy="4.6777449"
       rx="3.7114346"
       ry="2.7282732" />
    <path
       style="fill:#ff6600;stroke:#d45500;stroke-width:0.828665px;stroke-linecap:butt;stroke-linejoin:miter;stroke-opacity:1"
       d="M 0.24866609,10.589467 C 9.4412254,4.9854466 9.4412254,4.9854466 9.4412254,4.9854466"
       id="path1169" />
  </g>
  <g
     id="g1016"
     transform="matrix(0.81634845,0,0,0.81634845,3.0535229,1.9875601)">
    <rect
       style="fill:#aaccff;stroke:#d45500;stroke-width:0;stroke-miterlimit:4;stroke-dasharray:none"
       id="rect991"
       width="6.7790279"
       height="6.9265242"
       x="4.6328125"
       y="3.4551136" />
    <rect
       style="fill:#aaccff;stroke:#d45500;stroke-width:0;stroke-miterlimit:4;stroke-dasharray:none"
       id="rect991-2"
       width="4.4232593"
       height="4.1164284"
       x="7.766736"
       y="6.5655842" />
    <path
       d="M 11.125783,9.6749069 H 8.8175127 V 8.976419 h 2.3082703 z m -7.9e-4,-1.290258 H 8.8174888 V 7.6861608 H 11.124993 Z M 11.422987,4.9411872 H 6.9970833 V 11.367325 H 12.875567 V 6.3924861 Z m 0.521272,5.4948288 H 7.9284152 V 5.8724959 h 2.7960868 v 1.0554847 h 1.219757 z M 6.1687195,9.625 H 4.6328125 V 3.4551137 h 1.4047351 l 0.58013,0.5820774 H 8.555959 L 9.1438464,3.4551137 h 1.3329326 v 0.7410727 h 0.942936 V 2.5276869 h -1.326404 c -0.2116981,0 -0.4147851,-0.083776 -0.5649271,-0.2330081 L 9.021597,1.7904027 H 6.111258 L 5.6044951,2.2946325 C 5.4543609,2.4438888 5.2512902,2.527663 5.0395764,2.527663 H 3.7131486 v 8.040268 h 2.4555709 z"
       id="path2-1"
       style="fill:#0066ff;stroke-width:0.798077" />
  </g>
</svg>
