<?xml version="1.0" encoding="UTF-8" standalone="no"?>
  <svg
 role="img"
 focusable="false"
 aria-hidden="true"
 viewBox="0 0 14 14"
 id="svg2"
 version="1.1"
 width="100%"
 height="100%"
 xmlns="http://www.w3.org/2000/svg"
 xmlns:rdf="http://www.w3.org/1999/02/22-rdf-syntax-ns#"
 xmlns:cc="http://creativecommons.org/ns#"
 xmlns:dc="http://purl.org/dc/elements/1.1/">
  <metadata
 id="metadata12">
  <rdf:RDF>
  <cc:Work
 rdf:about="">
  <dc:format>image/svg+xml</dc:format>
  <dc:type
 rdf:resource="http://purl.org/dc/dcmitype/StillImage" />
  </cc:Work>
  </rdf:RDF>
  </metadata>
  <g
 id="g1"
 transform="translate(0.1779661,0.47457627)">
  <rect
 id="rect924"
 width="5.309072"
 height="4.7191753"
 x="2.1643627"
 y="6.5601668" fill="#ffeeaa" stroke="#aa8800" stroke-width="0.497199" stroke-dasharray="none" />
  <ellipse
 id="path1036"
 cx="4.2600341"
 cy="4.6777449"
 rx="3.7114346"
 ry="2.7282732" fill="#aaffaa" stroke="#008000" stroke-width="0.497199" stroke-dasharray="none" />
  <path
 d="M 0.24866609,10.589467 C 9.4412254,4.9854466 9.4412254,4.9854466 9.4412254,4.9854466"
 id="path1169" fill="#ff6600" stroke="#d45500" stroke-width="0.828665px" stroke-opacity="1" />
  </g>
  <g
 id="g306"
 transform="matrix(0.83676874,0,0,0.83676874,2.6836548,1.7958618)">
  <rect
 id="rect955"
 width="3.6778848"
 height="6.3810096"
 x="4.0258412"
 y="2.4609373" fill="#ffccaa" stroke="#d45500" stroke-width="0" stroke-dasharray="none" />
  <rect
 id="rect955-6"
 width="3.6778843"
 height="4.3371396"
 x="5.3046875"
 y="4.5048075" fill="#ffccaa" stroke="#d45500" stroke-width="0" stroke-dasharray="none" />
  <rect
 id="rect955-68"
 width="3.6778848"
 height="6.3810096"
 x="7.7433882"
 y="4.9393029" fill="#ffccaa" stroke="#d45500" stroke-width="0" stroke-dasharray="none" />
  <rect
 id="rect955-6-6"
 width="3.6778843"
 height="4.3371396"
 x="9.022234"
 y="6.9831729" fill="#ffccaa" stroke="#d45500" stroke-width="0" stroke-dasharray="none" />
  <path
 d="M 11.460937,4.5048077 H 9.6021631 V 3.8852163 L 7.7433894,2.0264423 H 3.40625 v 7.4350961 h 3.717548 v 2.4783646 h 6.195913 V 6.3635817 Z m 0,0.8762376 0.982539,0.9825364 H 11.460937 Z M 7.7433894,2.9026799 8.7259291,3.8852163 H 7.7433894 Z M 4.0258413,2.6460336 H 7.123798 V 4.5048077 H 8.982572 V 8.841947 H 4.0258413 Z M 12.700119,11.320312 H 7.7433894 V 9.4615384 H 9.6021631 V 5.124399 h 1.2391829 v 1.858774 h 1.858773 z"
 id="path2-0" fill="#ff6600" stroke-width="0.826122" />
  </g>
</svg>
