<?xml version="1.0" encoding="UTF-8" standalone="no"?>
  <svg
 role="img"
 focusable="false"
 aria-hidden="true"
 viewBox="0 0 14 14"
 id="svg2"
 version="1.1"
 width="100%"
 height="100%"
 xmlns="http://www.w3.org/2000/svg"
 xmlns:rdf="http://www.w3.org/1999/02/22-rdf-syntax-ns#"
 xmlns:cc="http://creativecommons.org/ns#"
 xmlns:dc="http://purl.org/dc/elements/1.1/">
  <metadata
 id="metadata12">
  <rdf:RDF>
  <cc:Work
 rdf:about="">
  <dc:format>image/svg+xml</dc:format>
  <dc:type
 rdf:resource="http://purl.org/dc/dcmitype/StillImage" />
  </cc:Work>
  </rdf:RDF>
  </metadata>
  <g
 id="g1"
 transform="translate(0.1779661,0.47457627)">
  <rect
 id="rect924"
 width="5.309072"
 height="4.7191753"
 x="2.1643627"
 y="6.5601668" fill="#ffeeaa" stroke="#aa8800" stroke-width="0.497199" stroke-dasharray="none" />
  <ellipse
 id="path1036"
 cx="4.2600341"
 cy="4.6777449"
 rx="3.7114346"
 ry="2.7282732" fill="#aaffaa" stroke="#008000" stroke-width="0.497199" stroke-dasharray="none" />
  <path
 d="M 0.24866609,10.589467 C 9.4412254,4.9854466 9.4412254,4.9854466 9.4412254,4.9854466"
 id="path1169" fill="#ff6600" stroke="#d45500" stroke-width="0.828665px" stroke-opacity="1" />
  </g>
  <path
 fill="#ff0000"
 d="m 5.5000002,5.4071996 q 0,-0.165174 0.115654,-0.280757 l 0.561792,-0.561642 q 0.11566,-0.115648 0.280892,-0.115648 0.165239,0 0.280893,0.115648 l 1.214467,1.214073 1.214461,-1.214073 q 0.115659,-0.115648 0.280891,-0.115648 0.1652386,0 0.2808926,0.115648 l 0.5617922,0.561642 q 0.11566,0.115583 0.11566,0.280757 0,0.165174 -0.11566,0.280822 l -1.2144608,1.214073 1.2144608,1.214073 q 0.11566,0.115583 0.11566,0.280757 0,0.165174 -0.11566,0.280821 l -0.5617922,0.561643 q -0.115654,0.115583 -0.2808926,0.115583 -0.165232,0 -0.280891,-0.115583 l -1.214461,-1.214073 -1.214467,1.214073 q -0.115654,0.115583 -0.280893,0.115583 -0.165232,0 -0.280892,-0.115583 l -0.561792,-0.561643 q -0.115654,-0.115647 -0.115654,-0.280821 0,-0.165174 0.115654,-0.280757 l 1.214467,-1.214073 -1.214467,-1.214073 q -0.115654,-0.115648 -0.115654,-0.280822 z"
 id="path4" stroke-width="0.645715" />
</svg>
