<?xml version="1.0" encoding="UTF-8" standalone="no"?>
<!-- Uploaded to: SVG Repo, www.svgrepo.com, Generator: SVG Repo Mixer Tools -->

<svg
   height="800px"
   width="800px"
   version="1.1"
   id="Layer_1"
   viewBox="0 0 511.88 511.88"
   xml:space="preserve"
   sodipodi:docname="delete_all.svg"
   inkscape:version="1.2.2 (732a01da63, 2022-12-09)"
   xmlns:inkscape="http://www.inkscape.org/namespaces/inkscape"
   xmlns:sodipodi="http://sodipodi.sourceforge.net/DTD/sodipodi-0.dtd"
   xmlns="http://www.w3.org/2000/svg"
   xmlns:svg="http://www.w3.org/2000/svg"><defs
   id="defs579" /><sodipodi:namedview
   id="namedview577"
   pagecolor="#ffffff"
   bordercolor="#000000"
   borderopacity="0.25"
   inkscape:showpageshadow="2"
   inkscape:pageopacity="0.0"
   inkscape:pagecheckerboard="0"
   inkscape:deskcolor="#d1d1d1"
   showgrid="false"
   inkscape:zoom="1.07875"
   inkscape:cx="280.41715"
   inkscape:cy="401.3905"
   inkscape:window-width="1920"
   inkscape:window-height="1017"
   inkscape:window-x="-8"
   inkscape:window-y="-8"
   inkscape:window-maximized="1"
   inkscape:current-layer="Layer_1" />





























<g
   id="g308"
   transform="matrix(1.1260756,0,0,1.1260756,-7.4519114,-64.204836)"><g
     id="g504">
	<polygon
   style="fill:#596366"
   points="82.365,334.599 427.364,334.599 427.364,346.075 82.365,346.075 "
   id="polygon500" />
	<path
   style="fill:#596366"
   d="m 365.68,307.583 c 25.343,0 46.861,16.019 54.99,38.493 H 310.571 c 8.248,-22.474 29.766,-38.493 54.989,-38.493 z"
   id="path502" />
</g><path
     style="fill:#e6e6e6"
     d="m 325.275,166.762 h 65.151 c 9.563,0 13.389,8.846 17.334,17.573 l 29.647,65.868 c 1.554,3.467 2.271,6.814 2.152,10.639 l -2.032,73.758 h -24.148 c -10.639,-15.182 -28.092,-25.104 -47.817,-25.104 -19.725,0 -37.178,9.922 -47.817,25.104 h -9.922 V 184.334 c 0,-9.683 7.77,-17.573 17.334,-17.573 h 0.118 z"
     id="path506" /><circle
     style="fill:#6b7f9e"
     cx="365.67999"
     cy="366.15799"
     r="47.817001"
     id="circle508" /><circle
     style="fill:#ecf0f1"
     cx="365.67999"
     cy="366.15799"
     r="28.451"
     id="circle510" /><circle
     style="fill:#ffffff"
     cx="365.67999"
     cy="366.15799"
     r="13.747"
     id="circle512" /><path
     style="fill:#5fdc68"
     d="M 296.106,157.079 H 80.213 c -6.455,0 -8.607,6.097 -11.835,11.835 l -48.654,86.668 c -4.304,7.77 -1.913,16.616 3.108,23.908 l 30.722,43.992 c 3.706,5.26 8.248,10.998 14.704,10.998 h 227.848 c 6.455,0 11.835,-5.26 11.835,-11.835 V 168.794 c 0,-6.455 -5.26,-11.835 -11.835,-11.835 z"
     id="path514" /><path
     style="fill:#7beb82"
     d="m 152.895,158.752 v 173.934 c 0,5.499 -8.488,5.499 -8.488,0 V 158.752 c 0,-5.499 8.488,-5.499 8.488,0 z m 134.365,0 v 173.934 c 0,5.499 -8.487,5.499 -8.487,0 V 158.752 c 0,-5.499 8.487,-5.499 8.487,0 z m -33.591,0 v 173.934 c 0,5.499 -8.488,5.499 -8.488,0 V 158.752 c 0,-5.499 8.488,-5.499 8.488,0 z m -33.591,0 v 173.934 c 0,5.499 -8.488,5.499 -8.488,0 V 158.752 c 0,-5.499 8.488,-5.499 8.488,0 z m -33.592,0 v 173.934 c 0,5.499 -8.488,5.499 -8.488,0 V 158.752 c 0.001,-5.499 8.488,-5.499 8.488,0 z"
     id="path516" /><g
     id="g522">
	<path
   style="fill:#56bf5d"
   d="m 132.692,157.079 h -3.108 l -40.525,85.353 c -1.076,2.391 -1.793,4.543 -2.152,7.173 l -4.304,33.233 c -0.12,1.076 -0.239,2.032 -0.239,3.108 v 48.773 h 3.108 v -48.773 c 0,-1.076 0.12,-2.032 0.239,-3.108 l 4.304,-33.233 c 0.359,-2.63 0.956,-4.782 2.152,-7.173 z"
   id="path518" />
	<polygon
   style="fill:#56bf5d"
   points="111.174,242.671 139.984,282.479 129.106,290.368 100.296,250.561 "
   id="polygon520" />
</g><polygon
     style="fill:#ecf0f1"
     points="80.332,206.808 108.425,244.823 102.209,249.246 74.236,211.231 "
     id="polygon524" /><circle
     style="fill:#ffe356"
     cx="78.419998"
     cy="211.231"
     r="10.281"
     id="circle526" /><circle
     style="fill:#fefefe"
     cx="78.419998"
     cy="211.231"
     r="4.184"
     id="circle528" /><path
     style="fill:#6b7f9e"
     d="m 219.599,342.728 h 57.141 c 5.499,0 9.922,4.543 9.922,9.922 v 14.823 c 0,5.499 -4.543,9.922 -9.922,9.922 h -57.141 c -5.499,0 -9.922,-4.543 -9.922,-9.922 V 352.65 c 0,-5.499 4.543,-9.922 9.922,-9.922 z"
     id="path530" /><circle
     style="fill:#ffe356"
     cx="134.246"
     cy="286.065"
     r="10.281"
     id="circle532" /><circle
     style="fill:#fefefe"
     cx="134.246"
     cy="286.065"
     r="4.184"
     id="circle534" /><path
     style="fill:#8597b1"
     d="m 348.346,186.247 h 40.405 c 6.097,0 10.042,4.901 12.193,9.922 l 21.996,51.164 c 2.152,5.021 -1.195,11.476 -7.292,11.476 h -67.302 c -6.097,0 -10.998,-4.423 -10.998,-9.922 v -52.718 c 10e-4,-5.499 5.021,-9.922 10.998,-9.922 z"
     id="path536" /><path
     style="fill:#6c7678"
     d="m 427.364,315.114 h 13.986 c 4.901,0 8.966,4.064 8.966,8.966 v 21.757 c 0,4.901 -4.064,8.966 -8.966,8.966 h -13.986 z"
     id="path538" /><path
     style="fill:#596366"
     d="m 153.492,307.583 c 25.343,0 46.861,16.019 54.989,38.493 H 98.383 c 8.248,-22.474 29.766,-38.493 54.989,-38.493 z"
     id="path540" /><circle
     style="fill:#6b7f9e"
     cx="153.492"
     cy="366.15799"
     r="47.817001"
     id="circle542" /><circle
     style="fill:#ecf0f1"
     cx="153.492"
     cy="366.15799"
     r="28.451"
     id="circle544" /><circle
     style="fill:#ffffff"
     cx="153.492"
     cy="366.15799"
     r="13.747"
     id="circle546" /><circle
     style="fill:#5da668"
     cx="215.29601"
     cy="237.64999"
     r="52.119999"
     id="circle548" /><circle
     style="fill:#ffe356"
     cx="215.29601"
     cy="237.64999"
     r="47.099998"
     id="circle550" /><g
     id="g558">
	<path
   style="fill:#56bf5d"
   d="m 189.116,225.218 16.138,-4.423 4.423,16.138 -3.706,-2.152 -7.173,12.432 h 11.117 -11.117 c -5.499,9.563 1.435,15.899 12.313,15.899 h -14.465 c -5.14,0 -9.563,-2.51 -12.193,-7.053 -2.63,-4.423 -2.63,-9.563 0,-13.986 l 8.488,-14.704 z"
   id="path552" />
	<path
   style="fill:#56bf5d"
   d="m 218.763,266.34 -11.835,-11.835 11.835,-11.835 v 4.543 h 13.15 v 0 c 10.998,0.837 12.432,-8.368 7.651,-16.616 l 6.575,11.476 c 2.63,4.423 2.63,9.563 0,13.986 -2.63,4.423 -7.053,7.053 -12.193,7.053 h -15.182 v 3.228 z"
   id="path554" />
	<path
   style="fill:#56bf5d"
   d="m 227.489,209.797 7.173,12.552 3.945,-2.271 -4.304,16.138 -16.138,-4.304 3.586,-2.032 -6.455,-11.237 c -7.77,-14.226 -17.334,0.12 -17.692,0.717 l 5.499,-9.563 c 2.63,-4.423 7.053,-7.053 12.193,-7.053 5.14,0 9.563,2.51 12.193,7.053 z"
   id="path556" />
</g><ellipse
     style="fill:#c6cbd6"
     cx="347.39001"
     cy="270.763"
     rx="13.986"
     ry="3.9449999"
     id="ellipse560" /><path
     style="fill:#e4e7ed"
     d="m 347.39,267.297 c 5.26,0 9.802,0.837 12.193,2.032 0.359,0.12 0.598,0.478 0.598,0.837 0,0.359 -0.239,0.717 -0.598,0.837 -2.391,1.195 -6.933,2.032 -12.193,2.032 -5.26,0 -9.802,-0.837 -12.193,-2.032 -0.359,-0.12 -0.598,-0.478 -0.598,-0.837 0,-0.359 0.239,-0.717 0.598,-0.837 2.391,-1.195 6.933,-2.032 12.193,-2.032 z"
     id="path562" /><g
     id="g568">
	<path
   style="fill:#ff7069"
   d="m 377.993,157.437 h 5.14 c 1.435,0 2.63,1.195 2.63,2.63 v 6.694 h -10.281 v -6.694 c 0,-1.435 1.195,-2.63 2.63,-2.63 z"
   id="path564" />
	<path
   style="fill:#ff7069"
   d="m 433.7,282.598 h 4.543 c 1.674,0 2.989,1.315 2.989,2.989 v 12.432 c 0,1.674 -1.315,2.989 -2.989,2.989 H 433.7 c -1.674,0 -2.989,-1.315 -2.989,-2.989 v -12.432 c 0,-1.674 1.315,-2.989 2.989,-2.989 z"
   id="path566" />
</g><path
     style="fill:#c6cbd6"
     d="m 326.47,185.171 h 1.674 v 137.952 c -0.598,0.478 -1.076,0.956 -1.674,1.435 V 185.052 Z"
     id="path570" /><path
     style="fill:#8597b1"
     d="m 216.252,347.51 h 63.836 c 0.956,0 1.674,0.717 1.674,1.674 v 0 c 0,0.956 -0.717,1.674 -1.674,1.674 h -63.836 c -0.956,0 -1.674,-0.717 -1.674,-1.674 v 0 c 0.001,-0.957 0.718,-1.674 1.674,-1.674 z"
     id="path572" /><path
     style="fill:#5d718f"
     d="m 346.075,191.985 h 40.405 c 6.097,0 10.042,4.901 12.193,9.922 l 21.996,51.164 c 0.478,1.076 0.717,2.271 0.717,3.467 2.271,-2.391 2.989,-5.977 1.674,-9.205 l -21.996,-51.164 c -2.152,-5.021 -6.097,-9.922 -12.193,-9.922 h -40.405 c -5.977,0 -10.759,4.304 -10.998,9.563 2.032,-2.271 5.14,-3.825 8.727,-3.825 z"
     id="path574" /></g>
</svg>
