<?xml version="1.0" encoding="UTF-8" standalone="no"?>
  <svg
 role="img"
 focusable="false"
 aria-hidden="true"
 viewBox="0 0 14 14"
 version="1.1"
 id="svg6"
 xmlns="http://www.w3.org/2000/svg">
  <g
 id="g245"
 transform="matrix(0.80453486,0,0,0.80453486,1.0946557,1.368256)">
  <g
 id="g882">
  <path
 d="m 0.40773791,0.03945634 c -0.29008998,0 -0.52539061,0.1689063 -0.52539061,0.3789063 V 13.66055 c 0,0.2101 0.23530063,0.378906 0.52539061,0.378906 H 5.2026598 c 0.29019,0 0.5234375,-0.168806 0.5234375,-0.378906 V 0.41836264 c 0,-0.21 -0.2332475,-0.3789063 -0.5234375,-0.3789063 z M 1.0932848,1.0980501 h 3.421875 v 3.2148438 h -3.421875 z m 0,4.2832032 h 3.421875 V 8.596097 h -3.421875 z m 0,4.2832026 h 3.421875 v 3.2167971 h -3.421875 z"
 id="path2" fill="#999999" />
  <path
 d="M 0.56089341,2.5672787 V 0.5737384 H 2.8042224 5.0475512 V 2.5672787 4.5608189 H 2.8042224 0.56089341 Z"
 id="path1898" fill="#ccffcc" fill-opacity="1" stroke="#d45500" stroke-width="0.0129196" />
  <path
 d="M 0.56076251,6.9646774 V 4.9711544 H 2.8042224 5.0476821 v 1.993523 1.9935231 H 2.8042224 0.56076251 Z"
 id="path1974" fill="#e6cccc" fill-opacity="1" stroke="#d45500" stroke-width="0.0129539" />
  <path
 d="M 0.56104805,11.362075 V 9.3685358 H 2.8042223 5.0473965 v 1.9935392 1.99354 H 2.8042223 0.56104805 Z"
 id="path2050" fill="#f0f0f0" fill-opacity="1" stroke="#d45500" stroke-width="0.0129192" />
  </g>
  </g>
  <g
 id="g3798"
 transform="matrix(0.54267566,0,0,0.54267566,5.5059816,3.3869972)">
  <circle
 cx="7"
 cy="7"
 r="6"
 fill="#4caf50"
 id="circle2915" />
  <g
 fill="#ffffff"
 id="g2921">
  <path
 d="M 6.1428571,4.1428571 H 7.8571429 V 9.8571429 H 6.1428571 Z"
 id="path2917" />
  <path
 d="M 4.1428571,6.1428571 H 9.8571429 V 7.8571429 H 4.1428571 Z"
 id="path2919" />
  </g>
  </g>
</svg>
