<?xml version="1.0" encoding="UTF-8" standalone="no"?>
  <svg
 role="img"
 focusable="false"
 aria-hidden="true"
 viewBox="0 0 14 14"
 version="1.1"
 id="svg6"
 xmlns="http://www.w3.org/2000/svg">
  <g
 id="g245"
 transform="matrix(0.80453486,0,0,0.80453486,1.0946557,1.368256)">
  <g
 id="g882">
  <path
 d="m 0.40773791,0.03945634 c -0.29008998,0 -0.52539061,0.1689063 -0.52539061,0.3789063 V 13.66055 c 0,0.2101 0.23530063,0.378906 0.52539061,0.378906 H 5.2026598 c 0.29019,0 0.5234375,-0.168806 0.5234375,-0.378906 V 0.41836264 c 0,-0.21 -0.2332475,-0.3789063 -0.5234375,-0.3789063 z M 1.0932848,1.0980501 h 3.421875 v 3.2148438 h -3.421875 z m 0,4.2832032 h 3.421875 V 8.596097 h -3.421875 z m 0,4.2832026 h 3.421875 v 3.2167971 h -3.421875 z"
 id="path2" fill="#999999" />
  <path
 d="M 0.56089341,2.5672787 V 0.5737384 H 2.8042224 5.0475512 V 2.5672787 4.5608189 H 2.8042224 0.56089341 Z"
 id="path1898" fill="#ccffcc" fill-opacity="1" stroke="#d45500" stroke-width="0.0129196" />
  <path
 d="M 0.56076251,6.9646774 V 4.9711544 H 2.8042224 5.0476821 v 1.993523 1.9935231 H 2.8042224 0.56076251 Z"
 id="path1974" fill="#e6cccc" fill-opacity="1" stroke="#d45500" stroke-width="0.0129539" />
  <path
 d="M 0.56104805,11.362075 V 9.3685358 H 2.8042223 5.0473965 v 1.9935392 1.99354 H 2.8042223 0.56104805 Z"
 id="path2050" fill="#f0f0f0" fill-opacity="1" stroke="#d45500" stroke-width="0.0129192" />
  </g>
  </g>
  <g
 id="g306"
 transform="matrix(0.83676874,0,0,0.83676874,1.3650998,1.139872)">
  <rect
 id="rect955"
 width="3.6778848"
 height="6.3810096"
 x="4.0258412"
 y="2.4609373" fill="#ffccaa" stroke="#d45500" stroke-width="0" stroke-dasharray="none" />
  <rect
 id="rect955-6"
 width="3.6778843"
 height="4.3371396"
 x="5.3046875"
 y="4.5048075" fill="#ffccaa" stroke="#d45500" stroke-width="0" stroke-dasharray="none" />
  <rect
 id="rect955-68"
 width="3.6778848"
 height="6.3810096"
 x="7.7433882"
 y="4.9393029" fill="#ffccaa" stroke="#d45500" stroke-width="0" stroke-dasharray="none" />
  <rect
 id="rect955-6-6"
 width="3.6778843"
 height="4.3371396"
 x="9.022234"
 y="6.9831729" fill="#ffccaa" stroke="#d45500" stroke-width="0" stroke-dasharray="none" />
  <path
 d="M 11.460937,4.5048077 H 9.6021631 V 3.8852163 L 7.7433894,2.0264423 H 3.40625 v 7.4350961 h 3.717548 v 2.4783646 h 6.195913 V 6.3635817 Z m 0,0.8762376 0.982539,0.9825364 H 11.460937 Z M 7.7433894,2.9026799 8.7259291,3.8852163 H 7.7433894 Z M 4.0258413,2.6460336 H 7.123798 V 4.5048077 H 8.982572 V 8.841947 H 4.0258413 Z M 12.700119,11.320312 H 7.7433894 V 9.4615384 H 9.6021631 V 5.124399 h 1.2391829 v 1.858774 h 1.858773 z"
 id="path2-0" fill="#ff6600" stroke-width="0.826122" />
  </g>
</svg>
