<?xml version="1.0" encoding="UTF-8" standalone="no"?>
  <svg
 role="img"
 focusable="false"
 aria-hidden="true"
 viewBox="0 0 14 14"
 version="1.1"
 id="svg12"
 xmlns="http://www.w3.org/2000/svg">
  <ellipse
 id="path2"
 cx="7"
 cy="7.000001"
 rx="3.4958184"
 ry="3.7968936" fill="#ffffff" stroke="none" stroke-width="2" />
  <g
 style="fill:none;fill-rule:nonzero;stroke:none;stroke-width:0;stroke-linecap:butt;stroke-linejoin:miter;stroke-miterlimit:10;stroke-dasharray:none"
 transform="matrix(0.13526215,0,0,0.13526215,0.9132035,0.9132035)"
 id="g2">
  <path
 d="M 0,45 C 0,69.853 20.147,90 45,90 69.853,90 90,69.853 90,45 90,20.147 69.853,0 45,0 20.147,0 0,20.147 0,45 Z M 46.209,21.459 64.575,39.825 c 0.668,0.668 0.668,1.75 0,2.418 l -6.055,6.055 c -0.668,0.668 -1.751,0.668 -2.418,0 l -5.11,-5.111 v 24.144 c 0,0.944 -0.766,1.71 -1.71,1.71 h -8.563 c -0.944,0 -1.71,-0.766 -1.71,-1.71 V 43.187 l -5.111,5.111 c -0.668,0.668 -1.751,0.668 -2.418,0 l -6.055,-6.055 c -0.668,-0.668 -0.668,-1.751 0,-2.418 L 43.791,21.459 c 0.668,-0.668 1.751,-0.668 2.418,0 z"
 stroke-linecap="round"
 id="path1" opacity="1" fill="#5ba0d0" stroke="none" stroke-width="1" stroke-dasharray="none" />
  </g>
</svg>
