<?xml version="1.0" encoding="UTF-8" standalone="no"?>
<svg
   role="img"
   focusable="false"
   aria-hidden="true"
   viewBox="0 0 14 14"
   version="1.1"
   id="svg12"
   sodipodi:docname="move_down.svg"
   inkscape:version="1.3.2 (091e20e, 2023-11-25, custom)"
   xmlns:inkscape="http://www.inkscape.org/namespaces/inkscape"
   xmlns:sodipodi="http://sodipodi.sourceforge.net/DTD/sodipodi-0.dtd"
   xmlns="http://www.w3.org/2000/svg"
   xmlns:svg="http://www.w3.org/2000/svg">
  <defs
     id="defs16" />
  <sodipodi:namedview
     id="namedview14"
     pagecolor="#ffffff"
     bordercolor="#000000"
     borderopacity="0.25"
     inkscape:showpageshadow="2"
     inkscape:pageopacity="0.0"
     inkscape:pagecheckerboard="0"
     inkscape:deskcolor="#d1d1d1"
     showgrid="false"
     inkscape:zoom="29.892857"
     inkscape:cx="13.080048"
     inkscape:cy="4.1983274"
     inkscape:window-width="1920"
     inkscape:window-height="991"
     inkscape:window-x="-9"
     inkscape:window-y="-9"
     inkscape:window-maximized="1"
     inkscape:current-layer="svg12" />
  <ellipse
     style="fill:#ffffff;stroke:none;stroke-width:2;stroke-linecap:round"
     id="path2"
     cx="-7.0000005"
     cy="-6.9999995"
     rx="3.4958184"
     ry="3.7968936"
     transform="scale(-1)" />
  <g
     style="fill:none;fill-rule:nonzero;stroke:none;stroke-width:0;stroke-linecap:butt;stroke-linejoin:miter;stroke-miterlimit:10;stroke-dasharray:none"
     transform="matrix(-0.13526215,0,0,-0.13526215,13.086797,13.086797)"
     id="g2">
	<path
   d="M 0,45 C 0,69.853 20.147,90 45,90 69.853,90 90,69.853 90,45 90,20.147 69.853,0 45,0 20.147,0 0,20.147 0,45 Z M 46.209,21.459 64.575,39.825 c 0.668,0.668 0.668,1.75 0,2.418 l -6.055,6.055 c -0.668,0.668 -1.751,0.668 -2.418,0 l -5.11,-5.111 v 24.144 c 0,0.944 -0.766,1.71 -1.71,1.71 h -8.563 c -0.944,0 -1.71,-0.766 -1.71,-1.71 V 43.187 l -5.111,5.111 c -0.668,0.668 -1.751,0.668 -2.418,0 l -6.055,-6.055 c -0.668,-0.668 -0.668,-1.751 0,-2.418 L 43.791,21.459 c 0.668,-0.668 1.751,-0.668 2.418,0 z"
   style="opacity:1;fill:#5ba0d0;fill-rule:nonzero;stroke:none;stroke-width:1;stroke-linecap:butt;stroke-linejoin:miter;stroke-miterlimit:10;stroke-dasharray:none"
   stroke-linecap="round"
   id="path1" />

</g>
</svg>
