<?xml version="1.0" encoding="UTF-8" standalone="no"?>
<svg
   role="img"
   focusable="false"
   aria-hidden="true"
   viewBox="0 0 14 14"
   version="1.1"
   id="svg4"
   sodipodi:docname="recompute.svg"
   inkscape:version="1.4.2 (f4327f4, 2025-05-13)"
   xmlns:inkscape="http://www.inkscape.org/namespaces/inkscape"
   xmlns:sodipodi="http://sodipodi.sourceforge.net/DTD/sodipodi-0.dtd"
   xmlns="http://www.w3.org/2000/svg"
   xmlns:svg="http://www.w3.org/2000/svg">
  <defs
     id="defs4" />
  <sodipodi:namedview
     id="namedview4"
     pagecolor="#ffffff"
     bordercolor="#000000"
     borderopacity="0.25"
     inkscape:showpageshadow="2"
     inkscape:pageopacity="0.0"
     inkscape:pagecheckerboard="0"
     inkscape:deskcolor="#d1d1d1"
     inkscape:zoom="40.759655"
     inkscape:cx="5.0172161"
     inkscape:cy="6.7591347"
     inkscape:window-width="1920"
     inkscape:window-height="1009"
     inkscape:window-x="-8"
     inkscape:window-y="-8"
     inkscape:window-maximized="1"
     inkscape:current-layer="svg4" />
  <g
     id="g4"
     transform="matrix(0.85863706,0,0,0.85863706,0.9895406,0.9895406)">
    <path
       fill="#4caf50"
       d="M 11.909091,3.1818182 H 2.0909091 c -0.6,0 -1.090909,0.4909091 -1.090909,1.0909091 V 8.6363636 H 13 V 4.2727273 c 0,-0.6 -0.490909,-1.0909091 -1.090909,-1.0909091 z"
       id="path1" />
    <path
       fill="#37474f"
       d="m 1.0000001,8.6363636 v 1.0909091 c 0,0.6000003 0.490909,1.0909093 1.090909,1.0909093 H 6.7272727 V 9.4545454 C 6.7272727,9.2909091 6.8363636,9.1818182 7,9.1818182 c 0.1636364,0 0.2727273,0.1090909 0.2727273,0.2727272 v 1.3636366 h 4.6363637 c 0.6,0 1.090909,-0.490909 1.090909,-1.0909093 V 8.6363636 Z"
       id="path2" />
    <path
       fill="#ff9800"
       d="M 2.3636364,9.1818182 H 2.909091 V 10.818182 H 2.3636364 Z m 1.0909091,0 H 4 V 10.818182 H 3.4545455 Z m 1.0909091,0 H 5.0909091 V 10.818182 H 4.5454546 Z m 1.0909091,0 H 6.1818182 V 10.818182 H 5.6363637 Z m 2.1818181,0 H 8.3636364 V 10.818182 H 7.8181818 Z m 1.0909091,0 H 9.4545454 V 10.818182 H 8.9090909 Z m 1.0909091,0 h 0.545455 V 10.818182 H 10 Z m 1.090909,0 h 0.545455 v 1.6363638 h -0.545455 z"
       id="path3" />
    <path
       fill="#37474f"
       d="M 5.9090909,4.8181818 H 8.0909091 V 7.5454545 H 5.9090909 Z m 3.2727273,0 H 11.363636 V 7.5454545 H 9.1818182 Z m -6.5454545,0 H 4.8181818 V 7.5454545 H 2.6363637 Z"
       id="path4" />
  </g>
  <path
     d="M 13.326373,4.5232812 V 1.3196483 L 12.268847,2.3771737 C 11.417443,1.4781506 10.339672,0.8356297 9.1342289,0.51264309 7.4005908,0.04817872 5.5898929,0.28650754 4.0359293,1.1839205 2.4817306,2.0813338 1.3701446,3.5301691 0.90544564,5.2635725 0.44098205,6.9972068 0.67931333,8.8076768 1.5767246,10.361876 c 0.8971824,1.55419 2.3462462,2.665777 4.0796555,3.130246 0.5718908,0.153206 1.151383,0.227054 1.7253505,0.227054 2.323239,0 4.5517074,-1.210968 5.7803864,-3.266436 L 11.877308,9.6848424 C 10.686585,11.676357 8.287886,12.647387 6.0437771,12.046273 4.6963935,11.685329 3.5703096,10.821277 2.8730394,9.6133016 2.1757691,8.4053257 1.990348,6.9981259 2.351525,5.6509715 2.7124669,4.3035874 3.5765201,3.1775066 4.7844968,2.4802345 5.9922448,1.7827327 7.3994414,1.5975448 8.7468249,1.9584887 9.6969244,2.2131498 10.542574,2.7247752 11.207871,3.4381506 l -1.08513,1.0851306 z"
     style="fill:#417ce5;fill-opacity:1;fill-rule:nonzero;stroke:none;stroke-width:0.230047;stroke-linecap:butt;stroke-linejoin:miter;stroke-miterlimit:10;stroke-dasharray:none"
     stroke-linecap="round"
     id="path1-4" />
</svg>
