<?xml version="1.0" encoding="UTF-8" standalone="no"?>
  <svg
 role="img"
 focusable="false"
 aria-hidden="true"
 viewBox="0 0 14 14"
 version="1.1"
 id="svg12"
 xmlns="http://www.w3.org/2000/svg">
  <g
 id="g3"
 transform="matrix(0.59749028,0,0,0.59749028,-0.16988336,-0.4686285)">
  <path
 d="M 5.5,8.557 A 2.08,2.08 0 0 1 7,8 V 9 C 6.26,9 6.052,9.417 6,9.571 v 5.86 C 6.048,15.574 6.251,16 7,16 v 1 A 2.08,2.08 0 0 1 5.5,16.443 2.08,2.08 0 0 1 4,17 v -1 c 0.74,0 0.948,-0.417 1,-0.571 V 9.569 C 4.952,9.426 4.749,9 4,9 V 8 A 2.08,2.08 0 0 1 5.5,8.557 Z M 23,6.5 v 12 A 1.502,1.502 0 0 1 21.5,20 H 2.5 A 1.502,1.502 0 0 1 1,18.5 V 6.5 A 1.502,1.502 0 0 1 2.5,5 h 19 A 1.502,1.502 0 0 1 23,6.5 Z m -1,0 A 0.5,0.5 0 0 0 21.5,6 H 2.5 A 0.5,0.5 0 0 0 2,6.5 v 12 A 0.5,0.5 0 0 0 2.5,19 h 19 A 0.5,0.5 0 0 0 22,18.5 Z M 12,17 h 1 v -1 h -1 z m -2,0 h 1 V 16 H 10 Z M 8,17 H 9 V 16 H 8 Z m 6,0 h 1 v -1 h -1 z m 4,0 h 1 v -1 h -1 z m -2,0 h 1 v -1 h -1 z"
 id="path1-4" fill="#666666" />
  <path
 d="m 76.729684,631.07268 c -2.234856,-1.01495 -5.134485,-3.34716 -6.443618,-5.18269 L 67.905824,622.55266 67.651028,417.25731 67.396232,211.96195 69.65727,208.6068 c 1.243571,-1.84534 3.766207,-4.36949 5.605857,-5.60923 l 3.344819,-2.25408 H 400 721.39205 l 3.34482,2.25408 c 1.83966,1.23974 4.36229,3.76389 5.60586,5.60923 l 2.26104,3.35515 -0.25479,205.29536 -0.2548,205.29535 -2.38025,3.33733 c -1.30913,1.83553 -4.20876,4.16774 -6.44362,5.18269 -3.93567,1.78736 -14.09543,1.84537 -323.27031,1.84537 -309.174877,0 -319.334644,-0.058 -323.270316,-1.84537 z m 76.859886,-66.14985 c 7.37605,-1.89365 18.31636,-7.16179 24.11417,-11.61184 2.59456,-1.99144 5.1254,-3.62078 5.62407,-3.62078 0.49868,0 2.16769,1.06107 3.70893,2.35793 10.19112,8.57526 30.05375,15.48594 44.50959,15.48594 h 2.40658 V 550.3271 533.12011 l -5.70964,-0.59677 c -11.59103,-1.21151 -20.34949,-5.86129 -25.07446,-13.31179 l -2.92098,-4.60591 v -97.49101 c 0,-94.54836 0.0581,-97.60486 1.92425,-101.26285 4.16039,-8.15504 13.69928,-13.74678 25.08938,-14.70751 l 6.69145,-0.56441 V 283.37543 266.171 h -4.99842 c -12.5643,0 -29.69147,5.92785 -40.32636,13.95726 l -5.29901,4.0008 -3.68439,-2.9156 c -10.21834,-8.08617 -25.13031,-13.77999 -38.62862,-14.74952 l -8.17844,-0.58742 v 17.49544 17.49545 h 4.35655 c 10.95409,0 23.17997,6.66483 27.40007,14.93691 1.89769,3.71976 1.94846,6.34179 1.94846,100.61108 0,89.31462 -0.13112,97.06809 -1.69733,100.36864 -4.02114,8.47392 -13.96598,14.45033 -26.16777,15.72567 l -5.83998,0.6104 v 17.32345 17.32346 l 7.61683,-0.71377 c 4.18925,-0.39256 10.10003,-1.35125 13.13507,-2.13042 z m 146.78218,-14.73696 v -17.3482 h -16.85254 -16.85254 v 17.3482 17.34821 h 16.85254 16.85254 z m 66.41883,0 v -17.3482 H 349.93804 333.0855 v 17.3482 17.34821 h 16.85254 16.85254 z m 67.41016,0 v -17.3482 h -17.3482 -17.3482 v 17.3482 17.34821 h 17.3482 17.3482 z m 66.41884,0 v -17.3482 h -17.3482 -17.34821 v 17.3482 17.34821 h 17.34821 17.3482 z m 66.41883,0 v -17.3482 h -16.85254 -16.85254 v 17.3482 17.34821 h 16.85254 16.85254 z m 66.41884,0 v -17.3482 h -16.85254 -16.85254 v 17.3482 17.34821 h 16.85254 16.85254 z"
 id="path3"
 transform="scale(0.03)" fill="#cccccc" stroke-width="0.842627" />
  </g>
</svg>
